M48
; DRILL file {KiCad 7.99.0-1092-g932f171e96} date Mon 26 Jun 2023 03:17:48 CEST
; FORMAT={-:-/ absolute / inch / decimal}
; #@! TF.CreationDate,2023-06-26T03:17:48+02:00
; #@! TF.GenerationSoftware,Kicad,Pcbnew,7.99.0-1092-g932f171e96
; #@! TF.FileFunction,Plated,1,2,PTH
FMAT,2
INCH
; #@! TA.AperFunction,Plated,PTH,ViaDrill
T1C0.0118
; #@! TA.AperFunction,Plated,PTH,ComponentDrill
T2C0.0118
; #@! TA.AperFunction,Plated,PTH,ViaDrill
T3C0.0157
; #@! TA.AperFunction,Plated,PTH,ComponentDrill
T4C0.0315
; #@! TA.AperFunction,Plated,PTH,ComponentDrill
T5C0.0433
; #@! TA.AperFunction,Plated,PTH,ComponentDrill
T6C0.0630
%
G90
G05
T1
X4.6931Y-2.1929
X4.7443Y-2.1929
X4.7915Y-2.1929
X5.0079Y-2.3504
X5.0551Y-2.3504
X5.1063Y-2.3504
X5.2008Y-1.874
X5.4173Y-2.6693
X5.6142Y-1.8179
X5.6575Y-1.685
X6.0291Y-2.2602
X6.1339Y-2.1693
X6.1339Y-2.3465
X6.2953Y-2.7992
X6.2953Y-2.8425
X6.2953Y-2.8858
X6.3071Y-2.2638
X6.3071Y-2.2638
X6.3425Y-2.7992
X6.3425Y-2.8425
X6.3425Y-2.8858
X6.3858Y-2.7992
X6.3858Y-2.8425
X6.3858Y-2.8858
X6.4449Y-2.2638
X6.5236Y-2.2638
X6.5945Y-2.2638
T2
X5.7402Y-1.5413
X5.7402Y-1.5886
X5.7402Y-1.6398
X5.7402Y-1.6831
X5.7874Y-1.5413
X5.7874Y-1.5886
X5.7874Y-1.6398
X5.7874Y-1.6831
T3
X4.9094Y-1.7953
X4.9094Y-1.8307
X5.0925Y-1.7953
X5.0925Y-1.8307
X5.1378Y-1.6024
X5.1378Y-1.6024
X5.1378Y-1.6339
X5.1378Y-1.6654
X5.2244Y-2.4291
X5.2874Y-2.5866
X5.3248Y-1.6043
X5.3248Y-1.6339
X5.3248Y-1.6634
X5.3642Y-1.6043
X5.3642Y-1.6339
X5.3642Y-1.6634
X5.5197Y-1.5079
X5.6339Y-2.8504
X5.7441Y-2.6654
X5.7441Y-2.7598
X5.7835Y-2.6654
X5.7874Y-3.0157
X5.8346Y-2.8425
X5.8543Y-1.4488
X6.1142Y-2.4606
X6.2579Y-2.3819
T5
X5.337Y-3.0591
X5.437Y-3.0591
T6
X4.485Y-1.5866
X4.5047Y-2.9803
X4.685Y-1.5866
X4.7047Y-2.9803
X4.9457Y-2.9803
X5.1457Y-2.9803
T4
G00X5.625Y-2.9624
M15
G01X5.625Y-2.9939
M16
G05
G00X5.625Y-3.1309
M15
G01X5.625Y-3.1545
M16
G05
G00X5.9656Y-2.9624
M15
G01X5.9656Y-2.9939
M16
G05
G00X5.9656Y-3.1309
M15
G01X5.9656Y-3.1545
M16
G05
T0
M30
