%TF.GenerationSoftware,KiCad,Pcbnew,7.99.0-1092-g932f171e96*%
%TF.CreationDate,2023-06-26T03:17:45+02:00*%
%TF.ProjectId,irrigation,69727269-6761-4746-996f-6e2e6b696361,0.1*%
%TF.SameCoordinates,Original*%
%TF.FileFunction,Copper,L2,Bot*%
%TF.FilePolarity,Positive*%
%FSLAX46Y46*%
G04 Gerber Fmt 4.6, Leading zero omitted, Abs format (unit mm)*
G04 Created by KiCad (PCBNEW 7.99.0-1092-g932f171e96) date 2023-06-26 03:17:45*
%MOMM*%
%LPD*%
G01*
G04 APERTURE LIST*
%TA.AperFunction,ComponentPad*%
%ADD10R,1.800000X1.800000*%
%TD*%
%TA.AperFunction,ComponentPad*%
%ADD11C,1.800000*%
%TD*%
%TA.AperFunction,SMDPad,CuDef*%
%ADD12R,2.950000X4.500000*%
%TD*%
%TA.AperFunction,ComponentPad*%
%ADD13C,0.600000*%
%TD*%
%TA.AperFunction,ComponentPad*%
%ADD14C,2.400000*%
%TD*%
%TA.AperFunction,ComponentPad*%
%ADD15O,1.200000X2.000000*%
%TD*%
%TA.AperFunction,ComponentPad*%
%ADD16O,1.200000X1.800000*%
%TD*%
%TA.AperFunction,ViaPad*%
%ADD17C,0.700000*%
%TD*%
%TA.AperFunction,ViaPad*%
%ADD18C,0.800000*%
%TD*%
%TA.AperFunction,Conductor*%
%ADD19C,0.500000*%
%TD*%
%TA.AperFunction,Conductor*%
%ADD20C,1.000000*%
%TD*%
%TA.AperFunction,Conductor*%
%ADD21C,0.250000*%
%TD*%
G04 APERTURE END LIST*
D10*
%TO.P,J5,1,Pin_1*%
%TO.N,/GPIO4*%
X138100000Y-77700000D03*
D11*
%TO.P,J5,2,Pin_2*%
%TO.N,GND*%
X135560000Y-77700000D03*
%TD*%
D12*
%TO.P,U1,9,GNDPAD*%
%TO.N,GND*%
X146400000Y-40950000D03*
D13*
X147000000Y-42750000D03*
X147000000Y-41650000D03*
X147000000Y-40350000D03*
X145800000Y-42750000D03*
X145800000Y-39150000D03*
X145800000Y-41650000D03*
X145800000Y-40350000D03*
X147000000Y-39150000D03*
%TD*%
D14*
%TO.P,J1,1,Pin_1*%
%TO.N,Net-(J1-Pin_1)*%
X119000000Y-40300000D03*
%TO.P,J1,2,Pin_2*%
%TO.N,GND*%
X113920000Y-40300000D03*
%TD*%
D15*
%TO.P,J4,0*%
%TO.N,GND*%
X142875000Y-75645500D03*
%TO.P,J4,1*%
X151525000Y-75645500D03*
D16*
%TO.P,J4,2*%
X151525000Y-79825500D03*
%TO.P,J4,3*%
X142875000Y-79825500D03*
%TD*%
D14*
%TO.P,J3,1,Pin_1*%
%TO.N,+12V*%
X125620000Y-75700000D03*
%TO.P,J3,2,Pin_2*%
%TO.N,Net-(D6-A)*%
X130700000Y-75700000D03*
%TD*%
%TO.P,J2,1,Pin_1*%
%TO.N,+12V*%
X114420000Y-75700000D03*
%TO.P,J2,2,Pin_2*%
%TO.N,Net-(D7-A)*%
X119500000Y-75700000D03*
%TD*%
D17*
%TO.N,/USB_VBUS*%
X132100000Y-47600000D03*
D18*
X124700000Y-46500000D03*
X124700000Y-45600000D03*
D17*
%TO.N,GND*%
X121705000Y-55700000D03*
X120505000Y-55700000D03*
X119205000Y-55700000D03*
D18*
X129350000Y-46500000D03*
X129350000Y-45600000D03*
%TO.N,/USB_VBUS*%
X132700000Y-61700000D03*
X134300000Y-65700000D03*
X145900000Y-70100000D03*
%TO.N,GND*%
X145900000Y-67700000D03*
%TO.N,Net-(J2-CC1)*%
X147000000Y-76600000D03*
X143100000Y-72400000D03*
%TO.N,/USB_D+*%
X146900000Y-67700000D03*
X148200000Y-72200000D03*
%TO.N,GND*%
X148700000Y-36800000D03*
X140200000Y-38300000D03*
X130500000Y-42300000D03*
X130500000Y-41500000D03*
X130500000Y-40700000D03*
X130500000Y-40700000D03*
X158950000Y-60500000D03*
D17*
X161100000Y-73300000D03*
X161100000Y-72200000D03*
X161100000Y-71100000D03*
X162200000Y-71100000D03*
X162200000Y-72200000D03*
X162200000Y-73300000D03*
X159900000Y-73300000D03*
X159900000Y-72200000D03*
X159900000Y-71100000D03*
%TO.N,Net-(D6-A)*%
X129700000Y-59700000D03*
X128400000Y-59700000D03*
X127200000Y-59700000D03*
%TO.N,+3V3*%
X153140000Y-57410000D03*
X137600000Y-67800000D03*
D18*
%TO.N,GND*%
X155300000Y-62500000D03*
D17*
X167500000Y-57500000D03*
X165700000Y-57500000D03*
X163700000Y-57500000D03*
X160200000Y-57500000D03*
X160200000Y-57500000D03*
X155800000Y-59600000D03*
X155800000Y-55100000D03*
D18*
%TO.N,+12V*%
X135250000Y-41500000D03*
X135250000Y-42250000D03*
X136250000Y-42250000D03*
X136250000Y-41500000D03*
X136250000Y-40750000D03*
X135250000Y-40750000D03*
D17*
%TO.N,Net-(U1-VSENSE)*%
X142600000Y-46175000D03*
X143700000Y-42800000D03*
%TD*%
D19*
%TO.N,/USB_VBUS*%
X132700000Y-61700000D02*
X132100000Y-61100000D01*
X132100000Y-61100000D02*
X132100000Y-53900000D01*
X132100000Y-53900000D02*
X132100000Y-47600000D01*
X132100000Y-53900000D02*
X124700000Y-46500000D01*
D20*
%TO.N,+12V*%
X135250000Y-42250000D02*
X135250000Y-61804928D01*
X135250000Y-61804928D02*
X125620000Y-71434928D01*
X125620000Y-71434928D02*
X125620000Y-75700000D01*
D19*
%TO.N,/USB_VBUS*%
X134300000Y-65700000D02*
X134369336Y-65700000D01*
X134369336Y-65700000D02*
X138769336Y-70100000D01*
X138769336Y-70100000D02*
X145900000Y-70100000D01*
D21*
%TO.N,Net-(J2-CC1)*%
X147000000Y-76600000D02*
X147000000Y-76300000D01*
X147000000Y-76300000D02*
X143100000Y-72400000D01*
D19*
%TO.N,/USB_D+*%
X146900000Y-67700000D02*
X146900000Y-70900000D01*
X146900000Y-70900000D02*
X148200000Y-72200000D01*
%TO.N,+3V3*%
X153140000Y-57410000D02*
X147990000Y-57410000D01*
X147990000Y-57410000D02*
X137600000Y-67800000D01*
%TO.N,Net-(U1-VSENSE)*%
X142600000Y-46175000D02*
X142600000Y-43900000D01*
X142600000Y-43900000D02*
X143700000Y-42800000D01*
%TD*%
%TA.AperFunction,Conductor*%
%TO.N,GND*%
G36*
X168342539Y-34920185D02*
G01*
X168388294Y-34972989D01*
X168399500Y-35024500D01*
X168399500Y-81075500D01*
X168379815Y-81142539D01*
X168327011Y-81188294D01*
X168275500Y-81199500D01*
X152301050Y-81199500D01*
X152234011Y-81179815D01*
X152188256Y-81127011D01*
X152178312Y-81057853D01*
X152207337Y-80994297D01*
X152229124Y-80974492D01*
X152248621Y-80960608D01*
X152248625Y-80960604D01*
X152393592Y-80808567D01*
X152507166Y-80631842D01*
X152585244Y-80436814D01*
X152625000Y-80230537D01*
X152625000Y-80075500D01*
X151925000Y-80075500D01*
X151925000Y-79575500D01*
X152625000Y-79575500D01*
X152625000Y-79473101D01*
X152610034Y-79316377D01*
X152610033Y-79316373D01*
X152550850Y-79114813D01*
X152454586Y-78928085D01*
X152324731Y-78762962D01*
X152324728Y-78762959D01*
X152165969Y-78625394D01*
X152165958Y-78625385D01*
X151984039Y-78520355D01*
X151984032Y-78520352D01*
X151785516Y-78451644D01*
X151775000Y-78450132D01*
X151775000Y-79209814D01*
X151763045Y-79197859D01*
X151650148Y-79140335D01*
X151525000Y-79120514D01*
X151399852Y-79140335D01*
X151286955Y-79197859D01*
X151275000Y-79209814D01*
X151275000Y-78454240D01*
X151274999Y-78454240D01*
X151163594Y-78481268D01*
X151163582Y-78481272D01*
X150972497Y-78568537D01*
X150972496Y-78568538D01*
X150801380Y-78690389D01*
X150801374Y-78690395D01*
X150656407Y-78842432D01*
X150542833Y-79019157D01*
X150464755Y-79214185D01*
X150425000Y-79420462D01*
X150425000Y-79575500D01*
X151125000Y-79575500D01*
X151125000Y-80075500D01*
X150425000Y-80075500D01*
X150425000Y-80177898D01*
X150439965Y-80334622D01*
X150439966Y-80334626D01*
X150499149Y-80536186D01*
X150595413Y-80722914D01*
X150725268Y-80888037D01*
X150725271Y-80888040D01*
X150833461Y-80981787D01*
X150871235Y-81040565D01*
X150871235Y-81110435D01*
X150833461Y-81169213D01*
X150769905Y-81198238D01*
X150752258Y-81199500D01*
X143651050Y-81199500D01*
X143584011Y-81179815D01*
X143538256Y-81127011D01*
X143528312Y-81057853D01*
X143557337Y-80994297D01*
X143579124Y-80974492D01*
X143598621Y-80960608D01*
X143598625Y-80960604D01*
X143743592Y-80808567D01*
X143857166Y-80631842D01*
X143935244Y-80436814D01*
X143975000Y-80230537D01*
X143975000Y-80075500D01*
X143275000Y-80075500D01*
X143275000Y-79575500D01*
X143975000Y-79575500D01*
X143975000Y-79473101D01*
X143960034Y-79316377D01*
X143960033Y-79316373D01*
X143900850Y-79114813D01*
X143804586Y-78928085D01*
X143674731Y-78762962D01*
X143674728Y-78762959D01*
X143515969Y-78625394D01*
X143515958Y-78625385D01*
X143334039Y-78520355D01*
X143334032Y-78520352D01*
X143135516Y-78451644D01*
X143125000Y-78450132D01*
X143125000Y-79209814D01*
X143113045Y-79197859D01*
X143000148Y-79140335D01*
X142875000Y-79120514D01*
X142749852Y-79140335D01*
X142636955Y-79197859D01*
X142625000Y-79209814D01*
X142625000Y-78454240D01*
X142624999Y-78454240D01*
X142513594Y-78481268D01*
X142513582Y-78481272D01*
X142322497Y-78568537D01*
X142322496Y-78568538D01*
X142151380Y-78690389D01*
X142151374Y-78690395D01*
X142006407Y-78842432D01*
X141892833Y-79019157D01*
X141814755Y-79214185D01*
X141775000Y-79420462D01*
X141775000Y-79575500D01*
X142475000Y-79575500D01*
X142475000Y-80075500D01*
X141775000Y-80075500D01*
X141775000Y-80177898D01*
X141789965Y-80334622D01*
X141789966Y-80334626D01*
X141849149Y-80536186D01*
X141945413Y-80722914D01*
X142075268Y-80888037D01*
X142075271Y-80888040D01*
X142183461Y-80981787D01*
X142221235Y-81040565D01*
X142221235Y-81110435D01*
X142183461Y-81169213D01*
X142119905Y-81198238D01*
X142102258Y-81199500D01*
X111224500Y-81199500D01*
X111157461Y-81179815D01*
X111111706Y-81127011D01*
X111100500Y-81075500D01*
X111100500Y-77700005D01*
X134155202Y-77700005D01*
X134174361Y-77931218D01*
X134231317Y-78156135D01*
X134324516Y-78368609D01*
X134408811Y-78497633D01*
X135034070Y-77872375D01*
X135036884Y-77885915D01*
X135106442Y-78020156D01*
X135209638Y-78130652D01*
X135338819Y-78209209D01*
X135390002Y-78223549D01*
X134761199Y-78852351D01*
X134791650Y-78876050D01*
X134995697Y-78986476D01*
X134995706Y-78986479D01*
X135215139Y-79061811D01*
X135443993Y-79100000D01*
X135676007Y-79100000D01*
X135904860Y-79061811D01*
X136124293Y-78986479D01*
X136124302Y-78986476D01*
X136328350Y-78876050D01*
X136358798Y-78852351D01*
X135731568Y-78225121D01*
X135848458Y-78174349D01*
X135965739Y-78078934D01*
X136052928Y-77955415D01*
X136083354Y-77869801D01*
X136663181Y-78449628D01*
X136696666Y-78510951D01*
X136699500Y-78537308D01*
X136699500Y-78647869D01*
X136699501Y-78647876D01*
X136705908Y-78707483D01*
X136756202Y-78842328D01*
X136756206Y-78842335D01*
X136842452Y-78957544D01*
X136842455Y-78957547D01*
X136957664Y-79043793D01*
X136957671Y-79043797D01*
X137092517Y-79094091D01*
X137092516Y-79094091D01*
X137099444Y-79094835D01*
X137152127Y-79100500D01*
X139047872Y-79100499D01*
X139107483Y-79094091D01*
X139242331Y-79043796D01*
X139357546Y-78957546D01*
X139443796Y-78842331D01*
X139494091Y-78707483D01*
X139500500Y-78647873D01*
X139500499Y-76752128D01*
X139494091Y-76692517D01*
X139490601Y-76683161D01*
X139443797Y-76557671D01*
X139443793Y-76557664D01*
X139357547Y-76442455D01*
X139357544Y-76442452D01*
X139242335Y-76356206D01*
X139242328Y-76356202D01*
X139107482Y-76305908D01*
X139107483Y-76305908D01*
X139047883Y-76299501D01*
X139047881Y-76299500D01*
X139047873Y-76299500D01*
X139047864Y-76299500D01*
X137152129Y-76299500D01*
X137152123Y-76299501D01*
X137092516Y-76305908D01*
X136957671Y-76356202D01*
X136957664Y-76356206D01*
X136842455Y-76442452D01*
X136842452Y-76442455D01*
X136756206Y-76557664D01*
X136756202Y-76557671D01*
X136705908Y-76692517D01*
X136701696Y-76731698D01*
X136699501Y-76752123D01*
X136699500Y-76752135D01*
X136699500Y-76862690D01*
X136679815Y-76929729D01*
X136663181Y-76950371D01*
X136085929Y-77527622D01*
X136083116Y-77514085D01*
X136013558Y-77379844D01*
X135910362Y-77269348D01*
X135781181Y-77190791D01*
X135729997Y-77176450D01*
X136358799Y-76547648D01*
X136358799Y-76547647D01*
X136328349Y-76523949D01*
X136124302Y-76413523D01*
X136124293Y-76413520D01*
X135904860Y-76338188D01*
X135676007Y-76300000D01*
X135443993Y-76300000D01*
X135215139Y-76338188D01*
X134995706Y-76413520D01*
X134995698Y-76413523D01*
X134791644Y-76523952D01*
X134761200Y-76547646D01*
X134761200Y-76547647D01*
X135388431Y-77174878D01*
X135271542Y-77225651D01*
X135154261Y-77321066D01*
X135067072Y-77444585D01*
X135036645Y-77530197D01*
X134408812Y-76902365D01*
X134324516Y-77031391D01*
X134324514Y-77031395D01*
X134231317Y-77243864D01*
X134174361Y-77468781D01*
X134155202Y-77699994D01*
X134155202Y-77700005D01*
X111100500Y-77700005D01*
X111100500Y-75700004D01*
X112714732Y-75700004D01*
X112733777Y-75954154D01*
X112786486Y-76185088D01*
X112790492Y-76202637D01*
X112873423Y-76413941D01*
X112883608Y-76439890D01*
X112908683Y-76483321D01*
X113011041Y-76660612D01*
X113169950Y-76859877D01*
X113356783Y-77033232D01*
X113567366Y-77176805D01*
X113567371Y-77176807D01*
X113567372Y-77176808D01*
X113567373Y-77176809D01*
X113668796Y-77225651D01*
X113796992Y-77287387D01*
X113796993Y-77287387D01*
X113796996Y-77287389D01*
X114040542Y-77362513D01*
X114292565Y-77400500D01*
X114547435Y-77400500D01*
X114799458Y-77362513D01*
X115043004Y-77287389D01*
X115272634Y-77176805D01*
X115483217Y-77033232D01*
X115670050Y-76859877D01*
X115828959Y-76660612D01*
X115956393Y-76439888D01*
X116049508Y-76202637D01*
X116106222Y-75954157D01*
X116125268Y-75700004D01*
X117794732Y-75700004D01*
X117813777Y-75954154D01*
X117866486Y-76185088D01*
X117870492Y-76202637D01*
X117953423Y-76413941D01*
X117963608Y-76439890D01*
X117988683Y-76483321D01*
X118091041Y-76660612D01*
X118249950Y-76859877D01*
X118436783Y-77033232D01*
X118647366Y-77176805D01*
X118647371Y-77176807D01*
X118647372Y-77176808D01*
X118647373Y-77176809D01*
X118748796Y-77225651D01*
X118876992Y-77287387D01*
X118876993Y-77287387D01*
X118876996Y-77287389D01*
X119120542Y-77362513D01*
X119372565Y-77400500D01*
X119627435Y-77400500D01*
X119879458Y-77362513D01*
X120123004Y-77287389D01*
X120352634Y-77176805D01*
X120563217Y-77033232D01*
X120750050Y-76859877D01*
X120908959Y-76660612D01*
X121036393Y-76439888D01*
X121129508Y-76202637D01*
X121186222Y-75954157D01*
X121205268Y-75700000D01*
X121194724Y-75559303D01*
X121186222Y-75445845D01*
X121186126Y-75445426D01*
X121129508Y-75197363D01*
X121036393Y-74960112D01*
X120908959Y-74739388D01*
X120750050Y-74540123D01*
X120563217Y-74366768D01*
X120352634Y-74223195D01*
X120352630Y-74223193D01*
X120352627Y-74223191D01*
X120352626Y-74223190D01*
X120123006Y-74112612D01*
X120123008Y-74112612D01*
X119879466Y-74037489D01*
X119879462Y-74037488D01*
X119879458Y-74037487D01*
X119758231Y-74019214D01*
X119627440Y-73999500D01*
X119627435Y-73999500D01*
X119372565Y-73999500D01*
X119372559Y-73999500D01*
X119215609Y-74023157D01*
X119120542Y-74037487D01*
X119120538Y-74037488D01*
X119120539Y-74037488D01*
X119120533Y-74037489D01*
X118876992Y-74112612D01*
X118647373Y-74223190D01*
X118647372Y-74223191D01*
X118436782Y-74366768D01*
X118249952Y-74540121D01*
X118249950Y-74540123D01*
X118091041Y-74739388D01*
X117963608Y-74960109D01*
X117870492Y-75197362D01*
X117870490Y-75197369D01*
X117813777Y-75445845D01*
X117794732Y-75699995D01*
X117794732Y-75700004D01*
X116125268Y-75700004D01*
X116125268Y-75700000D01*
X116114724Y-75559303D01*
X116106222Y-75445845D01*
X116106126Y-75445426D01*
X116049508Y-75197363D01*
X115956393Y-74960112D01*
X115828959Y-74739388D01*
X115670050Y-74540123D01*
X115483217Y-74366768D01*
X115272634Y-74223195D01*
X115272630Y-74223193D01*
X115272627Y-74223191D01*
X115272626Y-74223190D01*
X115043006Y-74112612D01*
X115043008Y-74112612D01*
X114799466Y-74037489D01*
X114799462Y-74037488D01*
X114799458Y-74037487D01*
X114678231Y-74019214D01*
X114547440Y-73999500D01*
X114547435Y-73999500D01*
X114292565Y-73999500D01*
X114292559Y-73999500D01*
X114135609Y-74023157D01*
X114040542Y-74037487D01*
X114040538Y-74037488D01*
X114040539Y-74037488D01*
X114040533Y-74037489D01*
X113796992Y-74112612D01*
X113567373Y-74223190D01*
X113567372Y-74223191D01*
X113356782Y-74366768D01*
X113169952Y-74540121D01*
X113169950Y-74540123D01*
X113011041Y-74739388D01*
X112883608Y-74960109D01*
X112790492Y-75197362D01*
X112790490Y-75197369D01*
X112733777Y-75445845D01*
X112714732Y-75699995D01*
X112714732Y-75700004D01*
X111100500Y-75700004D01*
X111100500Y-59699999D01*
X126344815Y-59699999D01*
X126363503Y-59877805D01*
X126363504Y-59877807D01*
X126418747Y-60047829D01*
X126418750Y-60047835D01*
X126508141Y-60202665D01*
X126549812Y-60248946D01*
X126627764Y-60335521D01*
X126627767Y-60335523D01*
X126627770Y-60335526D01*
X126772407Y-60440612D01*
X126935733Y-60513329D01*
X127110609Y-60550500D01*
X127110610Y-60550500D01*
X127289389Y-60550500D01*
X127289391Y-60550500D01*
X127464267Y-60513329D01*
X127627593Y-60440612D01*
X127727114Y-60368304D01*
X127792920Y-60344824D01*
X127860974Y-60360649D01*
X127872886Y-60368305D01*
X127972401Y-60440608D01*
X127972402Y-60440609D01*
X127972404Y-60440610D01*
X127972407Y-60440612D01*
X128135733Y-60513329D01*
X128310609Y-60550500D01*
X128310610Y-60550500D01*
X128489389Y-60550500D01*
X128489391Y-60550500D01*
X128664267Y-60513329D01*
X128827593Y-60440612D01*
X128972230Y-60335526D01*
X128972233Y-60335523D01*
X128977114Y-60331977D01*
X129042920Y-60308497D01*
X129110974Y-60324322D01*
X129122886Y-60331977D01*
X129127767Y-60335523D01*
X129127770Y-60335526D01*
X129272407Y-60440612D01*
X129435733Y-60513329D01*
X129610609Y-60550500D01*
X129610610Y-60550500D01*
X129789389Y-60550500D01*
X129789391Y-60550500D01*
X129964267Y-60513329D01*
X130127593Y-60440612D01*
X130272230Y-60335526D01*
X130391859Y-60202665D01*
X130481250Y-60047835D01*
X130536497Y-59877803D01*
X130555185Y-59700000D01*
X130536497Y-59522197D01*
X130481250Y-59352165D01*
X130391859Y-59197335D01*
X130345003Y-59145296D01*
X130272235Y-59064478D01*
X130272232Y-59064476D01*
X130272231Y-59064475D01*
X130272230Y-59064474D01*
X130127593Y-58959388D01*
X129964267Y-58886671D01*
X129964265Y-58886670D01*
X129836594Y-58859533D01*
X129789391Y-58849500D01*
X129610609Y-58849500D01*
X129579954Y-58856015D01*
X129435733Y-58886670D01*
X129435728Y-58886672D01*
X129272408Y-58959388D01*
X129272403Y-58959390D01*
X129122885Y-59068022D01*
X129057079Y-59091502D01*
X128989025Y-59075676D01*
X128977114Y-59068022D01*
X128882605Y-58999357D01*
X128827593Y-58959388D01*
X128664267Y-58886671D01*
X128664265Y-58886670D01*
X128536594Y-58859533D01*
X128489391Y-58849500D01*
X128310609Y-58849500D01*
X128279954Y-58856015D01*
X128135733Y-58886670D01*
X128135728Y-58886672D01*
X127972408Y-58959388D01*
X127972403Y-58959390D01*
X127872885Y-59031695D01*
X127807079Y-59055175D01*
X127739025Y-59039349D01*
X127727114Y-59031695D01*
X127627593Y-58959388D01*
X127464267Y-58886671D01*
X127464265Y-58886670D01*
X127336594Y-58859533D01*
X127289391Y-58849500D01*
X127110609Y-58849500D01*
X127079954Y-58856015D01*
X126935733Y-58886670D01*
X126935728Y-58886672D01*
X126772408Y-58959387D01*
X126627768Y-59064475D01*
X126508140Y-59197336D01*
X126418750Y-59352164D01*
X126418747Y-59352170D01*
X126363504Y-59522192D01*
X126363503Y-59522194D01*
X126344815Y-59699999D01*
X111100500Y-59699999D01*
X111100500Y-46500000D01*
X123794540Y-46500000D01*
X123814326Y-46688256D01*
X123814327Y-46688259D01*
X123872818Y-46868277D01*
X123872821Y-46868284D01*
X123967467Y-47032216D01*
X124031965Y-47103848D01*
X124035926Y-47108723D01*
X124037337Y-47110653D01*
X124037340Y-47110656D01*
X124037341Y-47110657D01*
X124039531Y-47112668D01*
X124043661Y-47116838D01*
X124094128Y-47172888D01*
X124094129Y-47172888D01*
X124094135Y-47172893D01*
X124247270Y-47284151D01*
X124258105Y-47288976D01*
X124277688Y-47299916D01*
X124456409Y-47422198D01*
X124764881Y-47633257D01*
X124777562Y-47641933D01*
X124795222Y-47656590D01*
X131313181Y-54174548D01*
X131346666Y-54235871D01*
X131349500Y-54262229D01*
X131349500Y-61036294D01*
X131348191Y-61054263D01*
X131344710Y-61078025D01*
X131349264Y-61130064D01*
X131349500Y-61135470D01*
X131349500Y-61143712D01*
X131353202Y-61175391D01*
X131353386Y-61177185D01*
X131360000Y-61252792D01*
X131361461Y-61259867D01*
X131361403Y-61259878D01*
X131363034Y-61267237D01*
X131363092Y-61267224D01*
X131364757Y-61274249D01*
X131364758Y-61274254D01*
X131364759Y-61274255D01*
X131385674Y-61331722D01*
X131390708Y-61345551D01*
X131391299Y-61347253D01*
X131415182Y-61419326D01*
X131418236Y-61425874D01*
X131418182Y-61425898D01*
X131421470Y-61432688D01*
X131421521Y-61432663D01*
X131424761Y-61439113D01*
X131424762Y-61439114D01*
X131424763Y-61439117D01*
X131466494Y-61502567D01*
X131467443Y-61504058D01*
X131507289Y-61568657D01*
X131511766Y-61574319D01*
X131511719Y-61574355D01*
X131516483Y-61580202D01*
X131516529Y-61580164D01*
X131521164Y-61585687D01*
X131521170Y-61585696D01*
X131544627Y-61607826D01*
X131561872Y-61628000D01*
X131888913Y-62105986D01*
X131923904Y-62157126D01*
X131926429Y-62161137D01*
X131967464Y-62232212D01*
X131967465Y-62232214D01*
X131999104Y-62267353D01*
X132002543Y-62271524D01*
X132006804Y-62277178D01*
X132012477Y-62284705D01*
X132021216Y-62295260D01*
X132047573Y-62321336D01*
X132050034Y-62323916D01*
X132094129Y-62372888D01*
X132247265Y-62484148D01*
X132247270Y-62484151D01*
X132420192Y-62561142D01*
X132420197Y-62561144D01*
X132605354Y-62600500D01*
X132605355Y-62600500D01*
X132740145Y-62600500D01*
X132807184Y-62620185D01*
X132852939Y-62672989D01*
X132862883Y-62742147D01*
X132833858Y-62805703D01*
X132827826Y-62812181D01*
X124922091Y-70717915D01*
X124920967Y-70719011D01*
X124856946Y-70779870D01*
X124821899Y-70830222D01*
X124819062Y-70833984D01*
X124780302Y-70881520D01*
X124780299Y-70881525D01*
X124764392Y-70911975D01*
X124760324Y-70918689D01*
X124740702Y-70946882D01*
X124716509Y-71003258D01*
X124714488Y-71007512D01*
X124686091Y-71061879D01*
X124686090Y-71061880D01*
X124676640Y-71094903D01*
X124674007Y-71102299D01*
X124660459Y-71133871D01*
X124648113Y-71193947D01*
X124646990Y-71198523D01*
X124630113Y-71257505D01*
X124630113Y-71257507D01*
X124627503Y-71291769D01*
X124626414Y-71299536D01*
X124625645Y-71303283D01*
X124619500Y-71333186D01*
X124619500Y-71394525D01*
X124619321Y-71399234D01*
X124614662Y-71460402D01*
X124616707Y-71476455D01*
X124619003Y-71494488D01*
X124619500Y-71502316D01*
X124619500Y-73403721D01*
X124613514Y-73441783D01*
X124178756Y-74789773D01*
X124168130Y-74813709D01*
X124083609Y-74960108D01*
X124083606Y-74960114D01*
X123990492Y-75197362D01*
X123990490Y-75197369D01*
X123933777Y-75445845D01*
X123914732Y-75699995D01*
X123914732Y-75700004D01*
X123933777Y-75954154D01*
X123986486Y-76185088D01*
X123990492Y-76202637D01*
X124073423Y-76413941D01*
X124083608Y-76439890D01*
X124108683Y-76483321D01*
X124211041Y-76660612D01*
X124369950Y-76859877D01*
X124556783Y-77033232D01*
X124767366Y-77176805D01*
X124767371Y-77176807D01*
X124767372Y-77176808D01*
X124767373Y-77176809D01*
X124868796Y-77225651D01*
X124996992Y-77287387D01*
X124996993Y-77287387D01*
X124996996Y-77287389D01*
X125240542Y-77362513D01*
X125492565Y-77400500D01*
X125747435Y-77400500D01*
X125999458Y-77362513D01*
X126243004Y-77287389D01*
X126472634Y-77176805D01*
X126683217Y-77033232D01*
X126870050Y-76859877D01*
X127028959Y-76660612D01*
X127156393Y-76439888D01*
X127249508Y-76202637D01*
X127306222Y-75954157D01*
X127325268Y-75700004D01*
X128994732Y-75700004D01*
X129013777Y-75954154D01*
X129066486Y-76185088D01*
X129070492Y-76202637D01*
X129153423Y-76413941D01*
X129163608Y-76439890D01*
X129188683Y-76483321D01*
X129291041Y-76660612D01*
X129449950Y-76859877D01*
X129636783Y-77033232D01*
X129847366Y-77176805D01*
X129847371Y-77176807D01*
X129847372Y-77176808D01*
X129847373Y-77176809D01*
X129948796Y-77225651D01*
X130076992Y-77287387D01*
X130076993Y-77287387D01*
X130076996Y-77287389D01*
X130320542Y-77362513D01*
X130572565Y-77400500D01*
X130827435Y-77400500D01*
X131079458Y-77362513D01*
X131323004Y-77287389D01*
X131552634Y-77176805D01*
X131763217Y-77033232D01*
X131950050Y-76859877D01*
X132108959Y-76660612D01*
X132236393Y-76439888D01*
X132329508Y-76202637D01*
X132353414Y-76097898D01*
X141775000Y-76097898D01*
X141789965Y-76254622D01*
X141789966Y-76254626D01*
X141849149Y-76456186D01*
X141945413Y-76642914D01*
X142075268Y-76808037D01*
X142075271Y-76808040D01*
X142234030Y-76945605D01*
X142234041Y-76945614D01*
X142415960Y-77050644D01*
X142415967Y-77050647D01*
X142614487Y-77119356D01*
X142625000Y-77120867D01*
X142625000Y-76361186D01*
X142636955Y-76373141D01*
X142749852Y-76430665D01*
X142875000Y-76450486D01*
X143000148Y-76430665D01*
X143113045Y-76373141D01*
X143125000Y-76361186D01*
X143125000Y-77116757D01*
X143236409Y-77089729D01*
X143427507Y-77002459D01*
X143598619Y-76880610D01*
X143598625Y-76880604D01*
X143743589Y-76728570D01*
X143743591Y-76728567D01*
X143764177Y-76696535D01*
X143816980Y-76650779D01*
X143886139Y-76640834D01*
X143928231Y-76654910D01*
X144062220Y-76728570D01*
X144067908Y-76731697D01*
X144220981Y-76771000D01*
X144220984Y-76771000D01*
X144339348Y-76771000D01*
X144339350Y-76771000D01*
X144339355Y-76770999D01*
X144339359Y-76770999D01*
X144352088Y-76769390D01*
X144456792Y-76756164D01*
X144603732Y-76697986D01*
X144605729Y-76696535D01*
X144731583Y-76605097D01*
X144731584Y-76605096D01*
X144731583Y-76605096D01*
X144731587Y-76605094D01*
X144832324Y-76483323D01*
X144899614Y-76340326D01*
X144929227Y-76185088D01*
X144919304Y-76027362D01*
X144870467Y-75877059D01*
X144785786Y-75743623D01*
X144670582Y-75635438D01*
X144670579Y-75635436D01*
X144670577Y-75635434D01*
X144532095Y-75559304D01*
X144532087Y-75559301D01*
X144379021Y-75520000D01*
X144379019Y-75520000D01*
X144260650Y-75520000D01*
X144260640Y-75520000D01*
X144143208Y-75534836D01*
X144135649Y-75536777D01*
X144135226Y-75535132D01*
X144075053Y-75540639D01*
X144013077Y-75508378D01*
X143978381Y-75447731D01*
X143975000Y-75418973D01*
X143975000Y-75193101D01*
X143960034Y-75036377D01*
X143960033Y-75036373D01*
X143900850Y-74834813D01*
X143804586Y-74648085D01*
X143674731Y-74482962D01*
X143674728Y-74482959D01*
X143515969Y-74345394D01*
X143515958Y-74345385D01*
X143334039Y-74240355D01*
X143334032Y-74240352D01*
X143135516Y-74171644D01*
X143125000Y-74170132D01*
X143125000Y-74929814D01*
X143113045Y-74917859D01*
X143000148Y-74860335D01*
X142875000Y-74840514D01*
X142749852Y-74860335D01*
X142636955Y-74917859D01*
X142625000Y-74929814D01*
X142625000Y-74174240D01*
X142624999Y-74174240D01*
X142513594Y-74201268D01*
X142513582Y-74201272D01*
X142322497Y-74288537D01*
X142322496Y-74288538D01*
X142151380Y-74410389D01*
X142151374Y-74410395D01*
X142006407Y-74562432D01*
X141892833Y-74739157D01*
X141814755Y-74934185D01*
X141775000Y-75140462D01*
X141775000Y-75395500D01*
X142475000Y-75395500D01*
X142475000Y-75895500D01*
X141775000Y-75895500D01*
X141775000Y-76097898D01*
X132353414Y-76097898D01*
X132386222Y-75954157D01*
X132405268Y-75700000D01*
X132394724Y-75559303D01*
X132386222Y-75445845D01*
X132386126Y-75445426D01*
X132329508Y-75197363D01*
X132236393Y-74960112D01*
X132108959Y-74739388D01*
X131950050Y-74540123D01*
X131763217Y-74366768D01*
X131552634Y-74223195D01*
X131552630Y-74223193D01*
X131552627Y-74223191D01*
X131552626Y-74223190D01*
X131323006Y-74112612D01*
X131323008Y-74112612D01*
X131079466Y-74037489D01*
X131079462Y-74037488D01*
X131079458Y-74037487D01*
X130958231Y-74019214D01*
X130827440Y-73999500D01*
X130827435Y-73999500D01*
X130572565Y-73999500D01*
X130572559Y-73999500D01*
X130415609Y-74023157D01*
X130320542Y-74037487D01*
X130320538Y-74037488D01*
X130320539Y-74037488D01*
X130320533Y-74037489D01*
X130076992Y-74112612D01*
X129847373Y-74223190D01*
X129847372Y-74223191D01*
X129636782Y-74366768D01*
X129449952Y-74540121D01*
X129449950Y-74540123D01*
X129291041Y-74739388D01*
X129163608Y-74960109D01*
X129070492Y-75197362D01*
X129070490Y-75197369D01*
X129013777Y-75445845D01*
X128994732Y-75699995D01*
X128994732Y-75700004D01*
X127325268Y-75700004D01*
X127325268Y-75700000D01*
X127314724Y-75559303D01*
X127306222Y-75445845D01*
X127306126Y-75445426D01*
X127249508Y-75197363D01*
X127156393Y-74960112D01*
X127071865Y-74813704D01*
X127061242Y-74789775D01*
X126626484Y-73441781D01*
X126620500Y-73403730D01*
X126620500Y-72400000D01*
X142194540Y-72400000D01*
X142214326Y-72588256D01*
X142214327Y-72588259D01*
X142272818Y-72768277D01*
X142272821Y-72768284D01*
X142367467Y-72932216D01*
X142414227Y-72984148D01*
X142494129Y-73072888D01*
X142647265Y-73184148D01*
X142647267Y-73184149D01*
X142647270Y-73184151D01*
X142690013Y-73203181D01*
X142712757Y-73213308D01*
X142728898Y-73221977D01*
X142749271Y-73234943D01*
X142749274Y-73234945D01*
X142749278Y-73234946D01*
X142749280Y-73234948D01*
X143277400Y-73473318D01*
X143314067Y-73498657D01*
X146026931Y-76211522D01*
X146060416Y-76272845D01*
X146062699Y-76287530D01*
X146095739Y-76636956D01*
X146095749Y-76637051D01*
X146099428Y-76666618D01*
X146100544Y-76671855D01*
X146100414Y-76671882D01*
X146103894Y-76689021D01*
X146114325Y-76788249D01*
X146114327Y-76788260D01*
X146172818Y-76968277D01*
X146172821Y-76968284D01*
X146267467Y-77132216D01*
X146367996Y-77243864D01*
X146394129Y-77272888D01*
X146547265Y-77384148D01*
X146547270Y-77384151D01*
X146720192Y-77461142D01*
X146720197Y-77461144D01*
X146905354Y-77500500D01*
X146905355Y-77500500D01*
X147094644Y-77500500D01*
X147094646Y-77500500D01*
X147279803Y-77461144D01*
X147452730Y-77384151D01*
X147605871Y-77272888D01*
X147732533Y-77132216D01*
X147827179Y-76968284D01*
X147885674Y-76788256D01*
X147905460Y-76600000D01*
X147885674Y-76411744D01*
X147827179Y-76231716D01*
X147754548Y-76105915D01*
X149470773Y-76105915D01*
X149480696Y-76263637D01*
X149480696Y-76263640D01*
X149510971Y-76356814D01*
X149529533Y-76413941D01*
X149614214Y-76547377D01*
X149729418Y-76655562D01*
X149729420Y-76655563D01*
X149729422Y-76655565D01*
X149862220Y-76728570D01*
X149867908Y-76731697D01*
X150020981Y-76771000D01*
X150020984Y-76771000D01*
X150139348Y-76771000D01*
X150139350Y-76771000D01*
X150139355Y-76770999D01*
X150139359Y-76770999D01*
X150152088Y-76769390D01*
X150256792Y-76756164D01*
X150403732Y-76697986D01*
X150456709Y-76659495D01*
X150522515Y-76636015D01*
X150590569Y-76651840D01*
X150627066Y-76683161D01*
X150725273Y-76808042D01*
X150884030Y-76945605D01*
X150884041Y-76945614D01*
X151065960Y-77050644D01*
X151065967Y-77050647D01*
X151264487Y-77119356D01*
X151275000Y-77120867D01*
X151275000Y-76361186D01*
X151286955Y-76373141D01*
X151399852Y-76430665D01*
X151525000Y-76450486D01*
X151650148Y-76430665D01*
X151763045Y-76373141D01*
X151775000Y-76361185D01*
X151775000Y-77116757D01*
X151886409Y-77089729D01*
X152077507Y-77002459D01*
X152248619Y-76880610D01*
X152248625Y-76880604D01*
X152393592Y-76728567D01*
X152507166Y-76551842D01*
X152585244Y-76356814D01*
X152625000Y-76150537D01*
X152625000Y-75895500D01*
X151925000Y-75895500D01*
X151925000Y-75395500D01*
X152625000Y-75395500D01*
X152625000Y-75193101D01*
X152610034Y-75036377D01*
X152610033Y-75036373D01*
X152550850Y-74834813D01*
X152454586Y-74648085D01*
X152324731Y-74482962D01*
X152324728Y-74482959D01*
X152165969Y-74345394D01*
X152165958Y-74345385D01*
X151984039Y-74240355D01*
X151984032Y-74240352D01*
X151785516Y-74171644D01*
X151775000Y-74170132D01*
X151775000Y-74929814D01*
X151763045Y-74917859D01*
X151650148Y-74860335D01*
X151525000Y-74840514D01*
X151399852Y-74860335D01*
X151286955Y-74917859D01*
X151275000Y-74929814D01*
X151275000Y-74174240D01*
X151274999Y-74174240D01*
X151163594Y-74201268D01*
X151163582Y-74201272D01*
X150972497Y-74288537D01*
X150972496Y-74288538D01*
X150801380Y-74410389D01*
X150801374Y-74410395D01*
X150656407Y-74562432D01*
X150542833Y-74739157D01*
X150464755Y-74934185D01*
X150425000Y-75140462D01*
X150425000Y-75423297D01*
X150405315Y-75490336D01*
X150352511Y-75536091D01*
X150283353Y-75546035D01*
X150270163Y-75543401D01*
X150179023Y-75520000D01*
X150179019Y-75520000D01*
X150060650Y-75520000D01*
X150060640Y-75520000D01*
X149943208Y-75534836D01*
X149943206Y-75534836D01*
X149796269Y-75593013D01*
X149796260Y-75593018D01*
X149668416Y-75685902D01*
X149668415Y-75685903D01*
X149567674Y-75807678D01*
X149500387Y-75950671D01*
X149500385Y-75950674D01*
X149485757Y-76027362D01*
X149470773Y-76105912D01*
X149470773Y-76105914D01*
X149470773Y-76105915D01*
X147754548Y-76105915D01*
X147732533Y-76067784D01*
X147605871Y-75927112D01*
X147597111Y-75920747D01*
X147593682Y-75918065D01*
X147055809Y-75465481D01*
X147031602Y-75446403D01*
X147026135Y-75441545D01*
X144198657Y-72614066D01*
X144173317Y-72577398D01*
X144169203Y-72568284D01*
X144008275Y-72211740D01*
X143934951Y-72049286D01*
X143934936Y-72049255D01*
X143933555Y-72046531D01*
X143929877Y-72037626D01*
X143929821Y-72037652D01*
X143927180Y-72031721D01*
X143927179Y-72031716D01*
X143918729Y-72017080D01*
X143917133Y-72014133D01*
X143914316Y-72008576D01*
X143913126Y-72006690D01*
X143910256Y-72002403D01*
X143851543Y-71900710D01*
X143832533Y-71867784D01*
X143705871Y-71727112D01*
X143705870Y-71727111D01*
X143552734Y-71615851D01*
X143552729Y-71615848D01*
X143379807Y-71538857D01*
X143379802Y-71538855D01*
X143207894Y-71502316D01*
X143194646Y-71499500D01*
X143005354Y-71499500D01*
X142992106Y-71502316D01*
X142820197Y-71538855D01*
X142820192Y-71538857D01*
X142647270Y-71615848D01*
X142647265Y-71615851D01*
X142494129Y-71727111D01*
X142367466Y-71867785D01*
X142272821Y-72031715D01*
X142272818Y-72031722D01*
X142218142Y-72200000D01*
X142214326Y-72211744D01*
X142194540Y-72400000D01*
X126620500Y-72400000D01*
X126620500Y-71900710D01*
X126640185Y-71833670D01*
X126656819Y-71813029D01*
X129947534Y-68522314D01*
X133268691Y-65201156D01*
X133330012Y-65167673D01*
X133399704Y-65172657D01*
X133455637Y-65214529D01*
X133480054Y-65279993D01*
X133474301Y-65327157D01*
X133414327Y-65511740D01*
X133414326Y-65511744D01*
X133394540Y-65700000D01*
X133414326Y-65888256D01*
X133414327Y-65888259D01*
X133472818Y-66068277D01*
X133472821Y-66068284D01*
X133567467Y-66232216D01*
X133694128Y-66372887D01*
X133694129Y-66372888D01*
X133847265Y-66484148D01*
X133847270Y-66484151D01*
X133877793Y-66497741D01*
X133897583Y-66509717D01*
X133897960Y-66509164D01*
X133901616Y-66511655D01*
X133901620Y-66511658D01*
X134396569Y-66799500D01*
X134408676Y-66806541D01*
X134434019Y-66826051D01*
X138193603Y-70585634D01*
X138205384Y-70599266D01*
X138219726Y-70618530D01*
X138259756Y-70652119D01*
X138263728Y-70655759D01*
X138266648Y-70658679D01*
X138269557Y-70661589D01*
X138294586Y-70681379D01*
X138295982Y-70682517D01*
X138354122Y-70731302D01*
X138354123Y-70731302D01*
X138354125Y-70731304D01*
X138360154Y-70735270D01*
X138360121Y-70735319D01*
X138366483Y-70739372D01*
X138366515Y-70739321D01*
X138372655Y-70743108D01*
X138372659Y-70743111D01*
X138410614Y-70760809D01*
X138441473Y-70775200D01*
X138443096Y-70775986D01*
X138510898Y-70810038D01*
X138517693Y-70812511D01*
X138517672Y-70812567D01*
X138524791Y-70815042D01*
X138524810Y-70814986D01*
X138531660Y-70817255D01*
X138531663Y-70817257D01*
X138606045Y-70832614D01*
X138607754Y-70832994D01*
X138631705Y-70838670D01*
X138681609Y-70850499D01*
X138681612Y-70850499D01*
X138681615Y-70850500D01*
X138681618Y-70850500D01*
X138688788Y-70851338D01*
X138688780Y-70851397D01*
X138696281Y-70852164D01*
X138696287Y-70852105D01*
X138703476Y-70852734D01*
X138703480Y-70852733D01*
X138703481Y-70852734D01*
X138731566Y-70851916D01*
X138779369Y-70850526D01*
X138781172Y-70850500D01*
X145014830Y-70850500D01*
X145037682Y-70852624D01*
X145647522Y-70966968D01*
X145648830Y-70967229D01*
X145805354Y-71000500D01*
X145833950Y-71000500D01*
X145839758Y-71000773D01*
X145840972Y-71000887D01*
X145840983Y-71000888D01*
X145840993Y-71000887D01*
X145840995Y-71000888D01*
X145860908Y-71000779D01*
X145912384Y-71000500D01*
X145994646Y-71000500D01*
X146022191Y-70994645D01*
X146091857Y-70999961D01*
X146147590Y-71042098D01*
X146164493Y-71073525D01*
X146190707Y-71145550D01*
X146191299Y-71147252D01*
X146215182Y-71219326D01*
X146218236Y-71225874D01*
X146218182Y-71225898D01*
X146221470Y-71232688D01*
X146221521Y-71232663D01*
X146224761Y-71239113D01*
X146224762Y-71239114D01*
X146224763Y-71239117D01*
X146266494Y-71302567D01*
X146267443Y-71304058D01*
X146307289Y-71368657D01*
X146311766Y-71374319D01*
X146311719Y-71374356D01*
X146316482Y-71380202D01*
X146316528Y-71380164D01*
X146321173Y-71385699D01*
X146376364Y-71437769D01*
X146377658Y-71439026D01*
X147043406Y-72104774D01*
X147058063Y-72122434D01*
X147423903Y-72657126D01*
X147426429Y-72661137D01*
X147467464Y-72732212D01*
X147467465Y-72732214D01*
X147499104Y-72767353D01*
X147502543Y-72771524D01*
X147506804Y-72777178D01*
X147512477Y-72784705D01*
X147521216Y-72795260D01*
X147547573Y-72821336D01*
X147550034Y-72823916D01*
X147594129Y-72872888D01*
X147747265Y-72984148D01*
X147747270Y-72984151D01*
X147920192Y-73061142D01*
X147920197Y-73061144D01*
X148105354Y-73100500D01*
X148105355Y-73100500D01*
X148294644Y-73100500D01*
X148294646Y-73100500D01*
X148479803Y-73061144D01*
X148652730Y-72984151D01*
X148805871Y-72872888D01*
X148932533Y-72732216D01*
X149027179Y-72568284D01*
X149085674Y-72388256D01*
X149105460Y-72200000D01*
X149085674Y-72011744D01*
X149027179Y-71831716D01*
X148932533Y-71667784D01*
X148868029Y-71596145D01*
X148864066Y-71591267D01*
X148862661Y-71589346D01*
X148862660Y-71589345D01*
X148862658Y-71589342D01*
X148860464Y-71587327D01*
X148856325Y-71583147D01*
X148805870Y-71527111D01*
X148652730Y-71415848D01*
X148641891Y-71411022D01*
X148622311Y-71400083D01*
X148122434Y-71058063D01*
X148104774Y-71043406D01*
X147686819Y-70625451D01*
X147653334Y-70564128D01*
X147650500Y-70537770D01*
X147650500Y-68585173D01*
X147652624Y-68562322D01*
X147671623Y-68460991D01*
X147769183Y-67940667D01*
X147771152Y-67932946D01*
X147785674Y-67888256D01*
X147793913Y-67809855D01*
X147794630Y-67804947D01*
X147796384Y-67795598D01*
X147799604Y-67772669D01*
X147800888Y-67759016D01*
X147800825Y-67747673D01*
X147801162Y-67740877D01*
X147805460Y-67700000D01*
X147785674Y-67511744D01*
X147727179Y-67331716D01*
X147632533Y-67167784D01*
X147505871Y-67027112D01*
X147505870Y-67027111D01*
X147352734Y-66915851D01*
X147352729Y-66915848D01*
X147179807Y-66838857D01*
X147179802Y-66838855D01*
X147034000Y-66807865D01*
X146994646Y-66799500D01*
X146805354Y-66799500D01*
X146772897Y-66806398D01*
X146620197Y-66838855D01*
X146620192Y-66838857D01*
X146447270Y-66915848D01*
X146447265Y-66915851D01*
X146294129Y-67027111D01*
X146167466Y-67167785D01*
X146072821Y-67331715D01*
X146072818Y-67331722D01*
X146014327Y-67511740D01*
X146014326Y-67511744D01*
X145994540Y-67700000D01*
X146014325Y-67888255D01*
X146028841Y-67932931D01*
X146030815Y-67940671D01*
X146147376Y-68562323D01*
X146149500Y-68585175D01*
X146149500Y-69079287D01*
X146129815Y-69146326D01*
X146077011Y-69192081D01*
X146007853Y-69202025D01*
X145999724Y-69200578D01*
X145994651Y-69199500D01*
X145994646Y-69199500D01*
X145805354Y-69199500D01*
X145648925Y-69232749D01*
X145647536Y-69233027D01*
X145131335Y-69329815D01*
X145037676Y-69347376D01*
X145014824Y-69349500D01*
X139131565Y-69349500D01*
X139064526Y-69329815D01*
X139043884Y-69313181D01*
X138253017Y-68522314D01*
X138219532Y-68460991D01*
X138224516Y-68391299D01*
X138253102Y-68346867D01*
X138259957Y-68340026D01*
X138266963Y-68330683D01*
X138270477Y-68326410D01*
X138291859Y-68302665D01*
X138302979Y-68283401D01*
X138307066Y-68277211D01*
X138670062Y-67793220D01*
X138670081Y-67793193D01*
X138670521Y-67792607D01*
X138682033Y-67779333D01*
X148264548Y-58196819D01*
X148325872Y-58163334D01*
X148352230Y-58160500D01*
X152360262Y-58160500D01*
X152377798Y-58161746D01*
X152378553Y-58161853D01*
X152378557Y-58161855D01*
X153010695Y-58252159D01*
X153014793Y-58252886D01*
X153050609Y-58260500D01*
X153067456Y-58260500D01*
X153074089Y-58260855D01*
X153081273Y-58261629D01*
X153091627Y-58262383D01*
X153091634Y-58262382D01*
X153091636Y-58262383D01*
X153181569Y-58260960D01*
X153188555Y-58260500D01*
X153229389Y-58260500D01*
X153229391Y-58260500D01*
X153404267Y-58223329D01*
X153567593Y-58150612D01*
X153712230Y-58045526D01*
X153831859Y-57912665D01*
X153921250Y-57757835D01*
X153976497Y-57587803D01*
X153995185Y-57410000D01*
X153976497Y-57232197D01*
X153921250Y-57062165D01*
X153831859Y-56907335D01*
X153785003Y-56855296D01*
X153712235Y-56774478D01*
X153712232Y-56774476D01*
X153712231Y-56774475D01*
X153712230Y-56774474D01*
X153567593Y-56669388D01*
X153404267Y-56596671D01*
X153404265Y-56596670D01*
X153267240Y-56567545D01*
X153229391Y-56559500D01*
X153050609Y-56559500D01*
X153050605Y-56559500D01*
X153014800Y-56567109D01*
X153010679Y-56567841D01*
X152607492Y-56625440D01*
X152378555Y-56658146D01*
X152378524Y-56658150D01*
X152377803Y-56658254D01*
X152360266Y-56659500D01*
X148053705Y-56659500D01*
X148035735Y-56658191D01*
X148011972Y-56654710D01*
X147966533Y-56658686D01*
X147959931Y-56659264D01*
X147954530Y-56659500D01*
X147946283Y-56659500D01*
X147914606Y-56663202D01*
X147912832Y-56663384D01*
X147882390Y-56666047D01*
X147837198Y-56670001D01*
X147830132Y-56671460D01*
X147830120Y-56671404D01*
X147822763Y-56673035D01*
X147822777Y-56673092D01*
X147815740Y-56674760D01*
X147744385Y-56700729D01*
X147742685Y-56701320D01*
X147670668Y-56725185D01*
X147664126Y-56728236D01*
X147664101Y-56728183D01*
X147657308Y-56731471D01*
X147657334Y-56731523D01*
X147650880Y-56734764D01*
X147587468Y-56776470D01*
X147585948Y-56777439D01*
X147521348Y-56817285D01*
X147515683Y-56821765D01*
X147515647Y-56821719D01*
X147509798Y-56826484D01*
X147509835Y-56826528D01*
X147504309Y-56831164D01*
X147452212Y-56886382D01*
X147450956Y-56887675D01*
X137620672Y-66717958D01*
X137607391Y-66729477D01*
X137052891Y-67145353D01*
X137043185Y-67153176D01*
X137040736Y-67155051D01*
X137036679Y-67158000D01*
X136970879Y-67181497D01*
X136902821Y-67165690D01*
X136876086Y-67145382D01*
X135478782Y-65748078D01*
X135466684Y-65733306D01*
X135466505Y-65733445D01*
X135115803Y-65279993D01*
X135045435Y-65189008D01*
X135040791Y-65182088D01*
X135032533Y-65167784D01*
X135009168Y-65141836D01*
X135006210Y-65138292D01*
X135004552Y-65136149D01*
X134985987Y-65112143D01*
X134985971Y-65112123D01*
X134985967Y-65112118D01*
X134975941Y-65099959D01*
X134969789Y-65092954D01*
X134969781Y-65092946D01*
X134969774Y-65092938D01*
X134937034Y-65061481D01*
X134933921Y-65058265D01*
X134905871Y-65027112D01*
X134905869Y-65027110D01*
X134752734Y-64915851D01*
X134752729Y-64915848D01*
X134579807Y-64838857D01*
X134579802Y-64838855D01*
X134434001Y-64807865D01*
X134394646Y-64799500D01*
X134205354Y-64799500D01*
X134155375Y-64810123D01*
X134020199Y-64838855D01*
X133929838Y-64879087D01*
X133860588Y-64888371D01*
X133797311Y-64858743D01*
X133760098Y-64799608D01*
X133760763Y-64729741D01*
X133791719Y-64678128D01*
X135948001Y-62521846D01*
X135949014Y-62520859D01*
X136013053Y-62459987D01*
X136048112Y-62409614D01*
X136050925Y-62405885D01*
X136089698Y-62358335D01*
X136105607Y-62327876D01*
X136109667Y-62321176D01*
X136129295Y-62292977D01*
X136153492Y-62236588D01*
X136155498Y-62232363D01*
X136183909Y-62177977D01*
X136193360Y-62144943D01*
X136195991Y-62137556D01*
X136209540Y-62105986D01*
X136221893Y-62045868D01*
X136223006Y-62041340D01*
X136239887Y-61982346D01*
X136242495Y-61948083D01*
X136243587Y-61940304D01*
X136250500Y-61906667D01*
X136250500Y-61845329D01*
X136250679Y-61840620D01*
X136255337Y-61779453D01*
X136250997Y-61745369D01*
X136250500Y-61737530D01*
X136250500Y-46175001D01*
X141744815Y-46175001D01*
X141748726Y-46212222D01*
X141748884Y-46214819D01*
X141749337Y-46218252D01*
X141749531Y-46219888D01*
X141763503Y-46352804D01*
X141763504Y-46352807D01*
X141818747Y-46522829D01*
X141818750Y-46522835D01*
X141908141Y-46677665D01*
X141949812Y-46723946D01*
X142027764Y-46810521D01*
X142027767Y-46810523D01*
X142027770Y-46810526D01*
X142172407Y-46915612D01*
X142335733Y-46988329D01*
X142510609Y-47025500D01*
X142510610Y-47025500D01*
X142689389Y-47025500D01*
X142689391Y-47025500D01*
X142864267Y-46988329D01*
X143027593Y-46915612D01*
X143172230Y-46810526D01*
X143291859Y-46677665D01*
X143381250Y-46522835D01*
X143436497Y-46352803D01*
X143455185Y-46175000D01*
X143449012Y-46116272D01*
X143448840Y-46114635D01*
X143448500Y-46108090D01*
X143448517Y-46090195D01*
X143440170Y-46031776D01*
X143439905Y-46029639D01*
X143436497Y-45997197D01*
X143436496Y-45997195D01*
X143436496Y-45997191D01*
X143435146Y-45990842D01*
X143435313Y-45990806D01*
X143432723Y-45979642D01*
X143405383Y-45788259D01*
X143351855Y-45413557D01*
X143351850Y-45413526D01*
X143351746Y-45412798D01*
X143350500Y-45395262D01*
X143350500Y-44262229D01*
X143370185Y-44195190D01*
X143386819Y-44174548D01*
X143386818Y-44174548D01*
X143679336Y-43882030D01*
X143692610Y-43870518D01*
X143693212Y-43870066D01*
X143693220Y-43870062D01*
X144247063Y-43454679D01*
X144256813Y-43446820D01*
X144259249Y-43444957D01*
X144262332Y-43442716D01*
X144272230Y-43435526D01*
X144302295Y-43402133D01*
X144303763Y-43400562D01*
X144330642Y-43372813D01*
X144330644Y-43372808D01*
X144335003Y-43367123D01*
X144335257Y-43367318D01*
X144342569Y-43357405D01*
X144391859Y-43302665D01*
X144481250Y-43147835D01*
X144536497Y-42977803D01*
X144555185Y-42800000D01*
X144536497Y-42622197D01*
X144481250Y-42452165D01*
X144391859Y-42297335D01*
X144341646Y-42241568D01*
X144272235Y-42164478D01*
X144272232Y-42164476D01*
X144272231Y-42164475D01*
X144272230Y-42164474D01*
X144127593Y-42059388D01*
X143964267Y-41986671D01*
X143964265Y-41986670D01*
X143836594Y-41959533D01*
X143789391Y-41949500D01*
X143610609Y-41949500D01*
X143579954Y-41956015D01*
X143435733Y-41986670D01*
X143435728Y-41986672D01*
X143272408Y-42059387D01*
X143127770Y-42164474D01*
X143058353Y-42241568D01*
X143056082Y-42243959D01*
X143040046Y-42259966D01*
X143040039Y-42259975D01*
X143033024Y-42269328D01*
X143029502Y-42273610D01*
X143008143Y-42297332D01*
X143008139Y-42297337D01*
X142997030Y-42316578D01*
X142992934Y-42322781D01*
X142629474Y-42807395D01*
X142617955Y-42820676D01*
X142114358Y-43324272D01*
X142100729Y-43336051D01*
X142081468Y-43350390D01*
X142047898Y-43390397D01*
X142044253Y-43394376D01*
X142038407Y-43400223D01*
X142018618Y-43425251D01*
X142017481Y-43426647D01*
X141968694Y-43484790D01*
X141964729Y-43490819D01*
X141964682Y-43490788D01*
X141960630Y-43497147D01*
X141960679Y-43497177D01*
X141956889Y-43503321D01*
X141924812Y-43572110D01*
X141924027Y-43573731D01*
X141889957Y-43641572D01*
X141887488Y-43648357D01*
X141887432Y-43648336D01*
X141884960Y-43655450D01*
X141885015Y-43655469D01*
X141882743Y-43662325D01*
X141867391Y-43736670D01*
X141867001Y-43738428D01*
X141849499Y-43812279D01*
X141848661Y-43819454D01*
X141848601Y-43819447D01*
X141847835Y-43826945D01*
X141847895Y-43826951D01*
X141847265Y-43834140D01*
X141849474Y-43910030D01*
X141849500Y-43911833D01*
X141849500Y-45395268D01*
X141848254Y-45412805D01*
X141848147Y-45413551D01*
X141848146Y-45413556D01*
X141821511Y-45600000D01*
X141767273Y-45979653D01*
X141764687Y-45990800D01*
X141764855Y-45990836D01*
X141763502Y-45997199D01*
X141760101Y-46029555D01*
X141759818Y-46031839D01*
X141750245Y-46098849D01*
X141750241Y-46098885D01*
X141748370Y-46116270D01*
X141747616Y-46126628D01*
X141747854Y-46141769D01*
X141747522Y-46149232D01*
X141744815Y-46174998D01*
X141744815Y-46175001D01*
X136250500Y-46175001D01*
X136250500Y-43629500D01*
X136270185Y-43562461D01*
X136322989Y-43516706D01*
X136374500Y-43505500D01*
X136925990Y-43505500D01*
X136926000Y-43505500D01*
X137033456Y-43493947D01*
X137084967Y-43482741D01*
X137119197Y-43471347D01*
X137187497Y-43448616D01*
X137187501Y-43448613D01*
X137187504Y-43448613D01*
X137308543Y-43370825D01*
X137361347Y-43325070D01*
X137455567Y-43216336D01*
X137515338Y-43085459D01*
X137535023Y-43018420D01*
X137535024Y-43018416D01*
X137555500Y-42876000D01*
X137555500Y-40074000D01*
X137543947Y-39966544D01*
X137532741Y-39915033D01*
X137532637Y-39914722D01*
X137498616Y-39812502D01*
X137498613Y-39812496D01*
X137420828Y-39691462D01*
X137420825Y-39691457D01*
X137420820Y-39691451D01*
X137375076Y-39638659D01*
X137375072Y-39638656D01*
X137375070Y-39638653D01*
X137266336Y-39544433D01*
X137266333Y-39544431D01*
X137266331Y-39544430D01*
X137135463Y-39484663D01*
X137076195Y-39467260D01*
X137068420Y-39464977D01*
X137068416Y-39464976D01*
X136926000Y-39444500D01*
X134524000Y-39444500D01*
X134523991Y-39444500D01*
X134523990Y-39444501D01*
X134416549Y-39456052D01*
X134416537Y-39456054D01*
X134365027Y-39467260D01*
X134262502Y-39501383D01*
X134262496Y-39501386D01*
X134141462Y-39579171D01*
X134141451Y-39579179D01*
X134088659Y-39624923D01*
X133994433Y-39733664D01*
X133994430Y-39733668D01*
X133934663Y-39864536D01*
X133919836Y-39915033D01*
X133914977Y-39931580D01*
X133914976Y-39931584D01*
X133894500Y-40074000D01*
X133894500Y-42876000D01*
X133894501Y-42876009D01*
X133906052Y-42983450D01*
X133906054Y-42983462D01*
X133917260Y-43034972D01*
X133951383Y-43137497D01*
X133951386Y-43137503D01*
X134029171Y-43258537D01*
X134029179Y-43258548D01*
X134074923Y-43311340D01*
X134074926Y-43311343D01*
X134074930Y-43311347D01*
X134183664Y-43405567D01*
X134183669Y-43405569D01*
X134191128Y-43410364D01*
X134189308Y-43413194D01*
X134229789Y-43448243D01*
X134249500Y-43515275D01*
X134249500Y-61339145D01*
X134229815Y-61406184D01*
X134213181Y-61426826D01*
X133813771Y-61826235D01*
X133752448Y-61859720D01*
X133682756Y-61854736D01*
X133626823Y-61812864D01*
X133602406Y-61747400D01*
X133602770Y-61725590D01*
X133605460Y-61700002D01*
X133605460Y-61700000D01*
X133585674Y-61511744D01*
X133527179Y-61331716D01*
X133432533Y-61167784D01*
X133368029Y-61096145D01*
X133364066Y-61091267D01*
X133362661Y-61089346D01*
X133362660Y-61089345D01*
X133362658Y-61089342D01*
X133360464Y-61087327D01*
X133356325Y-61083147D01*
X133351711Y-61078023D01*
X133305871Y-61027112D01*
X133305870Y-61027111D01*
X133152730Y-60915848D01*
X133141891Y-60911022D01*
X133122311Y-60900083D01*
X132904478Y-60751040D01*
X132860266Y-60696938D01*
X132850499Y-60648702D01*
X132850499Y-57409999D01*
X132850499Y-53963691D01*
X132851808Y-53945738D01*
X132855289Y-53921977D01*
X132850735Y-53869933D01*
X132850500Y-53864532D01*
X132850500Y-48379737D01*
X132851746Y-48362201D01*
X132851853Y-48361447D01*
X132851855Y-48361443D01*
X132932723Y-47795353D01*
X132935314Y-47784194D01*
X132935146Y-47784159D01*
X132936497Y-47777802D01*
X132939900Y-47745413D01*
X132940182Y-47743145D01*
X132949755Y-47676136D01*
X132949758Y-47676110D01*
X132951102Y-47663621D01*
X132951629Y-47658726D01*
X132952383Y-47648372D01*
X132952143Y-47633231D01*
X132952473Y-47625797D01*
X132955185Y-47600000D01*
X132951271Y-47562762D01*
X132951116Y-47560193D01*
X132950970Y-47559092D01*
X132950970Y-47559086D01*
X132950968Y-47559079D01*
X132950671Y-47556836D01*
X132950471Y-47555155D01*
X132936497Y-47422198D01*
X132881252Y-47252170D01*
X132881249Y-47252164D01*
X132835479Y-47172888D01*
X132791859Y-47097335D01*
X132745003Y-47045296D01*
X132672235Y-46964478D01*
X132672232Y-46964476D01*
X132672231Y-46964475D01*
X132672230Y-46964474D01*
X132527593Y-46859388D01*
X132364267Y-46786671D01*
X132364265Y-46786670D01*
X132236594Y-46759533D01*
X132189391Y-46749500D01*
X132010609Y-46749500D01*
X131979954Y-46756015D01*
X131835733Y-46786670D01*
X131835728Y-46786672D01*
X131672408Y-46859387D01*
X131527768Y-46964475D01*
X131408140Y-47097336D01*
X131318750Y-47252164D01*
X131318747Y-47252170D01*
X131263504Y-47422192D01*
X131263503Y-47422194D01*
X131244815Y-47600001D01*
X131251158Y-47660362D01*
X131251498Y-47666898D01*
X131251482Y-47684799D01*
X131251483Y-47684807D01*
X131259818Y-47743155D01*
X131260101Y-47745441D01*
X131263503Y-47777805D01*
X131264854Y-47784163D01*
X131264686Y-47784198D01*
X131267274Y-47795348D01*
X131348146Y-48361444D01*
X131348153Y-48361490D01*
X131348254Y-48362194D01*
X131349500Y-48379731D01*
X131349500Y-51788770D01*
X131329815Y-51855809D01*
X131277011Y-51901564D01*
X131207853Y-51911508D01*
X131144297Y-51882483D01*
X131137819Y-51876451D01*
X125856590Y-46595222D01*
X125841933Y-46577562D01*
X125804488Y-46522835D01*
X125524521Y-46113651D01*
X125502912Y-46047208D01*
X125519474Y-45981629D01*
X125520621Y-45979642D01*
X125527179Y-45968284D01*
X125585674Y-45788256D01*
X125605460Y-45600000D01*
X125585674Y-45411744D01*
X125527179Y-45231716D01*
X125432533Y-45067784D01*
X125305871Y-44927112D01*
X125305870Y-44927111D01*
X125152734Y-44815851D01*
X125152729Y-44815848D01*
X124979807Y-44738857D01*
X124979802Y-44738855D01*
X124834000Y-44707865D01*
X124794646Y-44699500D01*
X124605354Y-44699500D01*
X124572897Y-44706398D01*
X124420197Y-44738855D01*
X124420192Y-44738857D01*
X124247270Y-44815848D01*
X124247265Y-44815851D01*
X124094129Y-44927111D01*
X123967466Y-45067785D01*
X123872821Y-45231715D01*
X123872818Y-45231722D01*
X123814327Y-45411740D01*
X123814326Y-45411744D01*
X123794540Y-45600000D01*
X123814326Y-45788256D01*
X123814327Y-45788259D01*
X123872820Y-45968284D01*
X123884204Y-45988001D01*
X123900675Y-46055901D01*
X123884204Y-46111999D01*
X123872820Y-46131715D01*
X123814327Y-46311740D01*
X123814326Y-46311744D01*
X123794540Y-46500000D01*
X111100500Y-46500000D01*
X111100500Y-40300004D01*
X112215233Y-40300004D01*
X112234273Y-40554079D01*
X112290968Y-40802477D01*
X112290973Y-40802494D01*
X112384058Y-41039671D01*
X112384057Y-41039671D01*
X112511457Y-41260332D01*
X112553452Y-41312993D01*
X112553453Y-41312993D01*
X113203338Y-40663108D01*
X113290577Y-40801948D01*
X113418052Y-40929423D01*
X113556890Y-41016661D01*
X112906813Y-41666737D01*
X113067623Y-41776375D01*
X113067624Y-41776376D01*
X113297176Y-41886921D01*
X113297174Y-41886921D01*
X113540652Y-41962024D01*
X113540658Y-41962026D01*
X113792595Y-41999999D01*
X113792604Y-42000000D01*
X114047396Y-42000000D01*
X114047404Y-41999999D01*
X114299341Y-41962026D01*
X114299347Y-41962024D01*
X114542824Y-41886921D01*
X114772381Y-41776373D01*
X114933185Y-41666737D01*
X114283108Y-41016661D01*
X114421948Y-40929423D01*
X114549423Y-40801948D01*
X114636661Y-40663109D01*
X115286545Y-41312993D01*
X115328545Y-41260327D01*
X115455941Y-41039671D01*
X115549026Y-40802494D01*
X115549031Y-40802477D01*
X115605726Y-40554079D01*
X115624767Y-40300004D01*
X117294732Y-40300004D01*
X117313777Y-40554154D01*
X117370334Y-40801948D01*
X117370492Y-40802637D01*
X117463607Y-41039888D01*
X117591041Y-41260612D01*
X117749950Y-41459877D01*
X117936783Y-41633232D01*
X118147366Y-41776805D01*
X118147371Y-41776807D01*
X118147372Y-41776808D01*
X118147373Y-41776809D01*
X118269328Y-41835538D01*
X118376992Y-41887387D01*
X118376993Y-41887387D01*
X118376996Y-41887389D01*
X118620542Y-41962513D01*
X118872565Y-42000500D01*
X119127435Y-42000500D01*
X119379458Y-41962513D01*
X119623004Y-41887389D01*
X119852634Y-41776805D01*
X120063217Y-41633232D01*
X120250050Y-41459877D01*
X120408959Y-41260612D01*
X120536393Y-41039888D01*
X120629508Y-40802637D01*
X120686222Y-40554157D01*
X120705268Y-40300000D01*
X120686222Y-40045843D01*
X120629508Y-39797363D01*
X120536393Y-39560112D01*
X120408959Y-39339388D01*
X120250050Y-39140123D01*
X120063217Y-38966768D01*
X119852634Y-38823195D01*
X119852630Y-38823193D01*
X119852627Y-38823191D01*
X119852626Y-38823190D01*
X119623006Y-38712612D01*
X119623008Y-38712612D01*
X119379466Y-38637489D01*
X119379462Y-38637488D01*
X119379458Y-38637487D01*
X119258231Y-38619214D01*
X119127440Y-38599500D01*
X119127435Y-38599500D01*
X118872565Y-38599500D01*
X118872559Y-38599500D01*
X118715609Y-38623157D01*
X118620542Y-38637487D01*
X118620538Y-38637488D01*
X118620539Y-38637488D01*
X118620533Y-38637489D01*
X118376992Y-38712612D01*
X118147373Y-38823190D01*
X118147372Y-38823191D01*
X117936782Y-38966768D01*
X117749952Y-39140121D01*
X117749950Y-39140123D01*
X117591041Y-39339388D01*
X117463608Y-39560109D01*
X117370492Y-39797362D01*
X117370490Y-39797369D01*
X117313777Y-40045845D01*
X117294732Y-40299995D01*
X117294732Y-40300004D01*
X115624767Y-40300004D01*
X115624767Y-40299995D01*
X115605726Y-40045920D01*
X115549031Y-39797522D01*
X115549026Y-39797505D01*
X115455941Y-39560328D01*
X115455942Y-39560328D01*
X115328544Y-39339671D01*
X115286546Y-39287006D01*
X114636661Y-39936890D01*
X114549423Y-39798052D01*
X114421948Y-39670577D01*
X114283108Y-39583338D01*
X114933185Y-38933261D01*
X114772377Y-38823624D01*
X114772376Y-38823623D01*
X114542823Y-38713078D01*
X114542825Y-38713078D01*
X114299347Y-38637975D01*
X114299341Y-38637973D01*
X114047404Y-38600000D01*
X113792595Y-38600000D01*
X113540658Y-38637973D01*
X113540652Y-38637975D01*
X113297175Y-38713078D01*
X113067624Y-38823623D01*
X113067616Y-38823628D01*
X112906813Y-38933261D01*
X113556891Y-39583338D01*
X113418052Y-39670577D01*
X113290577Y-39798052D01*
X113203338Y-39936891D01*
X112553453Y-39287006D01*
X112511455Y-39339670D01*
X112384058Y-39560328D01*
X112290973Y-39797505D01*
X112290968Y-39797522D01*
X112234273Y-40045920D01*
X112215233Y-40299995D01*
X112215233Y-40300004D01*
X111100500Y-40300004D01*
X111100500Y-35024500D01*
X111120185Y-34957461D01*
X111172989Y-34911706D01*
X111224500Y-34900500D01*
X168275500Y-34900500D01*
X168342539Y-34920185D01*
G37*
%TD.AperFunction*%
%TD*%
%TA.AperFunction,Conductor*%
%TO.N,+12V*%
G36*
X136993039Y-39969685D02*
G01*
X137038794Y-40022489D01*
X137050000Y-40074000D01*
X137050000Y-42876000D01*
X137030315Y-42943039D01*
X136977511Y-42988794D01*
X136926000Y-43000000D01*
X134524000Y-43000000D01*
X134456961Y-42980315D01*
X134411206Y-42927511D01*
X134400000Y-42876000D01*
X134400000Y-40074000D01*
X134419685Y-40006961D01*
X134472489Y-39961206D01*
X134524000Y-39950000D01*
X136926000Y-39950000D01*
X136993039Y-39969685D01*
G37*
%TD.AperFunction*%
%TD*%
%TA.AperFunction,Conductor*%
%TO.N,/USB_VBUS*%
G36*
X132319104Y-60963021D02*
G01*
X132971237Y-61409216D01*
X132976130Y-61416716D01*
X132974286Y-61425479D01*
X132972924Y-61427124D01*
X132700728Y-61700686D01*
X132427124Y-61972924D01*
X132418843Y-61976330D01*
X132410578Y-61972882D01*
X132409216Y-61971237D01*
X131963021Y-61319104D01*
X131961177Y-61310341D01*
X131964402Y-61304226D01*
X132304225Y-60964403D01*
X132312497Y-60960977D01*
X132319104Y-60963021D01*
G37*
%TD.AperFunction*%
%TD*%
%TA.AperFunction,Conductor*%
%TO.N,/USB_VBUS*%
G36*
X132436549Y-47599961D02*
G01*
X132444812Y-47603412D01*
X132448215Y-47611694D01*
X132448097Y-47613316D01*
X132351435Y-48289955D01*
X132346873Y-48297660D01*
X132339853Y-48300000D01*
X131860147Y-48300000D01*
X131851874Y-48296573D01*
X131848565Y-48289955D01*
X131751902Y-47613316D01*
X131754124Y-47604641D01*
X131761829Y-47600079D01*
X131763442Y-47599961D01*
X132100000Y-47599000D01*
X132436549Y-47599961D01*
G37*
%TD.AperFunction*%
%TD*%
%TA.AperFunction,Conductor*%
%TO.N,/USB_VBUS*%
G36*
X124989421Y-46227117D02*
G01*
X124990783Y-46228762D01*
X125436978Y-46880895D01*
X125438822Y-46889658D01*
X125435595Y-46895775D01*
X125095775Y-47235595D01*
X125087502Y-47239022D01*
X125080895Y-47236978D01*
X124428762Y-46790783D01*
X124423869Y-46783283D01*
X124425713Y-46774520D01*
X124427075Y-46772875D01*
X124699272Y-46499314D01*
X124972875Y-46227075D01*
X124981156Y-46223669D01*
X124989421Y-46227117D01*
G37*
%TD.AperFunction*%
%TD*%
%TA.AperFunction,Conductor*%
%TO.N,+12V*%
G36*
X126119753Y-73521658D02*
G01*
X126122615Y-73526340D01*
X126617216Y-75059880D01*
X126616494Y-75068805D01*
X126612335Y-75073359D01*
X125626254Y-75697044D01*
X125617430Y-75698570D01*
X125613746Y-75697044D01*
X124627664Y-75073359D01*
X124622504Y-75066041D01*
X124622782Y-75059883D01*
X125117384Y-73526340D01*
X125123186Y-73519518D01*
X125128520Y-73518231D01*
X126111480Y-73518231D01*
X126119753Y-73521658D01*
G37*
%TD.AperFunction*%
%TD*%
%TA.AperFunction,Conductor*%
%TO.N,/USB_VBUS*%
G36*
X134589992Y-65426549D02*
G01*
X134590953Y-65427643D01*
X135063932Y-66039197D01*
X135066283Y-66047838D01*
X135062950Y-66054628D01*
X134723050Y-66394528D01*
X134714777Y-66397955D01*
X134708895Y-66396369D01*
X134155748Y-66074681D01*
X134150319Y-66067560D01*
X134150810Y-66060115D01*
X134155863Y-66047838D01*
X134298396Y-65701470D01*
X134300964Y-65697630D01*
X134573446Y-65426507D01*
X134581727Y-65423101D01*
X134589992Y-65426549D01*
G37*
%TD.AperFunction*%
%TD*%
%TA.AperFunction,Conductor*%
%TO.N,/USB_VBUS*%
G36*
X145894942Y-69704435D02*
G01*
X145899835Y-69711935D01*
X145900035Y-69714062D01*
X145901000Y-70100029D01*
X145900035Y-70485937D01*
X145896587Y-70494202D01*
X145888306Y-70497608D01*
X145886179Y-70497408D01*
X145109544Y-70351789D01*
X145102044Y-70346896D01*
X145100000Y-70340289D01*
X145100000Y-69859710D01*
X145103427Y-69851437D01*
X145109542Y-69848210D01*
X145886180Y-69702591D01*
X145894942Y-69704435D01*
G37*
%TD.AperFunction*%
%TD*%
%TA.AperFunction,Conductor*%
%TO.N,Net-(J2-CC1)*%
G36*
X146730351Y-75852272D02*
G01*
X147273111Y-76308968D01*
X147277235Y-76316916D01*
X147274530Y-76325453D01*
X147273872Y-76326172D01*
X147004146Y-76597250D01*
X146995881Y-76600698D01*
X146995831Y-76600698D01*
X146610626Y-76600018D01*
X146602359Y-76596577D01*
X146598999Y-76589420D01*
X146545878Y-76027616D01*
X146548511Y-76019058D01*
X146549242Y-76018254D01*
X146714546Y-75852950D01*
X146722818Y-75849524D01*
X146730351Y-75852272D01*
G37*
%TD.AperFunction*%
%TD*%
%TA.AperFunction,Conductor*%
%TO.N,Net-(J2-CC1)*%
G36*
X143468044Y-72251253D02*
G01*
X143474206Y-72257239D01*
X143750747Y-72869928D01*
X143751027Y-72878878D01*
X143748356Y-72883014D01*
X143583014Y-73048356D01*
X143574741Y-73051783D01*
X143569928Y-73050747D01*
X142957239Y-72774206D01*
X142951108Y-72767679D01*
X142951232Y-72759090D01*
X143097437Y-72403802D01*
X143103753Y-72397457D01*
X143459090Y-72251232D01*
X143468044Y-72251253D01*
G37*
%TD.AperFunction*%
%TD*%
%TA.AperFunction,Conductor*%
%TO.N,/USB_D+*%
G36*
X146901140Y-67699002D02*
G01*
X147285939Y-67699964D01*
X147294202Y-67703412D01*
X147297608Y-67711693D01*
X147297408Y-67713820D01*
X147151790Y-68490456D01*
X147146897Y-68497956D01*
X147140290Y-68500000D01*
X146659710Y-68500000D01*
X146651437Y-68496573D01*
X146648210Y-68490456D01*
X146503680Y-67719631D01*
X146503581Y-67715957D01*
X146504348Y-67710129D01*
X146508827Y-67702376D01*
X146515915Y-67699960D01*
X146899999Y-67699000D01*
X146901140Y-67699002D01*
G37*
%TD.AperFunction*%
%TD*%
%TA.AperFunction,Conductor*%
%TO.N,/USB_D+*%
G36*
X147819104Y-71463021D02*
G01*
X148471237Y-71909216D01*
X148476130Y-71916716D01*
X148474286Y-71925479D01*
X148472924Y-71927124D01*
X148200728Y-72200686D01*
X147927124Y-72472924D01*
X147918843Y-72476330D01*
X147910578Y-72472882D01*
X147909216Y-72471237D01*
X147463021Y-71819104D01*
X147461177Y-71810341D01*
X147464402Y-71804226D01*
X147804225Y-71464403D01*
X147812497Y-71460977D01*
X147819104Y-71463021D01*
G37*
%TD.AperFunction*%
%TD*%
%TA.AperFunction,Conductor*%
%TO.N,+3V3*%
G36*
X153135358Y-57064124D02*
G01*
X153139920Y-57071829D01*
X153140038Y-57073451D01*
X153141000Y-57410033D01*
X153140038Y-57746548D01*
X153136587Y-57754812D01*
X153128305Y-57758215D01*
X153126683Y-57758097D01*
X152450045Y-57661435D01*
X152442340Y-57656873D01*
X152440000Y-57649853D01*
X152440000Y-57170147D01*
X152443427Y-57161874D01*
X152450045Y-57158565D01*
X152450044Y-57158565D01*
X153126684Y-57061902D01*
X153135358Y-57064124D01*
G37*
%TD.AperFunction*%
%TD*%
%TA.AperFunction,Conductor*%
%TO.N,+3V3*%
G36*
X137925372Y-67135424D02*
G01*
X138264575Y-67474627D01*
X138268002Y-67482900D01*
X138265662Y-67489920D01*
X137855557Y-68036726D01*
X137847852Y-68041288D01*
X137839177Y-68039066D01*
X137837953Y-68038007D01*
X137599293Y-67800707D01*
X137361995Y-67562049D01*
X137358593Y-67553769D01*
X137362044Y-67545505D01*
X137363264Y-67544449D01*
X137910080Y-67134336D01*
X137918754Y-67132115D01*
X137925372Y-67135424D01*
G37*
%TD.AperFunction*%
%TD*%
%TA.AperFunction,Conductor*%
%TO.N,Net-(U1-VSENSE)*%
G36*
X142848126Y-45478427D02*
G01*
X142851435Y-45485045D01*
X142948097Y-46161683D01*
X142945875Y-46170358D01*
X142938170Y-46174920D01*
X142936548Y-46175038D01*
X142600000Y-46175999D01*
X142263451Y-46175038D01*
X142255187Y-46171587D01*
X142251784Y-46163305D01*
X142251902Y-46161683D01*
X142348565Y-45485045D01*
X142353127Y-45477340D01*
X142360147Y-45475000D01*
X142839853Y-45475000D01*
X142848126Y-45478427D01*
G37*
%TD.AperFunction*%
%TD*%
%TA.AperFunction,Conductor*%
%TO.N,Net-(U1-VSENSE)*%
G36*
X143460822Y-42560933D02*
G01*
X143462045Y-42561991D01*
X143700707Y-42799293D01*
X143938003Y-43037949D01*
X143941406Y-43046230D01*
X143937955Y-43054494D01*
X143936726Y-43055557D01*
X143389920Y-43465662D01*
X143381245Y-43467884D01*
X143374627Y-43464575D01*
X143035424Y-43125372D01*
X143031997Y-43117099D01*
X143034336Y-43110080D01*
X143444443Y-42563271D01*
X143452147Y-42558711D01*
X143460822Y-42560933D01*
G37*
%TD.AperFunction*%
%TD*%
M02*
