M48
; DRILL file {KiCad 8.0.2} date 2024-05-12T21:13:30+0200
; FORMAT={-:-/ absolute / inch / decimal}
; #@! TF.CreationDate,2024-05-12T21:13:30+02:00
; #@! TF.GenerationSoftware,Kicad,Pcbnew,8.0.2
; #@! TF.FileFunction,Plated,1,2,PTH
FMAT,2
INCH
; #@! TA.AperFunction,Plated,PTH,ViaDrill
T1C0.0118
; #@! TA.AperFunction,Plated,PTH,ComponentDrill
T2C0.0118
; #@! TA.AperFunction,Plated,PTH,ViaDrill
T3C0.0157
; #@! TA.AperFunction,Plated,PTH,ComponentDrill
T4C0.0315
; #@! TA.AperFunction,Plated,PTH,ComponentDrill
T5C0.0433
; #@! TA.AperFunction,Plated,PTH,ComponentDrill
T6C0.0630
%
G90
G05
T1
X4.5431Y-2.4055
X4.5433Y-2.0709
X4.5433Y-2.1693
X4.622Y-2.2795
X4.622Y-2.315
X4.6614Y-2.4606
X4.6691Y-2.1732
X4.6691Y-2.2047
X4.6693Y-2.2441
X4.6693Y-2.2795
X4.6693Y-2.315
X4.7203Y-2.1732
X4.7203Y-2.2087
X4.7205Y-2.2441
X4.7205Y-2.2795
X4.7205Y-2.315
X4.7675Y-2.1732
X4.7675Y-2.2087
X4.7677Y-2.2441
X4.7677Y-2.2795
X4.7677Y-2.315
X4.7835Y-1.9685
X4.811Y-1.9685
X4.8504Y-2.5807
X4.8819Y-2.1732
X4.8819Y-2.4094
X4.9134Y-2.4606
X4.9567Y-2.2835
X4.9567Y-2.3189
X5.0Y-2.4606
X5.0079Y-2.1772
X5.0079Y-2.2126
X5.0079Y-2.248
X5.0079Y-2.2835
X5.0079Y-2.3189
X5.0591Y-2.1772
X5.0591Y-2.2126
X5.0591Y-2.248
X5.0591Y-2.2835
X5.0591Y-2.3189
X5.1063Y-2.1772
X5.1063Y-2.2126
X5.1063Y-2.248
X5.1063Y-2.2835
X5.1063Y-2.3189
X5.1654Y-2.4094
X5.185Y-2.2362
X5.4213Y-2.1024
X5.4213Y-2.1378
X5.4213Y-2.1772
X5.498Y-2.5886
X5.5039Y-2.6535
X5.5551Y-2.2953
X5.5669Y-2.8504
X5.6004Y-2.5217
X5.6142Y-1.8179
X5.6142Y-2.122
X5.6142Y-2.1614
X5.6142Y-2.2008
X5.6575Y-1.685
X5.8268Y-2.5217
X5.8504Y-2.122
X5.8504Y-2.1575
X5.8504Y-2.1929
X5.8819Y-2.4606
X6.0197Y-2.8504
X6.1102Y-2.4449
X6.1102Y-2.4724
X6.1339Y-2.1693
X6.1339Y-2.3465
X6.2913Y-2.2638
X6.2953Y-2.7205
X6.2953Y-2.7598
X6.2953Y-2.7992
X6.2953Y-2.8425
X6.2953Y-2.8858
X6.3425Y-2.7205
X6.3425Y-2.7598
X6.3425Y-2.7992
X6.3425Y-2.8425
X6.3425Y-2.8858
X6.3858Y-2.7205
X6.3858Y-2.7598
X6.3858Y-2.7992
X6.3858Y-2.8425
X6.3858Y-2.8858
X6.4291Y-2.7205
X6.4291Y-2.7598
X6.4291Y-2.7992
X6.4291Y-2.8425
X6.4291Y-2.8858
X6.4331Y-2.2638
X6.4724Y-2.7205
X6.4724Y-2.7598
X6.4724Y-2.7992
X6.4724Y-2.8425
X6.4724Y-2.8858
X6.5236Y-2.2638
X6.5945Y-2.2638
T2
X5.7402Y-1.5413
X5.7402Y-1.5886
X5.7402Y-1.6398
X5.7402Y-1.6831
X5.7874Y-1.5413
X5.7874Y-1.5886
X5.7874Y-1.6398
X5.7874Y-1.6831
T3
X4.5728Y-1.9173
X4.5728Y-1.9685
X4.622Y-1.9173
X4.622Y-1.9685
X4.6693Y-1.9173
X4.6693Y-1.9685
X4.9094Y-1.9016
X4.9094Y-1.937
X4.9094Y-1.9764
X5.0925Y-1.7953
X5.0925Y-1.8307
X5.1378Y-1.6024
X5.1378Y-1.6339
X5.1378Y-1.6654
X5.2028Y-1.872
X5.2677Y-2.063
X5.3228Y-2.2795
X5.3248Y-1.6043
X5.3248Y-1.6339
X5.3248Y-1.6634
X5.3616Y-2.5157
X5.3616Y-2.6581
X5.3642Y-1.6043
X5.3642Y-1.6339
X5.3642Y-1.6634
X5.3819Y-2.3701
X5.4213Y-2.5512
X5.5158Y-2.7992
X5.5197Y-1.5079
X5.6063Y-2.7126
X5.6339Y-2.8504
X5.7441Y-2.6654
X5.7835Y-2.6654
X5.7874Y-3.0157
X5.8346Y-2.8425
X5.8543Y-1.4488
X6.2579Y-2.3819
T5
X5.3437Y-3.0709
X5.4437Y-3.0709
T6
X4.4748Y-3.0
X4.5063Y-1.5709
X4.6748Y-3.0
X4.7063Y-1.5709
X4.9063Y-3.0
X5.1063Y-3.0
T4
G00X5.625Y-2.9624
M15
G01X5.625Y-2.9939
M16
G05
G00X5.625Y-3.1309
M15
G01X5.625Y-3.1545
M16
G05
G00X5.9656Y-2.9624
M15
G01X5.9656Y-2.9939
M16
G05
G00X5.9656Y-3.1309
M15
G01X5.9656Y-3.1545
M16
G05
M30
