%TF.GenerationSoftware,KiCad,Pcbnew,8.0.2*%
%TF.CreationDate,2024-05-12T21:13:41+02:00*%
%TF.ProjectId,irrigation,69727269-6761-4746-996f-6e2e6b696361,0.3*%
%TF.SameCoordinates,Original*%
%TF.FileFunction,Legend,Top*%
%TF.FilePolarity,Positive*%
%FSLAX46Y46*%
G04 Gerber Fmt 4.6, Leading zero omitted, Abs format (unit mm)*
G04 Created by KiCad (PCBNEW 8.0.2) date 2024-05-12 21:13:41*
%MOMM*%
%LPD*%
G01*
G04 APERTURE LIST*
%ADD10C,0.100000*%
%ADD11C,0.150000*%
%ADD12C,0.120000*%
%ADD13C,0.254000*%
G04 APERTURE END LIST*
D10*
X114094611Y-68720433D02*
X113808897Y-68920433D01*
X114094611Y-69063290D02*
X113494611Y-69063290D01*
X113494611Y-69063290D02*
X113494611Y-68834719D01*
X113494611Y-68834719D02*
X113523182Y-68777576D01*
X113523182Y-68777576D02*
X113551754Y-68749005D01*
X113551754Y-68749005D02*
X113608897Y-68720433D01*
X113608897Y-68720433D02*
X113694611Y-68720433D01*
X113694611Y-68720433D02*
X113751754Y-68749005D01*
X113751754Y-68749005D02*
X113780325Y-68777576D01*
X113780325Y-68777576D02*
X113808897Y-68834719D01*
X113808897Y-68834719D02*
X113808897Y-69063290D01*
X114066040Y-68234719D02*
X114094611Y-68291862D01*
X114094611Y-68291862D02*
X114094611Y-68406148D01*
X114094611Y-68406148D02*
X114066040Y-68463290D01*
X114066040Y-68463290D02*
X114008897Y-68491862D01*
X114008897Y-68491862D02*
X113780325Y-68491862D01*
X113780325Y-68491862D02*
X113723182Y-68463290D01*
X113723182Y-68463290D02*
X113694611Y-68406148D01*
X113694611Y-68406148D02*
X113694611Y-68291862D01*
X113694611Y-68291862D02*
X113723182Y-68234719D01*
X113723182Y-68234719D02*
X113780325Y-68206148D01*
X113780325Y-68206148D02*
X113837468Y-68206148D01*
X113837468Y-68206148D02*
X113894611Y-68491862D01*
X113694611Y-68006147D02*
X114094611Y-67863290D01*
X114094611Y-67863290D02*
X113694611Y-67720433D01*
X114037468Y-67491861D02*
X114066040Y-67463290D01*
X114066040Y-67463290D02*
X114094611Y-67491861D01*
X114094611Y-67491861D02*
X114066040Y-67520433D01*
X114066040Y-67520433D02*
X114037468Y-67491861D01*
X114037468Y-67491861D02*
X114094611Y-67491861D01*
X113494611Y-66634719D02*
X113494611Y-66577576D01*
X113494611Y-66577576D02*
X113523182Y-66520433D01*
X113523182Y-66520433D02*
X113551754Y-66491862D01*
X113551754Y-66491862D02*
X113608897Y-66463290D01*
X113608897Y-66463290D02*
X113723182Y-66434719D01*
X113723182Y-66434719D02*
X113866040Y-66434719D01*
X113866040Y-66434719D02*
X113980325Y-66463290D01*
X113980325Y-66463290D02*
X114037468Y-66491862D01*
X114037468Y-66491862D02*
X114066040Y-66520433D01*
X114066040Y-66520433D02*
X114094611Y-66577576D01*
X114094611Y-66577576D02*
X114094611Y-66634719D01*
X114094611Y-66634719D02*
X114066040Y-66691862D01*
X114066040Y-66691862D02*
X114037468Y-66720433D01*
X114037468Y-66720433D02*
X113980325Y-66749004D01*
X113980325Y-66749004D02*
X113866040Y-66777576D01*
X113866040Y-66777576D02*
X113723182Y-66777576D01*
X113723182Y-66777576D02*
X113608897Y-66749004D01*
X113608897Y-66749004D02*
X113551754Y-66720433D01*
X113551754Y-66720433D02*
X113523182Y-66691862D01*
X113523182Y-66691862D02*
X113494611Y-66634719D01*
X114037468Y-66177575D02*
X114066040Y-66149004D01*
X114066040Y-66149004D02*
X114094611Y-66177575D01*
X114094611Y-66177575D02*
X114066040Y-66206147D01*
X114066040Y-66206147D02*
X114037468Y-66177575D01*
X114037468Y-66177575D02*
X114094611Y-66177575D01*
X113494611Y-65949004D02*
X113494611Y-65577576D01*
X113494611Y-65577576D02*
X113723182Y-65777576D01*
X113723182Y-65777576D02*
X113723182Y-65691861D01*
X113723182Y-65691861D02*
X113751754Y-65634719D01*
X113751754Y-65634719D02*
X113780325Y-65606147D01*
X113780325Y-65606147D02*
X113837468Y-65577576D01*
X113837468Y-65577576D02*
X113980325Y-65577576D01*
X113980325Y-65577576D02*
X114037468Y-65606147D01*
X114037468Y-65606147D02*
X114066040Y-65634719D01*
X114066040Y-65634719D02*
X114094611Y-65691861D01*
X114094611Y-65691861D02*
X114094611Y-65863290D01*
X114094611Y-65863290D02*
X114066040Y-65920433D01*
X114066040Y-65920433D02*
X114037468Y-65949004D01*
X113866040Y-64863289D02*
X113866040Y-64406147D01*
X113637468Y-63177575D02*
X113608897Y-63234718D01*
X113608897Y-63234718D02*
X113608897Y-63349004D01*
X113608897Y-63349004D02*
X113637468Y-63406147D01*
X113637468Y-63406147D02*
X113694611Y-63463289D01*
X113694611Y-63463289D02*
X113751754Y-63491861D01*
X113751754Y-63491861D02*
X113866040Y-63491861D01*
X113866040Y-63491861D02*
X113923182Y-63463289D01*
X113923182Y-63463289D02*
X113980325Y-63406147D01*
X113980325Y-63406147D02*
X114008897Y-63349004D01*
X114008897Y-63349004D02*
X114008897Y-63234718D01*
X114008897Y-63234718D02*
X113980325Y-63177575D01*
X113408897Y-63291861D02*
X113437468Y-63434718D01*
X113437468Y-63434718D02*
X113523182Y-63577575D01*
X113523182Y-63577575D02*
X113666040Y-63663289D01*
X113666040Y-63663289D02*
X113808897Y-63691861D01*
X113808897Y-63691861D02*
X113951754Y-63663289D01*
X113951754Y-63663289D02*
X114094611Y-63577575D01*
X114094611Y-63577575D02*
X114180325Y-63434718D01*
X114180325Y-63434718D02*
X114208897Y-63291861D01*
X114208897Y-63291861D02*
X114180325Y-63149004D01*
X114180325Y-63149004D02*
X114094611Y-63006147D01*
X114094611Y-63006147D02*
X113951754Y-62920432D01*
X113951754Y-62920432D02*
X113808897Y-62891861D01*
X113808897Y-62891861D02*
X113666040Y-62920432D01*
X113666040Y-62920432D02*
X113523182Y-63006147D01*
X113523182Y-63006147D02*
X113437468Y-63149004D01*
X113437468Y-63149004D02*
X113408897Y-63291861D01*
X113551754Y-62206147D02*
X113523182Y-62177575D01*
X113523182Y-62177575D02*
X113494611Y-62120433D01*
X113494611Y-62120433D02*
X113494611Y-61977575D01*
X113494611Y-61977575D02*
X113523182Y-61920433D01*
X113523182Y-61920433D02*
X113551754Y-61891861D01*
X113551754Y-61891861D02*
X113608897Y-61863290D01*
X113608897Y-61863290D02*
X113666040Y-61863290D01*
X113666040Y-61863290D02*
X113751754Y-61891861D01*
X113751754Y-61891861D02*
X114094611Y-62234718D01*
X114094611Y-62234718D02*
X114094611Y-61863290D01*
X113494611Y-61491861D02*
X113494611Y-61434718D01*
X113494611Y-61434718D02*
X113523182Y-61377575D01*
X113523182Y-61377575D02*
X113551754Y-61349004D01*
X113551754Y-61349004D02*
X113608897Y-61320432D01*
X113608897Y-61320432D02*
X113723182Y-61291861D01*
X113723182Y-61291861D02*
X113866040Y-61291861D01*
X113866040Y-61291861D02*
X113980325Y-61320432D01*
X113980325Y-61320432D02*
X114037468Y-61349004D01*
X114037468Y-61349004D02*
X114066040Y-61377575D01*
X114066040Y-61377575D02*
X114094611Y-61434718D01*
X114094611Y-61434718D02*
X114094611Y-61491861D01*
X114094611Y-61491861D02*
X114066040Y-61549004D01*
X114066040Y-61549004D02*
X114037468Y-61577575D01*
X114037468Y-61577575D02*
X113980325Y-61606146D01*
X113980325Y-61606146D02*
X113866040Y-61634718D01*
X113866040Y-61634718D02*
X113723182Y-61634718D01*
X113723182Y-61634718D02*
X113608897Y-61606146D01*
X113608897Y-61606146D02*
X113551754Y-61577575D01*
X113551754Y-61577575D02*
X113523182Y-61549004D01*
X113523182Y-61549004D02*
X113494611Y-61491861D01*
X113551754Y-61063289D02*
X113523182Y-61034717D01*
X113523182Y-61034717D02*
X113494611Y-60977575D01*
X113494611Y-60977575D02*
X113494611Y-60834717D01*
X113494611Y-60834717D02*
X113523182Y-60777575D01*
X113523182Y-60777575D02*
X113551754Y-60749003D01*
X113551754Y-60749003D02*
X113608897Y-60720432D01*
X113608897Y-60720432D02*
X113666040Y-60720432D01*
X113666040Y-60720432D02*
X113751754Y-60749003D01*
X113751754Y-60749003D02*
X114094611Y-61091860D01*
X114094611Y-61091860D02*
X114094611Y-60720432D01*
X113494611Y-60520431D02*
X113494611Y-60149003D01*
X113494611Y-60149003D02*
X113723182Y-60349003D01*
X113723182Y-60349003D02*
X113723182Y-60263288D01*
X113723182Y-60263288D02*
X113751754Y-60206146D01*
X113751754Y-60206146D02*
X113780325Y-60177574D01*
X113780325Y-60177574D02*
X113837468Y-60149003D01*
X113837468Y-60149003D02*
X113980325Y-60149003D01*
X113980325Y-60149003D02*
X114037468Y-60177574D01*
X114037468Y-60177574D02*
X114066040Y-60206146D01*
X114066040Y-60206146D02*
X114094611Y-60263288D01*
X114094611Y-60263288D02*
X114094611Y-60434717D01*
X114094611Y-60434717D02*
X114066040Y-60491860D01*
X114066040Y-60491860D02*
X114037468Y-60520431D01*
X113866040Y-59891859D02*
X113866040Y-59434717D01*
X113551754Y-59177574D02*
X113523182Y-59149002D01*
X113523182Y-59149002D02*
X113494611Y-59091860D01*
X113494611Y-59091860D02*
X113494611Y-58949002D01*
X113494611Y-58949002D02*
X113523182Y-58891860D01*
X113523182Y-58891860D02*
X113551754Y-58863288D01*
X113551754Y-58863288D02*
X113608897Y-58834717D01*
X113608897Y-58834717D02*
X113666040Y-58834717D01*
X113666040Y-58834717D02*
X113751754Y-58863288D01*
X113751754Y-58863288D02*
X114094611Y-59206145D01*
X114094611Y-59206145D02*
X114094611Y-58834717D01*
X113494611Y-58463288D02*
X113494611Y-58406145D01*
X113494611Y-58406145D02*
X113523182Y-58349002D01*
X113523182Y-58349002D02*
X113551754Y-58320431D01*
X113551754Y-58320431D02*
X113608897Y-58291859D01*
X113608897Y-58291859D02*
X113723182Y-58263288D01*
X113723182Y-58263288D02*
X113866040Y-58263288D01*
X113866040Y-58263288D02*
X113980325Y-58291859D01*
X113980325Y-58291859D02*
X114037468Y-58320431D01*
X114037468Y-58320431D02*
X114066040Y-58349002D01*
X114066040Y-58349002D02*
X114094611Y-58406145D01*
X114094611Y-58406145D02*
X114094611Y-58463288D01*
X114094611Y-58463288D02*
X114066040Y-58520431D01*
X114066040Y-58520431D02*
X114037468Y-58549002D01*
X114037468Y-58549002D02*
X113980325Y-58577573D01*
X113980325Y-58577573D02*
X113866040Y-58606145D01*
X113866040Y-58606145D02*
X113723182Y-58606145D01*
X113723182Y-58606145D02*
X113608897Y-58577573D01*
X113608897Y-58577573D02*
X113551754Y-58549002D01*
X113551754Y-58549002D02*
X113523182Y-58520431D01*
X113523182Y-58520431D02*
X113494611Y-58463288D01*
X113551754Y-58034716D02*
X113523182Y-58006144D01*
X113523182Y-58006144D02*
X113494611Y-57949002D01*
X113494611Y-57949002D02*
X113494611Y-57806144D01*
X113494611Y-57806144D02*
X113523182Y-57749002D01*
X113523182Y-57749002D02*
X113551754Y-57720430D01*
X113551754Y-57720430D02*
X113608897Y-57691859D01*
X113608897Y-57691859D02*
X113666040Y-57691859D01*
X113666040Y-57691859D02*
X113751754Y-57720430D01*
X113751754Y-57720430D02*
X114094611Y-58063287D01*
X114094611Y-58063287D02*
X114094611Y-57691859D01*
X113694611Y-57177573D02*
X114094611Y-57177573D01*
X113466040Y-57320430D02*
X113894611Y-57463287D01*
X113894611Y-57463287D02*
X113894611Y-57091858D01*
X113494611Y-56491858D02*
X113494611Y-56149001D01*
X114094611Y-56320429D02*
X113494611Y-56320429D01*
X114094611Y-55949000D02*
X113494611Y-55949000D01*
X114094611Y-55691858D02*
X113780325Y-55691858D01*
X113780325Y-55691858D02*
X113723182Y-55720429D01*
X113723182Y-55720429D02*
X113694611Y-55777572D01*
X113694611Y-55777572D02*
X113694611Y-55863286D01*
X113694611Y-55863286D02*
X113723182Y-55920429D01*
X113723182Y-55920429D02*
X113751754Y-55949000D01*
X114094611Y-55406143D02*
X113694611Y-55406143D01*
X113494611Y-55406143D02*
X113523182Y-55434715D01*
X113523182Y-55434715D02*
X113551754Y-55406143D01*
X113551754Y-55406143D02*
X113523182Y-55377572D01*
X113523182Y-55377572D02*
X113494611Y-55406143D01*
X113494611Y-55406143D02*
X113551754Y-55406143D01*
X114094611Y-55034715D02*
X114066040Y-55091858D01*
X114066040Y-55091858D02*
X114008897Y-55120429D01*
X114008897Y-55120429D02*
X113494611Y-55120429D01*
X114094611Y-54720429D02*
X114066040Y-54777572D01*
X114066040Y-54777572D02*
X114037468Y-54806143D01*
X114037468Y-54806143D02*
X113980325Y-54834715D01*
X113980325Y-54834715D02*
X113808897Y-54834715D01*
X113808897Y-54834715D02*
X113751754Y-54806143D01*
X113751754Y-54806143D02*
X113723182Y-54777572D01*
X113723182Y-54777572D02*
X113694611Y-54720429D01*
X113694611Y-54720429D02*
X113694611Y-54634715D01*
X113694611Y-54634715D02*
X113723182Y-54577572D01*
X113723182Y-54577572D02*
X113751754Y-54549001D01*
X113751754Y-54549001D02*
X113808897Y-54520429D01*
X113808897Y-54520429D02*
X113980325Y-54520429D01*
X113980325Y-54520429D02*
X114037468Y-54549001D01*
X114037468Y-54549001D02*
X114066040Y-54577572D01*
X114066040Y-54577572D02*
X114094611Y-54634715D01*
X114094611Y-54634715D02*
X114094611Y-54720429D01*
X113866040Y-54263286D02*
X113866040Y-53806144D01*
X113923182Y-53549001D02*
X113923182Y-53263287D01*
X114094611Y-53606144D02*
X113494611Y-53406144D01*
X113494611Y-53406144D02*
X114094611Y-53206144D01*
X114094611Y-52920429D02*
X114066040Y-52977572D01*
X114066040Y-52977572D02*
X114008897Y-53006143D01*
X114008897Y-53006143D02*
X113494611Y-53006143D01*
X114066040Y-52463286D02*
X114094611Y-52520429D01*
X114094611Y-52520429D02*
X114094611Y-52634715D01*
X114094611Y-52634715D02*
X114066040Y-52691857D01*
X114066040Y-52691857D02*
X114008897Y-52720429D01*
X114008897Y-52720429D02*
X113780325Y-52720429D01*
X113780325Y-52720429D02*
X113723182Y-52691857D01*
X113723182Y-52691857D02*
X113694611Y-52634715D01*
X113694611Y-52634715D02*
X113694611Y-52520429D01*
X113694611Y-52520429D02*
X113723182Y-52463286D01*
X113723182Y-52463286D02*
X113780325Y-52434715D01*
X113780325Y-52434715D02*
X113837468Y-52434715D01*
X113837468Y-52434715D02*
X113894611Y-52720429D01*
X114094611Y-52234714D02*
X113694611Y-51920429D01*
X113694611Y-52234714D02*
X114094611Y-51920429D01*
X114094611Y-51434715D02*
X113780325Y-51434715D01*
X113780325Y-51434715D02*
X113723182Y-51463286D01*
X113723182Y-51463286D02*
X113694611Y-51520429D01*
X113694611Y-51520429D02*
X113694611Y-51634715D01*
X113694611Y-51634715D02*
X113723182Y-51691857D01*
X114066040Y-51434715D02*
X114094611Y-51491857D01*
X114094611Y-51491857D02*
X114094611Y-51634715D01*
X114094611Y-51634715D02*
X114066040Y-51691857D01*
X114066040Y-51691857D02*
X114008897Y-51720429D01*
X114008897Y-51720429D02*
X113951754Y-51720429D01*
X113951754Y-51720429D02*
X113894611Y-51691857D01*
X113894611Y-51691857D02*
X113866040Y-51634715D01*
X113866040Y-51634715D02*
X113866040Y-51491857D01*
X113866040Y-51491857D02*
X113837468Y-51434715D01*
X113694611Y-51149000D02*
X114094611Y-51149000D01*
X113751754Y-51149000D02*
X113723182Y-51120429D01*
X113723182Y-51120429D02*
X113694611Y-51063286D01*
X113694611Y-51063286D02*
X113694611Y-50977572D01*
X113694611Y-50977572D02*
X113723182Y-50920429D01*
X113723182Y-50920429D02*
X113780325Y-50891858D01*
X113780325Y-50891858D02*
X114094611Y-50891858D01*
X114094611Y-50349001D02*
X113494611Y-50349001D01*
X114066040Y-50349001D02*
X114094611Y-50406143D01*
X114094611Y-50406143D02*
X114094611Y-50520429D01*
X114094611Y-50520429D02*
X114066040Y-50577572D01*
X114066040Y-50577572D02*
X114037468Y-50606143D01*
X114037468Y-50606143D02*
X113980325Y-50634715D01*
X113980325Y-50634715D02*
X113808897Y-50634715D01*
X113808897Y-50634715D02*
X113751754Y-50606143D01*
X113751754Y-50606143D02*
X113723182Y-50577572D01*
X113723182Y-50577572D02*
X113694611Y-50520429D01*
X113694611Y-50520429D02*
X113694611Y-50406143D01*
X113694611Y-50406143D02*
X113723182Y-50349001D01*
X114066040Y-49834715D02*
X114094611Y-49891858D01*
X114094611Y-49891858D02*
X114094611Y-50006144D01*
X114094611Y-50006144D02*
X114066040Y-50063286D01*
X114066040Y-50063286D02*
X114008897Y-50091858D01*
X114008897Y-50091858D02*
X113780325Y-50091858D01*
X113780325Y-50091858D02*
X113723182Y-50063286D01*
X113723182Y-50063286D02*
X113694611Y-50006144D01*
X113694611Y-50006144D02*
X113694611Y-49891858D01*
X113694611Y-49891858D02*
X113723182Y-49834715D01*
X113723182Y-49834715D02*
X113780325Y-49806144D01*
X113780325Y-49806144D02*
X113837468Y-49806144D01*
X113837468Y-49806144D02*
X113894611Y-50091858D01*
X114094611Y-49549000D02*
X113694611Y-49549000D01*
X113808897Y-49549000D02*
X113751754Y-49520429D01*
X113751754Y-49520429D02*
X113723182Y-49491858D01*
X113723182Y-49491858D02*
X113694611Y-49434715D01*
X113694611Y-49434715D02*
X113694611Y-49377572D01*
X113523182Y-48406143D02*
X113494611Y-48463286D01*
X113494611Y-48463286D02*
X113494611Y-48549000D01*
X113494611Y-48549000D02*
X113523182Y-48634714D01*
X113523182Y-48634714D02*
X113580325Y-48691857D01*
X113580325Y-48691857D02*
X113637468Y-48720428D01*
X113637468Y-48720428D02*
X113751754Y-48749000D01*
X113751754Y-48749000D02*
X113837468Y-48749000D01*
X113837468Y-48749000D02*
X113951754Y-48720428D01*
X113951754Y-48720428D02*
X114008897Y-48691857D01*
X114008897Y-48691857D02*
X114066040Y-48634714D01*
X114066040Y-48634714D02*
X114094611Y-48549000D01*
X114094611Y-48549000D02*
X114094611Y-48491857D01*
X114094611Y-48491857D02*
X114066040Y-48406143D01*
X114066040Y-48406143D02*
X114037468Y-48377571D01*
X114037468Y-48377571D02*
X113837468Y-48377571D01*
X113837468Y-48377571D02*
X113837468Y-48491857D01*
X114094611Y-48120428D02*
X113694611Y-48120428D01*
X113494611Y-48120428D02*
X113523182Y-48149000D01*
X113523182Y-48149000D02*
X113551754Y-48120428D01*
X113551754Y-48120428D02*
X113523182Y-48091857D01*
X113523182Y-48091857D02*
X113494611Y-48120428D01*
X113494611Y-48120428D02*
X113551754Y-48120428D01*
X113694611Y-47834714D02*
X114094611Y-47834714D01*
X113751754Y-47834714D02*
X113723182Y-47806143D01*
X113723182Y-47806143D02*
X113694611Y-47749000D01*
X113694611Y-47749000D02*
X113694611Y-47663286D01*
X113694611Y-47663286D02*
X113723182Y-47606143D01*
X113723182Y-47606143D02*
X113780325Y-47577572D01*
X113780325Y-47577572D02*
X114094611Y-47577572D01*
X114094611Y-47291857D02*
X113494611Y-47291857D01*
X113866040Y-47234715D02*
X114094611Y-47063286D01*
X113694611Y-47063286D02*
X113923182Y-47291857D01*
X114066040Y-46577572D02*
X114094611Y-46634715D01*
X114094611Y-46634715D02*
X114094611Y-46749001D01*
X114094611Y-46749001D02*
X114066040Y-46806143D01*
X114066040Y-46806143D02*
X114008897Y-46834715D01*
X114008897Y-46834715D02*
X113780325Y-46834715D01*
X113780325Y-46834715D02*
X113723182Y-46806143D01*
X113723182Y-46806143D02*
X113694611Y-46749001D01*
X113694611Y-46749001D02*
X113694611Y-46634715D01*
X113694611Y-46634715D02*
X113723182Y-46577572D01*
X113723182Y-46577572D02*
X113780325Y-46549001D01*
X113780325Y-46549001D02*
X113837468Y-46549001D01*
X113837468Y-46549001D02*
X113894611Y-46834715D01*
X114094611Y-46206143D02*
X114066040Y-46263286D01*
X114066040Y-46263286D02*
X114008897Y-46291857D01*
X114008897Y-46291857D02*
X113494611Y-46291857D01*
D11*
X112743059Y-67042137D02*
X111743059Y-67042137D01*
X111743059Y-67042137D02*
X111743059Y-66661185D01*
X111743059Y-66661185D02*
X111790678Y-66565947D01*
X111790678Y-66565947D02*
X111838297Y-66518328D01*
X111838297Y-66518328D02*
X111933535Y-66470709D01*
X111933535Y-66470709D02*
X112076392Y-66470709D01*
X112076392Y-66470709D02*
X112171630Y-66518328D01*
X112171630Y-66518328D02*
X112219249Y-66565947D01*
X112219249Y-66565947D02*
X112266868Y-66661185D01*
X112266868Y-66661185D02*
X112266868Y-67042137D01*
X112743059Y-65899280D02*
X112695440Y-65994518D01*
X112695440Y-65994518D02*
X112600201Y-66042137D01*
X112600201Y-66042137D02*
X111743059Y-66042137D01*
X112743059Y-65089756D02*
X112219249Y-65089756D01*
X112219249Y-65089756D02*
X112124011Y-65137375D01*
X112124011Y-65137375D02*
X112076392Y-65232613D01*
X112076392Y-65232613D02*
X112076392Y-65423089D01*
X112076392Y-65423089D02*
X112124011Y-65518327D01*
X112695440Y-65089756D02*
X112743059Y-65184994D01*
X112743059Y-65184994D02*
X112743059Y-65423089D01*
X112743059Y-65423089D02*
X112695440Y-65518327D01*
X112695440Y-65518327D02*
X112600201Y-65565946D01*
X112600201Y-65565946D02*
X112504963Y-65565946D01*
X112504963Y-65565946D02*
X112409725Y-65518327D01*
X112409725Y-65518327D02*
X112362106Y-65423089D01*
X112362106Y-65423089D02*
X112362106Y-65184994D01*
X112362106Y-65184994D02*
X112314487Y-65089756D01*
X112076392Y-64613565D02*
X112743059Y-64613565D01*
X112171630Y-64613565D02*
X112124011Y-64565946D01*
X112124011Y-64565946D02*
X112076392Y-64470708D01*
X112076392Y-64470708D02*
X112076392Y-64327851D01*
X112076392Y-64327851D02*
X112124011Y-64232613D01*
X112124011Y-64232613D02*
X112219249Y-64184994D01*
X112219249Y-64184994D02*
X112743059Y-64184994D01*
X112076392Y-63851660D02*
X112076392Y-63470708D01*
X111743059Y-63708803D02*
X112600201Y-63708803D01*
X112600201Y-63708803D02*
X112695440Y-63661184D01*
X112695440Y-63661184D02*
X112743059Y-63565946D01*
X112743059Y-63565946D02*
X112743059Y-63470708D01*
X111743059Y-62470707D02*
X112743059Y-62232612D01*
X112743059Y-62232612D02*
X112028773Y-62042136D01*
X112028773Y-62042136D02*
X112743059Y-61851660D01*
X112743059Y-61851660D02*
X111743059Y-61613565D01*
X112743059Y-60804041D02*
X112219249Y-60804041D01*
X112219249Y-60804041D02*
X112124011Y-60851660D01*
X112124011Y-60851660D02*
X112076392Y-60946898D01*
X112076392Y-60946898D02*
X112076392Y-61137374D01*
X112076392Y-61137374D02*
X112124011Y-61232612D01*
X112695440Y-60804041D02*
X112743059Y-60899279D01*
X112743059Y-60899279D02*
X112743059Y-61137374D01*
X112743059Y-61137374D02*
X112695440Y-61232612D01*
X112695440Y-61232612D02*
X112600201Y-61280231D01*
X112600201Y-61280231D02*
X112504963Y-61280231D01*
X112504963Y-61280231D02*
X112409725Y-61232612D01*
X112409725Y-61232612D02*
X112362106Y-61137374D01*
X112362106Y-61137374D02*
X112362106Y-60899279D01*
X112362106Y-60899279D02*
X112314487Y-60804041D01*
X112076392Y-60470707D02*
X112076392Y-60089755D01*
X111743059Y-60327850D02*
X112600201Y-60327850D01*
X112600201Y-60327850D02*
X112695440Y-60280231D01*
X112695440Y-60280231D02*
X112743059Y-60184993D01*
X112743059Y-60184993D02*
X112743059Y-60089755D01*
X112695440Y-59375469D02*
X112743059Y-59470707D01*
X112743059Y-59470707D02*
X112743059Y-59661183D01*
X112743059Y-59661183D02*
X112695440Y-59756421D01*
X112695440Y-59756421D02*
X112600201Y-59804040D01*
X112600201Y-59804040D02*
X112219249Y-59804040D01*
X112219249Y-59804040D02*
X112124011Y-59756421D01*
X112124011Y-59756421D02*
X112076392Y-59661183D01*
X112076392Y-59661183D02*
X112076392Y-59470707D01*
X112076392Y-59470707D02*
X112124011Y-59375469D01*
X112124011Y-59375469D02*
X112219249Y-59327850D01*
X112219249Y-59327850D02*
X112314487Y-59327850D01*
X112314487Y-59327850D02*
X112409725Y-59804040D01*
X112743059Y-58899278D02*
X112076392Y-58899278D01*
X112266868Y-58899278D02*
X112171630Y-58851659D01*
X112171630Y-58851659D02*
X112124011Y-58804040D01*
X112124011Y-58804040D02*
X112076392Y-58708802D01*
X112076392Y-58708802D02*
X112076392Y-58613564D01*
X112743059Y-58280230D02*
X112076392Y-58280230D01*
X111743059Y-58280230D02*
X111790678Y-58327849D01*
X111790678Y-58327849D02*
X111838297Y-58280230D01*
X111838297Y-58280230D02*
X111790678Y-58232611D01*
X111790678Y-58232611D02*
X111743059Y-58280230D01*
X111743059Y-58280230D02*
X111838297Y-58280230D01*
X112076392Y-57804040D02*
X112743059Y-57804040D01*
X112171630Y-57804040D02*
X112124011Y-57756421D01*
X112124011Y-57756421D02*
X112076392Y-57661183D01*
X112076392Y-57661183D02*
X112076392Y-57518326D01*
X112076392Y-57518326D02*
X112124011Y-57423088D01*
X112124011Y-57423088D02*
X112219249Y-57375469D01*
X112219249Y-57375469D02*
X112743059Y-57375469D01*
X112076392Y-56470707D02*
X112885916Y-56470707D01*
X112885916Y-56470707D02*
X112981154Y-56518326D01*
X112981154Y-56518326D02*
X113028773Y-56565945D01*
X113028773Y-56565945D02*
X113076392Y-56661183D01*
X113076392Y-56661183D02*
X113076392Y-56804040D01*
X113076392Y-56804040D02*
X113028773Y-56899278D01*
X112695440Y-56470707D02*
X112743059Y-56565945D01*
X112743059Y-56565945D02*
X112743059Y-56756421D01*
X112743059Y-56756421D02*
X112695440Y-56851659D01*
X112695440Y-56851659D02*
X112647820Y-56899278D01*
X112647820Y-56899278D02*
X112552582Y-56946897D01*
X112552582Y-56946897D02*
X112266868Y-56946897D01*
X112266868Y-56946897D02*
X112171630Y-56899278D01*
X112171630Y-56899278D02*
X112124011Y-56851659D01*
X112124011Y-56851659D02*
X112076392Y-56756421D01*
X112076392Y-56756421D02*
X112076392Y-56565945D01*
X112076392Y-56565945D02*
X112124011Y-56470707D01*
X112647820Y-54661183D02*
X112695440Y-54708802D01*
X112695440Y-54708802D02*
X112743059Y-54851659D01*
X112743059Y-54851659D02*
X112743059Y-54946897D01*
X112743059Y-54946897D02*
X112695440Y-55089754D01*
X112695440Y-55089754D02*
X112600201Y-55184992D01*
X112600201Y-55184992D02*
X112504963Y-55232611D01*
X112504963Y-55232611D02*
X112314487Y-55280230D01*
X112314487Y-55280230D02*
X112171630Y-55280230D01*
X112171630Y-55280230D02*
X111981154Y-55232611D01*
X111981154Y-55232611D02*
X111885916Y-55184992D01*
X111885916Y-55184992D02*
X111790678Y-55089754D01*
X111790678Y-55089754D02*
X111743059Y-54946897D01*
X111743059Y-54946897D02*
X111743059Y-54851659D01*
X111743059Y-54851659D02*
X111790678Y-54708802D01*
X111790678Y-54708802D02*
X111838297Y-54661183D01*
X112743059Y-54089754D02*
X112695440Y-54184992D01*
X112695440Y-54184992D02*
X112647820Y-54232611D01*
X112647820Y-54232611D02*
X112552582Y-54280230D01*
X112552582Y-54280230D02*
X112266868Y-54280230D01*
X112266868Y-54280230D02*
X112171630Y-54232611D01*
X112171630Y-54232611D02*
X112124011Y-54184992D01*
X112124011Y-54184992D02*
X112076392Y-54089754D01*
X112076392Y-54089754D02*
X112076392Y-53946897D01*
X112076392Y-53946897D02*
X112124011Y-53851659D01*
X112124011Y-53851659D02*
X112171630Y-53804040D01*
X112171630Y-53804040D02*
X112266868Y-53756421D01*
X112266868Y-53756421D02*
X112552582Y-53756421D01*
X112552582Y-53756421D02*
X112647820Y-53804040D01*
X112647820Y-53804040D02*
X112695440Y-53851659D01*
X112695440Y-53851659D02*
X112743059Y-53946897D01*
X112743059Y-53946897D02*
X112743059Y-54089754D01*
X112076392Y-53327849D02*
X112743059Y-53327849D01*
X112171630Y-53327849D02*
X112124011Y-53280230D01*
X112124011Y-53280230D02*
X112076392Y-53184992D01*
X112076392Y-53184992D02*
X112076392Y-53042135D01*
X112076392Y-53042135D02*
X112124011Y-52946897D01*
X112124011Y-52946897D02*
X112219249Y-52899278D01*
X112219249Y-52899278D02*
X112743059Y-52899278D01*
X112076392Y-52565944D02*
X112076392Y-52184992D01*
X111743059Y-52423087D02*
X112600201Y-52423087D01*
X112600201Y-52423087D02*
X112695440Y-52375468D01*
X112695440Y-52375468D02*
X112743059Y-52280230D01*
X112743059Y-52280230D02*
X112743059Y-52184992D01*
X112743059Y-51851658D02*
X112076392Y-51851658D01*
X112266868Y-51851658D02*
X112171630Y-51804039D01*
X112171630Y-51804039D02*
X112124011Y-51756420D01*
X112124011Y-51756420D02*
X112076392Y-51661182D01*
X112076392Y-51661182D02*
X112076392Y-51565944D01*
X112743059Y-51089753D02*
X112695440Y-51184991D01*
X112695440Y-51184991D02*
X112647820Y-51232610D01*
X112647820Y-51232610D02*
X112552582Y-51280229D01*
X112552582Y-51280229D02*
X112266868Y-51280229D01*
X112266868Y-51280229D02*
X112171630Y-51232610D01*
X112171630Y-51232610D02*
X112124011Y-51184991D01*
X112124011Y-51184991D02*
X112076392Y-51089753D01*
X112076392Y-51089753D02*
X112076392Y-50946896D01*
X112076392Y-50946896D02*
X112124011Y-50851658D01*
X112124011Y-50851658D02*
X112171630Y-50804039D01*
X112171630Y-50804039D02*
X112266868Y-50756420D01*
X112266868Y-50756420D02*
X112552582Y-50756420D01*
X112552582Y-50756420D02*
X112647820Y-50804039D01*
X112647820Y-50804039D02*
X112695440Y-50851658D01*
X112695440Y-50851658D02*
X112743059Y-50946896D01*
X112743059Y-50946896D02*
X112743059Y-51089753D01*
X112743059Y-50184991D02*
X112695440Y-50280229D01*
X112695440Y-50280229D02*
X112600201Y-50327848D01*
X112600201Y-50327848D02*
X111743059Y-50327848D01*
X112743059Y-49661181D02*
X112695440Y-49756419D01*
X112695440Y-49756419D02*
X112600201Y-49804038D01*
X112600201Y-49804038D02*
X111743059Y-49804038D01*
X112695440Y-48899276D02*
X112743059Y-48994514D01*
X112743059Y-48994514D02*
X112743059Y-49184990D01*
X112743059Y-49184990D02*
X112695440Y-49280228D01*
X112695440Y-49280228D02*
X112600201Y-49327847D01*
X112600201Y-49327847D02*
X112219249Y-49327847D01*
X112219249Y-49327847D02*
X112124011Y-49280228D01*
X112124011Y-49280228D02*
X112076392Y-49184990D01*
X112076392Y-49184990D02*
X112076392Y-48994514D01*
X112076392Y-48994514D02*
X112124011Y-48899276D01*
X112124011Y-48899276D02*
X112219249Y-48851657D01*
X112219249Y-48851657D02*
X112314487Y-48851657D01*
X112314487Y-48851657D02*
X112409725Y-49327847D01*
X112743059Y-48423085D02*
X112076392Y-48423085D01*
X112266868Y-48423085D02*
X112171630Y-48375466D01*
X112171630Y-48375466D02*
X112124011Y-48327847D01*
X112124011Y-48327847D02*
X112076392Y-48232609D01*
X112076392Y-48232609D02*
X112076392Y-48137371D01*
X165794295Y-74782268D02*
X166365723Y-74782268D01*
X166365723Y-74782268D02*
X166480009Y-74820363D01*
X166480009Y-74820363D02*
X166556200Y-74896554D01*
X166556200Y-74896554D02*
X166594295Y-75010839D01*
X166594295Y-75010839D02*
X166594295Y-75087030D01*
X166594295Y-74020363D02*
X166594295Y-74401315D01*
X166594295Y-74401315D02*
X165794295Y-74401315D01*
X166518104Y-73296553D02*
X166556200Y-73334649D01*
X166556200Y-73334649D02*
X166594295Y-73448934D01*
X166594295Y-73448934D02*
X166594295Y-73525125D01*
X166594295Y-73525125D02*
X166556200Y-73639411D01*
X166556200Y-73639411D02*
X166480009Y-73715601D01*
X166480009Y-73715601D02*
X166403819Y-73753696D01*
X166403819Y-73753696D02*
X166251438Y-73791792D01*
X166251438Y-73791792D02*
X166137152Y-73791792D01*
X166137152Y-73791792D02*
X165984771Y-73753696D01*
X165984771Y-73753696D02*
X165908580Y-73715601D01*
X165908580Y-73715601D02*
X165832390Y-73639411D01*
X165832390Y-73639411D02*
X165794295Y-73525125D01*
X165794295Y-73525125D02*
X165794295Y-73448934D01*
X165794295Y-73448934D02*
X165832390Y-73334649D01*
X165832390Y-73334649D02*
X165870485Y-73296553D01*
X165794295Y-72725125D02*
X166365723Y-72725125D01*
X166365723Y-72725125D02*
X166480009Y-72763220D01*
X166480009Y-72763220D02*
X166556200Y-72839411D01*
X166556200Y-72839411D02*
X166594295Y-72953696D01*
X166594295Y-72953696D02*
X166594295Y-73029887D01*
X166594295Y-71963220D02*
X166594295Y-72344172D01*
X166594295Y-72344172D02*
X165794295Y-72344172D01*
X166518104Y-71239410D02*
X166556200Y-71277506D01*
X166556200Y-71277506D02*
X166594295Y-71391791D01*
X166594295Y-71391791D02*
X166594295Y-71467982D01*
X166594295Y-71467982D02*
X166556200Y-71582268D01*
X166556200Y-71582268D02*
X166480009Y-71658458D01*
X166480009Y-71658458D02*
X166403819Y-71696553D01*
X166403819Y-71696553D02*
X166251438Y-71734649D01*
X166251438Y-71734649D02*
X166137152Y-71734649D01*
X166137152Y-71734649D02*
X165984771Y-71696553D01*
X165984771Y-71696553D02*
X165908580Y-71658458D01*
X165908580Y-71658458D02*
X165832390Y-71582268D01*
X165832390Y-71582268D02*
X165794295Y-71467982D01*
X165794295Y-71467982D02*
X165794295Y-71391791D01*
X165794295Y-71391791D02*
X165832390Y-71277506D01*
X165832390Y-71277506D02*
X165870485Y-71239410D01*
X165794295Y-70667982D02*
X166365723Y-70667982D01*
X166365723Y-70667982D02*
X166480009Y-70706077D01*
X166480009Y-70706077D02*
X166556200Y-70782268D01*
X166556200Y-70782268D02*
X166594295Y-70896553D01*
X166594295Y-70896553D02*
X166594295Y-70972744D01*
X166594295Y-69906077D02*
X166594295Y-70287029D01*
X166594295Y-70287029D02*
X165794295Y-70287029D01*
X166518104Y-69182267D02*
X166556200Y-69220363D01*
X166556200Y-69220363D02*
X166594295Y-69334648D01*
X166594295Y-69334648D02*
X166594295Y-69410839D01*
X166594295Y-69410839D02*
X166556200Y-69525125D01*
X166556200Y-69525125D02*
X166480009Y-69601315D01*
X166480009Y-69601315D02*
X166403819Y-69639410D01*
X166403819Y-69639410D02*
X166251438Y-69677506D01*
X166251438Y-69677506D02*
X166137152Y-69677506D01*
X166137152Y-69677506D02*
X165984771Y-69639410D01*
X165984771Y-69639410D02*
X165908580Y-69601315D01*
X165908580Y-69601315D02*
X165832390Y-69525125D01*
X165832390Y-69525125D02*
X165794295Y-69410839D01*
X165794295Y-69410839D02*
X165794295Y-69334648D01*
X165794295Y-69334648D02*
X165832390Y-69220363D01*
X165832390Y-69220363D02*
X165870485Y-69182267D01*
X165794295Y-68610839D02*
X166365723Y-68610839D01*
X166365723Y-68610839D02*
X166480009Y-68648934D01*
X166480009Y-68648934D02*
X166556200Y-68725125D01*
X166556200Y-68725125D02*
X166594295Y-68839410D01*
X166594295Y-68839410D02*
X166594295Y-68915601D01*
X166594295Y-67848934D02*
X166594295Y-68229886D01*
X166594295Y-68229886D02*
X165794295Y-68229886D01*
X166518104Y-67125124D02*
X166556200Y-67163220D01*
X166556200Y-67163220D02*
X166594295Y-67277505D01*
X166594295Y-67277505D02*
X166594295Y-67353696D01*
X166594295Y-67353696D02*
X166556200Y-67467982D01*
X166556200Y-67467982D02*
X166480009Y-67544172D01*
X166480009Y-67544172D02*
X166403819Y-67582267D01*
X166403819Y-67582267D02*
X166251438Y-67620363D01*
X166251438Y-67620363D02*
X166137152Y-67620363D01*
X166137152Y-67620363D02*
X165984771Y-67582267D01*
X165984771Y-67582267D02*
X165908580Y-67544172D01*
X165908580Y-67544172D02*
X165832390Y-67467982D01*
X165832390Y-67467982D02*
X165794295Y-67353696D01*
X165794295Y-67353696D02*
X165794295Y-67277505D01*
X165794295Y-67277505D02*
X165832390Y-67163220D01*
X165832390Y-67163220D02*
X165870485Y-67125124D01*
D10*
X135357143Y-43872371D02*
X135357143Y-43272371D01*
X135357143Y-43272371D02*
X135500000Y-43272371D01*
X135500000Y-43272371D02*
X135585714Y-43300942D01*
X135585714Y-43300942D02*
X135642857Y-43358085D01*
X135642857Y-43358085D02*
X135671428Y-43415228D01*
X135671428Y-43415228D02*
X135700000Y-43529514D01*
X135700000Y-43529514D02*
X135700000Y-43615228D01*
X135700000Y-43615228D02*
X135671428Y-43729514D01*
X135671428Y-43729514D02*
X135642857Y-43786657D01*
X135642857Y-43786657D02*
X135585714Y-43843800D01*
X135585714Y-43843800D02*
X135500000Y-43872371D01*
X135500000Y-43872371D02*
X135357143Y-43872371D01*
X135900000Y-43272371D02*
X136271428Y-43272371D01*
X136271428Y-43272371D02*
X136071428Y-43500942D01*
X136071428Y-43500942D02*
X136157143Y-43500942D01*
X136157143Y-43500942D02*
X136214286Y-43529514D01*
X136214286Y-43529514D02*
X136242857Y-43558085D01*
X136242857Y-43558085D02*
X136271428Y-43615228D01*
X136271428Y-43615228D02*
X136271428Y-43758085D01*
X136271428Y-43758085D02*
X136242857Y-43815228D01*
X136242857Y-43815228D02*
X136214286Y-43843800D01*
X136214286Y-43843800D02*
X136157143Y-43872371D01*
X136157143Y-43872371D02*
X135985714Y-43872371D01*
X135985714Y-43872371D02*
X135928571Y-43843800D01*
X135928571Y-43843800D02*
X135900000Y-43815228D01*
X141914285Y-73972371D02*
X141714285Y-73686657D01*
X141571428Y-73972371D02*
X141571428Y-73372371D01*
X141571428Y-73372371D02*
X141799999Y-73372371D01*
X141799999Y-73372371D02*
X141857142Y-73400942D01*
X141857142Y-73400942D02*
X141885713Y-73429514D01*
X141885713Y-73429514D02*
X141914285Y-73486657D01*
X141914285Y-73486657D02*
X141914285Y-73572371D01*
X141914285Y-73572371D02*
X141885713Y-73629514D01*
X141885713Y-73629514D02*
X141857142Y-73658085D01*
X141857142Y-73658085D02*
X141799999Y-73686657D01*
X141799999Y-73686657D02*
X141571428Y-73686657D01*
X142485713Y-73972371D02*
X142142856Y-73972371D01*
X142314285Y-73972371D02*
X142314285Y-73372371D01*
X142314285Y-73372371D02*
X142257142Y-73458085D01*
X142257142Y-73458085D02*
X142199999Y-73515228D01*
X142199999Y-73515228D02*
X142142856Y-73543800D01*
X143028571Y-73372371D02*
X142742857Y-73372371D01*
X142742857Y-73372371D02*
X142714285Y-73658085D01*
X142714285Y-73658085D02*
X142742857Y-73629514D01*
X142742857Y-73629514D02*
X142800000Y-73600942D01*
X142800000Y-73600942D02*
X142942857Y-73600942D01*
X142942857Y-73600942D02*
X143000000Y-73629514D01*
X143000000Y-73629514D02*
X143028571Y-73658085D01*
X143028571Y-73658085D02*
X143057142Y-73715228D01*
X143057142Y-73715228D02*
X143057142Y-73858085D01*
X143057142Y-73858085D02*
X143028571Y-73915228D01*
X143028571Y-73915228D02*
X143000000Y-73943800D01*
X143000000Y-73943800D02*
X142942857Y-73972371D01*
X142942857Y-73972371D02*
X142800000Y-73972371D01*
X142800000Y-73972371D02*
X142742857Y-73943800D01*
X142742857Y-73943800D02*
X142714285Y-73915228D01*
X115295000Y-54172371D02*
X115095000Y-53886657D01*
X114952143Y-54172371D02*
X114952143Y-53572371D01*
X114952143Y-53572371D02*
X115180714Y-53572371D01*
X115180714Y-53572371D02*
X115237857Y-53600942D01*
X115237857Y-53600942D02*
X115266428Y-53629514D01*
X115266428Y-53629514D02*
X115295000Y-53686657D01*
X115295000Y-53686657D02*
X115295000Y-53772371D01*
X115295000Y-53772371D02*
X115266428Y-53829514D01*
X115266428Y-53829514D02*
X115237857Y-53858085D01*
X115237857Y-53858085D02*
X115180714Y-53886657D01*
X115180714Y-53886657D02*
X114952143Y-53886657D01*
X115809286Y-53772371D02*
X115809286Y-54172371D01*
X115666428Y-53543800D02*
X115523571Y-53972371D01*
X115523571Y-53972371D02*
X115895000Y-53972371D01*
X166300000Y-51572371D02*
X166014286Y-51572371D01*
X166014286Y-51572371D02*
X166014286Y-50972371D01*
X166814285Y-51572371D02*
X166471428Y-51572371D01*
X166642857Y-51572371D02*
X166642857Y-50972371D01*
X166642857Y-50972371D02*
X166585714Y-51058085D01*
X166585714Y-51058085D02*
X166528571Y-51115228D01*
X166528571Y-51115228D02*
X166471428Y-51143800D01*
X159750000Y-60490228D02*
X159721428Y-60518800D01*
X159721428Y-60518800D02*
X159635714Y-60547371D01*
X159635714Y-60547371D02*
X159578571Y-60547371D01*
X159578571Y-60547371D02*
X159492857Y-60518800D01*
X159492857Y-60518800D02*
X159435714Y-60461657D01*
X159435714Y-60461657D02*
X159407143Y-60404514D01*
X159407143Y-60404514D02*
X159378571Y-60290228D01*
X159378571Y-60290228D02*
X159378571Y-60204514D01*
X159378571Y-60204514D02*
X159407143Y-60090228D01*
X159407143Y-60090228D02*
X159435714Y-60033085D01*
X159435714Y-60033085D02*
X159492857Y-59975942D01*
X159492857Y-59975942D02*
X159578571Y-59947371D01*
X159578571Y-59947371D02*
X159635714Y-59947371D01*
X159635714Y-59947371D02*
X159721428Y-59975942D01*
X159721428Y-59975942D02*
X159750000Y-60004514D01*
X160264286Y-59947371D02*
X160150000Y-59947371D01*
X160150000Y-59947371D02*
X160092857Y-59975942D01*
X160092857Y-59975942D02*
X160064286Y-60004514D01*
X160064286Y-60004514D02*
X160007143Y-60090228D01*
X160007143Y-60090228D02*
X159978571Y-60204514D01*
X159978571Y-60204514D02*
X159978571Y-60433085D01*
X159978571Y-60433085D02*
X160007143Y-60490228D01*
X160007143Y-60490228D02*
X160035714Y-60518800D01*
X160035714Y-60518800D02*
X160092857Y-60547371D01*
X160092857Y-60547371D02*
X160207143Y-60547371D01*
X160207143Y-60547371D02*
X160264286Y-60518800D01*
X160264286Y-60518800D02*
X160292857Y-60490228D01*
X160292857Y-60490228D02*
X160321428Y-60433085D01*
X160321428Y-60433085D02*
X160321428Y-60290228D01*
X160321428Y-60290228D02*
X160292857Y-60233085D01*
X160292857Y-60233085D02*
X160264286Y-60204514D01*
X160264286Y-60204514D02*
X160207143Y-60175942D01*
X160207143Y-60175942D02*
X160092857Y-60175942D01*
X160092857Y-60175942D02*
X160035714Y-60204514D01*
X160035714Y-60204514D02*
X160007143Y-60233085D01*
X160007143Y-60233085D02*
X159978571Y-60290228D01*
X141442371Y-47074999D02*
X141156657Y-47274999D01*
X141442371Y-47417856D02*
X140842371Y-47417856D01*
X140842371Y-47417856D02*
X140842371Y-47189285D01*
X140842371Y-47189285D02*
X140870942Y-47132142D01*
X140870942Y-47132142D02*
X140899514Y-47103571D01*
X140899514Y-47103571D02*
X140956657Y-47074999D01*
X140956657Y-47074999D02*
X141042371Y-47074999D01*
X141042371Y-47074999D02*
X141099514Y-47103571D01*
X141099514Y-47103571D02*
X141128085Y-47132142D01*
X141128085Y-47132142D02*
X141156657Y-47189285D01*
X141156657Y-47189285D02*
X141156657Y-47417856D01*
X141442371Y-46503571D02*
X141442371Y-46846428D01*
X141442371Y-46674999D02*
X140842371Y-46674999D01*
X140842371Y-46674999D02*
X140928085Y-46732142D01*
X140928085Y-46732142D02*
X140985228Y-46789285D01*
X140985228Y-46789285D02*
X141013800Y-46846428D01*
X141000000Y-57372371D02*
X140800000Y-57086657D01*
X140657143Y-57372371D02*
X140657143Y-56772371D01*
X140657143Y-56772371D02*
X140885714Y-56772371D01*
X140885714Y-56772371D02*
X140942857Y-56800942D01*
X140942857Y-56800942D02*
X140971428Y-56829514D01*
X140971428Y-56829514D02*
X141000000Y-56886657D01*
X141000000Y-56886657D02*
X141000000Y-56972371D01*
X141000000Y-56972371D02*
X140971428Y-57029514D01*
X140971428Y-57029514D02*
X140942857Y-57058085D01*
X140942857Y-57058085D02*
X140885714Y-57086657D01*
X140885714Y-57086657D02*
X140657143Y-57086657D01*
X141285714Y-57372371D02*
X141400000Y-57372371D01*
X141400000Y-57372371D02*
X141457143Y-57343800D01*
X141457143Y-57343800D02*
X141485714Y-57315228D01*
X141485714Y-57315228D02*
X141542857Y-57229514D01*
X141542857Y-57229514D02*
X141571428Y-57115228D01*
X141571428Y-57115228D02*
X141571428Y-56886657D01*
X141571428Y-56886657D02*
X141542857Y-56829514D01*
X141542857Y-56829514D02*
X141514286Y-56800942D01*
X141514286Y-56800942D02*
X141457143Y-56772371D01*
X141457143Y-56772371D02*
X141342857Y-56772371D01*
X141342857Y-56772371D02*
X141285714Y-56800942D01*
X141285714Y-56800942D02*
X141257143Y-56829514D01*
X141257143Y-56829514D02*
X141228571Y-56886657D01*
X141228571Y-56886657D02*
X141228571Y-57029514D01*
X141228571Y-57029514D02*
X141257143Y-57086657D01*
X141257143Y-57086657D02*
X141285714Y-57115228D01*
X141285714Y-57115228D02*
X141342857Y-57143800D01*
X141342857Y-57143800D02*
X141457143Y-57143800D01*
X141457143Y-57143800D02*
X141514286Y-57115228D01*
X141514286Y-57115228D02*
X141542857Y-57086657D01*
X141542857Y-57086657D02*
X141571428Y-57029514D01*
X117199000Y-47527628D02*
X117199000Y-47099057D01*
X117199000Y-47099057D02*
X117227571Y-47013342D01*
X117227571Y-47013342D02*
X117284714Y-46956200D01*
X117284714Y-46956200D02*
X117370428Y-46927628D01*
X117370428Y-46927628D02*
X117427571Y-46927628D01*
X116599000Y-46927628D02*
X116941857Y-46927628D01*
X116770428Y-46927628D02*
X116770428Y-47527628D01*
X116770428Y-47527628D02*
X116827571Y-47441914D01*
X116827571Y-47441914D02*
X116884714Y-47384771D01*
X116884714Y-47384771D02*
X116941857Y-47356200D01*
D11*
X119199000Y-45950633D02*
X118665667Y-45950633D01*
X117432333Y-45683966D02*
X117832333Y-45683966D01*
X117632333Y-45683966D02*
X117632333Y-46383966D01*
X117632333Y-46383966D02*
X117699000Y-46283966D01*
X117699000Y-46283966D02*
X117765667Y-46217300D01*
X117765667Y-46217300D02*
X117832333Y-46183966D01*
X117165666Y-46317300D02*
X117132333Y-46350633D01*
X117132333Y-46350633D02*
X117065666Y-46383966D01*
X117065666Y-46383966D02*
X116899000Y-46383966D01*
X116899000Y-46383966D02*
X116832333Y-46350633D01*
X116832333Y-46350633D02*
X116799000Y-46317300D01*
X116799000Y-46317300D02*
X116765666Y-46250633D01*
X116765666Y-46250633D02*
X116765666Y-46183966D01*
X116765666Y-46183966D02*
X116799000Y-46083966D01*
X116799000Y-46083966D02*
X117199000Y-45683966D01*
X117199000Y-45683966D02*
X116765666Y-45683966D01*
X116565666Y-46383966D02*
X116332333Y-45683966D01*
X116332333Y-45683966D02*
X116098999Y-46383966D01*
X115332333Y-45950633D02*
X114799000Y-45950633D01*
X115065666Y-45683966D02*
X115065666Y-46217300D01*
D10*
X115009285Y-58572371D02*
X114809285Y-58286657D01*
X114666428Y-58572371D02*
X114666428Y-57972371D01*
X114666428Y-57972371D02*
X114894999Y-57972371D01*
X114894999Y-57972371D02*
X114952142Y-58000942D01*
X114952142Y-58000942D02*
X114980713Y-58029514D01*
X114980713Y-58029514D02*
X115009285Y-58086657D01*
X115009285Y-58086657D02*
X115009285Y-58172371D01*
X115009285Y-58172371D02*
X114980713Y-58229514D01*
X114980713Y-58229514D02*
X114952142Y-58258085D01*
X114952142Y-58258085D02*
X114894999Y-58286657D01*
X114894999Y-58286657D02*
X114666428Y-58286657D01*
X115580713Y-58572371D02*
X115237856Y-58572371D01*
X115409285Y-58572371D02*
X115409285Y-57972371D01*
X115409285Y-57972371D02*
X115352142Y-58058085D01*
X115352142Y-58058085D02*
X115294999Y-58115228D01*
X115294999Y-58115228D02*
X115237856Y-58143800D01*
X115952142Y-57972371D02*
X116009285Y-57972371D01*
X116009285Y-57972371D02*
X116066428Y-58000942D01*
X116066428Y-58000942D02*
X116095000Y-58029514D01*
X116095000Y-58029514D02*
X116123571Y-58086657D01*
X116123571Y-58086657D02*
X116152142Y-58200942D01*
X116152142Y-58200942D02*
X116152142Y-58343800D01*
X116152142Y-58343800D02*
X116123571Y-58458085D01*
X116123571Y-58458085D02*
X116095000Y-58515228D01*
X116095000Y-58515228D02*
X116066428Y-58543800D01*
X116066428Y-58543800D02*
X116009285Y-58572371D01*
X116009285Y-58572371D02*
X115952142Y-58572371D01*
X115952142Y-58572371D02*
X115895000Y-58543800D01*
X115895000Y-58543800D02*
X115866428Y-58515228D01*
X115866428Y-58515228D02*
X115837857Y-58458085D01*
X115837857Y-58458085D02*
X115809285Y-58343800D01*
X115809285Y-58343800D02*
X115809285Y-58200942D01*
X115809285Y-58200942D02*
X115837857Y-58086657D01*
X115837857Y-58086657D02*
X115866428Y-58029514D01*
X115866428Y-58029514D02*
X115895000Y-58000942D01*
X115895000Y-58000942D02*
X115952142Y-57972371D01*
X136799999Y-72572371D02*
X136799999Y-73000942D01*
X136799999Y-73000942D02*
X136771428Y-73086657D01*
X136771428Y-73086657D02*
X136714285Y-73143800D01*
X136714285Y-73143800D02*
X136628571Y-73172371D01*
X136628571Y-73172371D02*
X136571428Y-73172371D01*
X137371428Y-72572371D02*
X137085714Y-72572371D01*
X137085714Y-72572371D02*
X137057142Y-72858085D01*
X137057142Y-72858085D02*
X137085714Y-72829514D01*
X137085714Y-72829514D02*
X137142857Y-72800942D01*
X137142857Y-72800942D02*
X137285714Y-72800942D01*
X137285714Y-72800942D02*
X137342857Y-72829514D01*
X137342857Y-72829514D02*
X137371428Y-72858085D01*
X137371428Y-72858085D02*
X137399999Y-72915228D01*
X137399999Y-72915228D02*
X137399999Y-73058085D01*
X137399999Y-73058085D02*
X137371428Y-73115228D01*
X137371428Y-73115228D02*
X137342857Y-73143800D01*
X137342857Y-73143800D02*
X137285714Y-73172371D01*
X137285714Y-73172371D02*
X137142857Y-73172371D01*
X137142857Y-73172371D02*
X137085714Y-73143800D01*
X137085714Y-73143800D02*
X137057142Y-73115228D01*
X134485714Y-73572371D02*
X134628571Y-74172371D01*
X134628571Y-74172371D02*
X134742857Y-73743800D01*
X134742857Y-73743800D02*
X134857142Y-74172371D01*
X134857142Y-74172371D02*
X135000000Y-73572371D01*
X135485714Y-74172371D02*
X135485714Y-73858085D01*
X135485714Y-73858085D02*
X135457142Y-73800942D01*
X135457142Y-73800942D02*
X135399999Y-73772371D01*
X135399999Y-73772371D02*
X135285714Y-73772371D01*
X135285714Y-73772371D02*
X135228571Y-73800942D01*
X135485714Y-74143800D02*
X135428571Y-74172371D01*
X135428571Y-74172371D02*
X135285714Y-74172371D01*
X135285714Y-74172371D02*
X135228571Y-74143800D01*
X135228571Y-74143800D02*
X135199999Y-74086657D01*
X135199999Y-74086657D02*
X135199999Y-74029514D01*
X135199999Y-74029514D02*
X135228571Y-73972371D01*
X135228571Y-73972371D02*
X135285714Y-73943800D01*
X135285714Y-73943800D02*
X135428571Y-73943800D01*
X135428571Y-73943800D02*
X135485714Y-73915228D01*
X135685713Y-73772371D02*
X135914285Y-73772371D01*
X135771428Y-73572371D02*
X135771428Y-74086657D01*
X135771428Y-74086657D02*
X135799999Y-74143800D01*
X135799999Y-74143800D02*
X135857142Y-74172371D01*
X135857142Y-74172371D02*
X135914285Y-74172371D01*
X136342856Y-74143800D02*
X136285713Y-74172371D01*
X136285713Y-74172371D02*
X136171428Y-74172371D01*
X136171428Y-74172371D02*
X136114285Y-74143800D01*
X136114285Y-74143800D02*
X136085713Y-74086657D01*
X136085713Y-74086657D02*
X136085713Y-73858085D01*
X136085713Y-73858085D02*
X136114285Y-73800942D01*
X136114285Y-73800942D02*
X136171428Y-73772371D01*
X136171428Y-73772371D02*
X136285713Y-73772371D01*
X136285713Y-73772371D02*
X136342856Y-73800942D01*
X136342856Y-73800942D02*
X136371428Y-73858085D01*
X136371428Y-73858085D02*
X136371428Y-73915228D01*
X136371428Y-73915228D02*
X136085713Y-73972371D01*
X136628571Y-74172371D02*
X136628571Y-73772371D01*
X136628571Y-73886657D02*
X136657142Y-73829514D01*
X136657142Y-73829514D02*
X136685714Y-73800942D01*
X136685714Y-73800942D02*
X136742856Y-73772371D01*
X136742856Y-73772371D02*
X136799999Y-73772371D01*
X137742857Y-74172371D02*
X137457143Y-74172371D01*
X137457143Y-74172371D02*
X137457143Y-73572371D01*
X138171428Y-74143800D02*
X138114285Y-74172371D01*
X138114285Y-74172371D02*
X138000000Y-74172371D01*
X138000000Y-74172371D02*
X137942857Y-74143800D01*
X137942857Y-74143800D02*
X137914285Y-74086657D01*
X137914285Y-74086657D02*
X137914285Y-73858085D01*
X137914285Y-73858085D02*
X137942857Y-73800942D01*
X137942857Y-73800942D02*
X138000000Y-73772371D01*
X138000000Y-73772371D02*
X138114285Y-73772371D01*
X138114285Y-73772371D02*
X138171428Y-73800942D01*
X138171428Y-73800942D02*
X138200000Y-73858085D01*
X138200000Y-73858085D02*
X138200000Y-73915228D01*
X138200000Y-73915228D02*
X137914285Y-73972371D01*
X138400000Y-73772371D02*
X138542857Y-74172371D01*
X138542857Y-74172371D02*
X138685714Y-73772371D01*
X139142857Y-74143800D02*
X139085714Y-74172371D01*
X139085714Y-74172371D02*
X138971429Y-74172371D01*
X138971429Y-74172371D02*
X138914286Y-74143800D01*
X138914286Y-74143800D02*
X138885714Y-74086657D01*
X138885714Y-74086657D02*
X138885714Y-73858085D01*
X138885714Y-73858085D02*
X138914286Y-73800942D01*
X138914286Y-73800942D02*
X138971429Y-73772371D01*
X138971429Y-73772371D02*
X139085714Y-73772371D01*
X139085714Y-73772371D02*
X139142857Y-73800942D01*
X139142857Y-73800942D02*
X139171429Y-73858085D01*
X139171429Y-73858085D02*
X139171429Y-73915228D01*
X139171429Y-73915228D02*
X138885714Y-73972371D01*
X139514286Y-74172371D02*
X139457143Y-74143800D01*
X139457143Y-74143800D02*
X139428572Y-74086657D01*
X139428572Y-74086657D02*
X139428572Y-73572371D01*
X133600000Y-58372371D02*
X133400000Y-58086657D01*
X133257143Y-58372371D02*
X133257143Y-57772371D01*
X133257143Y-57772371D02*
X133485714Y-57772371D01*
X133485714Y-57772371D02*
X133542857Y-57800942D01*
X133542857Y-57800942D02*
X133571428Y-57829514D01*
X133571428Y-57829514D02*
X133600000Y-57886657D01*
X133600000Y-57886657D02*
X133600000Y-57972371D01*
X133600000Y-57972371D02*
X133571428Y-58029514D01*
X133571428Y-58029514D02*
X133542857Y-58058085D01*
X133542857Y-58058085D02*
X133485714Y-58086657D01*
X133485714Y-58086657D02*
X133257143Y-58086657D01*
X134114286Y-57772371D02*
X134000000Y-57772371D01*
X134000000Y-57772371D02*
X133942857Y-57800942D01*
X133942857Y-57800942D02*
X133914286Y-57829514D01*
X133914286Y-57829514D02*
X133857143Y-57915228D01*
X133857143Y-57915228D02*
X133828571Y-58029514D01*
X133828571Y-58029514D02*
X133828571Y-58258085D01*
X133828571Y-58258085D02*
X133857143Y-58315228D01*
X133857143Y-58315228D02*
X133885714Y-58343800D01*
X133885714Y-58343800D02*
X133942857Y-58372371D01*
X133942857Y-58372371D02*
X134057143Y-58372371D01*
X134057143Y-58372371D02*
X134114286Y-58343800D01*
X134114286Y-58343800D02*
X134142857Y-58315228D01*
X134142857Y-58315228D02*
X134171428Y-58258085D01*
X134171428Y-58258085D02*
X134171428Y-58115228D01*
X134171428Y-58115228D02*
X134142857Y-58058085D01*
X134142857Y-58058085D02*
X134114286Y-58029514D01*
X134114286Y-58029514D02*
X134057143Y-58000942D01*
X134057143Y-58000942D02*
X133942857Y-58000942D01*
X133942857Y-58000942D02*
X133885714Y-58029514D01*
X133885714Y-58029514D02*
X133857143Y-58058085D01*
X133857143Y-58058085D02*
X133828571Y-58115228D01*
X137550000Y-57065228D02*
X137521428Y-57093800D01*
X137521428Y-57093800D02*
X137435714Y-57122371D01*
X137435714Y-57122371D02*
X137378571Y-57122371D01*
X137378571Y-57122371D02*
X137292857Y-57093800D01*
X137292857Y-57093800D02*
X137235714Y-57036657D01*
X137235714Y-57036657D02*
X137207143Y-56979514D01*
X137207143Y-56979514D02*
X137178571Y-56865228D01*
X137178571Y-56865228D02*
X137178571Y-56779514D01*
X137178571Y-56779514D02*
X137207143Y-56665228D01*
X137207143Y-56665228D02*
X137235714Y-56608085D01*
X137235714Y-56608085D02*
X137292857Y-56550942D01*
X137292857Y-56550942D02*
X137378571Y-56522371D01*
X137378571Y-56522371D02*
X137435714Y-56522371D01*
X137435714Y-56522371D02*
X137521428Y-56550942D01*
X137521428Y-56550942D02*
X137550000Y-56579514D01*
X138064286Y-56722371D02*
X138064286Y-57122371D01*
X137921428Y-56493800D02*
X137778571Y-56922371D01*
X137778571Y-56922371D02*
X138150000Y-56922371D01*
X131257143Y-58397371D02*
X131257143Y-57797371D01*
X131257143Y-57797371D02*
X131400000Y-57797371D01*
X131400000Y-57797371D02*
X131485714Y-57825942D01*
X131485714Y-57825942D02*
X131542857Y-57883085D01*
X131542857Y-57883085D02*
X131571428Y-57940228D01*
X131571428Y-57940228D02*
X131600000Y-58054514D01*
X131600000Y-58054514D02*
X131600000Y-58140228D01*
X131600000Y-58140228D02*
X131571428Y-58254514D01*
X131571428Y-58254514D02*
X131542857Y-58311657D01*
X131542857Y-58311657D02*
X131485714Y-58368800D01*
X131485714Y-58368800D02*
X131400000Y-58397371D01*
X131400000Y-58397371D02*
X131257143Y-58397371D01*
X131800000Y-57797371D02*
X132200000Y-57797371D01*
X132200000Y-57797371D02*
X131942857Y-58397371D01*
X131257143Y-54272371D02*
X131257143Y-53672371D01*
X131257143Y-53672371D02*
X131485714Y-53672371D01*
X131485714Y-53672371D02*
X131542857Y-53700942D01*
X131542857Y-53700942D02*
X131571428Y-53729514D01*
X131571428Y-53729514D02*
X131600000Y-53786657D01*
X131600000Y-53786657D02*
X131600000Y-53872371D01*
X131600000Y-53872371D02*
X131571428Y-53929514D01*
X131571428Y-53929514D02*
X131542857Y-53958085D01*
X131542857Y-53958085D02*
X131485714Y-53986657D01*
X131485714Y-53986657D02*
X131257143Y-53986657D01*
X131828571Y-53729514D02*
X131857143Y-53700942D01*
X131857143Y-53700942D02*
X131914286Y-53672371D01*
X131914286Y-53672371D02*
X132057143Y-53672371D01*
X132057143Y-53672371D02*
X132114286Y-53700942D01*
X132114286Y-53700942D02*
X132142857Y-53729514D01*
X132142857Y-53729514D02*
X132171428Y-53786657D01*
X132171428Y-53786657D02*
X132171428Y-53843800D01*
X132171428Y-53843800D02*
X132142857Y-53929514D01*
X132142857Y-53929514D02*
X131800000Y-54272371D01*
X131800000Y-54272371D02*
X132171428Y-54272371D01*
X163300000Y-60465228D02*
X163271428Y-60493800D01*
X163271428Y-60493800D02*
X163185714Y-60522371D01*
X163185714Y-60522371D02*
X163128571Y-60522371D01*
X163128571Y-60522371D02*
X163042857Y-60493800D01*
X163042857Y-60493800D02*
X162985714Y-60436657D01*
X162985714Y-60436657D02*
X162957143Y-60379514D01*
X162957143Y-60379514D02*
X162928571Y-60265228D01*
X162928571Y-60265228D02*
X162928571Y-60179514D01*
X162928571Y-60179514D02*
X162957143Y-60065228D01*
X162957143Y-60065228D02*
X162985714Y-60008085D01*
X162985714Y-60008085D02*
X163042857Y-59950942D01*
X163042857Y-59950942D02*
X163128571Y-59922371D01*
X163128571Y-59922371D02*
X163185714Y-59922371D01*
X163185714Y-59922371D02*
X163271428Y-59950942D01*
X163271428Y-59950942D02*
X163300000Y-59979514D01*
X163500000Y-59922371D02*
X163900000Y-59922371D01*
X163900000Y-59922371D02*
X163642857Y-60522371D01*
D11*
X144810715Y-58446307D02*
X144917858Y-58482021D01*
X144917858Y-58482021D02*
X144953572Y-58517735D01*
X144953572Y-58517735D02*
X144989286Y-58589164D01*
X144989286Y-58589164D02*
X144989286Y-58696307D01*
X144989286Y-58696307D02*
X144953572Y-58767735D01*
X144953572Y-58767735D02*
X144917858Y-58803450D01*
X144917858Y-58803450D02*
X144846429Y-58839164D01*
X144846429Y-58839164D02*
X144560715Y-58839164D01*
X144560715Y-58839164D02*
X144560715Y-58089164D01*
X144560715Y-58089164D02*
X144810715Y-58089164D01*
X144810715Y-58089164D02*
X144882144Y-58124878D01*
X144882144Y-58124878D02*
X144917858Y-58160592D01*
X144917858Y-58160592D02*
X144953572Y-58232021D01*
X144953572Y-58232021D02*
X144953572Y-58303450D01*
X144953572Y-58303450D02*
X144917858Y-58374878D01*
X144917858Y-58374878D02*
X144882144Y-58410592D01*
X144882144Y-58410592D02*
X144810715Y-58446307D01*
X144810715Y-58446307D02*
X144560715Y-58446307D01*
X145417858Y-58839164D02*
X145346429Y-58803450D01*
X145346429Y-58803450D02*
X145310715Y-58767735D01*
X145310715Y-58767735D02*
X145275001Y-58696307D01*
X145275001Y-58696307D02*
X145275001Y-58482021D01*
X145275001Y-58482021D02*
X145310715Y-58410592D01*
X145310715Y-58410592D02*
X145346429Y-58374878D01*
X145346429Y-58374878D02*
X145417858Y-58339164D01*
X145417858Y-58339164D02*
X145525001Y-58339164D01*
X145525001Y-58339164D02*
X145596429Y-58374878D01*
X145596429Y-58374878D02*
X145632144Y-58410592D01*
X145632144Y-58410592D02*
X145667858Y-58482021D01*
X145667858Y-58482021D02*
X145667858Y-58696307D01*
X145667858Y-58696307D02*
X145632144Y-58767735D01*
X145632144Y-58767735D02*
X145596429Y-58803450D01*
X145596429Y-58803450D02*
X145525001Y-58839164D01*
X145525001Y-58839164D02*
X145417858Y-58839164D01*
X146096429Y-58839164D02*
X146025000Y-58803450D01*
X146025000Y-58803450D02*
X145989286Y-58767735D01*
X145989286Y-58767735D02*
X145953572Y-58696307D01*
X145953572Y-58696307D02*
X145953572Y-58482021D01*
X145953572Y-58482021D02*
X145989286Y-58410592D01*
X145989286Y-58410592D02*
X146025000Y-58374878D01*
X146025000Y-58374878D02*
X146096429Y-58339164D01*
X146096429Y-58339164D02*
X146203572Y-58339164D01*
X146203572Y-58339164D02*
X146275000Y-58374878D01*
X146275000Y-58374878D02*
X146310715Y-58410592D01*
X146310715Y-58410592D02*
X146346429Y-58482021D01*
X146346429Y-58482021D02*
X146346429Y-58696307D01*
X146346429Y-58696307D02*
X146310715Y-58767735D01*
X146310715Y-58767735D02*
X146275000Y-58803450D01*
X146275000Y-58803450D02*
X146203572Y-58839164D01*
X146203572Y-58839164D02*
X146096429Y-58839164D01*
X146560714Y-58339164D02*
X146846428Y-58339164D01*
X146667857Y-58089164D02*
X146667857Y-58732021D01*
X146667857Y-58732021D02*
X146703571Y-58803450D01*
X146703571Y-58803450D02*
X146775000Y-58839164D01*
X146775000Y-58839164D02*
X146846428Y-58839164D01*
D10*
X151357143Y-38772371D02*
X151357143Y-38172371D01*
X151357143Y-38172371D02*
X151500000Y-38172371D01*
X151500000Y-38172371D02*
X151585714Y-38200942D01*
X151585714Y-38200942D02*
X151642857Y-38258085D01*
X151642857Y-38258085D02*
X151671428Y-38315228D01*
X151671428Y-38315228D02*
X151700000Y-38429514D01*
X151700000Y-38429514D02*
X151700000Y-38515228D01*
X151700000Y-38515228D02*
X151671428Y-38629514D01*
X151671428Y-38629514D02*
X151642857Y-38686657D01*
X151642857Y-38686657D02*
X151585714Y-38743800D01*
X151585714Y-38743800D02*
X151500000Y-38772371D01*
X151500000Y-38772371D02*
X151357143Y-38772371D01*
X152271428Y-38772371D02*
X151928571Y-38772371D01*
X152100000Y-38772371D02*
X152100000Y-38172371D01*
X152100000Y-38172371D02*
X152042857Y-38258085D01*
X152042857Y-38258085D02*
X151985714Y-38315228D01*
X151985714Y-38315228D02*
X151928571Y-38343800D01*
X167400000Y-60465228D02*
X167371428Y-60493800D01*
X167371428Y-60493800D02*
X167285714Y-60522371D01*
X167285714Y-60522371D02*
X167228571Y-60522371D01*
X167228571Y-60522371D02*
X167142857Y-60493800D01*
X167142857Y-60493800D02*
X167085714Y-60436657D01*
X167085714Y-60436657D02*
X167057143Y-60379514D01*
X167057143Y-60379514D02*
X167028571Y-60265228D01*
X167028571Y-60265228D02*
X167028571Y-60179514D01*
X167028571Y-60179514D02*
X167057143Y-60065228D01*
X167057143Y-60065228D02*
X167085714Y-60008085D01*
X167085714Y-60008085D02*
X167142857Y-59950942D01*
X167142857Y-59950942D02*
X167228571Y-59922371D01*
X167228571Y-59922371D02*
X167285714Y-59922371D01*
X167285714Y-59922371D02*
X167371428Y-59950942D01*
X167371428Y-59950942D02*
X167400000Y-59979514D01*
X167685714Y-60522371D02*
X167800000Y-60522371D01*
X167800000Y-60522371D02*
X167857143Y-60493800D01*
X167857143Y-60493800D02*
X167885714Y-60465228D01*
X167885714Y-60465228D02*
X167942857Y-60379514D01*
X167942857Y-60379514D02*
X167971428Y-60265228D01*
X167971428Y-60265228D02*
X167971428Y-60036657D01*
X167971428Y-60036657D02*
X167942857Y-59979514D01*
X167942857Y-59979514D02*
X167914286Y-59950942D01*
X167914286Y-59950942D02*
X167857143Y-59922371D01*
X167857143Y-59922371D02*
X167742857Y-59922371D01*
X167742857Y-59922371D02*
X167685714Y-59950942D01*
X167685714Y-59950942D02*
X167657143Y-59979514D01*
X167657143Y-59979514D02*
X167628571Y-60036657D01*
X167628571Y-60036657D02*
X167628571Y-60179514D01*
X167628571Y-60179514D02*
X167657143Y-60236657D01*
X167657143Y-60236657D02*
X167685714Y-60265228D01*
X167685714Y-60265228D02*
X167742857Y-60293800D01*
X167742857Y-60293800D02*
X167857143Y-60293800D01*
X167857143Y-60293800D02*
X167914286Y-60265228D01*
X167914286Y-60265228D02*
X167942857Y-60236657D01*
X167942857Y-60236657D02*
X167971428Y-60179514D01*
X148022371Y-69319642D02*
X148508085Y-69319642D01*
X148508085Y-69319642D02*
X148565228Y-69291071D01*
X148565228Y-69291071D02*
X148593800Y-69262500D01*
X148593800Y-69262500D02*
X148622371Y-69205357D01*
X148622371Y-69205357D02*
X148622371Y-69091071D01*
X148622371Y-69091071D02*
X148593800Y-69033928D01*
X148593800Y-69033928D02*
X148565228Y-69005357D01*
X148565228Y-69005357D02*
X148508085Y-68976785D01*
X148508085Y-68976785D02*
X148022371Y-68976785D01*
X148022371Y-68748214D02*
X148022371Y-68376786D01*
X148022371Y-68376786D02*
X148250942Y-68576786D01*
X148250942Y-68576786D02*
X148250942Y-68491071D01*
X148250942Y-68491071D02*
X148279514Y-68433929D01*
X148279514Y-68433929D02*
X148308085Y-68405357D01*
X148308085Y-68405357D02*
X148365228Y-68376786D01*
X148365228Y-68376786D02*
X148508085Y-68376786D01*
X148508085Y-68376786D02*
X148565228Y-68405357D01*
X148565228Y-68405357D02*
X148593800Y-68433929D01*
X148593800Y-68433929D02*
X148622371Y-68491071D01*
X148622371Y-68491071D02*
X148622371Y-68662500D01*
X148622371Y-68662500D02*
X148593800Y-68719643D01*
X148593800Y-68719643D02*
X148565228Y-68748214D01*
X123614285Y-58672371D02*
X123414285Y-58386657D01*
X123271428Y-58672371D02*
X123271428Y-58072371D01*
X123271428Y-58072371D02*
X123499999Y-58072371D01*
X123499999Y-58072371D02*
X123557142Y-58100942D01*
X123557142Y-58100942D02*
X123585713Y-58129514D01*
X123585713Y-58129514D02*
X123614285Y-58186657D01*
X123614285Y-58186657D02*
X123614285Y-58272371D01*
X123614285Y-58272371D02*
X123585713Y-58329514D01*
X123585713Y-58329514D02*
X123557142Y-58358085D01*
X123557142Y-58358085D02*
X123499999Y-58386657D01*
X123499999Y-58386657D02*
X123271428Y-58386657D01*
X124185713Y-58672371D02*
X123842856Y-58672371D01*
X124014285Y-58672371D02*
X124014285Y-58072371D01*
X124014285Y-58072371D02*
X123957142Y-58158085D01*
X123957142Y-58158085D02*
X123899999Y-58215228D01*
X123899999Y-58215228D02*
X123842856Y-58243800D01*
X124757142Y-58672371D02*
X124414285Y-58672371D01*
X124585714Y-58672371D02*
X124585714Y-58072371D01*
X124585714Y-58072371D02*
X124528571Y-58158085D01*
X124528571Y-58158085D02*
X124471428Y-58215228D01*
X124471428Y-58215228D02*
X124414285Y-58243800D01*
X145942857Y-37122371D02*
X145942857Y-37608085D01*
X145942857Y-37608085D02*
X145971428Y-37665228D01*
X145971428Y-37665228D02*
X146000000Y-37693800D01*
X146000000Y-37693800D02*
X146057142Y-37722371D01*
X146057142Y-37722371D02*
X146171428Y-37722371D01*
X146171428Y-37722371D02*
X146228571Y-37693800D01*
X146228571Y-37693800D02*
X146257142Y-37665228D01*
X146257142Y-37665228D02*
X146285714Y-37608085D01*
X146285714Y-37608085D02*
X146285714Y-37122371D01*
X146885713Y-37722371D02*
X146542856Y-37722371D01*
X146714285Y-37722371D02*
X146714285Y-37122371D01*
X146714285Y-37122371D02*
X146657142Y-37208085D01*
X146657142Y-37208085D02*
X146599999Y-37265228D01*
X146599999Y-37265228D02*
X146542856Y-37293800D01*
X114757143Y-51572371D02*
X114757143Y-50972371D01*
X114757143Y-50972371D02*
X114900000Y-50972371D01*
X114900000Y-50972371D02*
X114985714Y-51000942D01*
X114985714Y-51000942D02*
X115042857Y-51058085D01*
X115042857Y-51058085D02*
X115071428Y-51115228D01*
X115071428Y-51115228D02*
X115100000Y-51229514D01*
X115100000Y-51229514D02*
X115100000Y-51315228D01*
X115100000Y-51315228D02*
X115071428Y-51429514D01*
X115071428Y-51429514D02*
X115042857Y-51486657D01*
X115042857Y-51486657D02*
X114985714Y-51543800D01*
X114985714Y-51543800D02*
X114900000Y-51572371D01*
X114900000Y-51572371D02*
X114757143Y-51572371D01*
X115614286Y-50972371D02*
X115500000Y-50972371D01*
X115500000Y-50972371D02*
X115442857Y-51000942D01*
X115442857Y-51000942D02*
X115414286Y-51029514D01*
X115414286Y-51029514D02*
X115357143Y-51115228D01*
X115357143Y-51115228D02*
X115328571Y-51229514D01*
X115328571Y-51229514D02*
X115328571Y-51458085D01*
X115328571Y-51458085D02*
X115357143Y-51515228D01*
X115357143Y-51515228D02*
X115385714Y-51543800D01*
X115385714Y-51543800D02*
X115442857Y-51572371D01*
X115442857Y-51572371D02*
X115557143Y-51572371D01*
X115557143Y-51572371D02*
X115614286Y-51543800D01*
X115614286Y-51543800D02*
X115642857Y-51515228D01*
X115642857Y-51515228D02*
X115671428Y-51458085D01*
X115671428Y-51458085D02*
X115671428Y-51315228D01*
X115671428Y-51315228D02*
X115642857Y-51258085D01*
X115642857Y-51258085D02*
X115614286Y-51229514D01*
X115614286Y-51229514D02*
X115557143Y-51200942D01*
X115557143Y-51200942D02*
X115442857Y-51200942D01*
X115442857Y-51200942D02*
X115385714Y-51229514D01*
X115385714Y-51229514D02*
X115357143Y-51258085D01*
X115357143Y-51258085D02*
X115328571Y-51315228D01*
X116757143Y-51572371D02*
X116757143Y-50972371D01*
X116757143Y-50972371D02*
X116985714Y-50972371D01*
X116985714Y-50972371D02*
X117042857Y-51000942D01*
X117042857Y-51000942D02*
X117071428Y-51029514D01*
X117071428Y-51029514D02*
X117100000Y-51086657D01*
X117100000Y-51086657D02*
X117100000Y-51172371D01*
X117100000Y-51172371D02*
X117071428Y-51229514D01*
X117071428Y-51229514D02*
X117042857Y-51258085D01*
X117042857Y-51258085D02*
X116985714Y-51286657D01*
X116985714Y-51286657D02*
X116757143Y-51286657D01*
X117671428Y-51572371D02*
X117328571Y-51572371D01*
X117500000Y-51572371D02*
X117500000Y-50972371D01*
X117500000Y-50972371D02*
X117442857Y-51058085D01*
X117442857Y-51058085D02*
X117385714Y-51115228D01*
X117385714Y-51115228D02*
X117328571Y-51143800D01*
X126959999Y-68372371D02*
X126959999Y-68800942D01*
X126959999Y-68800942D02*
X126931428Y-68886657D01*
X126931428Y-68886657D02*
X126874285Y-68943800D01*
X126874285Y-68943800D02*
X126788571Y-68972371D01*
X126788571Y-68972371D02*
X126731428Y-68972371D01*
X127188571Y-68372371D02*
X127559999Y-68372371D01*
X127559999Y-68372371D02*
X127359999Y-68600942D01*
X127359999Y-68600942D02*
X127445714Y-68600942D01*
X127445714Y-68600942D02*
X127502857Y-68629514D01*
X127502857Y-68629514D02*
X127531428Y-68658085D01*
X127531428Y-68658085D02*
X127559999Y-68715228D01*
X127559999Y-68715228D02*
X127559999Y-68858085D01*
X127559999Y-68858085D02*
X127531428Y-68915228D01*
X127531428Y-68915228D02*
X127502857Y-68943800D01*
X127502857Y-68943800D02*
X127445714Y-68972371D01*
X127445714Y-68972371D02*
X127274285Y-68972371D01*
X127274285Y-68972371D02*
X127217142Y-68943800D01*
X127217142Y-68943800D02*
X127188571Y-68915228D01*
D11*
X123876667Y-69949366D02*
X124410001Y-69949366D01*
X125276667Y-70216033D02*
X125276667Y-69516033D01*
X125276667Y-69516033D02*
X125543334Y-69516033D01*
X125543334Y-69516033D02*
X125610001Y-69549366D01*
X125610001Y-69549366D02*
X125643334Y-69582700D01*
X125643334Y-69582700D02*
X125676667Y-69649366D01*
X125676667Y-69649366D02*
X125676667Y-69749366D01*
X125676667Y-69749366D02*
X125643334Y-69816033D01*
X125643334Y-69816033D02*
X125610001Y-69849366D01*
X125610001Y-69849366D02*
X125543334Y-69882700D01*
X125543334Y-69882700D02*
X125276667Y-69882700D01*
X126276667Y-69749366D02*
X126276667Y-70216033D01*
X125976667Y-69749366D02*
X125976667Y-70116033D01*
X125976667Y-70116033D02*
X126010001Y-70182700D01*
X126010001Y-70182700D02*
X126076667Y-70216033D01*
X126076667Y-70216033D02*
X126176667Y-70216033D01*
X126176667Y-70216033D02*
X126243334Y-70182700D01*
X126243334Y-70182700D02*
X126276667Y-70149366D01*
X126610000Y-70216033D02*
X126610000Y-69749366D01*
X126610000Y-69816033D02*
X126643334Y-69782700D01*
X126643334Y-69782700D02*
X126710000Y-69749366D01*
X126710000Y-69749366D02*
X126810000Y-69749366D01*
X126810000Y-69749366D02*
X126876667Y-69782700D01*
X126876667Y-69782700D02*
X126910000Y-69849366D01*
X126910000Y-69849366D02*
X126910000Y-70216033D01*
X126910000Y-69849366D02*
X126943334Y-69782700D01*
X126943334Y-69782700D02*
X127010000Y-69749366D01*
X127010000Y-69749366D02*
X127110000Y-69749366D01*
X127110000Y-69749366D02*
X127176667Y-69782700D01*
X127176667Y-69782700D02*
X127210000Y-69849366D01*
X127210000Y-69849366D02*
X127210000Y-70216033D01*
X127543333Y-69749366D02*
X127543333Y-70449366D01*
X127543333Y-69782700D02*
X127610000Y-69749366D01*
X127610000Y-69749366D02*
X127743333Y-69749366D01*
X127743333Y-69749366D02*
X127810000Y-69782700D01*
X127810000Y-69782700D02*
X127843333Y-69816033D01*
X127843333Y-69816033D02*
X127876667Y-69882700D01*
X127876667Y-69882700D02*
X127876667Y-70082700D01*
X127876667Y-70082700D02*
X127843333Y-70149366D01*
X127843333Y-70149366D02*
X127810000Y-70182700D01*
X127810000Y-70182700D02*
X127743333Y-70216033D01*
X127743333Y-70216033D02*
X127610000Y-70216033D01*
X127610000Y-70216033D02*
X127543333Y-70182700D01*
X128676666Y-69582700D02*
X128709999Y-69549366D01*
X128709999Y-69549366D02*
X128776666Y-69516033D01*
X128776666Y-69516033D02*
X128943333Y-69516033D01*
X128943333Y-69516033D02*
X129009999Y-69549366D01*
X129009999Y-69549366D02*
X129043333Y-69582700D01*
X129043333Y-69582700D02*
X129076666Y-69649366D01*
X129076666Y-69649366D02*
X129076666Y-69716033D01*
X129076666Y-69716033D02*
X129043333Y-69816033D01*
X129043333Y-69816033D02*
X128643333Y-70216033D01*
X128643333Y-70216033D02*
X129076666Y-70216033D01*
X129909999Y-69949366D02*
X130443333Y-69949366D01*
X130176666Y-70216033D02*
X130176666Y-69682700D01*
D10*
X115999999Y-68372371D02*
X115999999Y-68800942D01*
X115999999Y-68800942D02*
X115971428Y-68886657D01*
X115971428Y-68886657D02*
X115914285Y-68943800D01*
X115914285Y-68943800D02*
X115828571Y-68972371D01*
X115828571Y-68972371D02*
X115771428Y-68972371D01*
X116257142Y-68429514D02*
X116285714Y-68400942D01*
X116285714Y-68400942D02*
X116342857Y-68372371D01*
X116342857Y-68372371D02*
X116485714Y-68372371D01*
X116485714Y-68372371D02*
X116542857Y-68400942D01*
X116542857Y-68400942D02*
X116571428Y-68429514D01*
X116571428Y-68429514D02*
X116599999Y-68486657D01*
X116599999Y-68486657D02*
X116599999Y-68543800D01*
X116599999Y-68543800D02*
X116571428Y-68629514D01*
X116571428Y-68629514D02*
X116228571Y-68972371D01*
X116228571Y-68972371D02*
X116599999Y-68972371D01*
D11*
X112916667Y-69949366D02*
X113450001Y-69949366D01*
X114316667Y-70216033D02*
X114316667Y-69516033D01*
X114316667Y-69516033D02*
X114583334Y-69516033D01*
X114583334Y-69516033D02*
X114650001Y-69549366D01*
X114650001Y-69549366D02*
X114683334Y-69582700D01*
X114683334Y-69582700D02*
X114716667Y-69649366D01*
X114716667Y-69649366D02*
X114716667Y-69749366D01*
X114716667Y-69749366D02*
X114683334Y-69816033D01*
X114683334Y-69816033D02*
X114650001Y-69849366D01*
X114650001Y-69849366D02*
X114583334Y-69882700D01*
X114583334Y-69882700D02*
X114316667Y-69882700D01*
X115316667Y-69749366D02*
X115316667Y-70216033D01*
X115016667Y-69749366D02*
X115016667Y-70116033D01*
X115016667Y-70116033D02*
X115050001Y-70182700D01*
X115050001Y-70182700D02*
X115116667Y-70216033D01*
X115116667Y-70216033D02*
X115216667Y-70216033D01*
X115216667Y-70216033D02*
X115283334Y-70182700D01*
X115283334Y-70182700D02*
X115316667Y-70149366D01*
X115650000Y-70216033D02*
X115650000Y-69749366D01*
X115650000Y-69816033D02*
X115683334Y-69782700D01*
X115683334Y-69782700D02*
X115750000Y-69749366D01*
X115750000Y-69749366D02*
X115850000Y-69749366D01*
X115850000Y-69749366D02*
X115916667Y-69782700D01*
X115916667Y-69782700D02*
X115950000Y-69849366D01*
X115950000Y-69849366D02*
X115950000Y-70216033D01*
X115950000Y-69849366D02*
X115983334Y-69782700D01*
X115983334Y-69782700D02*
X116050000Y-69749366D01*
X116050000Y-69749366D02*
X116150000Y-69749366D01*
X116150000Y-69749366D02*
X116216667Y-69782700D01*
X116216667Y-69782700D02*
X116250000Y-69849366D01*
X116250000Y-69849366D02*
X116250000Y-70216033D01*
X116583333Y-69749366D02*
X116583333Y-70449366D01*
X116583333Y-69782700D02*
X116650000Y-69749366D01*
X116650000Y-69749366D02*
X116783333Y-69749366D01*
X116783333Y-69749366D02*
X116850000Y-69782700D01*
X116850000Y-69782700D02*
X116883333Y-69816033D01*
X116883333Y-69816033D02*
X116916667Y-69882700D01*
X116916667Y-69882700D02*
X116916667Y-70082700D01*
X116916667Y-70082700D02*
X116883333Y-70149366D01*
X116883333Y-70149366D02*
X116850000Y-70182700D01*
X116850000Y-70182700D02*
X116783333Y-70216033D01*
X116783333Y-70216033D02*
X116650000Y-70216033D01*
X116650000Y-70216033D02*
X116583333Y-70182700D01*
X118116666Y-70216033D02*
X117716666Y-70216033D01*
X117916666Y-70216033D02*
X117916666Y-69516033D01*
X117916666Y-69516033D02*
X117849999Y-69616033D01*
X117849999Y-69616033D02*
X117783333Y-69682700D01*
X117783333Y-69682700D02*
X117716666Y-69716033D01*
X118949999Y-69949366D02*
X119483333Y-69949366D01*
X119216666Y-70216033D02*
X119216666Y-69682700D01*
D10*
X120365228Y-48624999D02*
X120393800Y-48653571D01*
X120393800Y-48653571D02*
X120422371Y-48739285D01*
X120422371Y-48739285D02*
X120422371Y-48796428D01*
X120422371Y-48796428D02*
X120393800Y-48882142D01*
X120393800Y-48882142D02*
X120336657Y-48939285D01*
X120336657Y-48939285D02*
X120279514Y-48967856D01*
X120279514Y-48967856D02*
X120165228Y-48996428D01*
X120165228Y-48996428D02*
X120079514Y-48996428D01*
X120079514Y-48996428D02*
X119965228Y-48967856D01*
X119965228Y-48967856D02*
X119908085Y-48939285D01*
X119908085Y-48939285D02*
X119850942Y-48882142D01*
X119850942Y-48882142D02*
X119822371Y-48796428D01*
X119822371Y-48796428D02*
X119822371Y-48739285D01*
X119822371Y-48739285D02*
X119850942Y-48653571D01*
X119850942Y-48653571D02*
X119879514Y-48624999D01*
X119822371Y-48424999D02*
X119822371Y-48053571D01*
X119822371Y-48053571D02*
X120050942Y-48253571D01*
X120050942Y-48253571D02*
X120050942Y-48167856D01*
X120050942Y-48167856D02*
X120079514Y-48110714D01*
X120079514Y-48110714D02*
X120108085Y-48082142D01*
X120108085Y-48082142D02*
X120165228Y-48053571D01*
X120165228Y-48053571D02*
X120308085Y-48053571D01*
X120308085Y-48053571D02*
X120365228Y-48082142D01*
X120365228Y-48082142D02*
X120393800Y-48110714D01*
X120393800Y-48110714D02*
X120422371Y-48167856D01*
X120422371Y-48167856D02*
X120422371Y-48339285D01*
X120422371Y-48339285D02*
X120393800Y-48396428D01*
X120393800Y-48396428D02*
X120365228Y-48424999D01*
X165630000Y-60465228D02*
X165601428Y-60493800D01*
X165601428Y-60493800D02*
X165515714Y-60522371D01*
X165515714Y-60522371D02*
X165458571Y-60522371D01*
X165458571Y-60522371D02*
X165372857Y-60493800D01*
X165372857Y-60493800D02*
X165315714Y-60436657D01*
X165315714Y-60436657D02*
X165287143Y-60379514D01*
X165287143Y-60379514D02*
X165258571Y-60265228D01*
X165258571Y-60265228D02*
X165258571Y-60179514D01*
X165258571Y-60179514D02*
X165287143Y-60065228D01*
X165287143Y-60065228D02*
X165315714Y-60008085D01*
X165315714Y-60008085D02*
X165372857Y-59950942D01*
X165372857Y-59950942D02*
X165458571Y-59922371D01*
X165458571Y-59922371D02*
X165515714Y-59922371D01*
X165515714Y-59922371D02*
X165601428Y-59950942D01*
X165601428Y-59950942D02*
X165630000Y-59979514D01*
X165972857Y-60179514D02*
X165915714Y-60150942D01*
X165915714Y-60150942D02*
X165887143Y-60122371D01*
X165887143Y-60122371D02*
X165858571Y-60065228D01*
X165858571Y-60065228D02*
X165858571Y-60036657D01*
X165858571Y-60036657D02*
X165887143Y-59979514D01*
X165887143Y-59979514D02*
X165915714Y-59950942D01*
X165915714Y-59950942D02*
X165972857Y-59922371D01*
X165972857Y-59922371D02*
X166087143Y-59922371D01*
X166087143Y-59922371D02*
X166144286Y-59950942D01*
X166144286Y-59950942D02*
X166172857Y-59979514D01*
X166172857Y-59979514D02*
X166201428Y-60036657D01*
X166201428Y-60036657D02*
X166201428Y-60065228D01*
X166201428Y-60065228D02*
X166172857Y-60122371D01*
X166172857Y-60122371D02*
X166144286Y-60150942D01*
X166144286Y-60150942D02*
X166087143Y-60179514D01*
X166087143Y-60179514D02*
X165972857Y-60179514D01*
X165972857Y-60179514D02*
X165915714Y-60208085D01*
X165915714Y-60208085D02*
X165887143Y-60236657D01*
X165887143Y-60236657D02*
X165858571Y-60293800D01*
X165858571Y-60293800D02*
X165858571Y-60408085D01*
X165858571Y-60408085D02*
X165887143Y-60465228D01*
X165887143Y-60465228D02*
X165915714Y-60493800D01*
X165915714Y-60493800D02*
X165972857Y-60522371D01*
X165972857Y-60522371D02*
X166087143Y-60522371D01*
X166087143Y-60522371D02*
X166144286Y-60493800D01*
X166144286Y-60493800D02*
X166172857Y-60465228D01*
X166172857Y-60465228D02*
X166201428Y-60408085D01*
X166201428Y-60408085D02*
X166201428Y-60293800D01*
X166201428Y-60293800D02*
X166172857Y-60236657D01*
X166172857Y-60236657D02*
X166144286Y-60208085D01*
X166144286Y-60208085D02*
X166087143Y-60179514D01*
X122809514Y-59257142D02*
X122780942Y-59314285D01*
X122780942Y-59314285D02*
X122723800Y-59371428D01*
X122723800Y-59371428D02*
X122638085Y-59457142D01*
X122638085Y-59457142D02*
X122609514Y-59514285D01*
X122609514Y-59514285D02*
X122609514Y-59571428D01*
X122752371Y-59542857D02*
X122723800Y-59600000D01*
X122723800Y-59600000D02*
X122666657Y-59657142D01*
X122666657Y-59657142D02*
X122552371Y-59685714D01*
X122552371Y-59685714D02*
X122352371Y-59685714D01*
X122352371Y-59685714D02*
X122238085Y-59657142D01*
X122238085Y-59657142D02*
X122180942Y-59600000D01*
X122180942Y-59600000D02*
X122152371Y-59542857D01*
X122152371Y-59542857D02*
X122152371Y-59428571D01*
X122152371Y-59428571D02*
X122180942Y-59371428D01*
X122180942Y-59371428D02*
X122238085Y-59314285D01*
X122238085Y-59314285D02*
X122352371Y-59285714D01*
X122352371Y-59285714D02*
X122552371Y-59285714D01*
X122552371Y-59285714D02*
X122666657Y-59314285D01*
X122666657Y-59314285D02*
X122723800Y-59371428D01*
X122723800Y-59371428D02*
X122752371Y-59428571D01*
X122752371Y-59428571D02*
X122752371Y-59542857D01*
X122752371Y-58714286D02*
X122752371Y-59057143D01*
X122752371Y-58885714D02*
X122152371Y-58885714D01*
X122152371Y-58885714D02*
X122238085Y-58942857D01*
X122238085Y-58942857D02*
X122295228Y-59000000D01*
X122295228Y-59000000D02*
X122323800Y-59057143D01*
X131429514Y-59357142D02*
X131400942Y-59414285D01*
X131400942Y-59414285D02*
X131343800Y-59471428D01*
X131343800Y-59471428D02*
X131258085Y-59557142D01*
X131258085Y-59557142D02*
X131229514Y-59614285D01*
X131229514Y-59614285D02*
X131229514Y-59671428D01*
X131372371Y-59642857D02*
X131343800Y-59700000D01*
X131343800Y-59700000D02*
X131286657Y-59757142D01*
X131286657Y-59757142D02*
X131172371Y-59785714D01*
X131172371Y-59785714D02*
X130972371Y-59785714D01*
X130972371Y-59785714D02*
X130858085Y-59757142D01*
X130858085Y-59757142D02*
X130800942Y-59700000D01*
X130800942Y-59700000D02*
X130772371Y-59642857D01*
X130772371Y-59642857D02*
X130772371Y-59528571D01*
X130772371Y-59528571D02*
X130800942Y-59471428D01*
X130800942Y-59471428D02*
X130858085Y-59414285D01*
X130858085Y-59414285D02*
X130972371Y-59385714D01*
X130972371Y-59385714D02*
X131172371Y-59385714D01*
X131172371Y-59385714D02*
X131286657Y-59414285D01*
X131286657Y-59414285D02*
X131343800Y-59471428D01*
X131343800Y-59471428D02*
X131372371Y-59528571D01*
X131372371Y-59528571D02*
X131372371Y-59642857D01*
X130829514Y-59157143D02*
X130800942Y-59128571D01*
X130800942Y-59128571D02*
X130772371Y-59071429D01*
X130772371Y-59071429D02*
X130772371Y-58928571D01*
X130772371Y-58928571D02*
X130800942Y-58871429D01*
X130800942Y-58871429D02*
X130829514Y-58842857D01*
X130829514Y-58842857D02*
X130886657Y-58814286D01*
X130886657Y-58814286D02*
X130943800Y-58814286D01*
X130943800Y-58814286D02*
X131029514Y-58842857D01*
X131029514Y-58842857D02*
X131372371Y-59185714D01*
X131372371Y-59185714D02*
X131372371Y-58814286D01*
X142157143Y-52372371D02*
X142157143Y-51772371D01*
X142157143Y-51772371D02*
X142300000Y-51772371D01*
X142300000Y-51772371D02*
X142385714Y-51800942D01*
X142385714Y-51800942D02*
X142442857Y-51858085D01*
X142442857Y-51858085D02*
X142471428Y-51915228D01*
X142471428Y-51915228D02*
X142500000Y-52029514D01*
X142500000Y-52029514D02*
X142500000Y-52115228D01*
X142500000Y-52115228D02*
X142471428Y-52229514D01*
X142471428Y-52229514D02*
X142442857Y-52286657D01*
X142442857Y-52286657D02*
X142385714Y-52343800D01*
X142385714Y-52343800D02*
X142300000Y-52372371D01*
X142300000Y-52372371D02*
X142157143Y-52372371D01*
X143042857Y-51772371D02*
X142757143Y-51772371D01*
X142757143Y-51772371D02*
X142728571Y-52058085D01*
X142728571Y-52058085D02*
X142757143Y-52029514D01*
X142757143Y-52029514D02*
X142814286Y-52000942D01*
X142814286Y-52000942D02*
X142957143Y-52000942D01*
X142957143Y-52000942D02*
X143014286Y-52029514D01*
X143014286Y-52029514D02*
X143042857Y-52058085D01*
X143042857Y-52058085D02*
X143071428Y-52115228D01*
X143071428Y-52115228D02*
X143071428Y-52258085D01*
X143071428Y-52258085D02*
X143042857Y-52315228D01*
X143042857Y-52315228D02*
X143014286Y-52343800D01*
X143014286Y-52343800D02*
X142957143Y-52372371D01*
X142957143Y-52372371D02*
X142814286Y-52372371D01*
X142814286Y-52372371D02*
X142757143Y-52343800D01*
X142757143Y-52343800D02*
X142728571Y-52315228D01*
X161550000Y-60522371D02*
X161350000Y-60236657D01*
X161207143Y-60522371D02*
X161207143Y-59922371D01*
X161207143Y-59922371D02*
X161435714Y-59922371D01*
X161435714Y-59922371D02*
X161492857Y-59950942D01*
X161492857Y-59950942D02*
X161521428Y-59979514D01*
X161521428Y-59979514D02*
X161550000Y-60036657D01*
X161550000Y-60036657D02*
X161550000Y-60122371D01*
X161550000Y-60122371D02*
X161521428Y-60179514D01*
X161521428Y-60179514D02*
X161492857Y-60208085D01*
X161492857Y-60208085D02*
X161435714Y-60236657D01*
X161435714Y-60236657D02*
X161207143Y-60236657D01*
X161892857Y-60179514D02*
X161835714Y-60150942D01*
X161835714Y-60150942D02*
X161807143Y-60122371D01*
X161807143Y-60122371D02*
X161778571Y-60065228D01*
X161778571Y-60065228D02*
X161778571Y-60036657D01*
X161778571Y-60036657D02*
X161807143Y-59979514D01*
X161807143Y-59979514D02*
X161835714Y-59950942D01*
X161835714Y-59950942D02*
X161892857Y-59922371D01*
X161892857Y-59922371D02*
X162007143Y-59922371D01*
X162007143Y-59922371D02*
X162064286Y-59950942D01*
X162064286Y-59950942D02*
X162092857Y-59979514D01*
X162092857Y-59979514D02*
X162121428Y-60036657D01*
X162121428Y-60036657D02*
X162121428Y-60065228D01*
X162121428Y-60065228D02*
X162092857Y-60122371D01*
X162092857Y-60122371D02*
X162064286Y-60150942D01*
X162064286Y-60150942D02*
X162007143Y-60179514D01*
X162007143Y-60179514D02*
X161892857Y-60179514D01*
X161892857Y-60179514D02*
X161835714Y-60208085D01*
X161835714Y-60208085D02*
X161807143Y-60236657D01*
X161807143Y-60236657D02*
X161778571Y-60293800D01*
X161778571Y-60293800D02*
X161778571Y-60408085D01*
X161778571Y-60408085D02*
X161807143Y-60465228D01*
X161807143Y-60465228D02*
X161835714Y-60493800D01*
X161835714Y-60493800D02*
X161892857Y-60522371D01*
X161892857Y-60522371D02*
X162007143Y-60522371D01*
X162007143Y-60522371D02*
X162064286Y-60493800D01*
X162064286Y-60493800D02*
X162092857Y-60465228D01*
X162092857Y-60465228D02*
X162121428Y-60408085D01*
X162121428Y-60408085D02*
X162121428Y-60293800D01*
X162121428Y-60293800D02*
X162092857Y-60236657D01*
X162092857Y-60236657D02*
X162064286Y-60208085D01*
X162064286Y-60208085D02*
X162007143Y-60179514D01*
X151714285Y-71322371D02*
X151514285Y-71036657D01*
X151371428Y-71322371D02*
X151371428Y-70722371D01*
X151371428Y-70722371D02*
X151599999Y-70722371D01*
X151599999Y-70722371D02*
X151657142Y-70750942D01*
X151657142Y-70750942D02*
X151685713Y-70779514D01*
X151685713Y-70779514D02*
X151714285Y-70836657D01*
X151714285Y-70836657D02*
X151714285Y-70922371D01*
X151714285Y-70922371D02*
X151685713Y-70979514D01*
X151685713Y-70979514D02*
X151657142Y-71008085D01*
X151657142Y-71008085D02*
X151599999Y-71036657D01*
X151599999Y-71036657D02*
X151371428Y-71036657D01*
X152285713Y-71322371D02*
X151942856Y-71322371D01*
X152114285Y-71322371D02*
X152114285Y-70722371D01*
X152114285Y-70722371D02*
X152057142Y-70808085D01*
X152057142Y-70808085D02*
X151999999Y-70865228D01*
X151999999Y-70865228D02*
X151942856Y-70893800D01*
X152800000Y-70922371D02*
X152800000Y-71322371D01*
X152657142Y-70693800D02*
X152514285Y-71122371D01*
X152514285Y-71122371D02*
X152885714Y-71122371D01*
X139121428Y-66622371D02*
X139121428Y-66022371D01*
X139121428Y-66022371D02*
X139264285Y-66022371D01*
X139264285Y-66022371D02*
X139349999Y-66050942D01*
X139349999Y-66050942D02*
X139407142Y-66108085D01*
X139407142Y-66108085D02*
X139435713Y-66165228D01*
X139435713Y-66165228D02*
X139464285Y-66279514D01*
X139464285Y-66279514D02*
X139464285Y-66365228D01*
X139464285Y-66365228D02*
X139435713Y-66479514D01*
X139435713Y-66479514D02*
X139407142Y-66536657D01*
X139407142Y-66536657D02*
X139349999Y-66593800D01*
X139349999Y-66593800D02*
X139264285Y-66622371D01*
X139264285Y-66622371D02*
X139121428Y-66622371D01*
X140035713Y-66622371D02*
X139692856Y-66622371D01*
X139864285Y-66622371D02*
X139864285Y-66022371D01*
X139864285Y-66022371D02*
X139807142Y-66108085D01*
X139807142Y-66108085D02*
X139749999Y-66165228D01*
X139749999Y-66165228D02*
X139692856Y-66193800D01*
X140407142Y-66022371D02*
X140464285Y-66022371D01*
X140464285Y-66022371D02*
X140521428Y-66050942D01*
X140521428Y-66050942D02*
X140550000Y-66079514D01*
X140550000Y-66079514D02*
X140578571Y-66136657D01*
X140578571Y-66136657D02*
X140607142Y-66250942D01*
X140607142Y-66250942D02*
X140607142Y-66393800D01*
X140607142Y-66393800D02*
X140578571Y-66508085D01*
X140578571Y-66508085D02*
X140550000Y-66565228D01*
X140550000Y-66565228D02*
X140521428Y-66593800D01*
X140521428Y-66593800D02*
X140464285Y-66622371D01*
X140464285Y-66622371D02*
X140407142Y-66622371D01*
X140407142Y-66622371D02*
X140350000Y-66593800D01*
X140350000Y-66593800D02*
X140321428Y-66565228D01*
X140321428Y-66565228D02*
X140292857Y-66508085D01*
X140292857Y-66508085D02*
X140264285Y-66393800D01*
X140264285Y-66393800D02*
X140264285Y-66250942D01*
X140264285Y-66250942D02*
X140292857Y-66136657D01*
X140292857Y-66136657D02*
X140321428Y-66079514D01*
X140321428Y-66079514D02*
X140350000Y-66050942D01*
X140350000Y-66050942D02*
X140407142Y-66022371D01*
X151714285Y-67072371D02*
X151514285Y-66786657D01*
X151371428Y-67072371D02*
X151371428Y-66472371D01*
X151371428Y-66472371D02*
X151599999Y-66472371D01*
X151599999Y-66472371D02*
X151657142Y-66500942D01*
X151657142Y-66500942D02*
X151685713Y-66529514D01*
X151685713Y-66529514D02*
X151714285Y-66586657D01*
X151714285Y-66586657D02*
X151714285Y-66672371D01*
X151714285Y-66672371D02*
X151685713Y-66729514D01*
X151685713Y-66729514D02*
X151657142Y-66758085D01*
X151657142Y-66758085D02*
X151599999Y-66786657D01*
X151599999Y-66786657D02*
X151371428Y-66786657D01*
X152285713Y-67072371D02*
X151942856Y-67072371D01*
X152114285Y-67072371D02*
X152114285Y-66472371D01*
X152114285Y-66472371D02*
X152057142Y-66558085D01*
X152057142Y-66558085D02*
X151999999Y-66615228D01*
X151999999Y-66615228D02*
X151942856Y-66643800D01*
X152514285Y-66529514D02*
X152542857Y-66500942D01*
X152542857Y-66500942D02*
X152600000Y-66472371D01*
X152600000Y-66472371D02*
X152742857Y-66472371D01*
X152742857Y-66472371D02*
X152800000Y-66500942D01*
X152800000Y-66500942D02*
X152828571Y-66529514D01*
X152828571Y-66529514D02*
X152857142Y-66586657D01*
X152857142Y-66586657D02*
X152857142Y-66643800D01*
X152857142Y-66643800D02*
X152828571Y-66729514D01*
X152828571Y-66729514D02*
X152485714Y-67072371D01*
X152485714Y-67072371D02*
X152857142Y-67072371D01*
X134122371Y-49642856D02*
X133522371Y-49642856D01*
X133522371Y-49642856D02*
X133522371Y-49499999D01*
X133522371Y-49499999D02*
X133550942Y-49414285D01*
X133550942Y-49414285D02*
X133608085Y-49357142D01*
X133608085Y-49357142D02*
X133665228Y-49328571D01*
X133665228Y-49328571D02*
X133779514Y-49299999D01*
X133779514Y-49299999D02*
X133865228Y-49299999D01*
X133865228Y-49299999D02*
X133979514Y-49328571D01*
X133979514Y-49328571D02*
X134036657Y-49357142D01*
X134036657Y-49357142D02*
X134093800Y-49414285D01*
X134093800Y-49414285D02*
X134122371Y-49499999D01*
X134122371Y-49499999D02*
X134122371Y-49642856D01*
X133722371Y-48785714D02*
X134122371Y-48785714D01*
X133493800Y-48928571D02*
X133922371Y-49071428D01*
X133922371Y-49071428D02*
X133922371Y-48699999D01*
D11*
X155896428Y-53939164D02*
X155646428Y-53582021D01*
X155467857Y-53939164D02*
X155467857Y-53189164D01*
X155467857Y-53189164D02*
X155753571Y-53189164D01*
X155753571Y-53189164D02*
X155825000Y-53224878D01*
X155825000Y-53224878D02*
X155860714Y-53260592D01*
X155860714Y-53260592D02*
X155896428Y-53332021D01*
X155896428Y-53332021D02*
X155896428Y-53439164D01*
X155896428Y-53439164D02*
X155860714Y-53510592D01*
X155860714Y-53510592D02*
X155825000Y-53546307D01*
X155825000Y-53546307D02*
X155753571Y-53582021D01*
X155753571Y-53582021D02*
X155467857Y-53582021D01*
X156503571Y-53903450D02*
X156432143Y-53939164D01*
X156432143Y-53939164D02*
X156289286Y-53939164D01*
X156289286Y-53939164D02*
X156217857Y-53903450D01*
X156217857Y-53903450D02*
X156182143Y-53832021D01*
X156182143Y-53832021D02*
X156182143Y-53546307D01*
X156182143Y-53546307D02*
X156217857Y-53474878D01*
X156217857Y-53474878D02*
X156289286Y-53439164D01*
X156289286Y-53439164D02*
X156432143Y-53439164D01*
X156432143Y-53439164D02*
X156503571Y-53474878D01*
X156503571Y-53474878D02*
X156539286Y-53546307D01*
X156539286Y-53546307D02*
X156539286Y-53617735D01*
X156539286Y-53617735D02*
X156182143Y-53689164D01*
X156825000Y-53903450D02*
X156896428Y-53939164D01*
X156896428Y-53939164D02*
X157039285Y-53939164D01*
X157039285Y-53939164D02*
X157110714Y-53903450D01*
X157110714Y-53903450D02*
X157146428Y-53832021D01*
X157146428Y-53832021D02*
X157146428Y-53796307D01*
X157146428Y-53796307D02*
X157110714Y-53724878D01*
X157110714Y-53724878D02*
X157039285Y-53689164D01*
X157039285Y-53689164D02*
X156932143Y-53689164D01*
X156932143Y-53689164D02*
X156860714Y-53653450D01*
X156860714Y-53653450D02*
X156825000Y-53582021D01*
X156825000Y-53582021D02*
X156825000Y-53546307D01*
X156825000Y-53546307D02*
X156860714Y-53474878D01*
X156860714Y-53474878D02*
X156932143Y-53439164D01*
X156932143Y-53439164D02*
X157039285Y-53439164D01*
X157039285Y-53439164D02*
X157110714Y-53474878D01*
X157753571Y-53903450D02*
X157682143Y-53939164D01*
X157682143Y-53939164D02*
X157539286Y-53939164D01*
X157539286Y-53939164D02*
X157467857Y-53903450D01*
X157467857Y-53903450D02*
X157432143Y-53832021D01*
X157432143Y-53832021D02*
X157432143Y-53546307D01*
X157432143Y-53546307D02*
X157467857Y-53474878D01*
X157467857Y-53474878D02*
X157539286Y-53439164D01*
X157539286Y-53439164D02*
X157682143Y-53439164D01*
X157682143Y-53439164D02*
X157753571Y-53474878D01*
X157753571Y-53474878D02*
X157789286Y-53546307D01*
X157789286Y-53546307D02*
X157789286Y-53617735D01*
X157789286Y-53617735D02*
X157432143Y-53689164D01*
X158003571Y-53439164D02*
X158289285Y-53439164D01*
X158110714Y-53189164D02*
X158110714Y-53832021D01*
X158110714Y-53832021D02*
X158146428Y-53903450D01*
X158146428Y-53903450D02*
X158217857Y-53939164D01*
X158217857Y-53939164D02*
X158289285Y-53939164D01*
D10*
X140100000Y-37115228D02*
X140071428Y-37143800D01*
X140071428Y-37143800D02*
X139985714Y-37172371D01*
X139985714Y-37172371D02*
X139928571Y-37172371D01*
X139928571Y-37172371D02*
X139842857Y-37143800D01*
X139842857Y-37143800D02*
X139785714Y-37086657D01*
X139785714Y-37086657D02*
X139757143Y-37029514D01*
X139757143Y-37029514D02*
X139728571Y-36915228D01*
X139728571Y-36915228D02*
X139728571Y-36829514D01*
X139728571Y-36829514D02*
X139757143Y-36715228D01*
X139757143Y-36715228D02*
X139785714Y-36658085D01*
X139785714Y-36658085D02*
X139842857Y-36600942D01*
X139842857Y-36600942D02*
X139928571Y-36572371D01*
X139928571Y-36572371D02*
X139985714Y-36572371D01*
X139985714Y-36572371D02*
X140071428Y-36600942D01*
X140071428Y-36600942D02*
X140100000Y-36629514D01*
X140328571Y-36629514D02*
X140357143Y-36600942D01*
X140357143Y-36600942D02*
X140414286Y-36572371D01*
X140414286Y-36572371D02*
X140557143Y-36572371D01*
X140557143Y-36572371D02*
X140614286Y-36600942D01*
X140614286Y-36600942D02*
X140642857Y-36629514D01*
X140642857Y-36629514D02*
X140671428Y-36686657D01*
X140671428Y-36686657D02*
X140671428Y-36743800D01*
X140671428Y-36743800D02*
X140642857Y-36829514D01*
X140642857Y-36829514D02*
X140300000Y-37172371D01*
X140300000Y-37172371D02*
X140671428Y-37172371D01*
X151664285Y-73972371D02*
X151464285Y-73686657D01*
X151321428Y-73972371D02*
X151321428Y-73372371D01*
X151321428Y-73372371D02*
X151549999Y-73372371D01*
X151549999Y-73372371D02*
X151607142Y-73400942D01*
X151607142Y-73400942D02*
X151635713Y-73429514D01*
X151635713Y-73429514D02*
X151664285Y-73486657D01*
X151664285Y-73486657D02*
X151664285Y-73572371D01*
X151664285Y-73572371D02*
X151635713Y-73629514D01*
X151635713Y-73629514D02*
X151607142Y-73658085D01*
X151607142Y-73658085D02*
X151549999Y-73686657D01*
X151549999Y-73686657D02*
X151321428Y-73686657D01*
X152235713Y-73972371D02*
X151892856Y-73972371D01*
X152064285Y-73972371D02*
X152064285Y-73372371D01*
X152064285Y-73372371D02*
X152007142Y-73458085D01*
X152007142Y-73458085D02*
X151949999Y-73515228D01*
X151949999Y-73515228D02*
X151892856Y-73543800D01*
X152750000Y-73372371D02*
X152635714Y-73372371D01*
X152635714Y-73372371D02*
X152578571Y-73400942D01*
X152578571Y-73400942D02*
X152550000Y-73429514D01*
X152550000Y-73429514D02*
X152492857Y-73515228D01*
X152492857Y-73515228D02*
X152464285Y-73629514D01*
X152464285Y-73629514D02*
X152464285Y-73858085D01*
X152464285Y-73858085D02*
X152492857Y-73915228D01*
X152492857Y-73915228D02*
X152521428Y-73943800D01*
X152521428Y-73943800D02*
X152578571Y-73972371D01*
X152578571Y-73972371D02*
X152692857Y-73972371D01*
X152692857Y-73972371D02*
X152750000Y-73943800D01*
X152750000Y-73943800D02*
X152778571Y-73915228D01*
X152778571Y-73915228D02*
X152807142Y-73858085D01*
X152807142Y-73858085D02*
X152807142Y-73715228D01*
X152807142Y-73715228D02*
X152778571Y-73658085D01*
X152778571Y-73658085D02*
X152750000Y-73629514D01*
X152750000Y-73629514D02*
X152692857Y-73600942D01*
X152692857Y-73600942D02*
X152578571Y-73600942D01*
X152578571Y-73600942D02*
X152521428Y-73629514D01*
X152521428Y-73629514D02*
X152492857Y-73658085D01*
X152492857Y-73658085D02*
X152464285Y-73715228D01*
X146272371Y-47074999D02*
X145986657Y-47274999D01*
X146272371Y-47417856D02*
X145672371Y-47417856D01*
X145672371Y-47417856D02*
X145672371Y-47189285D01*
X145672371Y-47189285D02*
X145700942Y-47132142D01*
X145700942Y-47132142D02*
X145729514Y-47103571D01*
X145729514Y-47103571D02*
X145786657Y-47074999D01*
X145786657Y-47074999D02*
X145872371Y-47074999D01*
X145872371Y-47074999D02*
X145929514Y-47103571D01*
X145929514Y-47103571D02*
X145958085Y-47132142D01*
X145958085Y-47132142D02*
X145986657Y-47189285D01*
X145986657Y-47189285D02*
X145986657Y-47417856D01*
X145729514Y-46846428D02*
X145700942Y-46817856D01*
X145700942Y-46817856D02*
X145672371Y-46760714D01*
X145672371Y-46760714D02*
X145672371Y-46617856D01*
X145672371Y-46617856D02*
X145700942Y-46560714D01*
X145700942Y-46560714D02*
X145729514Y-46532142D01*
X145729514Y-46532142D02*
X145786657Y-46503571D01*
X145786657Y-46503571D02*
X145843800Y-46503571D01*
X145843800Y-46503571D02*
X145929514Y-46532142D01*
X145929514Y-46532142D02*
X146272371Y-46874999D01*
X146272371Y-46874999D02*
X146272371Y-46503571D01*
X125600000Y-43058085D02*
X125400000Y-43058085D01*
X125400000Y-43372371D02*
X125400000Y-42772371D01*
X125400000Y-42772371D02*
X125685714Y-42772371D01*
X126228571Y-43372371D02*
X125885714Y-43372371D01*
X126057143Y-43372371D02*
X126057143Y-42772371D01*
X126057143Y-42772371D02*
X126000000Y-42858085D01*
X126000000Y-42858085D02*
X125942857Y-42915228D01*
X125942857Y-42915228D02*
X125885714Y-42943800D01*
X120225000Y-51572371D02*
X120025000Y-51286657D01*
X119882143Y-51572371D02*
X119882143Y-50972371D01*
X119882143Y-50972371D02*
X120110714Y-50972371D01*
X120110714Y-50972371D02*
X120167857Y-51000942D01*
X120167857Y-51000942D02*
X120196428Y-51029514D01*
X120196428Y-51029514D02*
X120225000Y-51086657D01*
X120225000Y-51086657D02*
X120225000Y-51172371D01*
X120225000Y-51172371D02*
X120196428Y-51229514D01*
X120196428Y-51229514D02*
X120167857Y-51258085D01*
X120167857Y-51258085D02*
X120110714Y-51286657D01*
X120110714Y-51286657D02*
X119882143Y-51286657D01*
X120425000Y-50972371D02*
X120796428Y-50972371D01*
X120796428Y-50972371D02*
X120596428Y-51200942D01*
X120596428Y-51200942D02*
X120682143Y-51200942D01*
X120682143Y-51200942D02*
X120739286Y-51229514D01*
X120739286Y-51229514D02*
X120767857Y-51258085D01*
X120767857Y-51258085D02*
X120796428Y-51315228D01*
X120796428Y-51315228D02*
X120796428Y-51458085D01*
X120796428Y-51458085D02*
X120767857Y-51515228D01*
X120767857Y-51515228D02*
X120739286Y-51543800D01*
X120739286Y-51543800D02*
X120682143Y-51572371D01*
X120682143Y-51572371D02*
X120510714Y-51572371D01*
X120510714Y-51572371D02*
X120453571Y-51543800D01*
X120453571Y-51543800D02*
X120425000Y-51515228D01*
X130057143Y-43872371D02*
X130057143Y-43272371D01*
X130057143Y-43272371D02*
X130200000Y-43272371D01*
X130200000Y-43272371D02*
X130285714Y-43300942D01*
X130285714Y-43300942D02*
X130342857Y-43358085D01*
X130342857Y-43358085D02*
X130371428Y-43415228D01*
X130371428Y-43415228D02*
X130400000Y-43529514D01*
X130400000Y-43529514D02*
X130400000Y-43615228D01*
X130400000Y-43615228D02*
X130371428Y-43729514D01*
X130371428Y-43729514D02*
X130342857Y-43786657D01*
X130342857Y-43786657D02*
X130285714Y-43843800D01*
X130285714Y-43843800D02*
X130200000Y-43872371D01*
X130200000Y-43872371D02*
X130057143Y-43872371D01*
X130628571Y-43329514D02*
X130657143Y-43300942D01*
X130657143Y-43300942D02*
X130714286Y-43272371D01*
X130714286Y-43272371D02*
X130857143Y-43272371D01*
X130857143Y-43272371D02*
X130914286Y-43300942D01*
X130914286Y-43300942D02*
X130942857Y-43329514D01*
X130942857Y-43329514D02*
X130971428Y-43386657D01*
X130971428Y-43386657D02*
X130971428Y-43443800D01*
X130971428Y-43443800D02*
X130942857Y-43529514D01*
X130942857Y-43529514D02*
X130600000Y-43872371D01*
X130600000Y-43872371D02*
X130971428Y-43872371D01*
X123900000Y-54272371D02*
X123700000Y-53986657D01*
X123557143Y-54272371D02*
X123557143Y-53672371D01*
X123557143Y-53672371D02*
X123785714Y-53672371D01*
X123785714Y-53672371D02*
X123842857Y-53700942D01*
X123842857Y-53700942D02*
X123871428Y-53729514D01*
X123871428Y-53729514D02*
X123900000Y-53786657D01*
X123900000Y-53786657D02*
X123900000Y-53872371D01*
X123900000Y-53872371D02*
X123871428Y-53929514D01*
X123871428Y-53929514D02*
X123842857Y-53958085D01*
X123842857Y-53958085D02*
X123785714Y-53986657D01*
X123785714Y-53986657D02*
X123557143Y-53986657D01*
X124442857Y-53672371D02*
X124157143Y-53672371D01*
X124157143Y-53672371D02*
X124128571Y-53958085D01*
X124128571Y-53958085D02*
X124157143Y-53929514D01*
X124157143Y-53929514D02*
X124214286Y-53900942D01*
X124214286Y-53900942D02*
X124357143Y-53900942D01*
X124357143Y-53900942D02*
X124414286Y-53929514D01*
X124414286Y-53929514D02*
X124442857Y-53958085D01*
X124442857Y-53958085D02*
X124471428Y-54015228D01*
X124471428Y-54015228D02*
X124471428Y-54158085D01*
X124471428Y-54158085D02*
X124442857Y-54215228D01*
X124442857Y-54215228D02*
X124414286Y-54243800D01*
X124414286Y-54243800D02*
X124357143Y-54272371D01*
X124357143Y-54272371D02*
X124214286Y-54272371D01*
X124214286Y-54272371D02*
X124157143Y-54243800D01*
X124157143Y-54243800D02*
X124128571Y-54215228D01*
X153050000Y-60522371D02*
X152850000Y-60236657D01*
X152707143Y-60522371D02*
X152707143Y-59922371D01*
X152707143Y-59922371D02*
X152935714Y-59922371D01*
X152935714Y-59922371D02*
X152992857Y-59950942D01*
X152992857Y-59950942D02*
X153021428Y-59979514D01*
X153021428Y-59979514D02*
X153050000Y-60036657D01*
X153050000Y-60036657D02*
X153050000Y-60122371D01*
X153050000Y-60122371D02*
X153021428Y-60179514D01*
X153021428Y-60179514D02*
X152992857Y-60208085D01*
X152992857Y-60208085D02*
X152935714Y-60236657D01*
X152935714Y-60236657D02*
X152707143Y-60236657D01*
X153250000Y-59922371D02*
X153650000Y-59922371D01*
X153650000Y-59922371D02*
X153392857Y-60522371D01*
X142485228Y-36474999D02*
X142513800Y-36503571D01*
X142513800Y-36503571D02*
X142542371Y-36589285D01*
X142542371Y-36589285D02*
X142542371Y-36646428D01*
X142542371Y-36646428D02*
X142513800Y-36732142D01*
X142513800Y-36732142D02*
X142456657Y-36789285D01*
X142456657Y-36789285D02*
X142399514Y-36817856D01*
X142399514Y-36817856D02*
X142285228Y-36846428D01*
X142285228Y-36846428D02*
X142199514Y-36846428D01*
X142199514Y-36846428D02*
X142085228Y-36817856D01*
X142085228Y-36817856D02*
X142028085Y-36789285D01*
X142028085Y-36789285D02*
X141970942Y-36732142D01*
X141970942Y-36732142D02*
X141942371Y-36646428D01*
X141942371Y-36646428D02*
X141942371Y-36589285D01*
X141942371Y-36589285D02*
X141970942Y-36503571D01*
X141970942Y-36503571D02*
X141999514Y-36474999D01*
X142542371Y-35903571D02*
X142542371Y-36246428D01*
X142542371Y-36074999D02*
X141942371Y-36074999D01*
X141942371Y-36074999D02*
X142028085Y-36132142D01*
X142028085Y-36132142D02*
X142085228Y-36189285D01*
X142085228Y-36189285D02*
X142113800Y-36246428D01*
X117957143Y-63472371D02*
X117957143Y-62872371D01*
X117957143Y-62872371D02*
X118100000Y-62872371D01*
X118100000Y-62872371D02*
X118185714Y-62900942D01*
X118185714Y-62900942D02*
X118242857Y-62958085D01*
X118242857Y-62958085D02*
X118271428Y-63015228D01*
X118271428Y-63015228D02*
X118300000Y-63129514D01*
X118300000Y-63129514D02*
X118300000Y-63215228D01*
X118300000Y-63215228D02*
X118271428Y-63329514D01*
X118271428Y-63329514D02*
X118242857Y-63386657D01*
X118242857Y-63386657D02*
X118185714Y-63443800D01*
X118185714Y-63443800D02*
X118100000Y-63472371D01*
X118100000Y-63472371D02*
X117957143Y-63472371D01*
X118642857Y-63129514D02*
X118585714Y-63100942D01*
X118585714Y-63100942D02*
X118557143Y-63072371D01*
X118557143Y-63072371D02*
X118528571Y-63015228D01*
X118528571Y-63015228D02*
X118528571Y-62986657D01*
X118528571Y-62986657D02*
X118557143Y-62929514D01*
X118557143Y-62929514D02*
X118585714Y-62900942D01*
X118585714Y-62900942D02*
X118642857Y-62872371D01*
X118642857Y-62872371D02*
X118757143Y-62872371D01*
X118757143Y-62872371D02*
X118814286Y-62900942D01*
X118814286Y-62900942D02*
X118842857Y-62929514D01*
X118842857Y-62929514D02*
X118871428Y-62986657D01*
X118871428Y-62986657D02*
X118871428Y-63015228D01*
X118871428Y-63015228D02*
X118842857Y-63072371D01*
X118842857Y-63072371D02*
X118814286Y-63100942D01*
X118814286Y-63100942D02*
X118757143Y-63129514D01*
X118757143Y-63129514D02*
X118642857Y-63129514D01*
X118642857Y-63129514D02*
X118585714Y-63158085D01*
X118585714Y-63158085D02*
X118557143Y-63186657D01*
X118557143Y-63186657D02*
X118528571Y-63243800D01*
X118528571Y-63243800D02*
X118528571Y-63358085D01*
X118528571Y-63358085D02*
X118557143Y-63415228D01*
X118557143Y-63415228D02*
X118585714Y-63443800D01*
X118585714Y-63443800D02*
X118642857Y-63472371D01*
X118642857Y-63472371D02*
X118757143Y-63472371D01*
X118757143Y-63472371D02*
X118814286Y-63443800D01*
X118814286Y-63443800D02*
X118842857Y-63415228D01*
X118842857Y-63415228D02*
X118871428Y-63358085D01*
X118871428Y-63358085D02*
X118871428Y-63243800D01*
X118871428Y-63243800D02*
X118842857Y-63186657D01*
X118842857Y-63186657D02*
X118814286Y-63158085D01*
X118814286Y-63158085D02*
X118757143Y-63129514D01*
X146999999Y-72949871D02*
X146999999Y-73378442D01*
X146999999Y-73378442D02*
X146971428Y-73464157D01*
X146971428Y-73464157D02*
X146914285Y-73521300D01*
X146914285Y-73521300D02*
X146828571Y-73549871D01*
X146828571Y-73549871D02*
X146771428Y-73549871D01*
X147542857Y-73149871D02*
X147542857Y-73549871D01*
X147399999Y-72921300D02*
X147257142Y-73349871D01*
X147257142Y-73349871D02*
X147628571Y-73349871D01*
X130922371Y-46057142D02*
X131408085Y-46057142D01*
X131408085Y-46057142D02*
X131465228Y-46028571D01*
X131465228Y-46028571D02*
X131493800Y-46000000D01*
X131493800Y-46000000D02*
X131522371Y-45942857D01*
X131522371Y-45942857D02*
X131522371Y-45828571D01*
X131522371Y-45828571D02*
X131493800Y-45771428D01*
X131493800Y-45771428D02*
X131465228Y-45742857D01*
X131465228Y-45742857D02*
X131408085Y-45714285D01*
X131408085Y-45714285D02*
X130922371Y-45714285D01*
X130979514Y-45457143D02*
X130950942Y-45428571D01*
X130950942Y-45428571D02*
X130922371Y-45371429D01*
X130922371Y-45371429D02*
X130922371Y-45228571D01*
X130922371Y-45228571D02*
X130950942Y-45171429D01*
X130950942Y-45171429D02*
X130979514Y-45142857D01*
X130979514Y-45142857D02*
X131036657Y-45114286D01*
X131036657Y-45114286D02*
X131093800Y-45114286D01*
X131093800Y-45114286D02*
X131179514Y-45142857D01*
X131179514Y-45142857D02*
X131522371Y-45485714D01*
X131522371Y-45485714D02*
X131522371Y-45114286D01*
X137214285Y-66872371D02*
X137014285Y-66586657D01*
X136871428Y-66872371D02*
X136871428Y-66272371D01*
X136871428Y-66272371D02*
X137099999Y-66272371D01*
X137099999Y-66272371D02*
X137157142Y-66300942D01*
X137157142Y-66300942D02*
X137185713Y-66329514D01*
X137185713Y-66329514D02*
X137214285Y-66386657D01*
X137214285Y-66386657D02*
X137214285Y-66472371D01*
X137214285Y-66472371D02*
X137185713Y-66529514D01*
X137185713Y-66529514D02*
X137157142Y-66558085D01*
X137157142Y-66558085D02*
X137099999Y-66586657D01*
X137099999Y-66586657D02*
X136871428Y-66586657D01*
X137785713Y-66872371D02*
X137442856Y-66872371D01*
X137614285Y-66872371D02*
X137614285Y-66272371D01*
X137614285Y-66272371D02*
X137557142Y-66358085D01*
X137557142Y-66358085D02*
X137499999Y-66415228D01*
X137499999Y-66415228D02*
X137442856Y-66443800D01*
X137985714Y-66272371D02*
X138357142Y-66272371D01*
X138357142Y-66272371D02*
X138157142Y-66500942D01*
X138157142Y-66500942D02*
X138242857Y-66500942D01*
X138242857Y-66500942D02*
X138300000Y-66529514D01*
X138300000Y-66529514D02*
X138328571Y-66558085D01*
X138328571Y-66558085D02*
X138357142Y-66615228D01*
X138357142Y-66615228D02*
X138357142Y-66758085D01*
X138357142Y-66758085D02*
X138328571Y-66815228D01*
X138328571Y-66815228D02*
X138300000Y-66843800D01*
X138300000Y-66843800D02*
X138242857Y-66872371D01*
X138242857Y-66872371D02*
X138071428Y-66872371D01*
X138071428Y-66872371D02*
X138014285Y-66843800D01*
X138014285Y-66843800D02*
X137985714Y-66815228D01*
X127557143Y-63472371D02*
X127557143Y-62872371D01*
X127557143Y-62872371D02*
X127700000Y-62872371D01*
X127700000Y-62872371D02*
X127785714Y-62900942D01*
X127785714Y-62900942D02*
X127842857Y-62958085D01*
X127842857Y-62958085D02*
X127871428Y-63015228D01*
X127871428Y-63015228D02*
X127900000Y-63129514D01*
X127900000Y-63129514D02*
X127900000Y-63215228D01*
X127900000Y-63215228D02*
X127871428Y-63329514D01*
X127871428Y-63329514D02*
X127842857Y-63386657D01*
X127842857Y-63386657D02*
X127785714Y-63443800D01*
X127785714Y-63443800D02*
X127700000Y-63472371D01*
X127700000Y-63472371D02*
X127557143Y-63472371D01*
X128185714Y-63472371D02*
X128300000Y-63472371D01*
X128300000Y-63472371D02*
X128357143Y-63443800D01*
X128357143Y-63443800D02*
X128385714Y-63415228D01*
X128385714Y-63415228D02*
X128442857Y-63329514D01*
X128442857Y-63329514D02*
X128471428Y-63215228D01*
X128471428Y-63215228D02*
X128471428Y-62986657D01*
X128471428Y-62986657D02*
X128442857Y-62929514D01*
X128442857Y-62929514D02*
X128414286Y-62900942D01*
X128414286Y-62900942D02*
X128357143Y-62872371D01*
X128357143Y-62872371D02*
X128242857Y-62872371D01*
X128242857Y-62872371D02*
X128185714Y-62900942D01*
X128185714Y-62900942D02*
X128157143Y-62929514D01*
X128157143Y-62929514D02*
X128128571Y-62986657D01*
X128128571Y-62986657D02*
X128128571Y-63129514D01*
X128128571Y-63129514D02*
X128157143Y-63186657D01*
X128157143Y-63186657D02*
X128185714Y-63215228D01*
X128185714Y-63215228D02*
X128242857Y-63243800D01*
X128242857Y-63243800D02*
X128357143Y-63243800D01*
X128357143Y-63243800D02*
X128414286Y-63215228D01*
X128414286Y-63215228D02*
X128442857Y-63186657D01*
X128442857Y-63186657D02*
X128471428Y-63129514D01*
X155342857Y-77472371D02*
X155342857Y-77958085D01*
X155342857Y-77958085D02*
X155371428Y-78015228D01*
X155371428Y-78015228D02*
X155400000Y-78043800D01*
X155400000Y-78043800D02*
X155457142Y-78072371D01*
X155457142Y-78072371D02*
X155571428Y-78072371D01*
X155571428Y-78072371D02*
X155628571Y-78043800D01*
X155628571Y-78043800D02*
X155657142Y-78015228D01*
X155657142Y-78015228D02*
X155685714Y-77958085D01*
X155685714Y-77958085D02*
X155685714Y-77472371D01*
X156228571Y-77672371D02*
X156228571Y-78072371D01*
X156085713Y-77443800D02*
X155942856Y-77872371D01*
X155942856Y-77872371D02*
X156314285Y-77872371D01*
D11*
X171919104Y-76011905D02*
X171919104Y-75535715D01*
X172204819Y-76107143D02*
X171204819Y-75773810D01*
X171204819Y-75773810D02*
X172204819Y-75440477D01*
X171538152Y-75107143D02*
X172204819Y-75107143D01*
X171633390Y-75107143D02*
X171585771Y-75059524D01*
X171585771Y-75059524D02*
X171538152Y-74964286D01*
X171538152Y-74964286D02*
X171538152Y-74821429D01*
X171538152Y-74821429D02*
X171585771Y-74726191D01*
X171585771Y-74726191D02*
X171681009Y-74678572D01*
X171681009Y-74678572D02*
X172204819Y-74678572D01*
X171538152Y-74345238D02*
X171538152Y-73964286D01*
X171204819Y-74202381D02*
X172061961Y-74202381D01*
X172061961Y-74202381D02*
X172157200Y-74154762D01*
X172157200Y-74154762D02*
X172204819Y-74059524D01*
X172204819Y-74059524D02*
X172204819Y-73964286D01*
X172157200Y-73250000D02*
X172204819Y-73345238D01*
X172204819Y-73345238D02*
X172204819Y-73535714D01*
X172204819Y-73535714D02*
X172157200Y-73630952D01*
X172157200Y-73630952D02*
X172061961Y-73678571D01*
X172061961Y-73678571D02*
X171681009Y-73678571D01*
X171681009Y-73678571D02*
X171585771Y-73630952D01*
X171585771Y-73630952D02*
X171538152Y-73535714D01*
X171538152Y-73535714D02*
X171538152Y-73345238D01*
X171538152Y-73345238D02*
X171585771Y-73250000D01*
X171585771Y-73250000D02*
X171681009Y-73202381D01*
X171681009Y-73202381D02*
X171776247Y-73202381D01*
X171776247Y-73202381D02*
X171871485Y-73678571D01*
X171538152Y-72773809D02*
X172204819Y-72773809D01*
X171633390Y-72773809D02*
X171585771Y-72726190D01*
X171585771Y-72726190D02*
X171538152Y-72630952D01*
X171538152Y-72630952D02*
X171538152Y-72488095D01*
X171538152Y-72488095D02*
X171585771Y-72392857D01*
X171585771Y-72392857D02*
X171681009Y-72345238D01*
X171681009Y-72345238D02*
X172204819Y-72345238D01*
X171538152Y-71869047D02*
X172204819Y-71869047D01*
X171633390Y-71869047D02*
X171585771Y-71821428D01*
X171585771Y-71821428D02*
X171538152Y-71726190D01*
X171538152Y-71726190D02*
X171538152Y-71583333D01*
X171538152Y-71583333D02*
X171585771Y-71488095D01*
X171585771Y-71488095D02*
X171681009Y-71440476D01*
X171681009Y-71440476D02*
X172204819Y-71440476D01*
X172204819Y-70535714D02*
X171681009Y-70535714D01*
X171681009Y-70535714D02*
X171585771Y-70583333D01*
X171585771Y-70583333D02*
X171538152Y-70678571D01*
X171538152Y-70678571D02*
X171538152Y-70869047D01*
X171538152Y-70869047D02*
X171585771Y-70964285D01*
X172157200Y-70535714D02*
X172204819Y-70630952D01*
X172204819Y-70630952D02*
X172204819Y-70869047D01*
X172204819Y-70869047D02*
X172157200Y-70964285D01*
X172157200Y-70964285D02*
X172061961Y-71011904D01*
X172061961Y-71011904D02*
X171966723Y-71011904D01*
X171966723Y-71011904D02*
X171871485Y-70964285D01*
X171871485Y-70964285D02*
X171823866Y-70869047D01*
X171823866Y-70869047D02*
X171823866Y-70630952D01*
X171823866Y-70630952D02*
X171776247Y-70535714D01*
X171919104Y-69345237D02*
X171919104Y-68869047D01*
X172204819Y-69440475D02*
X171204819Y-69107142D01*
X171204819Y-69107142D02*
X172204819Y-68773809D01*
X172204819Y-68440475D02*
X171538152Y-68440475D01*
X171728628Y-68440475D02*
X171633390Y-68392856D01*
X171633390Y-68392856D02*
X171585771Y-68345237D01*
X171585771Y-68345237D02*
X171538152Y-68249999D01*
X171538152Y-68249999D02*
X171538152Y-68154761D01*
X172157200Y-67440475D02*
X172204819Y-67535713D01*
X172204819Y-67535713D02*
X172204819Y-67726189D01*
X172204819Y-67726189D02*
X172157200Y-67821427D01*
X172157200Y-67821427D02*
X172061961Y-67869046D01*
X172061961Y-67869046D02*
X171681009Y-67869046D01*
X171681009Y-67869046D02*
X171585771Y-67821427D01*
X171585771Y-67821427D02*
X171538152Y-67726189D01*
X171538152Y-67726189D02*
X171538152Y-67535713D01*
X171538152Y-67535713D02*
X171585771Y-67440475D01*
X171585771Y-67440475D02*
X171681009Y-67392856D01*
X171681009Y-67392856D02*
X171776247Y-67392856D01*
X171776247Y-67392856D02*
X171871485Y-67869046D01*
X172204819Y-66535713D02*
X171681009Y-66535713D01*
X171681009Y-66535713D02*
X171585771Y-66583332D01*
X171585771Y-66583332D02*
X171538152Y-66678570D01*
X171538152Y-66678570D02*
X171538152Y-66869046D01*
X171538152Y-66869046D02*
X171585771Y-66964284D01*
X172157200Y-66535713D02*
X172204819Y-66630951D01*
X172204819Y-66630951D02*
X172204819Y-66869046D01*
X172204819Y-66869046D02*
X172157200Y-66964284D01*
X172157200Y-66964284D02*
X172061961Y-67011903D01*
X172061961Y-67011903D02*
X171966723Y-67011903D01*
X171966723Y-67011903D02*
X171871485Y-66964284D01*
X171871485Y-66964284D02*
X171823866Y-66869046D01*
X171823866Y-66869046D02*
X171823866Y-66630951D01*
X171823866Y-66630951D02*
X171776247Y-66535713D01*
D10*
X148500000Y-57515228D02*
X148471428Y-57543800D01*
X148471428Y-57543800D02*
X148385714Y-57572371D01*
X148385714Y-57572371D02*
X148328571Y-57572371D01*
X148328571Y-57572371D02*
X148242857Y-57543800D01*
X148242857Y-57543800D02*
X148185714Y-57486657D01*
X148185714Y-57486657D02*
X148157143Y-57429514D01*
X148157143Y-57429514D02*
X148128571Y-57315228D01*
X148128571Y-57315228D02*
X148128571Y-57229514D01*
X148128571Y-57229514D02*
X148157143Y-57115228D01*
X148157143Y-57115228D02*
X148185714Y-57058085D01*
X148185714Y-57058085D02*
X148242857Y-57000942D01*
X148242857Y-57000942D02*
X148328571Y-56972371D01*
X148328571Y-56972371D02*
X148385714Y-56972371D01*
X148385714Y-56972371D02*
X148471428Y-57000942D01*
X148471428Y-57000942D02*
X148500000Y-57029514D01*
X149042857Y-56972371D02*
X148757143Y-56972371D01*
X148757143Y-56972371D02*
X148728571Y-57258085D01*
X148728571Y-57258085D02*
X148757143Y-57229514D01*
X148757143Y-57229514D02*
X148814286Y-57200942D01*
X148814286Y-57200942D02*
X148957143Y-57200942D01*
X148957143Y-57200942D02*
X149014286Y-57229514D01*
X149014286Y-57229514D02*
X149042857Y-57258085D01*
X149042857Y-57258085D02*
X149071428Y-57315228D01*
X149071428Y-57315228D02*
X149071428Y-57458085D01*
X149071428Y-57458085D02*
X149042857Y-57515228D01*
X149042857Y-57515228D02*
X149014286Y-57543800D01*
X149014286Y-57543800D02*
X148957143Y-57572371D01*
X148957143Y-57572371D02*
X148814286Y-57572371D01*
X148814286Y-57572371D02*
X148757143Y-57543800D01*
X148757143Y-57543800D02*
X148728571Y-57515228D01*
D12*
%TO.C,D3*%
X134100000Y-43010000D02*
X134100000Y-37500000D01*
X134100000Y-43010000D02*
X137400000Y-43010000D01*
X137400000Y-43010000D02*
X137400000Y-37500000D01*
%TO.C,R15*%
X142512258Y-71877500D02*
X142037742Y-71877500D01*
X142512258Y-72922500D02*
X142037742Y-72922500D01*
%TO.C,R4*%
X114872500Y-56112258D02*
X114872500Y-55637742D01*
X115917500Y-56112258D02*
X115917500Y-55637742D01*
D13*
%TO.C,L1*%
X154200000Y-36950000D02*
X154200000Y-50450000D01*
X156769000Y-36950000D02*
X154200000Y-36950000D01*
X156769000Y-50450000D02*
X154200000Y-50450000D01*
X166800000Y-36950000D02*
X164231000Y-36950000D01*
X166800000Y-36950000D02*
X166800000Y-50450000D01*
X166800000Y-50450000D02*
X164231000Y-50450000D01*
D12*
%TO.C,C6*%
X159340000Y-58109420D02*
X159340000Y-58390580D01*
X160360000Y-58109420D02*
X160360000Y-58390580D01*
%TO.C,R1*%
X142077500Y-47212258D02*
X142077500Y-46737742D01*
X143122500Y-47212258D02*
X143122500Y-46737742D01*
%TO.C,R9*%
X140577500Y-59362258D02*
X140577500Y-58887742D01*
X141622500Y-59362258D02*
X141622500Y-58887742D01*
D13*
%TO.C,J1*%
X111411000Y-35708000D02*
X112011000Y-35708000D01*
X111411000Y-36897000D02*
X111411000Y-35708000D01*
X111411000Y-43328000D02*
X112011000Y-43328000D01*
X111411000Y-44472000D02*
X111411000Y-43328000D01*
X112009000Y-35000000D02*
X112009000Y-45000000D01*
X112009000Y-35000000D02*
X121899000Y-35000000D01*
X112009000Y-36171000D02*
X121989000Y-36171000D01*
X112009000Y-37360000D02*
X121989000Y-37360000D01*
X112009000Y-42369000D02*
X112043000Y-42403000D01*
X112009000Y-43738000D02*
X121989000Y-43738000D01*
X112011000Y-36897000D02*
X111411000Y-36897000D01*
X112011000Y-44472000D02*
X111411000Y-44472000D01*
X112039000Y-45000000D02*
X121989000Y-45000000D01*
X112043000Y-42403000D02*
X121989000Y-42403000D01*
X112722000Y-43766000D02*
X112722000Y-43738000D01*
X113916000Y-44960000D02*
X112722000Y-43766000D01*
X114907000Y-44957000D02*
X114907000Y-44960000D01*
X116126000Y-43738000D02*
X114907000Y-44957000D01*
X117596000Y-43738000D02*
X117472000Y-43738000D01*
X118818000Y-44960000D02*
X117596000Y-43738000D01*
X120063000Y-44862000D02*
X120063000Y-44960000D01*
X121186000Y-43738000D02*
X120063000Y-44862000D01*
X121989000Y-35000000D02*
X121989000Y-45000000D01*
D12*
%TO.C,R10*%
X114872500Y-60512258D02*
X114872500Y-60037742D01*
X115917500Y-60512258D02*
X115917500Y-60037742D01*
D13*
%TO.C,J5*%
X134220000Y-74860000D02*
X139780000Y-74860000D01*
X134220000Y-76557000D02*
X139780000Y-76557000D01*
X134220000Y-79395000D02*
X139780000Y-79395000D01*
X134220000Y-81139000D02*
X134220000Y-74860000D01*
X134220000Y-81139000D02*
X139780000Y-81139000D01*
X139780000Y-81139000D02*
X139780000Y-74860000D01*
D12*
%TO.C,R6*%
X133177500Y-56237258D02*
X133177500Y-55762742D01*
X134222500Y-56237258D02*
X134222500Y-55762742D01*
%TO.C,C4*%
X134940000Y-50404437D02*
X134940000Y-54860000D01*
X134940000Y-54860000D02*
X136640000Y-54860000D01*
X136004437Y-49340000D02*
X134940000Y-50404437D01*
X136004437Y-49340000D02*
X136640000Y-49340000D01*
X139385000Y-48475000D02*
X139385000Y-49100000D01*
X139395563Y-49340000D02*
X138760000Y-49340000D01*
X139395563Y-49340000D02*
X140460000Y-50404437D01*
X139697500Y-48787500D02*
X139072500Y-48787500D01*
X140460000Y-50404437D02*
X140460000Y-54860000D01*
X140460000Y-54860000D02*
X138760000Y-54860000D01*
%TO.C,D7*%
X130965000Y-55212500D02*
X130965000Y-57497500D01*
X130965000Y-57497500D02*
X132435000Y-57497500D01*
X132435000Y-57497500D02*
X132435000Y-55212500D01*
%TO.C,C7*%
X162890000Y-58365580D02*
X162890000Y-58084420D01*
X163910000Y-58365580D02*
X163910000Y-58084420D01*
D13*
%TO.C,SW2*%
X143550000Y-59325000D02*
X143550000Y-59394000D01*
X143550000Y-59325000D02*
X147750000Y-59325000D01*
X143550000Y-60506000D02*
X143550000Y-61544000D01*
X143550000Y-62656000D02*
X143550000Y-62725000D01*
X143550000Y-62725000D02*
X147750000Y-62725000D01*
X144888000Y-60390000D02*
X146412000Y-60390000D01*
X144888000Y-61660000D02*
X146412000Y-61660000D01*
X147750000Y-59325000D02*
X147750000Y-59394000D01*
X147750000Y-60506000D02*
X147750000Y-61544000D01*
X147750000Y-62656000D02*
X147750000Y-62725000D01*
X144888000Y-61660000D02*
G75*
G02*
X144886000Y-60390000I-1000J635000D01*
G01*
X146412000Y-60390000D02*
G75*
G02*
X146409947Y-61660013I-5000J-635000D01*
G01*
D12*
%TO.C,D1*%
X152310000Y-35800000D02*
X148450000Y-35800000D01*
X152310000Y-37800000D02*
X148450000Y-37800000D01*
X152310000Y-37800000D02*
X152310000Y-35800000D01*
%TO.C,C9*%
X166990000Y-58365580D02*
X166990000Y-58084420D01*
X168010000Y-58365580D02*
X168010000Y-58084420D01*
%TO.C,U3*%
X144390000Y-68862500D02*
X144390000Y-68062500D01*
X144390000Y-68862500D02*
X144390000Y-69662500D01*
X147510000Y-68862500D02*
X147510000Y-67062500D01*
X147510000Y-68862500D02*
X147510000Y-69662500D01*
%TO.C,R11*%
X123477500Y-60612258D02*
X123477500Y-60137742D01*
X124522500Y-60612258D02*
X124522500Y-60137742D01*
D11*
%TO.C,U1*%
X144325000Y-38375000D02*
X144325000Y-38425000D01*
X144325000Y-38375000D02*
X148475000Y-38375000D01*
X144325000Y-38425000D02*
X142925000Y-38425000D01*
X144325000Y-43525000D02*
X144325000Y-43380000D01*
X144325000Y-43525000D02*
X148475000Y-43525000D01*
X148475000Y-38375000D02*
X148475000Y-38520000D01*
X148475000Y-43525000D02*
X148475000Y-43380000D01*
D12*
%TO.C,D6*%
X114727500Y-51865000D02*
X114727500Y-53335000D01*
X114727500Y-53335000D02*
X117012500Y-53335000D01*
X117012500Y-51865000D02*
X114727500Y-51865000D01*
D13*
%TO.C,J3*%
X122170000Y-81100000D02*
X122170000Y-71100000D01*
X122973000Y-72362000D02*
X124096000Y-71238000D01*
X124096000Y-71238000D02*
X124096000Y-71140000D01*
X125341000Y-71140000D02*
X126563000Y-72362000D01*
X126563000Y-72362000D02*
X126687000Y-72362000D01*
X128033000Y-72362000D02*
X129252000Y-71143000D01*
X129252000Y-71143000D02*
X129252000Y-71140000D01*
X130243000Y-71140000D02*
X131437000Y-72334000D01*
X131437000Y-72334000D02*
X131437000Y-72362000D01*
X132116000Y-73697000D02*
X122170000Y-73697000D01*
X132120000Y-71100000D02*
X122170000Y-71100000D01*
X132148000Y-71628000D02*
X132748000Y-71628000D01*
X132148000Y-79203000D02*
X132748000Y-79203000D01*
X132150000Y-72362000D02*
X122170000Y-72362000D01*
X132150000Y-73731000D02*
X132116000Y-73697000D01*
X132150000Y-78740000D02*
X122170000Y-78740000D01*
X132150000Y-79929000D02*
X122170000Y-79929000D01*
X132150000Y-81100000D02*
X122260000Y-81100000D01*
X132150000Y-81100000D02*
X132150000Y-71100000D01*
X132748000Y-71628000D02*
X132748000Y-72772000D01*
X132748000Y-72772000D02*
X132148000Y-72772000D01*
X132748000Y-79203000D02*
X132748000Y-80392000D01*
X132748000Y-80392000D02*
X132148000Y-80392000D01*
%TO.C,J2*%
X111210000Y-81100000D02*
X111210000Y-71100000D01*
X112013000Y-72362000D02*
X113136000Y-71238000D01*
X113136000Y-71238000D02*
X113136000Y-71140000D01*
X114381000Y-71140000D02*
X115603000Y-72362000D01*
X115603000Y-72362000D02*
X115727000Y-72362000D01*
X117073000Y-72362000D02*
X118292000Y-71143000D01*
X118292000Y-71143000D02*
X118292000Y-71140000D01*
X119283000Y-71140000D02*
X120477000Y-72334000D01*
X120477000Y-72334000D02*
X120477000Y-72362000D01*
X121156000Y-73697000D02*
X111210000Y-73697000D01*
X121160000Y-71100000D02*
X111210000Y-71100000D01*
X121188000Y-71628000D02*
X121788000Y-71628000D01*
X121188000Y-79203000D02*
X121788000Y-79203000D01*
X121190000Y-72362000D02*
X111210000Y-72362000D01*
X121190000Y-73731000D02*
X121156000Y-73697000D01*
X121190000Y-78740000D02*
X111210000Y-78740000D01*
X121190000Y-79929000D02*
X111210000Y-79929000D01*
X121190000Y-81100000D02*
X111300000Y-81100000D01*
X121190000Y-81100000D02*
X121190000Y-71100000D01*
X121788000Y-71628000D02*
X121788000Y-72772000D01*
X121788000Y-72772000D02*
X121188000Y-72772000D01*
X121788000Y-79203000D02*
X121788000Y-80392000D01*
X121788000Y-80392000D02*
X121188000Y-80392000D01*
D12*
%TO.C,C3*%
X120940000Y-47813748D02*
X120940000Y-49236252D01*
X122760000Y-47813748D02*
X122760000Y-49236252D01*
%TO.C,C8*%
X165220000Y-58365580D02*
X165220000Y-58084420D01*
X166240000Y-58365580D02*
X166240000Y-58084420D01*
%TO.C,Q1*%
X116640000Y-58100000D02*
X116640000Y-56150000D01*
X116640000Y-58100000D02*
X116640000Y-60050000D01*
X121760000Y-58100000D02*
X121760000Y-54650000D01*
X121760000Y-58100000D02*
X121760000Y-60050000D01*
%TO.C,Q2*%
X125260000Y-58200000D02*
X125260000Y-56250000D01*
X125260000Y-58200000D02*
X125260000Y-60150000D01*
X130380000Y-58200000D02*
X130380000Y-54750000D01*
X130380000Y-58200000D02*
X130380000Y-60150000D01*
%TO.C,D5*%
X144210000Y-49650000D02*
X141550000Y-49650000D01*
X144210000Y-51350000D02*
X141550000Y-51350000D01*
X144210000Y-51350000D02*
X144210000Y-49650000D01*
%TO.C,R8*%
X161127500Y-58012742D02*
X161127500Y-58487258D01*
X162172500Y-58012742D02*
X162172500Y-58487258D01*
%TO.C,R14*%
X152337258Y-69277500D02*
X151862742Y-69277500D01*
X152337258Y-70322500D02*
X151862742Y-70322500D01*
%TO.C,D10*%
X139000000Y-66890000D02*
X139000000Y-69550000D01*
X140700000Y-66890000D02*
X139000000Y-66890000D01*
X140700000Y-66890000D02*
X140700000Y-69550000D01*
%TO.C,R12*%
X152337258Y-67527500D02*
X151862742Y-67527500D01*
X152337258Y-68572500D02*
X151862742Y-68572500D01*
%TO.C,D4*%
X131150000Y-46840000D02*
X131150000Y-50850000D01*
X133150000Y-46840000D02*
X131150000Y-46840000D01*
X133150000Y-46840000D02*
X133150000Y-50850000D01*
D13*
%TO.C,SW1*%
X155125000Y-55250000D02*
X155194000Y-55250000D01*
X155125000Y-59450000D02*
X155125000Y-55250000D01*
X155125000Y-59450000D02*
X155194000Y-59450000D01*
X156190000Y-58112000D02*
X156190000Y-56588000D01*
X156306000Y-55250000D02*
X157344000Y-55250000D01*
X156306000Y-59450000D02*
X157344000Y-59450000D01*
X157460000Y-58112000D02*
X157460000Y-56588000D01*
X158456000Y-55250000D02*
X158525000Y-55250000D01*
X158456000Y-59450000D02*
X158525000Y-59450000D01*
X158525000Y-59450000D02*
X158525000Y-55250000D01*
X156190000Y-56588000D02*
G75*
G02*
X157460013Y-56590053I635000J-5000D01*
G01*
X157460000Y-58112000D02*
G75*
G02*
X156190000Y-58114000I-635000J-1000D01*
G01*
D12*
%TO.C,C2*%
X139340000Y-40461252D02*
X139340000Y-39038748D01*
X141160000Y-40461252D02*
X141160000Y-39038748D01*
%TO.C,R16*%
X151837742Y-71877500D02*
X152312258Y-71877500D01*
X151837742Y-72922500D02*
X152312258Y-72922500D01*
%TO.C,R2*%
X144077500Y-47212258D02*
X144077500Y-46737742D01*
X145122500Y-47212258D02*
X145122500Y-46737742D01*
%TO.C,F1*%
X124040000Y-40886252D02*
X124040000Y-38113748D01*
X127460000Y-40886252D02*
X127460000Y-38113748D01*
%TO.C,R3*%
X120562258Y-52077500D02*
X120087742Y-52077500D01*
X120562258Y-53122500D02*
X120087742Y-53122500D01*
%TO.C,D2*%
X128850000Y-43010000D02*
X128850000Y-37500000D01*
X128850000Y-43010000D02*
X132150000Y-43010000D01*
X132150000Y-43010000D02*
X132150000Y-37500000D01*
%TO.C,R5*%
X123477500Y-56212258D02*
X123477500Y-55737742D01*
X124522500Y-56212258D02*
X124522500Y-55737742D01*
%TO.C,R7*%
X152627500Y-58012742D02*
X152627500Y-58487258D01*
X153672500Y-58012742D02*
X153672500Y-58487258D01*
%TO.C,C1*%
X143190000Y-36515580D02*
X143190000Y-36234420D01*
X144210000Y-36515580D02*
X144210000Y-36234420D01*
%TO.C,D8*%
X121910000Y-63850000D02*
X116400000Y-63850000D01*
X121910000Y-67150000D02*
X116400000Y-67150000D01*
X121910000Y-67150000D02*
X121910000Y-63850000D01*
D13*
%TO.C,J4*%
X142731000Y-78727500D02*
X142731000Y-76864500D01*
X142731000Y-82445500D02*
X142731000Y-80964500D01*
X151671000Y-78727500D02*
X151671000Y-76863500D01*
X151671000Y-82445500D02*
X142731000Y-82445500D01*
X151671000Y-82445500D02*
X151671000Y-80963500D01*
D12*
%TO.C,U2*%
X123590000Y-47350000D02*
X123590000Y-51110000D01*
X123590000Y-51110000D02*
X124850000Y-51110000D01*
X130410000Y-45100000D02*
X130410000Y-51110000D01*
X130410000Y-51110000D02*
X129150000Y-51110000D01*
%TO.C,R13*%
X137077500Y-68862258D02*
X137077500Y-68387742D01*
X138122500Y-68862258D02*
X138122500Y-68387742D01*
%TO.C,D9*%
X131510000Y-63850000D02*
X126000000Y-63850000D01*
X131510000Y-67150000D02*
X126000000Y-67150000D01*
X131510000Y-67150000D02*
X131510000Y-63850000D01*
%TO.C,U4*%
X154350000Y-62250000D02*
X154600000Y-62250000D01*
X154350000Y-80250000D02*
X154350000Y-62250000D01*
X154600000Y-80250000D02*
X154350000Y-80250000D01*
X168350000Y-80250000D02*
X168350000Y-62300000D01*
X174350000Y-62250000D02*
X167850000Y-62250000D01*
X174350000Y-62250000D02*
X174350000Y-80250000D01*
X174350000Y-80250000D02*
X167850000Y-80250000D01*
%TO.C,C5*%
X145190000Y-49754437D02*
X145190000Y-55510000D01*
X145190000Y-55510000D02*
X147540000Y-55510000D01*
X146254437Y-48690000D02*
X145190000Y-49754437D01*
X146254437Y-48690000D02*
X147540000Y-48690000D01*
X150447500Y-47662500D02*
X150447500Y-48450000D01*
X150841250Y-48056250D02*
X150053750Y-48056250D01*
X150945563Y-48690000D02*
X149660000Y-48690000D01*
X150945563Y-48690000D02*
X152010000Y-49754437D01*
X152010000Y-49754437D02*
X152010000Y-55510000D01*
X152010000Y-55510000D02*
X149660000Y-55510000D01*
%TD*%
M02*
