%TF.GenerationSoftware,KiCad,Pcbnew,8.0.2*%
%TF.CreationDate,2024-05-12T21:02:02+02:00*%
%TF.ProjectId,irrigation,69727269-6761-4746-996f-6e2e6b696361,0.3*%
%TF.SameCoordinates,Original*%
%TF.FileFunction,Drillmap*%
%TF.FilePolarity,Positive*%
%FSLAX45Y45*%
G04 Gerber Fmt 4.5, Leading zero omitted, Abs format (unit mm)*
G04 Created by KiCad (PCBNEW 8.0.2) date 2024-05-12 21:02:02*
%MOMM*%
%LPD*%
G01*
G04 APERTURE LIST*
%ADD10C,0.100000*%
%ADD11C,0.200000*%
%ADD12C,0.110000*%
%ADD13C,0.160000*%
G04 APERTURE END LIST*
D10*
X11110000Y-3490000D02*
X11110000Y-8120000D01*
X16840000Y-3490000D02*
X11110000Y-3490000D01*
X16840000Y-8120000D02*
X16840000Y-3490000D01*
X11110000Y-8120000D02*
X16840000Y-8120000D01*
D11*
D10*
X11524500Y-6095000D02*
X11554500Y-6125000D01*
X11554500Y-6095000D02*
X11524500Y-6125000D01*
X11525000Y-5245000D02*
X11555000Y-5275000D01*
X11555000Y-5245000D02*
X11525000Y-5275000D01*
X11525000Y-5495000D02*
X11555000Y-5525000D01*
X11555000Y-5495000D02*
X11525000Y-5525000D01*
X11725000Y-5775000D02*
X11755000Y-5805000D01*
X11755000Y-5775000D02*
X11725000Y-5805000D01*
X11725000Y-5865000D02*
X11755000Y-5895000D01*
X11755000Y-5865000D02*
X11725000Y-5895000D01*
X11825000Y-6235000D02*
X11855000Y-6265000D01*
X11855000Y-6235000D02*
X11825000Y-6265000D01*
X11844500Y-5505000D02*
X11874500Y-5535000D01*
X11874500Y-5505000D02*
X11844500Y-5535000D01*
X11844500Y-5585000D02*
X11874500Y-5615000D01*
X11874500Y-5585000D02*
X11844500Y-5615000D01*
X11845000Y-5685000D02*
X11875000Y-5715000D01*
X11875000Y-5685000D02*
X11845000Y-5715000D01*
X11845000Y-5775000D02*
X11875000Y-5805000D01*
X11875000Y-5775000D02*
X11845000Y-5805000D01*
X11845000Y-5865000D02*
X11875000Y-5895000D01*
X11875000Y-5865000D02*
X11845000Y-5895000D01*
X11974500Y-5505000D02*
X12004500Y-5535000D01*
X12004500Y-5505000D02*
X11974500Y-5535000D01*
X11974500Y-5595000D02*
X12004500Y-5625000D01*
X12004500Y-5595000D02*
X11974500Y-5625000D01*
X11975000Y-5685000D02*
X12005000Y-5715000D01*
X12005000Y-5685000D02*
X11975000Y-5715000D01*
X11975000Y-5775000D02*
X12005000Y-5805000D01*
X12005000Y-5775000D02*
X11975000Y-5805000D01*
X11975000Y-5865000D02*
X12005000Y-5895000D01*
X12005000Y-5865000D02*
X11975000Y-5895000D01*
X12094500Y-5505000D02*
X12124500Y-5535000D01*
X12124500Y-5505000D02*
X12094500Y-5535000D01*
X12094500Y-5595000D02*
X12124500Y-5625000D01*
X12124500Y-5595000D02*
X12094500Y-5625000D01*
X12095000Y-5685000D02*
X12125000Y-5715000D01*
X12125000Y-5685000D02*
X12095000Y-5715000D01*
X12095000Y-5775000D02*
X12125000Y-5805000D01*
X12125000Y-5775000D02*
X12095000Y-5805000D01*
X12095000Y-5865000D02*
X12125000Y-5895000D01*
X12125000Y-5865000D02*
X12095000Y-5895000D01*
X12135000Y-4985000D02*
X12165000Y-5015000D01*
X12165000Y-4985000D02*
X12135000Y-5015000D01*
X12205000Y-4985000D02*
X12235000Y-5015000D01*
X12235000Y-4985000D02*
X12205000Y-5015000D01*
X12305000Y-6540000D02*
X12335000Y-6570000D01*
X12335000Y-6540000D02*
X12305000Y-6570000D01*
X12385000Y-5505000D02*
X12415000Y-5535000D01*
X12415000Y-5505000D02*
X12385000Y-5535000D01*
X12385000Y-6105000D02*
X12415000Y-6135000D01*
X12415000Y-6105000D02*
X12385000Y-6135000D01*
X12465000Y-6235000D02*
X12495000Y-6265000D01*
X12495000Y-6235000D02*
X12465000Y-6265000D01*
X12575000Y-5785000D02*
X12605000Y-5815000D01*
X12605000Y-5785000D02*
X12575000Y-5815000D01*
X12575000Y-5875000D02*
X12605000Y-5905000D01*
X12605000Y-5875000D02*
X12575000Y-5905000D01*
X12685000Y-6235000D02*
X12715000Y-6265000D01*
X12715000Y-6235000D02*
X12685000Y-6265000D01*
X12705000Y-5515000D02*
X12735000Y-5545000D01*
X12735000Y-5515000D02*
X12705000Y-5545000D01*
X12705000Y-5605000D02*
X12735000Y-5635000D01*
X12735000Y-5605000D02*
X12705000Y-5635000D01*
X12705000Y-5695000D02*
X12735000Y-5725000D01*
X12735000Y-5695000D02*
X12705000Y-5725000D01*
X12705000Y-5785000D02*
X12735000Y-5815000D01*
X12735000Y-5785000D02*
X12705000Y-5815000D01*
X12705000Y-5875000D02*
X12735000Y-5905000D01*
X12735000Y-5875000D02*
X12705000Y-5905000D01*
X12835000Y-5515000D02*
X12865000Y-5545000D01*
X12865000Y-5515000D02*
X12835000Y-5545000D01*
X12835000Y-5605000D02*
X12865000Y-5635000D01*
X12865000Y-5605000D02*
X12835000Y-5635000D01*
X12835000Y-5695000D02*
X12865000Y-5725000D01*
X12865000Y-5695000D02*
X12835000Y-5725000D01*
X12835000Y-5785000D02*
X12865000Y-5815000D01*
X12865000Y-5785000D02*
X12835000Y-5815000D01*
X12835000Y-5875000D02*
X12865000Y-5905000D01*
X12865000Y-5875000D02*
X12835000Y-5905000D01*
X12955000Y-5515000D02*
X12985000Y-5545000D01*
X12985000Y-5515000D02*
X12955000Y-5545000D01*
X12955000Y-5605000D02*
X12985000Y-5635000D01*
X12985000Y-5605000D02*
X12955000Y-5635000D01*
X12955000Y-5695000D02*
X12985000Y-5725000D01*
X12985000Y-5695000D02*
X12955000Y-5725000D01*
X12955000Y-5785000D02*
X12985000Y-5815000D01*
X12985000Y-5785000D02*
X12955000Y-5815000D01*
X12955000Y-5875000D02*
X12985000Y-5905000D01*
X12985000Y-5875000D02*
X12955000Y-5905000D01*
X13105000Y-6105000D02*
X13135000Y-6135000D01*
X13135000Y-6105000D02*
X13105000Y-6135000D01*
X13155000Y-5665000D02*
X13185000Y-5695000D01*
X13185000Y-5665000D02*
X13155000Y-5695000D01*
X13755000Y-5325000D02*
X13785000Y-5355000D01*
X13785000Y-5325000D02*
X13755000Y-5355000D01*
X13755000Y-5415000D02*
X13785000Y-5445000D01*
X13785000Y-5415000D02*
X13755000Y-5445000D01*
X13755000Y-5515000D02*
X13785000Y-5545000D01*
X13785000Y-5515000D02*
X13755000Y-5545000D01*
X13950000Y-6560000D02*
X13980000Y-6590000D01*
X13980000Y-6560000D02*
X13950000Y-6590000D01*
X13965000Y-6725000D02*
X13995000Y-6755000D01*
X13995000Y-6725000D02*
X13965000Y-6755000D01*
X14095000Y-5815000D02*
X14125000Y-5845000D01*
X14125000Y-5815000D02*
X14095000Y-5845000D01*
X14125000Y-7225000D02*
X14155000Y-7255000D01*
X14155000Y-7225000D02*
X14125000Y-7255000D01*
X14210000Y-6390000D02*
X14240000Y-6420000D01*
X14240000Y-6390000D02*
X14210000Y-6420000D01*
X14245000Y-4602500D02*
X14275000Y-4632500D01*
X14275000Y-4602500D02*
X14245000Y-4632500D01*
X14245000Y-5375000D02*
X14275000Y-5405000D01*
X14275000Y-5375000D02*
X14245000Y-5405000D01*
X14245000Y-5475000D02*
X14275000Y-5505000D01*
X14275000Y-5475000D02*
X14245000Y-5505000D01*
X14245000Y-5575000D02*
X14275000Y-5605000D01*
X14275000Y-5575000D02*
X14245000Y-5605000D01*
X14355000Y-4265000D02*
X14385000Y-4295000D01*
X14385000Y-4265000D02*
X14355000Y-4295000D01*
X14785000Y-6390000D02*
X14815000Y-6420000D01*
X14815000Y-6390000D02*
X14785000Y-6420000D01*
X14845000Y-5375000D02*
X14875000Y-5405000D01*
X14875000Y-5375000D02*
X14845000Y-5405000D01*
X14845000Y-5465000D02*
X14875000Y-5495000D01*
X14875000Y-5465000D02*
X14845000Y-5495000D01*
X14845000Y-5555000D02*
X14875000Y-5585000D01*
X14875000Y-5555000D02*
X14845000Y-5585000D01*
X14925000Y-6235000D02*
X14955000Y-6265000D01*
X14955000Y-6235000D02*
X14925000Y-6265000D01*
X15275000Y-7225000D02*
X15305000Y-7255000D01*
X15305000Y-7225000D02*
X15275000Y-7255000D01*
X15505000Y-6195000D02*
X15535000Y-6225000D01*
X15535000Y-6195000D02*
X15505000Y-6225000D01*
X15505000Y-6265000D02*
X15535000Y-6295000D01*
X15535000Y-6265000D02*
X15505000Y-6295000D01*
X15565000Y-5495000D02*
X15595000Y-5525000D01*
X15595000Y-5495000D02*
X15565000Y-5525000D01*
X15565000Y-5945000D02*
X15595000Y-5975000D01*
X15595000Y-5945000D02*
X15565000Y-5975000D01*
X15965000Y-5735000D02*
X15995000Y-5765000D01*
X15995000Y-5735000D02*
X15965000Y-5765000D01*
X15975000Y-6895000D02*
X16005000Y-6925000D01*
X16005000Y-6895000D02*
X15975000Y-6925000D01*
X15975000Y-6995000D02*
X16005000Y-7025000D01*
X16005000Y-6995000D02*
X15975000Y-7025000D01*
X15975000Y-7095000D02*
X16005000Y-7125000D01*
X16005000Y-7095000D02*
X15975000Y-7125000D01*
X15975000Y-7205000D02*
X16005000Y-7235000D01*
X16005000Y-7205000D02*
X15975000Y-7235000D01*
X15975000Y-7315000D02*
X16005000Y-7345000D01*
X16005000Y-7315000D02*
X15975000Y-7345000D01*
X16095000Y-6895000D02*
X16125000Y-6925000D01*
X16125000Y-6895000D02*
X16095000Y-6925000D01*
X16095000Y-6995000D02*
X16125000Y-7025000D01*
X16125000Y-6995000D02*
X16095000Y-7025000D01*
X16095000Y-7095000D02*
X16125000Y-7125000D01*
X16125000Y-7095000D02*
X16095000Y-7125000D01*
X16095000Y-7205000D02*
X16125000Y-7235000D01*
X16125000Y-7205000D02*
X16095000Y-7235000D01*
X16095000Y-7315000D02*
X16125000Y-7345000D01*
X16125000Y-7315000D02*
X16095000Y-7345000D01*
X16205000Y-6895000D02*
X16235000Y-6925000D01*
X16235000Y-6895000D02*
X16205000Y-6925000D01*
X16205000Y-6995000D02*
X16235000Y-7025000D01*
X16235000Y-6995000D02*
X16205000Y-7025000D01*
X16205000Y-7095000D02*
X16235000Y-7125000D01*
X16235000Y-7095000D02*
X16205000Y-7125000D01*
X16205000Y-7205000D02*
X16235000Y-7235000D01*
X16235000Y-7205000D02*
X16205000Y-7235000D01*
X16205000Y-7315000D02*
X16235000Y-7345000D01*
X16235000Y-7315000D02*
X16205000Y-7345000D01*
X16315000Y-6895000D02*
X16345000Y-6925000D01*
X16345000Y-6895000D02*
X16315000Y-6925000D01*
X16315000Y-6995000D02*
X16345000Y-7025000D01*
X16345000Y-6995000D02*
X16315000Y-7025000D01*
X16315000Y-7095000D02*
X16345000Y-7125000D01*
X16345000Y-7095000D02*
X16315000Y-7125000D01*
X16315000Y-7205000D02*
X16345000Y-7235000D01*
X16345000Y-7205000D02*
X16315000Y-7235000D01*
X16315000Y-7315000D02*
X16345000Y-7345000D01*
X16345000Y-7315000D02*
X16315000Y-7345000D01*
X16325000Y-5735000D02*
X16355000Y-5765000D01*
X16355000Y-5735000D02*
X16325000Y-5765000D01*
X16425000Y-6895000D02*
X16455000Y-6925000D01*
X16455000Y-6895000D02*
X16425000Y-6925000D01*
X16425000Y-6995000D02*
X16455000Y-7025000D01*
X16455000Y-6995000D02*
X16425000Y-7025000D01*
X16425000Y-7095000D02*
X16455000Y-7125000D01*
X16455000Y-7095000D02*
X16425000Y-7125000D01*
X16425000Y-7205000D02*
X16455000Y-7235000D01*
X16455000Y-7205000D02*
X16425000Y-7235000D01*
X16425000Y-7315000D02*
X16455000Y-7345000D01*
X16455000Y-7315000D02*
X16425000Y-7345000D01*
X16555000Y-5735000D02*
X16585000Y-5765000D01*
X16585000Y-5735000D02*
X16555000Y-5765000D01*
X16735000Y-5735000D02*
X16765000Y-5765000D01*
X16765000Y-5735000D02*
X16735000Y-5765000D01*
X14595000Y-3915000D02*
G75*
G02*
X14565000Y-3915000I-15000J0D01*
G01*
X14565000Y-3915000D02*
G75*
G02*
X14595000Y-3915000I15000J0D01*
G01*
X14595000Y-4035000D02*
G75*
G02*
X14565000Y-4035000I-15000J0D01*
G01*
X14565000Y-4035000D02*
G75*
G02*
X14595000Y-4035000I15000J0D01*
G01*
X14595000Y-4165000D02*
G75*
G02*
X14565000Y-4165000I-15000J0D01*
G01*
X14565000Y-4165000D02*
G75*
G02*
X14595000Y-4165000I15000J0D01*
G01*
X14595000Y-4275000D02*
G75*
G02*
X14565000Y-4275000I-15000J0D01*
G01*
X14565000Y-4275000D02*
G75*
G02*
X14595000Y-4275000I15000J0D01*
G01*
X14715000Y-3915000D02*
G75*
G02*
X14685000Y-3915000I-15000J0D01*
G01*
X14685000Y-3915000D02*
G75*
G02*
X14715000Y-3915000I15000J0D01*
G01*
X14715000Y-4035000D02*
G75*
G02*
X14685000Y-4035000I-15000J0D01*
G01*
X14685000Y-4035000D02*
G75*
G02*
X14715000Y-4035000I15000J0D01*
G01*
X14715000Y-4165000D02*
G75*
G02*
X14685000Y-4165000I-15000J0D01*
G01*
X14685000Y-4165000D02*
G75*
G02*
X14715000Y-4165000I15000J0D01*
G01*
X14715000Y-4275000D02*
G75*
G02*
X14685000Y-4275000I-15000J0D01*
G01*
X14685000Y-4275000D02*
G75*
G02*
X14715000Y-4275000I15000J0D01*
G01*
X11615000Y-4850000D02*
X11615000Y-4890000D01*
X11595000Y-4870000D02*
X11635000Y-4870000D01*
X11615000Y-4980000D02*
X11615000Y-5020000D01*
X11595000Y-5000000D02*
X11635000Y-5000000D01*
X11740000Y-4850000D02*
X11740000Y-4890000D01*
X11720000Y-4870000D02*
X11760000Y-4870000D01*
X11740000Y-4980000D02*
X11740000Y-5020000D01*
X11720000Y-5000000D02*
X11760000Y-5000000D01*
X11860000Y-4850000D02*
X11860000Y-4890000D01*
X11840000Y-4870000D02*
X11880000Y-4870000D01*
X11860000Y-4980000D02*
X11860000Y-5020000D01*
X11840000Y-5000000D02*
X11880000Y-5000000D01*
X12470000Y-4810000D02*
X12470000Y-4850000D01*
X12450000Y-4830000D02*
X12490000Y-4830000D01*
X12470000Y-4900000D02*
X12470000Y-4940000D01*
X12450000Y-4920000D02*
X12490000Y-4920000D01*
X12470000Y-5000000D02*
X12470000Y-5040000D01*
X12450000Y-5020000D02*
X12490000Y-5020000D01*
X12935000Y-4540000D02*
X12935000Y-4580000D01*
X12915000Y-4560000D02*
X12955000Y-4560000D01*
X12935000Y-4630000D02*
X12935000Y-4670000D01*
X12915000Y-4650000D02*
X12955000Y-4650000D01*
X13050000Y-4050000D02*
X13050000Y-4090000D01*
X13030000Y-4070000D02*
X13070000Y-4070000D01*
X13050000Y-4130000D02*
X13050000Y-4170000D01*
X13030000Y-4150000D02*
X13070000Y-4150000D01*
X13050000Y-4210000D02*
X13050000Y-4250000D01*
X13030000Y-4230000D02*
X13070000Y-4230000D01*
X13215000Y-4735000D02*
X13215000Y-4775000D01*
X13195000Y-4755000D02*
X13235000Y-4755000D01*
X13380000Y-5220000D02*
X13380000Y-5260000D01*
X13360000Y-5240000D02*
X13400000Y-5240000D01*
X13520000Y-5770000D02*
X13520000Y-5810000D01*
X13500000Y-5790000D02*
X13540000Y-5790000D01*
X13525000Y-4055000D02*
X13525000Y-4095000D01*
X13505000Y-4075000D02*
X13545000Y-4075000D01*
X13525000Y-4130000D02*
X13525000Y-4170000D01*
X13505000Y-4150000D02*
X13545000Y-4150000D01*
X13525000Y-4205000D02*
X13525000Y-4245000D01*
X13505000Y-4225000D02*
X13545000Y-4225000D01*
X13618467Y-6370000D02*
X13618467Y-6410000D01*
X13598467Y-6390000D02*
X13638467Y-6390000D01*
X13618467Y-6731533D02*
X13618467Y-6771533D01*
X13598467Y-6751533D02*
X13638467Y-6751533D01*
X13625000Y-4055000D02*
X13625000Y-4095000D01*
X13605000Y-4075000D02*
X13645000Y-4075000D01*
X13625000Y-4130000D02*
X13625000Y-4170000D01*
X13605000Y-4150000D02*
X13645000Y-4150000D01*
X13625000Y-4205000D02*
X13625000Y-4245000D01*
X13605000Y-4225000D02*
X13645000Y-4225000D01*
X13670000Y-6000000D02*
X13670000Y-6040000D01*
X13650000Y-6020000D02*
X13690000Y-6020000D01*
X13770000Y-6460000D02*
X13770000Y-6500000D01*
X13750000Y-6480000D02*
X13790000Y-6480000D01*
X14010069Y-7090069D02*
X14010069Y-7130069D01*
X13990069Y-7110069D02*
X14030069Y-7110069D01*
X14020000Y-3810000D02*
X14020000Y-3850000D01*
X14000000Y-3830000D02*
X14040000Y-3830000D01*
X14240000Y-6870000D02*
X14240000Y-6910000D01*
X14220000Y-6890000D02*
X14260000Y-6890000D01*
X14310000Y-7220000D02*
X14310000Y-7260000D01*
X14290000Y-7240000D02*
X14330000Y-7240000D01*
X14590000Y-6750000D02*
X14590000Y-6790000D01*
X14570000Y-6770000D02*
X14610000Y-6770000D01*
X14690000Y-6750000D02*
X14690000Y-6790000D01*
X14670000Y-6770000D02*
X14710000Y-6770000D01*
X14700000Y-7640000D02*
X14700000Y-7680000D01*
X14680000Y-7660000D02*
X14720000Y-7660000D01*
X14820000Y-7200000D02*
X14820000Y-7240000D01*
X14800000Y-7220000D02*
X14840000Y-7220000D01*
X14870000Y-3660000D02*
X14870000Y-3700000D01*
X14850000Y-3680000D02*
X14890000Y-3680000D01*
X15895000Y-6030000D02*
X15895000Y-6070000D01*
X15875000Y-6050000D02*
X15915000Y-6050000D01*
X14315784Y-7592834D02*
X14315784Y-7536265D01*
X14259215Y-7536265D01*
X14259215Y-7592834D01*
X14315784Y-7592834D01*
X14247500Y-7524550D02*
X14247500Y-7604550D01*
X14327500Y-7604550D02*
G75*
G02*
X14247500Y-7604550I-40000J0D01*
G01*
X14327500Y-7604550D02*
X14327500Y-7524550D01*
X14327500Y-7524550D02*
G75*
G03*
X14247500Y-7524550I-40000J0D01*
G01*
X14315784Y-8010834D02*
X14315784Y-7954265D01*
X14259215Y-7954265D01*
X14259215Y-8010834D01*
X14315784Y-8010834D01*
X14247500Y-7952550D02*
X14247500Y-8012550D01*
X14327500Y-8012550D02*
G75*
G02*
X14247500Y-8012550I-40000J0D01*
G01*
X14327500Y-8012550D02*
X14327500Y-7952550D01*
X14327500Y-7952550D02*
G75*
G03*
X14247500Y-7952550I-40000J0D01*
G01*
X15180784Y-7592834D02*
X15180784Y-7536265D01*
X15124215Y-7536265D01*
X15124215Y-7592834D01*
X15180784Y-7592834D01*
X15112500Y-7524550D02*
X15112500Y-7604550D01*
X15192500Y-7604550D02*
G75*
G02*
X15112500Y-7604550I-40000J0D01*
G01*
X15192500Y-7604550D02*
X15192500Y-7524550D01*
X15192500Y-7524550D02*
G75*
G03*
X15112500Y-7524550I-40000J0D01*
G01*
X15180784Y-8010834D02*
X15180784Y-7954265D01*
X15124215Y-7954265D01*
X15124215Y-8010834D01*
X15180784Y-8010834D01*
X15112500Y-7952550D02*
X15112500Y-8012550D01*
X15192500Y-8012550D02*
G75*
G02*
X15112500Y-8012550I-40000J0D01*
G01*
X15192500Y-8012550D02*
X15192500Y-7952550D01*
X15192500Y-7952550D02*
G75*
G03*
X15112500Y-7952550I-40000J0D01*
G01*
D12*
X13573000Y-7855000D02*
X13628000Y-7800000D01*
X13573000Y-7745000D01*
X13518000Y-7800000D01*
X13573000Y-7855000D01*
X13827000Y-7855000D02*
X13882000Y-7800000D01*
X13827000Y-7745000D01*
X13772000Y-7800000D01*
X13827000Y-7855000D01*
D13*
X11286000Y-7540000D02*
X11446000Y-7700000D01*
X11446000Y-7540000D02*
X11286000Y-7700000D01*
X11446000Y-7620000D02*
G75*
G02*
X11286000Y-7620000I-80000J0D01*
G01*
X11286000Y-7620000D02*
G75*
G02*
X11446000Y-7620000I80000J0D01*
G01*
X11365900Y-3910000D02*
X11525900Y-4070000D01*
X11525900Y-3910000D02*
X11365900Y-4070000D01*
X11525900Y-3990000D02*
G75*
G02*
X11365900Y-3990000I-80000J0D01*
G01*
X11365900Y-3990000D02*
G75*
G02*
X11525900Y-3990000I80000J0D01*
G01*
X11794000Y-7540000D02*
X11954000Y-7700000D01*
X11954000Y-7540000D02*
X11794000Y-7700000D01*
X11954000Y-7620000D02*
G75*
G02*
X11794000Y-7620000I-80000J0D01*
G01*
X11794000Y-7620000D02*
G75*
G02*
X11954000Y-7620000I80000J0D01*
G01*
X11873900Y-3910000D02*
X12033900Y-4070000D01*
X12033900Y-3910000D02*
X11873900Y-4070000D01*
X12033900Y-3990000D02*
G75*
G02*
X11873900Y-3990000I-80000J0D01*
G01*
X11873900Y-3990000D02*
G75*
G02*
X12033900Y-3990000I80000J0D01*
G01*
X12382000Y-7540000D02*
X12542000Y-7700000D01*
X12542000Y-7540000D02*
X12382000Y-7700000D01*
X12542000Y-7620000D02*
G75*
G02*
X12382000Y-7620000I-80000J0D01*
G01*
X12382000Y-7620000D02*
G75*
G02*
X12542000Y-7620000I80000J0D01*
G01*
X12890000Y-7540000D02*
X13050000Y-7700000D01*
X13050000Y-7540000D02*
X12890000Y-7700000D01*
X13050000Y-7620000D02*
G75*
G02*
X12890000Y-7620000I-80000J0D01*
G01*
X12890000Y-7620000D02*
G75*
G02*
X13050000Y-7620000I80000J0D01*
G01*
D11*
X11365777Y-8436484D02*
X11365777Y-8236484D01*
X11365777Y-8236484D02*
X11413396Y-8236484D01*
X11413396Y-8236484D02*
X11441967Y-8246008D01*
X11441967Y-8246008D02*
X11461015Y-8265055D01*
X11461015Y-8265055D02*
X11470539Y-8284103D01*
X11470539Y-8284103D02*
X11480062Y-8322198D01*
X11480062Y-8322198D02*
X11480062Y-8350769D01*
X11480062Y-8350769D02*
X11470539Y-8388865D01*
X11470539Y-8388865D02*
X11461015Y-8407912D01*
X11461015Y-8407912D02*
X11441967Y-8426960D01*
X11441967Y-8426960D02*
X11413396Y-8436484D01*
X11413396Y-8436484D02*
X11365777Y-8436484D01*
X11565777Y-8436484D02*
X11565777Y-8303150D01*
X11565777Y-8341246D02*
X11575301Y-8322198D01*
X11575301Y-8322198D02*
X11584824Y-8312674D01*
X11584824Y-8312674D02*
X11603872Y-8303150D01*
X11603872Y-8303150D02*
X11622920Y-8303150D01*
X11689586Y-8436484D02*
X11689586Y-8303150D01*
X11689586Y-8236484D02*
X11680062Y-8246008D01*
X11680062Y-8246008D02*
X11689586Y-8255531D01*
X11689586Y-8255531D02*
X11699110Y-8246008D01*
X11699110Y-8246008D02*
X11689586Y-8236484D01*
X11689586Y-8236484D02*
X11689586Y-8255531D01*
X11813396Y-8436484D02*
X11794348Y-8426960D01*
X11794348Y-8426960D02*
X11784824Y-8407912D01*
X11784824Y-8407912D02*
X11784824Y-8236484D01*
X11918158Y-8436484D02*
X11899110Y-8426960D01*
X11899110Y-8426960D02*
X11889586Y-8407912D01*
X11889586Y-8407912D02*
X11889586Y-8236484D01*
X12146729Y-8436484D02*
X12146729Y-8236484D01*
X12146729Y-8236484D02*
X12213396Y-8379341D01*
X12213396Y-8379341D02*
X12280062Y-8236484D01*
X12280062Y-8236484D02*
X12280062Y-8436484D01*
X12461015Y-8436484D02*
X12461015Y-8331722D01*
X12461015Y-8331722D02*
X12451491Y-8312674D01*
X12451491Y-8312674D02*
X12432443Y-8303150D01*
X12432443Y-8303150D02*
X12394348Y-8303150D01*
X12394348Y-8303150D02*
X12375301Y-8312674D01*
X12461015Y-8426960D02*
X12441967Y-8436484D01*
X12441967Y-8436484D02*
X12394348Y-8436484D01*
X12394348Y-8436484D02*
X12375301Y-8426960D01*
X12375301Y-8426960D02*
X12365777Y-8407912D01*
X12365777Y-8407912D02*
X12365777Y-8388865D01*
X12365777Y-8388865D02*
X12375301Y-8369817D01*
X12375301Y-8369817D02*
X12394348Y-8360293D01*
X12394348Y-8360293D02*
X12441967Y-8360293D01*
X12441967Y-8360293D02*
X12461015Y-8350769D01*
X12556253Y-8303150D02*
X12556253Y-8503150D01*
X12556253Y-8312674D02*
X12575301Y-8303150D01*
X12575301Y-8303150D02*
X12613396Y-8303150D01*
X12613396Y-8303150D02*
X12632443Y-8312674D01*
X12632443Y-8312674D02*
X12641967Y-8322198D01*
X12641967Y-8322198D02*
X12651491Y-8341246D01*
X12651491Y-8341246D02*
X12651491Y-8398389D01*
X12651491Y-8398389D02*
X12641967Y-8417436D01*
X12641967Y-8417436D02*
X12632443Y-8426960D01*
X12632443Y-8426960D02*
X12613396Y-8436484D01*
X12613396Y-8436484D02*
X12575301Y-8436484D01*
X12575301Y-8436484D02*
X12556253Y-8426960D01*
X12737205Y-8417436D02*
X12746729Y-8426960D01*
X12746729Y-8426960D02*
X12737205Y-8436484D01*
X12737205Y-8436484D02*
X12727682Y-8426960D01*
X12727682Y-8426960D02*
X12737205Y-8417436D01*
X12737205Y-8417436D02*
X12737205Y-8436484D01*
X12737205Y-8312674D02*
X12746729Y-8322198D01*
X12746729Y-8322198D02*
X12737205Y-8331722D01*
X12737205Y-8331722D02*
X12727682Y-8322198D01*
X12727682Y-8322198D02*
X12737205Y-8312674D01*
X12737205Y-8312674D02*
X12737205Y-8331722D01*
D10*
X11075000Y-8750000D02*
X11105000Y-8780000D01*
X11105000Y-8750000D02*
X11075000Y-8780000D01*
D11*
X11403872Y-8656484D02*
X11422920Y-8656484D01*
X11422920Y-8656484D02*
X11441967Y-8666008D01*
X11441967Y-8666008D02*
X11451491Y-8675531D01*
X11451491Y-8675531D02*
X11461015Y-8694579D01*
X11461015Y-8694579D02*
X11470539Y-8732674D01*
X11470539Y-8732674D02*
X11470539Y-8780293D01*
X11470539Y-8780293D02*
X11461015Y-8818389D01*
X11461015Y-8818389D02*
X11451491Y-8837436D01*
X11451491Y-8837436D02*
X11441967Y-8846960D01*
X11441967Y-8846960D02*
X11422920Y-8856484D01*
X11422920Y-8856484D02*
X11403872Y-8856484D01*
X11403872Y-8856484D02*
X11384824Y-8846960D01*
X11384824Y-8846960D02*
X11375301Y-8837436D01*
X11375301Y-8837436D02*
X11365777Y-8818389D01*
X11365777Y-8818389D02*
X11356253Y-8780293D01*
X11356253Y-8780293D02*
X11356253Y-8732674D01*
X11356253Y-8732674D02*
X11365777Y-8694579D01*
X11365777Y-8694579D02*
X11375301Y-8675531D01*
X11375301Y-8675531D02*
X11384824Y-8666008D01*
X11384824Y-8666008D02*
X11403872Y-8656484D01*
X11556253Y-8837436D02*
X11565777Y-8846960D01*
X11565777Y-8846960D02*
X11556253Y-8856484D01*
X11556253Y-8856484D02*
X11546729Y-8846960D01*
X11546729Y-8846960D02*
X11556253Y-8837436D01*
X11556253Y-8837436D02*
X11556253Y-8856484D01*
X11632443Y-8656484D02*
X11756253Y-8656484D01*
X11756253Y-8656484D02*
X11689586Y-8732674D01*
X11689586Y-8732674D02*
X11718158Y-8732674D01*
X11718158Y-8732674D02*
X11737205Y-8742198D01*
X11737205Y-8742198D02*
X11746729Y-8751722D01*
X11746729Y-8751722D02*
X11756253Y-8770770D01*
X11756253Y-8770770D02*
X11756253Y-8818389D01*
X11756253Y-8818389D02*
X11746729Y-8837436D01*
X11746729Y-8837436D02*
X11737205Y-8846960D01*
X11737205Y-8846960D02*
X11718158Y-8856484D01*
X11718158Y-8856484D02*
X11661015Y-8856484D01*
X11661015Y-8856484D02*
X11641967Y-8846960D01*
X11641967Y-8846960D02*
X11632443Y-8837436D01*
X11880062Y-8656484D02*
X11899110Y-8656484D01*
X11899110Y-8656484D02*
X11918158Y-8666008D01*
X11918158Y-8666008D02*
X11927682Y-8675531D01*
X11927682Y-8675531D02*
X11937205Y-8694579D01*
X11937205Y-8694579D02*
X11946729Y-8732674D01*
X11946729Y-8732674D02*
X11946729Y-8780293D01*
X11946729Y-8780293D02*
X11937205Y-8818389D01*
X11937205Y-8818389D02*
X11927682Y-8837436D01*
X11927682Y-8837436D02*
X11918158Y-8846960D01*
X11918158Y-8846960D02*
X11899110Y-8856484D01*
X11899110Y-8856484D02*
X11880062Y-8856484D01*
X11880062Y-8856484D02*
X11861015Y-8846960D01*
X11861015Y-8846960D02*
X11851491Y-8837436D01*
X11851491Y-8837436D02*
X11841967Y-8818389D01*
X11841967Y-8818389D02*
X11832443Y-8780293D01*
X11832443Y-8780293D02*
X11832443Y-8732674D01*
X11832443Y-8732674D02*
X11841967Y-8694579D01*
X11841967Y-8694579D02*
X11851491Y-8675531D01*
X11851491Y-8675531D02*
X11861015Y-8666008D01*
X11861015Y-8666008D02*
X11880062Y-8656484D01*
X12070539Y-8656484D02*
X12089586Y-8656484D01*
X12089586Y-8656484D02*
X12108634Y-8666008D01*
X12108634Y-8666008D02*
X12118158Y-8675531D01*
X12118158Y-8675531D02*
X12127682Y-8694579D01*
X12127682Y-8694579D02*
X12137205Y-8732674D01*
X12137205Y-8732674D02*
X12137205Y-8780293D01*
X12137205Y-8780293D02*
X12127682Y-8818389D01*
X12127682Y-8818389D02*
X12118158Y-8837436D01*
X12118158Y-8837436D02*
X12108634Y-8846960D01*
X12108634Y-8846960D02*
X12089586Y-8856484D01*
X12089586Y-8856484D02*
X12070539Y-8856484D01*
X12070539Y-8856484D02*
X12051491Y-8846960D01*
X12051491Y-8846960D02*
X12041967Y-8837436D01*
X12041967Y-8837436D02*
X12032443Y-8818389D01*
X12032443Y-8818389D02*
X12022920Y-8780293D01*
X12022920Y-8780293D02*
X12022920Y-8732674D01*
X12022920Y-8732674D02*
X12032443Y-8694579D01*
X12032443Y-8694579D02*
X12041967Y-8675531D01*
X12041967Y-8675531D02*
X12051491Y-8666008D01*
X12051491Y-8666008D02*
X12070539Y-8656484D01*
X12222920Y-8856484D02*
X12222920Y-8723150D01*
X12222920Y-8742198D02*
X12232443Y-8732674D01*
X12232443Y-8732674D02*
X12251491Y-8723150D01*
X12251491Y-8723150D02*
X12280063Y-8723150D01*
X12280063Y-8723150D02*
X12299110Y-8732674D01*
X12299110Y-8732674D02*
X12308634Y-8751722D01*
X12308634Y-8751722D02*
X12308634Y-8856484D01*
X12308634Y-8751722D02*
X12318158Y-8732674D01*
X12318158Y-8732674D02*
X12337205Y-8723150D01*
X12337205Y-8723150D02*
X12365777Y-8723150D01*
X12365777Y-8723150D02*
X12384824Y-8732674D01*
X12384824Y-8732674D02*
X12394348Y-8751722D01*
X12394348Y-8751722D02*
X12394348Y-8856484D01*
X12489586Y-8856484D02*
X12489586Y-8723150D01*
X12489586Y-8742198D02*
X12499110Y-8732674D01*
X12499110Y-8732674D02*
X12518158Y-8723150D01*
X12518158Y-8723150D02*
X12546729Y-8723150D01*
X12546729Y-8723150D02*
X12565777Y-8732674D01*
X12565777Y-8732674D02*
X12575301Y-8751722D01*
X12575301Y-8751722D02*
X12575301Y-8856484D01*
X12575301Y-8751722D02*
X12584824Y-8732674D01*
X12584824Y-8732674D02*
X12603872Y-8723150D01*
X12603872Y-8723150D02*
X12632443Y-8723150D01*
X12632443Y-8723150D02*
X12651491Y-8732674D01*
X12651491Y-8732674D02*
X12661015Y-8751722D01*
X12661015Y-8751722D02*
X12661015Y-8856484D01*
X13051491Y-8646960D02*
X12880063Y-8904103D01*
X13308634Y-8656484D02*
X13327682Y-8656484D01*
X13327682Y-8656484D02*
X13346729Y-8666008D01*
X13346729Y-8666008D02*
X13356253Y-8675531D01*
X13356253Y-8675531D02*
X13365777Y-8694579D01*
X13365777Y-8694579D02*
X13375301Y-8732674D01*
X13375301Y-8732674D02*
X13375301Y-8780293D01*
X13375301Y-8780293D02*
X13365777Y-8818389D01*
X13365777Y-8818389D02*
X13356253Y-8837436D01*
X13356253Y-8837436D02*
X13346729Y-8846960D01*
X13346729Y-8846960D02*
X13327682Y-8856484D01*
X13327682Y-8856484D02*
X13308634Y-8856484D01*
X13308634Y-8856484D02*
X13289586Y-8846960D01*
X13289586Y-8846960D02*
X13280063Y-8837436D01*
X13280063Y-8837436D02*
X13270539Y-8818389D01*
X13270539Y-8818389D02*
X13261015Y-8780293D01*
X13261015Y-8780293D02*
X13261015Y-8732674D01*
X13261015Y-8732674D02*
X13270539Y-8694579D01*
X13270539Y-8694579D02*
X13280063Y-8675531D01*
X13280063Y-8675531D02*
X13289586Y-8666008D01*
X13289586Y-8666008D02*
X13308634Y-8656484D01*
X13461015Y-8837436D02*
X13470539Y-8846960D01*
X13470539Y-8846960D02*
X13461015Y-8856484D01*
X13461015Y-8856484D02*
X13451491Y-8846960D01*
X13451491Y-8846960D02*
X13461015Y-8837436D01*
X13461015Y-8837436D02*
X13461015Y-8856484D01*
X13594348Y-8656484D02*
X13613396Y-8656484D01*
X13613396Y-8656484D02*
X13632444Y-8666008D01*
X13632444Y-8666008D02*
X13641967Y-8675531D01*
X13641967Y-8675531D02*
X13651491Y-8694579D01*
X13651491Y-8694579D02*
X13661015Y-8732674D01*
X13661015Y-8732674D02*
X13661015Y-8780293D01*
X13661015Y-8780293D02*
X13651491Y-8818389D01*
X13651491Y-8818389D02*
X13641967Y-8837436D01*
X13641967Y-8837436D02*
X13632444Y-8846960D01*
X13632444Y-8846960D02*
X13613396Y-8856484D01*
X13613396Y-8856484D02*
X13594348Y-8856484D01*
X13594348Y-8856484D02*
X13575301Y-8846960D01*
X13575301Y-8846960D02*
X13565777Y-8837436D01*
X13565777Y-8837436D02*
X13556253Y-8818389D01*
X13556253Y-8818389D02*
X13546729Y-8780293D01*
X13546729Y-8780293D02*
X13546729Y-8732674D01*
X13546729Y-8732674D02*
X13556253Y-8694579D01*
X13556253Y-8694579D02*
X13565777Y-8675531D01*
X13565777Y-8675531D02*
X13575301Y-8666008D01*
X13575301Y-8666008D02*
X13594348Y-8656484D01*
X13851491Y-8856484D02*
X13737206Y-8856484D01*
X13794348Y-8856484D02*
X13794348Y-8656484D01*
X13794348Y-8656484D02*
X13775301Y-8685055D01*
X13775301Y-8685055D02*
X13756253Y-8704103D01*
X13756253Y-8704103D02*
X13737206Y-8713627D01*
X14041967Y-8856484D02*
X13927682Y-8856484D01*
X13984825Y-8856484D02*
X13984825Y-8656484D01*
X13984825Y-8656484D02*
X13965777Y-8685055D01*
X13965777Y-8685055D02*
X13946729Y-8704103D01*
X13946729Y-8704103D02*
X13927682Y-8713627D01*
X14156253Y-8742198D02*
X14137206Y-8732674D01*
X14137206Y-8732674D02*
X14127682Y-8723150D01*
X14127682Y-8723150D02*
X14118158Y-8704103D01*
X14118158Y-8704103D02*
X14118158Y-8694579D01*
X14118158Y-8694579D02*
X14127682Y-8675531D01*
X14127682Y-8675531D02*
X14137206Y-8666008D01*
X14137206Y-8666008D02*
X14156253Y-8656484D01*
X14156253Y-8656484D02*
X14194348Y-8656484D01*
X14194348Y-8656484D02*
X14213396Y-8666008D01*
X14213396Y-8666008D02*
X14222920Y-8675531D01*
X14222920Y-8675531D02*
X14232444Y-8694579D01*
X14232444Y-8694579D02*
X14232444Y-8704103D01*
X14232444Y-8704103D02*
X14222920Y-8723150D01*
X14222920Y-8723150D02*
X14213396Y-8732674D01*
X14213396Y-8732674D02*
X14194348Y-8742198D01*
X14194348Y-8742198D02*
X14156253Y-8742198D01*
X14156253Y-8742198D02*
X14137206Y-8751722D01*
X14137206Y-8751722D02*
X14127682Y-8761246D01*
X14127682Y-8761246D02*
X14118158Y-8780293D01*
X14118158Y-8780293D02*
X14118158Y-8818389D01*
X14118158Y-8818389D02*
X14127682Y-8837436D01*
X14127682Y-8837436D02*
X14137206Y-8846960D01*
X14137206Y-8846960D02*
X14156253Y-8856484D01*
X14156253Y-8856484D02*
X14194348Y-8856484D01*
X14194348Y-8856484D02*
X14213396Y-8846960D01*
X14213396Y-8846960D02*
X14222920Y-8837436D01*
X14222920Y-8837436D02*
X14232444Y-8818389D01*
X14232444Y-8818389D02*
X14232444Y-8780293D01*
X14232444Y-8780293D02*
X14222920Y-8761246D01*
X14222920Y-8761246D02*
X14213396Y-8751722D01*
X14213396Y-8751722D02*
X14194348Y-8742198D01*
X14308634Y-8656484D02*
X14308634Y-8694579D01*
X14384825Y-8656484D02*
X14384825Y-8694579D01*
X14680063Y-8932674D02*
X14670539Y-8923150D01*
X14670539Y-8923150D02*
X14651491Y-8894579D01*
X14651491Y-8894579D02*
X14641968Y-8875531D01*
X14641968Y-8875531D02*
X14632444Y-8846960D01*
X14632444Y-8846960D02*
X14622920Y-8799341D01*
X14622920Y-8799341D02*
X14622920Y-8761246D01*
X14622920Y-8761246D02*
X14632444Y-8713627D01*
X14632444Y-8713627D02*
X14641968Y-8685055D01*
X14641968Y-8685055D02*
X14651491Y-8666008D01*
X14651491Y-8666008D02*
X14670539Y-8637436D01*
X14670539Y-8637436D02*
X14680063Y-8627912D01*
X14765777Y-8856484D02*
X14803872Y-8856484D01*
X14803872Y-8856484D02*
X14822920Y-8846960D01*
X14822920Y-8846960D02*
X14832444Y-8837436D01*
X14832444Y-8837436D02*
X14851491Y-8808865D01*
X14851491Y-8808865D02*
X14861015Y-8770770D01*
X14861015Y-8770770D02*
X14861015Y-8694579D01*
X14861015Y-8694579D02*
X14851491Y-8675531D01*
X14851491Y-8675531D02*
X14841968Y-8666008D01*
X14841968Y-8666008D02*
X14822920Y-8656484D01*
X14822920Y-8656484D02*
X14784825Y-8656484D01*
X14784825Y-8656484D02*
X14765777Y-8666008D01*
X14765777Y-8666008D02*
X14756253Y-8675531D01*
X14756253Y-8675531D02*
X14746729Y-8694579D01*
X14746729Y-8694579D02*
X14746729Y-8742198D01*
X14746729Y-8742198D02*
X14756253Y-8761246D01*
X14756253Y-8761246D02*
X14765777Y-8770770D01*
X14765777Y-8770770D02*
X14784825Y-8780293D01*
X14784825Y-8780293D02*
X14822920Y-8780293D01*
X14822920Y-8780293D02*
X14841968Y-8770770D01*
X14841968Y-8770770D02*
X14851491Y-8761246D01*
X14851491Y-8761246D02*
X14861015Y-8742198D01*
X14956253Y-8856484D02*
X14994348Y-8856484D01*
X14994348Y-8856484D02*
X15013396Y-8846960D01*
X15013396Y-8846960D02*
X15022920Y-8837436D01*
X15022920Y-8837436D02*
X15041968Y-8808865D01*
X15041968Y-8808865D02*
X15051491Y-8770770D01*
X15051491Y-8770770D02*
X15051491Y-8694579D01*
X15051491Y-8694579D02*
X15041968Y-8675531D01*
X15041968Y-8675531D02*
X15032444Y-8666008D01*
X15032444Y-8666008D02*
X15013396Y-8656484D01*
X15013396Y-8656484D02*
X14975301Y-8656484D01*
X14975301Y-8656484D02*
X14956253Y-8666008D01*
X14956253Y-8666008D02*
X14946729Y-8675531D01*
X14946729Y-8675531D02*
X14937206Y-8694579D01*
X14937206Y-8694579D02*
X14937206Y-8742198D01*
X14937206Y-8742198D02*
X14946729Y-8761246D01*
X14946729Y-8761246D02*
X14956253Y-8770770D01*
X14956253Y-8770770D02*
X14975301Y-8780293D01*
X14975301Y-8780293D02*
X15013396Y-8780293D01*
X15013396Y-8780293D02*
X15032444Y-8770770D01*
X15032444Y-8770770D02*
X15041968Y-8761246D01*
X15041968Y-8761246D02*
X15051491Y-8742198D01*
X15289587Y-8856484D02*
X15289587Y-8656484D01*
X15375301Y-8856484D02*
X15375301Y-8751722D01*
X15375301Y-8751722D02*
X15365777Y-8732674D01*
X15365777Y-8732674D02*
X15346730Y-8723150D01*
X15346730Y-8723150D02*
X15318158Y-8723150D01*
X15318158Y-8723150D02*
X15299110Y-8732674D01*
X15299110Y-8732674D02*
X15289587Y-8742198D01*
X15499110Y-8856484D02*
X15480063Y-8846960D01*
X15480063Y-8846960D02*
X15470539Y-8837436D01*
X15470539Y-8837436D02*
X15461015Y-8818389D01*
X15461015Y-8818389D02*
X15461015Y-8761246D01*
X15461015Y-8761246D02*
X15470539Y-8742198D01*
X15470539Y-8742198D02*
X15480063Y-8732674D01*
X15480063Y-8732674D02*
X15499110Y-8723150D01*
X15499110Y-8723150D02*
X15527682Y-8723150D01*
X15527682Y-8723150D02*
X15546730Y-8732674D01*
X15546730Y-8732674D02*
X15556253Y-8742198D01*
X15556253Y-8742198D02*
X15565777Y-8761246D01*
X15565777Y-8761246D02*
X15565777Y-8818389D01*
X15565777Y-8818389D02*
X15556253Y-8837436D01*
X15556253Y-8837436D02*
X15546730Y-8846960D01*
X15546730Y-8846960D02*
X15527682Y-8856484D01*
X15527682Y-8856484D02*
X15499110Y-8856484D01*
X15680063Y-8856484D02*
X15661015Y-8846960D01*
X15661015Y-8846960D02*
X15651491Y-8827912D01*
X15651491Y-8827912D02*
X15651491Y-8656484D01*
X15832444Y-8846960D02*
X15813396Y-8856484D01*
X15813396Y-8856484D02*
X15775301Y-8856484D01*
X15775301Y-8856484D02*
X15756253Y-8846960D01*
X15756253Y-8846960D02*
X15746730Y-8827912D01*
X15746730Y-8827912D02*
X15746730Y-8751722D01*
X15746730Y-8751722D02*
X15756253Y-8732674D01*
X15756253Y-8732674D02*
X15775301Y-8723150D01*
X15775301Y-8723150D02*
X15813396Y-8723150D01*
X15813396Y-8723150D02*
X15832444Y-8732674D01*
X15832444Y-8732674D02*
X15841968Y-8751722D01*
X15841968Y-8751722D02*
X15841968Y-8770770D01*
X15841968Y-8770770D02*
X15746730Y-8789817D01*
X15918158Y-8846960D02*
X15937206Y-8856484D01*
X15937206Y-8856484D02*
X15975301Y-8856484D01*
X15975301Y-8856484D02*
X15994349Y-8846960D01*
X15994349Y-8846960D02*
X16003872Y-8827912D01*
X16003872Y-8827912D02*
X16003872Y-8818389D01*
X16003872Y-8818389D02*
X15994349Y-8799341D01*
X15994349Y-8799341D02*
X15975301Y-8789817D01*
X15975301Y-8789817D02*
X15946730Y-8789817D01*
X15946730Y-8789817D02*
X15927682Y-8780293D01*
X15927682Y-8780293D02*
X15918158Y-8761246D01*
X15918158Y-8761246D02*
X15918158Y-8751722D01*
X15918158Y-8751722D02*
X15927682Y-8732674D01*
X15927682Y-8732674D02*
X15946730Y-8723150D01*
X15946730Y-8723150D02*
X15975301Y-8723150D01*
X15975301Y-8723150D02*
X15994349Y-8732674D01*
X16070539Y-8932674D02*
X16080063Y-8923150D01*
X16080063Y-8923150D02*
X16099111Y-8894579D01*
X16099111Y-8894579D02*
X16108634Y-8875531D01*
X16108634Y-8875531D02*
X16118158Y-8846960D01*
X16118158Y-8846960D02*
X16127682Y-8799341D01*
X16127682Y-8799341D02*
X16127682Y-8761246D01*
X16127682Y-8761246D02*
X16118158Y-8713627D01*
X16118158Y-8713627D02*
X16108634Y-8685055D01*
X16108634Y-8685055D02*
X16099111Y-8666008D01*
X16099111Y-8666008D02*
X16080063Y-8637436D01*
X16080063Y-8637436D02*
X16070539Y-8627912D01*
D10*
X11105000Y-9029000D02*
G75*
G02*
X11075000Y-9029000I-15000J0D01*
G01*
X11075000Y-9029000D02*
G75*
G02*
X11105000Y-9029000I15000J0D01*
G01*
D11*
X11403872Y-8920484D02*
X11422920Y-8920484D01*
X11422920Y-8920484D02*
X11441967Y-8930008D01*
X11441967Y-8930008D02*
X11451491Y-8939531D01*
X11451491Y-8939531D02*
X11461015Y-8958579D01*
X11461015Y-8958579D02*
X11470539Y-8996674D01*
X11470539Y-8996674D02*
X11470539Y-9044293D01*
X11470539Y-9044293D02*
X11461015Y-9082389D01*
X11461015Y-9082389D02*
X11451491Y-9101436D01*
X11451491Y-9101436D02*
X11441967Y-9110960D01*
X11441967Y-9110960D02*
X11422920Y-9120484D01*
X11422920Y-9120484D02*
X11403872Y-9120484D01*
X11403872Y-9120484D02*
X11384824Y-9110960D01*
X11384824Y-9110960D02*
X11375301Y-9101436D01*
X11375301Y-9101436D02*
X11365777Y-9082389D01*
X11365777Y-9082389D02*
X11356253Y-9044293D01*
X11356253Y-9044293D02*
X11356253Y-8996674D01*
X11356253Y-8996674D02*
X11365777Y-8958579D01*
X11365777Y-8958579D02*
X11375301Y-8939531D01*
X11375301Y-8939531D02*
X11384824Y-8930008D01*
X11384824Y-8930008D02*
X11403872Y-8920484D01*
X11556253Y-9101436D02*
X11565777Y-9110960D01*
X11565777Y-9110960D02*
X11556253Y-9120484D01*
X11556253Y-9120484D02*
X11546729Y-9110960D01*
X11546729Y-9110960D02*
X11556253Y-9101436D01*
X11556253Y-9101436D02*
X11556253Y-9120484D01*
X11632443Y-8920484D02*
X11756253Y-8920484D01*
X11756253Y-8920484D02*
X11689586Y-8996674D01*
X11689586Y-8996674D02*
X11718158Y-8996674D01*
X11718158Y-8996674D02*
X11737205Y-9006198D01*
X11737205Y-9006198D02*
X11746729Y-9015722D01*
X11746729Y-9015722D02*
X11756253Y-9034770D01*
X11756253Y-9034770D02*
X11756253Y-9082389D01*
X11756253Y-9082389D02*
X11746729Y-9101436D01*
X11746729Y-9101436D02*
X11737205Y-9110960D01*
X11737205Y-9110960D02*
X11718158Y-9120484D01*
X11718158Y-9120484D02*
X11661015Y-9120484D01*
X11661015Y-9120484D02*
X11641967Y-9110960D01*
X11641967Y-9110960D02*
X11632443Y-9101436D01*
X11880062Y-8920484D02*
X11899110Y-8920484D01*
X11899110Y-8920484D02*
X11918158Y-8930008D01*
X11918158Y-8930008D02*
X11927682Y-8939531D01*
X11927682Y-8939531D02*
X11937205Y-8958579D01*
X11937205Y-8958579D02*
X11946729Y-8996674D01*
X11946729Y-8996674D02*
X11946729Y-9044293D01*
X11946729Y-9044293D02*
X11937205Y-9082389D01*
X11937205Y-9082389D02*
X11927682Y-9101436D01*
X11927682Y-9101436D02*
X11918158Y-9110960D01*
X11918158Y-9110960D02*
X11899110Y-9120484D01*
X11899110Y-9120484D02*
X11880062Y-9120484D01*
X11880062Y-9120484D02*
X11861015Y-9110960D01*
X11861015Y-9110960D02*
X11851491Y-9101436D01*
X11851491Y-9101436D02*
X11841967Y-9082389D01*
X11841967Y-9082389D02*
X11832443Y-9044293D01*
X11832443Y-9044293D02*
X11832443Y-8996674D01*
X11832443Y-8996674D02*
X11841967Y-8958579D01*
X11841967Y-8958579D02*
X11851491Y-8939531D01*
X11851491Y-8939531D02*
X11861015Y-8930008D01*
X11861015Y-8930008D02*
X11880062Y-8920484D01*
X12070539Y-8920484D02*
X12089586Y-8920484D01*
X12089586Y-8920484D02*
X12108634Y-8930008D01*
X12108634Y-8930008D02*
X12118158Y-8939531D01*
X12118158Y-8939531D02*
X12127682Y-8958579D01*
X12127682Y-8958579D02*
X12137205Y-8996674D01*
X12137205Y-8996674D02*
X12137205Y-9044293D01*
X12137205Y-9044293D02*
X12127682Y-9082389D01*
X12127682Y-9082389D02*
X12118158Y-9101436D01*
X12118158Y-9101436D02*
X12108634Y-9110960D01*
X12108634Y-9110960D02*
X12089586Y-9120484D01*
X12089586Y-9120484D02*
X12070539Y-9120484D01*
X12070539Y-9120484D02*
X12051491Y-9110960D01*
X12051491Y-9110960D02*
X12041967Y-9101436D01*
X12041967Y-9101436D02*
X12032443Y-9082389D01*
X12032443Y-9082389D02*
X12022920Y-9044293D01*
X12022920Y-9044293D02*
X12022920Y-8996674D01*
X12022920Y-8996674D02*
X12032443Y-8958579D01*
X12032443Y-8958579D02*
X12041967Y-8939531D01*
X12041967Y-8939531D02*
X12051491Y-8930008D01*
X12051491Y-8930008D02*
X12070539Y-8920484D01*
X12222920Y-9120484D02*
X12222920Y-8987150D01*
X12222920Y-9006198D02*
X12232443Y-8996674D01*
X12232443Y-8996674D02*
X12251491Y-8987150D01*
X12251491Y-8987150D02*
X12280063Y-8987150D01*
X12280063Y-8987150D02*
X12299110Y-8996674D01*
X12299110Y-8996674D02*
X12308634Y-9015722D01*
X12308634Y-9015722D02*
X12308634Y-9120484D01*
X12308634Y-9015722D02*
X12318158Y-8996674D01*
X12318158Y-8996674D02*
X12337205Y-8987150D01*
X12337205Y-8987150D02*
X12365777Y-8987150D01*
X12365777Y-8987150D02*
X12384824Y-8996674D01*
X12384824Y-8996674D02*
X12394348Y-9015722D01*
X12394348Y-9015722D02*
X12394348Y-9120484D01*
X12489586Y-9120484D02*
X12489586Y-8987150D01*
X12489586Y-9006198D02*
X12499110Y-8996674D01*
X12499110Y-8996674D02*
X12518158Y-8987150D01*
X12518158Y-8987150D02*
X12546729Y-8987150D01*
X12546729Y-8987150D02*
X12565777Y-8996674D01*
X12565777Y-8996674D02*
X12575301Y-9015722D01*
X12575301Y-9015722D02*
X12575301Y-9120484D01*
X12575301Y-9015722D02*
X12584824Y-8996674D01*
X12584824Y-8996674D02*
X12603872Y-8987150D01*
X12603872Y-8987150D02*
X12632443Y-8987150D01*
X12632443Y-8987150D02*
X12651491Y-8996674D01*
X12651491Y-8996674D02*
X12661015Y-9015722D01*
X12661015Y-9015722D02*
X12661015Y-9120484D01*
X13051491Y-8910960D02*
X12880063Y-9168103D01*
X13308634Y-8920484D02*
X13327682Y-8920484D01*
X13327682Y-8920484D02*
X13346729Y-8930008D01*
X13346729Y-8930008D02*
X13356253Y-8939531D01*
X13356253Y-8939531D02*
X13365777Y-8958579D01*
X13365777Y-8958579D02*
X13375301Y-8996674D01*
X13375301Y-8996674D02*
X13375301Y-9044293D01*
X13375301Y-9044293D02*
X13365777Y-9082389D01*
X13365777Y-9082389D02*
X13356253Y-9101436D01*
X13356253Y-9101436D02*
X13346729Y-9110960D01*
X13346729Y-9110960D02*
X13327682Y-9120484D01*
X13327682Y-9120484D02*
X13308634Y-9120484D01*
X13308634Y-9120484D02*
X13289586Y-9110960D01*
X13289586Y-9110960D02*
X13280063Y-9101436D01*
X13280063Y-9101436D02*
X13270539Y-9082389D01*
X13270539Y-9082389D02*
X13261015Y-9044293D01*
X13261015Y-9044293D02*
X13261015Y-8996674D01*
X13261015Y-8996674D02*
X13270539Y-8958579D01*
X13270539Y-8958579D02*
X13280063Y-8939531D01*
X13280063Y-8939531D02*
X13289586Y-8930008D01*
X13289586Y-8930008D02*
X13308634Y-8920484D01*
X13461015Y-9101436D02*
X13470539Y-9110960D01*
X13470539Y-9110960D02*
X13461015Y-9120484D01*
X13461015Y-9120484D02*
X13451491Y-9110960D01*
X13451491Y-9110960D02*
X13461015Y-9101436D01*
X13461015Y-9101436D02*
X13461015Y-9120484D01*
X13594348Y-8920484D02*
X13613396Y-8920484D01*
X13613396Y-8920484D02*
X13632444Y-8930008D01*
X13632444Y-8930008D02*
X13641967Y-8939531D01*
X13641967Y-8939531D02*
X13651491Y-8958579D01*
X13651491Y-8958579D02*
X13661015Y-8996674D01*
X13661015Y-8996674D02*
X13661015Y-9044293D01*
X13661015Y-9044293D02*
X13651491Y-9082389D01*
X13651491Y-9082389D02*
X13641967Y-9101436D01*
X13641967Y-9101436D02*
X13632444Y-9110960D01*
X13632444Y-9110960D02*
X13613396Y-9120484D01*
X13613396Y-9120484D02*
X13594348Y-9120484D01*
X13594348Y-9120484D02*
X13575301Y-9110960D01*
X13575301Y-9110960D02*
X13565777Y-9101436D01*
X13565777Y-9101436D02*
X13556253Y-9082389D01*
X13556253Y-9082389D02*
X13546729Y-9044293D01*
X13546729Y-9044293D02*
X13546729Y-8996674D01*
X13546729Y-8996674D02*
X13556253Y-8958579D01*
X13556253Y-8958579D02*
X13565777Y-8939531D01*
X13565777Y-8939531D02*
X13575301Y-8930008D01*
X13575301Y-8930008D02*
X13594348Y-8920484D01*
X13851491Y-9120484D02*
X13737206Y-9120484D01*
X13794348Y-9120484D02*
X13794348Y-8920484D01*
X13794348Y-8920484D02*
X13775301Y-8949055D01*
X13775301Y-8949055D02*
X13756253Y-8968103D01*
X13756253Y-8968103D02*
X13737206Y-8977627D01*
X14041967Y-9120484D02*
X13927682Y-9120484D01*
X13984825Y-9120484D02*
X13984825Y-8920484D01*
X13984825Y-8920484D02*
X13965777Y-8949055D01*
X13965777Y-8949055D02*
X13946729Y-8968103D01*
X13946729Y-8968103D02*
X13927682Y-8977627D01*
X14156253Y-9006198D02*
X14137206Y-8996674D01*
X14137206Y-8996674D02*
X14127682Y-8987150D01*
X14127682Y-8987150D02*
X14118158Y-8968103D01*
X14118158Y-8968103D02*
X14118158Y-8958579D01*
X14118158Y-8958579D02*
X14127682Y-8939531D01*
X14127682Y-8939531D02*
X14137206Y-8930008D01*
X14137206Y-8930008D02*
X14156253Y-8920484D01*
X14156253Y-8920484D02*
X14194348Y-8920484D01*
X14194348Y-8920484D02*
X14213396Y-8930008D01*
X14213396Y-8930008D02*
X14222920Y-8939531D01*
X14222920Y-8939531D02*
X14232444Y-8958579D01*
X14232444Y-8958579D02*
X14232444Y-8968103D01*
X14232444Y-8968103D02*
X14222920Y-8987150D01*
X14222920Y-8987150D02*
X14213396Y-8996674D01*
X14213396Y-8996674D02*
X14194348Y-9006198D01*
X14194348Y-9006198D02*
X14156253Y-9006198D01*
X14156253Y-9006198D02*
X14137206Y-9015722D01*
X14137206Y-9015722D02*
X14127682Y-9025246D01*
X14127682Y-9025246D02*
X14118158Y-9044293D01*
X14118158Y-9044293D02*
X14118158Y-9082389D01*
X14118158Y-9082389D02*
X14127682Y-9101436D01*
X14127682Y-9101436D02*
X14137206Y-9110960D01*
X14137206Y-9110960D02*
X14156253Y-9120484D01*
X14156253Y-9120484D02*
X14194348Y-9120484D01*
X14194348Y-9120484D02*
X14213396Y-9110960D01*
X14213396Y-9110960D02*
X14222920Y-9101436D01*
X14222920Y-9101436D02*
X14232444Y-9082389D01*
X14232444Y-9082389D02*
X14232444Y-9044293D01*
X14232444Y-9044293D02*
X14222920Y-9025246D01*
X14222920Y-9025246D02*
X14213396Y-9015722D01*
X14213396Y-9015722D02*
X14194348Y-9006198D01*
X14308634Y-8920484D02*
X14308634Y-8958579D01*
X14384825Y-8920484D02*
X14384825Y-8958579D01*
X14680063Y-9196674D02*
X14670539Y-9187150D01*
X14670539Y-9187150D02*
X14651491Y-9158579D01*
X14651491Y-9158579D02*
X14641968Y-9139531D01*
X14641968Y-9139531D02*
X14632444Y-9110960D01*
X14632444Y-9110960D02*
X14622920Y-9063341D01*
X14622920Y-9063341D02*
X14622920Y-9025246D01*
X14622920Y-9025246D02*
X14632444Y-8977627D01*
X14632444Y-8977627D02*
X14641968Y-8949055D01*
X14641968Y-8949055D02*
X14651491Y-8930008D01*
X14651491Y-8930008D02*
X14670539Y-8901436D01*
X14670539Y-8901436D02*
X14680063Y-8891912D01*
X14784825Y-9006198D02*
X14765777Y-8996674D01*
X14765777Y-8996674D02*
X14756253Y-8987150D01*
X14756253Y-8987150D02*
X14746729Y-8968103D01*
X14746729Y-8968103D02*
X14746729Y-8958579D01*
X14746729Y-8958579D02*
X14756253Y-8939531D01*
X14756253Y-8939531D02*
X14765777Y-8930008D01*
X14765777Y-8930008D02*
X14784825Y-8920484D01*
X14784825Y-8920484D02*
X14822920Y-8920484D01*
X14822920Y-8920484D02*
X14841968Y-8930008D01*
X14841968Y-8930008D02*
X14851491Y-8939531D01*
X14851491Y-8939531D02*
X14861015Y-8958579D01*
X14861015Y-8958579D02*
X14861015Y-8968103D01*
X14861015Y-8968103D02*
X14851491Y-8987150D01*
X14851491Y-8987150D02*
X14841968Y-8996674D01*
X14841968Y-8996674D02*
X14822920Y-9006198D01*
X14822920Y-9006198D02*
X14784825Y-9006198D01*
X14784825Y-9006198D02*
X14765777Y-9015722D01*
X14765777Y-9015722D02*
X14756253Y-9025246D01*
X14756253Y-9025246D02*
X14746729Y-9044293D01*
X14746729Y-9044293D02*
X14746729Y-9082389D01*
X14746729Y-9082389D02*
X14756253Y-9101436D01*
X14756253Y-9101436D02*
X14765777Y-9110960D01*
X14765777Y-9110960D02*
X14784825Y-9120484D01*
X14784825Y-9120484D02*
X14822920Y-9120484D01*
X14822920Y-9120484D02*
X14841968Y-9110960D01*
X14841968Y-9110960D02*
X14851491Y-9101436D01*
X14851491Y-9101436D02*
X14861015Y-9082389D01*
X14861015Y-9082389D02*
X14861015Y-9044293D01*
X14861015Y-9044293D02*
X14851491Y-9025246D01*
X14851491Y-9025246D02*
X14841968Y-9015722D01*
X14841968Y-9015722D02*
X14822920Y-9006198D01*
X15099110Y-9120484D02*
X15099110Y-8920484D01*
X15184825Y-9120484D02*
X15184825Y-9015722D01*
X15184825Y-9015722D02*
X15175301Y-8996674D01*
X15175301Y-8996674D02*
X15156253Y-8987150D01*
X15156253Y-8987150D02*
X15127682Y-8987150D01*
X15127682Y-8987150D02*
X15108634Y-8996674D01*
X15108634Y-8996674D02*
X15099110Y-9006198D01*
X15308634Y-9120484D02*
X15289587Y-9110960D01*
X15289587Y-9110960D02*
X15280063Y-9101436D01*
X15280063Y-9101436D02*
X15270539Y-9082389D01*
X15270539Y-9082389D02*
X15270539Y-9025246D01*
X15270539Y-9025246D02*
X15280063Y-9006198D01*
X15280063Y-9006198D02*
X15289587Y-8996674D01*
X15289587Y-8996674D02*
X15308634Y-8987150D01*
X15308634Y-8987150D02*
X15337206Y-8987150D01*
X15337206Y-8987150D02*
X15356253Y-8996674D01*
X15356253Y-8996674D02*
X15365777Y-9006198D01*
X15365777Y-9006198D02*
X15375301Y-9025246D01*
X15375301Y-9025246D02*
X15375301Y-9082389D01*
X15375301Y-9082389D02*
X15365777Y-9101436D01*
X15365777Y-9101436D02*
X15356253Y-9110960D01*
X15356253Y-9110960D02*
X15337206Y-9120484D01*
X15337206Y-9120484D02*
X15308634Y-9120484D01*
X15489587Y-9120484D02*
X15470539Y-9110960D01*
X15470539Y-9110960D02*
X15461015Y-9091912D01*
X15461015Y-9091912D02*
X15461015Y-8920484D01*
X15641968Y-9110960D02*
X15622920Y-9120484D01*
X15622920Y-9120484D02*
X15584825Y-9120484D01*
X15584825Y-9120484D02*
X15565777Y-9110960D01*
X15565777Y-9110960D02*
X15556253Y-9091912D01*
X15556253Y-9091912D02*
X15556253Y-9015722D01*
X15556253Y-9015722D02*
X15565777Y-8996674D01*
X15565777Y-8996674D02*
X15584825Y-8987150D01*
X15584825Y-8987150D02*
X15622920Y-8987150D01*
X15622920Y-8987150D02*
X15641968Y-8996674D01*
X15641968Y-8996674D02*
X15651491Y-9015722D01*
X15651491Y-9015722D02*
X15651491Y-9034770D01*
X15651491Y-9034770D02*
X15556253Y-9053817D01*
X15727682Y-9110960D02*
X15746730Y-9120484D01*
X15746730Y-9120484D02*
X15784825Y-9120484D01*
X15784825Y-9120484D02*
X15803872Y-9110960D01*
X15803872Y-9110960D02*
X15813396Y-9091912D01*
X15813396Y-9091912D02*
X15813396Y-9082389D01*
X15813396Y-9082389D02*
X15803872Y-9063341D01*
X15803872Y-9063341D02*
X15784825Y-9053817D01*
X15784825Y-9053817D02*
X15756253Y-9053817D01*
X15756253Y-9053817D02*
X15737206Y-9044293D01*
X15737206Y-9044293D02*
X15727682Y-9025246D01*
X15727682Y-9025246D02*
X15727682Y-9015722D01*
X15727682Y-9015722D02*
X15737206Y-8996674D01*
X15737206Y-8996674D02*
X15756253Y-8987150D01*
X15756253Y-8987150D02*
X15784825Y-8987150D01*
X15784825Y-8987150D02*
X15803872Y-8996674D01*
X15880063Y-9196674D02*
X15889587Y-9187150D01*
X15889587Y-9187150D02*
X15908634Y-9158579D01*
X15908634Y-9158579D02*
X15918158Y-9139531D01*
X15918158Y-9139531D02*
X15927682Y-9110960D01*
X15927682Y-9110960D02*
X15937206Y-9063341D01*
X15937206Y-9063341D02*
X15937206Y-9025246D01*
X15937206Y-9025246D02*
X15927682Y-8977627D01*
X15927682Y-8977627D02*
X15918158Y-8949055D01*
X15918158Y-8949055D02*
X15908634Y-8930008D01*
X15908634Y-8930008D02*
X15889587Y-8901436D01*
X15889587Y-8901436D02*
X15880063Y-8891912D01*
D10*
X11085000Y-9273000D02*
X11085000Y-9313000D01*
X11065000Y-9293000D02*
X11105000Y-9293000D01*
D11*
X11403872Y-9184484D02*
X11422920Y-9184484D01*
X11422920Y-9184484D02*
X11441967Y-9194008D01*
X11441967Y-9194008D02*
X11451491Y-9203531D01*
X11451491Y-9203531D02*
X11461015Y-9222579D01*
X11461015Y-9222579D02*
X11470539Y-9260674D01*
X11470539Y-9260674D02*
X11470539Y-9308293D01*
X11470539Y-9308293D02*
X11461015Y-9346389D01*
X11461015Y-9346389D02*
X11451491Y-9365436D01*
X11451491Y-9365436D02*
X11441967Y-9374960D01*
X11441967Y-9374960D02*
X11422920Y-9384484D01*
X11422920Y-9384484D02*
X11403872Y-9384484D01*
X11403872Y-9384484D02*
X11384824Y-9374960D01*
X11384824Y-9374960D02*
X11375301Y-9365436D01*
X11375301Y-9365436D02*
X11365777Y-9346389D01*
X11365777Y-9346389D02*
X11356253Y-9308293D01*
X11356253Y-9308293D02*
X11356253Y-9260674D01*
X11356253Y-9260674D02*
X11365777Y-9222579D01*
X11365777Y-9222579D02*
X11375301Y-9203531D01*
X11375301Y-9203531D02*
X11384824Y-9194008D01*
X11384824Y-9194008D02*
X11403872Y-9184484D01*
X11556253Y-9365436D02*
X11565777Y-9374960D01*
X11565777Y-9374960D02*
X11556253Y-9384484D01*
X11556253Y-9384484D02*
X11546729Y-9374960D01*
X11546729Y-9374960D02*
X11556253Y-9365436D01*
X11556253Y-9365436D02*
X11556253Y-9384484D01*
X11737205Y-9251150D02*
X11737205Y-9384484D01*
X11689586Y-9174960D02*
X11641967Y-9317817D01*
X11641967Y-9317817D02*
X11765777Y-9317817D01*
X11880062Y-9184484D02*
X11899110Y-9184484D01*
X11899110Y-9184484D02*
X11918158Y-9194008D01*
X11918158Y-9194008D02*
X11927682Y-9203531D01*
X11927682Y-9203531D02*
X11937205Y-9222579D01*
X11937205Y-9222579D02*
X11946729Y-9260674D01*
X11946729Y-9260674D02*
X11946729Y-9308293D01*
X11946729Y-9308293D02*
X11937205Y-9346389D01*
X11937205Y-9346389D02*
X11927682Y-9365436D01*
X11927682Y-9365436D02*
X11918158Y-9374960D01*
X11918158Y-9374960D02*
X11899110Y-9384484D01*
X11899110Y-9384484D02*
X11880062Y-9384484D01*
X11880062Y-9384484D02*
X11861015Y-9374960D01*
X11861015Y-9374960D02*
X11851491Y-9365436D01*
X11851491Y-9365436D02*
X11841967Y-9346389D01*
X11841967Y-9346389D02*
X11832443Y-9308293D01*
X11832443Y-9308293D02*
X11832443Y-9260674D01*
X11832443Y-9260674D02*
X11841967Y-9222579D01*
X11841967Y-9222579D02*
X11851491Y-9203531D01*
X11851491Y-9203531D02*
X11861015Y-9194008D01*
X11861015Y-9194008D02*
X11880062Y-9184484D01*
X12070539Y-9184484D02*
X12089586Y-9184484D01*
X12089586Y-9184484D02*
X12108634Y-9194008D01*
X12108634Y-9194008D02*
X12118158Y-9203531D01*
X12118158Y-9203531D02*
X12127682Y-9222579D01*
X12127682Y-9222579D02*
X12137205Y-9260674D01*
X12137205Y-9260674D02*
X12137205Y-9308293D01*
X12137205Y-9308293D02*
X12127682Y-9346389D01*
X12127682Y-9346389D02*
X12118158Y-9365436D01*
X12118158Y-9365436D02*
X12108634Y-9374960D01*
X12108634Y-9374960D02*
X12089586Y-9384484D01*
X12089586Y-9384484D02*
X12070539Y-9384484D01*
X12070539Y-9384484D02*
X12051491Y-9374960D01*
X12051491Y-9374960D02*
X12041967Y-9365436D01*
X12041967Y-9365436D02*
X12032443Y-9346389D01*
X12032443Y-9346389D02*
X12022920Y-9308293D01*
X12022920Y-9308293D02*
X12022920Y-9260674D01*
X12022920Y-9260674D02*
X12032443Y-9222579D01*
X12032443Y-9222579D02*
X12041967Y-9203531D01*
X12041967Y-9203531D02*
X12051491Y-9194008D01*
X12051491Y-9194008D02*
X12070539Y-9184484D01*
X12222920Y-9384484D02*
X12222920Y-9251150D01*
X12222920Y-9270198D02*
X12232443Y-9260674D01*
X12232443Y-9260674D02*
X12251491Y-9251150D01*
X12251491Y-9251150D02*
X12280063Y-9251150D01*
X12280063Y-9251150D02*
X12299110Y-9260674D01*
X12299110Y-9260674D02*
X12308634Y-9279722D01*
X12308634Y-9279722D02*
X12308634Y-9384484D01*
X12308634Y-9279722D02*
X12318158Y-9260674D01*
X12318158Y-9260674D02*
X12337205Y-9251150D01*
X12337205Y-9251150D02*
X12365777Y-9251150D01*
X12365777Y-9251150D02*
X12384824Y-9260674D01*
X12384824Y-9260674D02*
X12394348Y-9279722D01*
X12394348Y-9279722D02*
X12394348Y-9384484D01*
X12489586Y-9384484D02*
X12489586Y-9251150D01*
X12489586Y-9270198D02*
X12499110Y-9260674D01*
X12499110Y-9260674D02*
X12518158Y-9251150D01*
X12518158Y-9251150D02*
X12546729Y-9251150D01*
X12546729Y-9251150D02*
X12565777Y-9260674D01*
X12565777Y-9260674D02*
X12575301Y-9279722D01*
X12575301Y-9279722D02*
X12575301Y-9384484D01*
X12575301Y-9279722D02*
X12584824Y-9260674D01*
X12584824Y-9260674D02*
X12603872Y-9251150D01*
X12603872Y-9251150D02*
X12632443Y-9251150D01*
X12632443Y-9251150D02*
X12651491Y-9260674D01*
X12651491Y-9260674D02*
X12661015Y-9279722D01*
X12661015Y-9279722D02*
X12661015Y-9384484D01*
X13051491Y-9174960D02*
X12880063Y-9432103D01*
X13308634Y-9184484D02*
X13327682Y-9184484D01*
X13327682Y-9184484D02*
X13346729Y-9194008D01*
X13346729Y-9194008D02*
X13356253Y-9203531D01*
X13356253Y-9203531D02*
X13365777Y-9222579D01*
X13365777Y-9222579D02*
X13375301Y-9260674D01*
X13375301Y-9260674D02*
X13375301Y-9308293D01*
X13375301Y-9308293D02*
X13365777Y-9346389D01*
X13365777Y-9346389D02*
X13356253Y-9365436D01*
X13356253Y-9365436D02*
X13346729Y-9374960D01*
X13346729Y-9374960D02*
X13327682Y-9384484D01*
X13327682Y-9384484D02*
X13308634Y-9384484D01*
X13308634Y-9384484D02*
X13289586Y-9374960D01*
X13289586Y-9374960D02*
X13280063Y-9365436D01*
X13280063Y-9365436D02*
X13270539Y-9346389D01*
X13270539Y-9346389D02*
X13261015Y-9308293D01*
X13261015Y-9308293D02*
X13261015Y-9260674D01*
X13261015Y-9260674D02*
X13270539Y-9222579D01*
X13270539Y-9222579D02*
X13280063Y-9203531D01*
X13280063Y-9203531D02*
X13289586Y-9194008D01*
X13289586Y-9194008D02*
X13308634Y-9184484D01*
X13461015Y-9365436D02*
X13470539Y-9374960D01*
X13470539Y-9374960D02*
X13461015Y-9384484D01*
X13461015Y-9384484D02*
X13451491Y-9374960D01*
X13451491Y-9374960D02*
X13461015Y-9365436D01*
X13461015Y-9365436D02*
X13461015Y-9384484D01*
X13594348Y-9184484D02*
X13613396Y-9184484D01*
X13613396Y-9184484D02*
X13632444Y-9194008D01*
X13632444Y-9194008D02*
X13641967Y-9203531D01*
X13641967Y-9203531D02*
X13651491Y-9222579D01*
X13651491Y-9222579D02*
X13661015Y-9260674D01*
X13661015Y-9260674D02*
X13661015Y-9308293D01*
X13661015Y-9308293D02*
X13651491Y-9346389D01*
X13651491Y-9346389D02*
X13641967Y-9365436D01*
X13641967Y-9365436D02*
X13632444Y-9374960D01*
X13632444Y-9374960D02*
X13613396Y-9384484D01*
X13613396Y-9384484D02*
X13594348Y-9384484D01*
X13594348Y-9384484D02*
X13575301Y-9374960D01*
X13575301Y-9374960D02*
X13565777Y-9365436D01*
X13565777Y-9365436D02*
X13556253Y-9346389D01*
X13556253Y-9346389D02*
X13546729Y-9308293D01*
X13546729Y-9308293D02*
X13546729Y-9260674D01*
X13546729Y-9260674D02*
X13556253Y-9222579D01*
X13556253Y-9222579D02*
X13565777Y-9203531D01*
X13565777Y-9203531D02*
X13575301Y-9194008D01*
X13575301Y-9194008D02*
X13594348Y-9184484D01*
X13851491Y-9384484D02*
X13737206Y-9384484D01*
X13794348Y-9384484D02*
X13794348Y-9184484D01*
X13794348Y-9184484D02*
X13775301Y-9213055D01*
X13775301Y-9213055D02*
X13756253Y-9232103D01*
X13756253Y-9232103D02*
X13737206Y-9241627D01*
X14032444Y-9184484D02*
X13937206Y-9184484D01*
X13937206Y-9184484D02*
X13927682Y-9279722D01*
X13927682Y-9279722D02*
X13937206Y-9270198D01*
X13937206Y-9270198D02*
X13956253Y-9260674D01*
X13956253Y-9260674D02*
X14003872Y-9260674D01*
X14003872Y-9260674D02*
X14022920Y-9270198D01*
X14022920Y-9270198D02*
X14032444Y-9279722D01*
X14032444Y-9279722D02*
X14041967Y-9298770D01*
X14041967Y-9298770D02*
X14041967Y-9346389D01*
X14041967Y-9346389D02*
X14032444Y-9365436D01*
X14032444Y-9365436D02*
X14022920Y-9374960D01*
X14022920Y-9374960D02*
X14003872Y-9384484D01*
X14003872Y-9384484D02*
X13956253Y-9384484D01*
X13956253Y-9384484D02*
X13937206Y-9374960D01*
X13937206Y-9374960D02*
X13927682Y-9365436D01*
X14108634Y-9184484D02*
X14241967Y-9184484D01*
X14241967Y-9184484D02*
X14156253Y-9384484D01*
X14308634Y-9184484D02*
X14308634Y-9222579D01*
X14384825Y-9184484D02*
X14384825Y-9222579D01*
X14680063Y-9460674D02*
X14670539Y-9451150D01*
X14670539Y-9451150D02*
X14651491Y-9422579D01*
X14651491Y-9422579D02*
X14641968Y-9403531D01*
X14641968Y-9403531D02*
X14632444Y-9374960D01*
X14632444Y-9374960D02*
X14622920Y-9327341D01*
X14622920Y-9327341D02*
X14622920Y-9289246D01*
X14622920Y-9289246D02*
X14632444Y-9241627D01*
X14632444Y-9241627D02*
X14641968Y-9213055D01*
X14641968Y-9213055D02*
X14651491Y-9194008D01*
X14651491Y-9194008D02*
X14670539Y-9165436D01*
X14670539Y-9165436D02*
X14680063Y-9155912D01*
X14737206Y-9184484D02*
X14861015Y-9184484D01*
X14861015Y-9184484D02*
X14794348Y-9260674D01*
X14794348Y-9260674D02*
X14822920Y-9260674D01*
X14822920Y-9260674D02*
X14841968Y-9270198D01*
X14841968Y-9270198D02*
X14851491Y-9279722D01*
X14851491Y-9279722D02*
X14861015Y-9298770D01*
X14861015Y-9298770D02*
X14861015Y-9346389D01*
X14861015Y-9346389D02*
X14851491Y-9365436D01*
X14851491Y-9365436D02*
X14841968Y-9374960D01*
X14841968Y-9374960D02*
X14822920Y-9384484D01*
X14822920Y-9384484D02*
X14765777Y-9384484D01*
X14765777Y-9384484D02*
X14746729Y-9374960D01*
X14746729Y-9374960D02*
X14737206Y-9365436D01*
X14927682Y-9184484D02*
X15061015Y-9184484D01*
X15061015Y-9184484D02*
X14975301Y-9384484D01*
X15289587Y-9384484D02*
X15289587Y-9184484D01*
X15375301Y-9384484D02*
X15375301Y-9279722D01*
X15375301Y-9279722D02*
X15365777Y-9260674D01*
X15365777Y-9260674D02*
X15346730Y-9251150D01*
X15346730Y-9251150D02*
X15318158Y-9251150D01*
X15318158Y-9251150D02*
X15299110Y-9260674D01*
X15299110Y-9260674D02*
X15289587Y-9270198D01*
X15499110Y-9384484D02*
X15480063Y-9374960D01*
X15480063Y-9374960D02*
X15470539Y-9365436D01*
X15470539Y-9365436D02*
X15461015Y-9346389D01*
X15461015Y-9346389D02*
X15461015Y-9289246D01*
X15461015Y-9289246D02*
X15470539Y-9270198D01*
X15470539Y-9270198D02*
X15480063Y-9260674D01*
X15480063Y-9260674D02*
X15499110Y-9251150D01*
X15499110Y-9251150D02*
X15527682Y-9251150D01*
X15527682Y-9251150D02*
X15546730Y-9260674D01*
X15546730Y-9260674D02*
X15556253Y-9270198D01*
X15556253Y-9270198D02*
X15565777Y-9289246D01*
X15565777Y-9289246D02*
X15565777Y-9346389D01*
X15565777Y-9346389D02*
X15556253Y-9365436D01*
X15556253Y-9365436D02*
X15546730Y-9374960D01*
X15546730Y-9374960D02*
X15527682Y-9384484D01*
X15527682Y-9384484D02*
X15499110Y-9384484D01*
X15680063Y-9384484D02*
X15661015Y-9374960D01*
X15661015Y-9374960D02*
X15651491Y-9355912D01*
X15651491Y-9355912D02*
X15651491Y-9184484D01*
X15832444Y-9374960D02*
X15813396Y-9384484D01*
X15813396Y-9384484D02*
X15775301Y-9384484D01*
X15775301Y-9384484D02*
X15756253Y-9374960D01*
X15756253Y-9374960D02*
X15746730Y-9355912D01*
X15746730Y-9355912D02*
X15746730Y-9279722D01*
X15746730Y-9279722D02*
X15756253Y-9260674D01*
X15756253Y-9260674D02*
X15775301Y-9251150D01*
X15775301Y-9251150D02*
X15813396Y-9251150D01*
X15813396Y-9251150D02*
X15832444Y-9260674D01*
X15832444Y-9260674D02*
X15841968Y-9279722D01*
X15841968Y-9279722D02*
X15841968Y-9298770D01*
X15841968Y-9298770D02*
X15746730Y-9317817D01*
X15918158Y-9374960D02*
X15937206Y-9384484D01*
X15937206Y-9384484D02*
X15975301Y-9384484D01*
X15975301Y-9384484D02*
X15994349Y-9374960D01*
X15994349Y-9374960D02*
X16003872Y-9355912D01*
X16003872Y-9355912D02*
X16003872Y-9346389D01*
X16003872Y-9346389D02*
X15994349Y-9327341D01*
X15994349Y-9327341D02*
X15975301Y-9317817D01*
X15975301Y-9317817D02*
X15946730Y-9317817D01*
X15946730Y-9317817D02*
X15927682Y-9308293D01*
X15927682Y-9308293D02*
X15918158Y-9289246D01*
X15918158Y-9289246D02*
X15918158Y-9279722D01*
X15918158Y-9279722D02*
X15927682Y-9260674D01*
X15927682Y-9260674D02*
X15946730Y-9251150D01*
X15946730Y-9251150D02*
X15975301Y-9251150D01*
X15975301Y-9251150D02*
X15994349Y-9260674D01*
X16070539Y-9460674D02*
X16080063Y-9451150D01*
X16080063Y-9451150D02*
X16099111Y-9422579D01*
X16099111Y-9422579D02*
X16108634Y-9403531D01*
X16108634Y-9403531D02*
X16118158Y-9374960D01*
X16118158Y-9374960D02*
X16127682Y-9327341D01*
X16127682Y-9327341D02*
X16127682Y-9289246D01*
X16127682Y-9289246D02*
X16118158Y-9241627D01*
X16118158Y-9241627D02*
X16108634Y-9213055D01*
X16108634Y-9213055D02*
X16099111Y-9194008D01*
X16099111Y-9194008D02*
X16080063Y-9165436D01*
X16080063Y-9165436D02*
X16070539Y-9155912D01*
D10*
X11093285Y-9585285D02*
X11093285Y-9528716D01*
X11036716Y-9528716D01*
X11036716Y-9585285D01*
X11093285Y-9585285D01*
D11*
X11403872Y-9448484D02*
X11422920Y-9448484D01*
X11422920Y-9448484D02*
X11441967Y-9458008D01*
X11441967Y-9458008D02*
X11451491Y-9467531D01*
X11451491Y-9467531D02*
X11461015Y-9486579D01*
X11461015Y-9486579D02*
X11470539Y-9524674D01*
X11470539Y-9524674D02*
X11470539Y-9572293D01*
X11470539Y-9572293D02*
X11461015Y-9610389D01*
X11461015Y-9610389D02*
X11451491Y-9629436D01*
X11451491Y-9629436D02*
X11441967Y-9638960D01*
X11441967Y-9638960D02*
X11422920Y-9648484D01*
X11422920Y-9648484D02*
X11403872Y-9648484D01*
X11403872Y-9648484D02*
X11384824Y-9638960D01*
X11384824Y-9638960D02*
X11375301Y-9629436D01*
X11375301Y-9629436D02*
X11365777Y-9610389D01*
X11365777Y-9610389D02*
X11356253Y-9572293D01*
X11356253Y-9572293D02*
X11356253Y-9524674D01*
X11356253Y-9524674D02*
X11365777Y-9486579D01*
X11365777Y-9486579D02*
X11375301Y-9467531D01*
X11375301Y-9467531D02*
X11384824Y-9458008D01*
X11384824Y-9458008D02*
X11403872Y-9448484D01*
X11556253Y-9629436D02*
X11565777Y-9638960D01*
X11565777Y-9638960D02*
X11556253Y-9648484D01*
X11556253Y-9648484D02*
X11546729Y-9638960D01*
X11546729Y-9638960D02*
X11556253Y-9629436D01*
X11556253Y-9629436D02*
X11556253Y-9648484D01*
X11680062Y-9534198D02*
X11661015Y-9524674D01*
X11661015Y-9524674D02*
X11651491Y-9515150D01*
X11651491Y-9515150D02*
X11641967Y-9496103D01*
X11641967Y-9496103D02*
X11641967Y-9486579D01*
X11641967Y-9486579D02*
X11651491Y-9467531D01*
X11651491Y-9467531D02*
X11661015Y-9458008D01*
X11661015Y-9458008D02*
X11680062Y-9448484D01*
X11680062Y-9448484D02*
X11718158Y-9448484D01*
X11718158Y-9448484D02*
X11737205Y-9458008D01*
X11737205Y-9458008D02*
X11746729Y-9467531D01*
X11746729Y-9467531D02*
X11756253Y-9486579D01*
X11756253Y-9486579D02*
X11756253Y-9496103D01*
X11756253Y-9496103D02*
X11746729Y-9515150D01*
X11746729Y-9515150D02*
X11737205Y-9524674D01*
X11737205Y-9524674D02*
X11718158Y-9534198D01*
X11718158Y-9534198D02*
X11680062Y-9534198D01*
X11680062Y-9534198D02*
X11661015Y-9543722D01*
X11661015Y-9543722D02*
X11651491Y-9553246D01*
X11651491Y-9553246D02*
X11641967Y-9572293D01*
X11641967Y-9572293D02*
X11641967Y-9610389D01*
X11641967Y-9610389D02*
X11651491Y-9629436D01*
X11651491Y-9629436D02*
X11661015Y-9638960D01*
X11661015Y-9638960D02*
X11680062Y-9648484D01*
X11680062Y-9648484D02*
X11718158Y-9648484D01*
X11718158Y-9648484D02*
X11737205Y-9638960D01*
X11737205Y-9638960D02*
X11746729Y-9629436D01*
X11746729Y-9629436D02*
X11756253Y-9610389D01*
X11756253Y-9610389D02*
X11756253Y-9572293D01*
X11756253Y-9572293D02*
X11746729Y-9553246D01*
X11746729Y-9553246D02*
X11737205Y-9543722D01*
X11737205Y-9543722D02*
X11718158Y-9534198D01*
X11880062Y-9448484D02*
X11899110Y-9448484D01*
X11899110Y-9448484D02*
X11918158Y-9458008D01*
X11918158Y-9458008D02*
X11927682Y-9467531D01*
X11927682Y-9467531D02*
X11937205Y-9486579D01*
X11937205Y-9486579D02*
X11946729Y-9524674D01*
X11946729Y-9524674D02*
X11946729Y-9572293D01*
X11946729Y-9572293D02*
X11937205Y-9610389D01*
X11937205Y-9610389D02*
X11927682Y-9629436D01*
X11927682Y-9629436D02*
X11918158Y-9638960D01*
X11918158Y-9638960D02*
X11899110Y-9648484D01*
X11899110Y-9648484D02*
X11880062Y-9648484D01*
X11880062Y-9648484D02*
X11861015Y-9638960D01*
X11861015Y-9638960D02*
X11851491Y-9629436D01*
X11851491Y-9629436D02*
X11841967Y-9610389D01*
X11841967Y-9610389D02*
X11832443Y-9572293D01*
X11832443Y-9572293D02*
X11832443Y-9524674D01*
X11832443Y-9524674D02*
X11841967Y-9486579D01*
X11841967Y-9486579D02*
X11851491Y-9467531D01*
X11851491Y-9467531D02*
X11861015Y-9458008D01*
X11861015Y-9458008D02*
X11880062Y-9448484D01*
X12070539Y-9448484D02*
X12089586Y-9448484D01*
X12089586Y-9448484D02*
X12108634Y-9458008D01*
X12108634Y-9458008D02*
X12118158Y-9467531D01*
X12118158Y-9467531D02*
X12127682Y-9486579D01*
X12127682Y-9486579D02*
X12137205Y-9524674D01*
X12137205Y-9524674D02*
X12137205Y-9572293D01*
X12137205Y-9572293D02*
X12127682Y-9610389D01*
X12127682Y-9610389D02*
X12118158Y-9629436D01*
X12118158Y-9629436D02*
X12108634Y-9638960D01*
X12108634Y-9638960D02*
X12089586Y-9648484D01*
X12089586Y-9648484D02*
X12070539Y-9648484D01*
X12070539Y-9648484D02*
X12051491Y-9638960D01*
X12051491Y-9638960D02*
X12041967Y-9629436D01*
X12041967Y-9629436D02*
X12032443Y-9610389D01*
X12032443Y-9610389D02*
X12022920Y-9572293D01*
X12022920Y-9572293D02*
X12022920Y-9524674D01*
X12022920Y-9524674D02*
X12032443Y-9486579D01*
X12032443Y-9486579D02*
X12041967Y-9467531D01*
X12041967Y-9467531D02*
X12051491Y-9458008D01*
X12051491Y-9458008D02*
X12070539Y-9448484D01*
X12222920Y-9648484D02*
X12222920Y-9515150D01*
X12222920Y-9534198D02*
X12232443Y-9524674D01*
X12232443Y-9524674D02*
X12251491Y-9515150D01*
X12251491Y-9515150D02*
X12280063Y-9515150D01*
X12280063Y-9515150D02*
X12299110Y-9524674D01*
X12299110Y-9524674D02*
X12308634Y-9543722D01*
X12308634Y-9543722D02*
X12308634Y-9648484D01*
X12308634Y-9543722D02*
X12318158Y-9524674D01*
X12318158Y-9524674D02*
X12337205Y-9515150D01*
X12337205Y-9515150D02*
X12365777Y-9515150D01*
X12365777Y-9515150D02*
X12384824Y-9524674D01*
X12384824Y-9524674D02*
X12394348Y-9543722D01*
X12394348Y-9543722D02*
X12394348Y-9648484D01*
X12489586Y-9648484D02*
X12489586Y-9515150D01*
X12489586Y-9534198D02*
X12499110Y-9524674D01*
X12499110Y-9524674D02*
X12518158Y-9515150D01*
X12518158Y-9515150D02*
X12546729Y-9515150D01*
X12546729Y-9515150D02*
X12565777Y-9524674D01*
X12565777Y-9524674D02*
X12575301Y-9543722D01*
X12575301Y-9543722D02*
X12575301Y-9648484D01*
X12575301Y-9543722D02*
X12584824Y-9524674D01*
X12584824Y-9524674D02*
X12603872Y-9515150D01*
X12603872Y-9515150D02*
X12632443Y-9515150D01*
X12632443Y-9515150D02*
X12651491Y-9524674D01*
X12651491Y-9524674D02*
X12661015Y-9543722D01*
X12661015Y-9543722D02*
X12661015Y-9648484D01*
X13051491Y-9438960D02*
X12880063Y-9696103D01*
X13308634Y-9448484D02*
X13327682Y-9448484D01*
X13327682Y-9448484D02*
X13346729Y-9458008D01*
X13346729Y-9458008D02*
X13356253Y-9467531D01*
X13356253Y-9467531D02*
X13365777Y-9486579D01*
X13365777Y-9486579D02*
X13375301Y-9524674D01*
X13375301Y-9524674D02*
X13375301Y-9572293D01*
X13375301Y-9572293D02*
X13365777Y-9610389D01*
X13365777Y-9610389D02*
X13356253Y-9629436D01*
X13356253Y-9629436D02*
X13346729Y-9638960D01*
X13346729Y-9638960D02*
X13327682Y-9648484D01*
X13327682Y-9648484D02*
X13308634Y-9648484D01*
X13308634Y-9648484D02*
X13289586Y-9638960D01*
X13289586Y-9638960D02*
X13280063Y-9629436D01*
X13280063Y-9629436D02*
X13270539Y-9610389D01*
X13270539Y-9610389D02*
X13261015Y-9572293D01*
X13261015Y-9572293D02*
X13261015Y-9524674D01*
X13261015Y-9524674D02*
X13270539Y-9486579D01*
X13270539Y-9486579D02*
X13280063Y-9467531D01*
X13280063Y-9467531D02*
X13289586Y-9458008D01*
X13289586Y-9458008D02*
X13308634Y-9448484D01*
X13461015Y-9629436D02*
X13470539Y-9638960D01*
X13470539Y-9638960D02*
X13461015Y-9648484D01*
X13461015Y-9648484D02*
X13451491Y-9638960D01*
X13451491Y-9638960D02*
X13461015Y-9629436D01*
X13461015Y-9629436D02*
X13461015Y-9648484D01*
X13594348Y-9448484D02*
X13613396Y-9448484D01*
X13613396Y-9448484D02*
X13632444Y-9458008D01*
X13632444Y-9458008D02*
X13641967Y-9467531D01*
X13641967Y-9467531D02*
X13651491Y-9486579D01*
X13651491Y-9486579D02*
X13661015Y-9524674D01*
X13661015Y-9524674D02*
X13661015Y-9572293D01*
X13661015Y-9572293D02*
X13651491Y-9610389D01*
X13651491Y-9610389D02*
X13641967Y-9629436D01*
X13641967Y-9629436D02*
X13632444Y-9638960D01*
X13632444Y-9638960D02*
X13613396Y-9648484D01*
X13613396Y-9648484D02*
X13594348Y-9648484D01*
X13594348Y-9648484D02*
X13575301Y-9638960D01*
X13575301Y-9638960D02*
X13565777Y-9629436D01*
X13565777Y-9629436D02*
X13556253Y-9610389D01*
X13556253Y-9610389D02*
X13546729Y-9572293D01*
X13546729Y-9572293D02*
X13546729Y-9524674D01*
X13546729Y-9524674D02*
X13556253Y-9486579D01*
X13556253Y-9486579D02*
X13565777Y-9467531D01*
X13565777Y-9467531D02*
X13575301Y-9458008D01*
X13575301Y-9458008D02*
X13594348Y-9448484D01*
X13727682Y-9448484D02*
X13851491Y-9448484D01*
X13851491Y-9448484D02*
X13784825Y-9524674D01*
X13784825Y-9524674D02*
X13813396Y-9524674D01*
X13813396Y-9524674D02*
X13832444Y-9534198D01*
X13832444Y-9534198D02*
X13841967Y-9543722D01*
X13841967Y-9543722D02*
X13851491Y-9562770D01*
X13851491Y-9562770D02*
X13851491Y-9610389D01*
X13851491Y-9610389D02*
X13841967Y-9629436D01*
X13841967Y-9629436D02*
X13832444Y-9638960D01*
X13832444Y-9638960D02*
X13813396Y-9648484D01*
X13813396Y-9648484D02*
X13756253Y-9648484D01*
X13756253Y-9648484D02*
X13737206Y-9638960D01*
X13737206Y-9638960D02*
X13727682Y-9629436D01*
X14041967Y-9648484D02*
X13927682Y-9648484D01*
X13984825Y-9648484D02*
X13984825Y-9448484D01*
X13984825Y-9448484D02*
X13965777Y-9477055D01*
X13965777Y-9477055D02*
X13946729Y-9496103D01*
X13946729Y-9496103D02*
X13927682Y-9505627D01*
X14222920Y-9448484D02*
X14127682Y-9448484D01*
X14127682Y-9448484D02*
X14118158Y-9543722D01*
X14118158Y-9543722D02*
X14127682Y-9534198D01*
X14127682Y-9534198D02*
X14146729Y-9524674D01*
X14146729Y-9524674D02*
X14194348Y-9524674D01*
X14194348Y-9524674D02*
X14213396Y-9534198D01*
X14213396Y-9534198D02*
X14222920Y-9543722D01*
X14222920Y-9543722D02*
X14232444Y-9562770D01*
X14232444Y-9562770D02*
X14232444Y-9610389D01*
X14232444Y-9610389D02*
X14222920Y-9629436D01*
X14222920Y-9629436D02*
X14213396Y-9638960D01*
X14213396Y-9638960D02*
X14194348Y-9648484D01*
X14194348Y-9648484D02*
X14146729Y-9648484D01*
X14146729Y-9648484D02*
X14127682Y-9638960D01*
X14127682Y-9638960D02*
X14118158Y-9629436D01*
X14308634Y-9448484D02*
X14308634Y-9486579D01*
X14384825Y-9448484D02*
X14384825Y-9486579D01*
X14680063Y-9724674D02*
X14670539Y-9715150D01*
X14670539Y-9715150D02*
X14651491Y-9686579D01*
X14651491Y-9686579D02*
X14641968Y-9667531D01*
X14641968Y-9667531D02*
X14632444Y-9638960D01*
X14632444Y-9638960D02*
X14622920Y-9591341D01*
X14622920Y-9591341D02*
X14622920Y-9553246D01*
X14622920Y-9553246D02*
X14632444Y-9505627D01*
X14632444Y-9505627D02*
X14641968Y-9477055D01*
X14641968Y-9477055D02*
X14651491Y-9458008D01*
X14651491Y-9458008D02*
X14670539Y-9429436D01*
X14670539Y-9429436D02*
X14680063Y-9419912D01*
X14794348Y-9448484D02*
X14813396Y-9448484D01*
X14813396Y-9448484D02*
X14832444Y-9458008D01*
X14832444Y-9458008D02*
X14841968Y-9467531D01*
X14841968Y-9467531D02*
X14851491Y-9486579D01*
X14851491Y-9486579D02*
X14861015Y-9524674D01*
X14861015Y-9524674D02*
X14861015Y-9572293D01*
X14861015Y-9572293D02*
X14851491Y-9610389D01*
X14851491Y-9610389D02*
X14841968Y-9629436D01*
X14841968Y-9629436D02*
X14832444Y-9638960D01*
X14832444Y-9638960D02*
X14813396Y-9648484D01*
X14813396Y-9648484D02*
X14794348Y-9648484D01*
X14794348Y-9648484D02*
X14775301Y-9638960D01*
X14775301Y-9638960D02*
X14765777Y-9629436D01*
X14765777Y-9629436D02*
X14756253Y-9610389D01*
X14756253Y-9610389D02*
X14746729Y-9572293D01*
X14746729Y-9572293D02*
X14746729Y-9524674D01*
X14746729Y-9524674D02*
X14756253Y-9486579D01*
X14756253Y-9486579D02*
X14765777Y-9467531D01*
X14765777Y-9467531D02*
X14775301Y-9458008D01*
X14775301Y-9458008D02*
X14794348Y-9448484D01*
X15099110Y-9648484D02*
X15099110Y-9448484D01*
X15184825Y-9648484D02*
X15184825Y-9543722D01*
X15184825Y-9543722D02*
X15175301Y-9524674D01*
X15175301Y-9524674D02*
X15156253Y-9515150D01*
X15156253Y-9515150D02*
X15127682Y-9515150D01*
X15127682Y-9515150D02*
X15108634Y-9524674D01*
X15108634Y-9524674D02*
X15099110Y-9534198D01*
X15308634Y-9648484D02*
X15289587Y-9638960D01*
X15289587Y-9638960D02*
X15280063Y-9629436D01*
X15280063Y-9629436D02*
X15270539Y-9610389D01*
X15270539Y-9610389D02*
X15270539Y-9553246D01*
X15270539Y-9553246D02*
X15280063Y-9534198D01*
X15280063Y-9534198D02*
X15289587Y-9524674D01*
X15289587Y-9524674D02*
X15308634Y-9515150D01*
X15308634Y-9515150D02*
X15337206Y-9515150D01*
X15337206Y-9515150D02*
X15356253Y-9524674D01*
X15356253Y-9524674D02*
X15365777Y-9534198D01*
X15365777Y-9534198D02*
X15375301Y-9553246D01*
X15375301Y-9553246D02*
X15375301Y-9610389D01*
X15375301Y-9610389D02*
X15365777Y-9629436D01*
X15365777Y-9629436D02*
X15356253Y-9638960D01*
X15356253Y-9638960D02*
X15337206Y-9648484D01*
X15337206Y-9648484D02*
X15308634Y-9648484D01*
X15489587Y-9648484D02*
X15470539Y-9638960D01*
X15470539Y-9638960D02*
X15461015Y-9619912D01*
X15461015Y-9619912D02*
X15461015Y-9448484D01*
X15641968Y-9638960D02*
X15622920Y-9648484D01*
X15622920Y-9648484D02*
X15584825Y-9648484D01*
X15584825Y-9648484D02*
X15565777Y-9638960D01*
X15565777Y-9638960D02*
X15556253Y-9619912D01*
X15556253Y-9619912D02*
X15556253Y-9543722D01*
X15556253Y-9543722D02*
X15565777Y-9524674D01*
X15565777Y-9524674D02*
X15584825Y-9515150D01*
X15584825Y-9515150D02*
X15622920Y-9515150D01*
X15622920Y-9515150D02*
X15641968Y-9524674D01*
X15641968Y-9524674D02*
X15651491Y-9543722D01*
X15651491Y-9543722D02*
X15651491Y-9562770D01*
X15651491Y-9562770D02*
X15556253Y-9581817D01*
X15727682Y-9638960D02*
X15746730Y-9648484D01*
X15746730Y-9648484D02*
X15784825Y-9648484D01*
X15784825Y-9648484D02*
X15803872Y-9638960D01*
X15803872Y-9638960D02*
X15813396Y-9619912D01*
X15813396Y-9619912D02*
X15813396Y-9610389D01*
X15813396Y-9610389D02*
X15803872Y-9591341D01*
X15803872Y-9591341D02*
X15784825Y-9581817D01*
X15784825Y-9581817D02*
X15756253Y-9581817D01*
X15756253Y-9581817D02*
X15737206Y-9572293D01*
X15737206Y-9572293D02*
X15727682Y-9553246D01*
X15727682Y-9553246D02*
X15727682Y-9543722D01*
X15727682Y-9543722D02*
X15737206Y-9524674D01*
X15737206Y-9524674D02*
X15756253Y-9515150D01*
X15756253Y-9515150D02*
X15784825Y-9515150D01*
X15784825Y-9515150D02*
X15803872Y-9524674D01*
X16051492Y-9572293D02*
X16203873Y-9572293D01*
X16127682Y-9648484D02*
X16127682Y-9496103D01*
X16537206Y-9515150D02*
X16537206Y-9648484D01*
X16489587Y-9438960D02*
X16441968Y-9581817D01*
X16441968Y-9581817D02*
X16565777Y-9581817D01*
X16784825Y-9638960D02*
X16803873Y-9648484D01*
X16803873Y-9648484D02*
X16841968Y-9648484D01*
X16841968Y-9648484D02*
X16861016Y-9638960D01*
X16861016Y-9638960D02*
X16870539Y-9619912D01*
X16870539Y-9619912D02*
X16870539Y-9610389D01*
X16870539Y-9610389D02*
X16861016Y-9591341D01*
X16861016Y-9591341D02*
X16841968Y-9581817D01*
X16841968Y-9581817D02*
X16813396Y-9581817D01*
X16813396Y-9581817D02*
X16794349Y-9572293D01*
X16794349Y-9572293D02*
X16784825Y-9553246D01*
X16784825Y-9553246D02*
X16784825Y-9543722D01*
X16784825Y-9543722D02*
X16794349Y-9524674D01*
X16794349Y-9524674D02*
X16813396Y-9515150D01*
X16813396Y-9515150D02*
X16841968Y-9515150D01*
X16841968Y-9515150D02*
X16861016Y-9524674D01*
X16984825Y-9648484D02*
X16965777Y-9638960D01*
X16965777Y-9638960D02*
X16956254Y-9619912D01*
X16956254Y-9619912D02*
X16956254Y-9448484D01*
X17089587Y-9648484D02*
X17070539Y-9638960D01*
X17070539Y-9638960D02*
X17061016Y-9629436D01*
X17061016Y-9629436D02*
X17051492Y-9610389D01*
X17051492Y-9610389D02*
X17051492Y-9553246D01*
X17051492Y-9553246D02*
X17061016Y-9534198D01*
X17061016Y-9534198D02*
X17070539Y-9524674D01*
X17070539Y-9524674D02*
X17089587Y-9515150D01*
X17089587Y-9515150D02*
X17118158Y-9515150D01*
X17118158Y-9515150D02*
X17137206Y-9524674D01*
X17137206Y-9524674D02*
X17146730Y-9534198D01*
X17146730Y-9534198D02*
X17156254Y-9553246D01*
X17156254Y-9553246D02*
X17156254Y-9610389D01*
X17156254Y-9610389D02*
X17146730Y-9629436D01*
X17146730Y-9629436D02*
X17137206Y-9638960D01*
X17137206Y-9638960D02*
X17118158Y-9648484D01*
X17118158Y-9648484D02*
X17089587Y-9648484D01*
X17213397Y-9515150D02*
X17289587Y-9515150D01*
X17241968Y-9448484D02*
X17241968Y-9619912D01*
X17241968Y-9619912D02*
X17251492Y-9638960D01*
X17251492Y-9638960D02*
X17270539Y-9648484D01*
X17270539Y-9648484D02*
X17289587Y-9648484D01*
X17346730Y-9638960D02*
X17365777Y-9648484D01*
X17365777Y-9648484D02*
X17403873Y-9648484D01*
X17403873Y-9648484D02*
X17422920Y-9638960D01*
X17422920Y-9638960D02*
X17432444Y-9619912D01*
X17432444Y-9619912D02*
X17432444Y-9610389D01*
X17432444Y-9610389D02*
X17422920Y-9591341D01*
X17422920Y-9591341D02*
X17403873Y-9581817D01*
X17403873Y-9581817D02*
X17375301Y-9581817D01*
X17375301Y-9581817D02*
X17356254Y-9572293D01*
X17356254Y-9572293D02*
X17346730Y-9553246D01*
X17346730Y-9553246D02*
X17346730Y-9543722D01*
X17346730Y-9543722D02*
X17356254Y-9524674D01*
X17356254Y-9524674D02*
X17375301Y-9515150D01*
X17375301Y-9515150D02*
X17403873Y-9515150D01*
X17403873Y-9515150D02*
X17422920Y-9524674D01*
X17499111Y-9724674D02*
X17508635Y-9715150D01*
X17508635Y-9715150D02*
X17527682Y-9686579D01*
X17527682Y-9686579D02*
X17537206Y-9667531D01*
X17537206Y-9667531D02*
X17546730Y-9638960D01*
X17546730Y-9638960D02*
X17556254Y-9591341D01*
X17556254Y-9591341D02*
X17556254Y-9553246D01*
X17556254Y-9553246D02*
X17546730Y-9505627D01*
X17546730Y-9505627D02*
X17537206Y-9477055D01*
X17537206Y-9477055D02*
X17527682Y-9458008D01*
X17527682Y-9458008D02*
X17508635Y-9429436D01*
X17508635Y-9429436D02*
X17499111Y-9419912D01*
D12*
X11050000Y-9876000D02*
X11105000Y-9821000D01*
X11050000Y-9766000D01*
X10995000Y-9821000D01*
X11050000Y-9876000D01*
D11*
X11470539Y-9912484D02*
X11356253Y-9912484D01*
X11413396Y-9912484D02*
X11413396Y-9712484D01*
X11413396Y-9712484D02*
X11394348Y-9741055D01*
X11394348Y-9741055D02*
X11375301Y-9760103D01*
X11375301Y-9760103D02*
X11356253Y-9769627D01*
X11556253Y-9893436D02*
X11565777Y-9902960D01*
X11565777Y-9902960D02*
X11556253Y-9912484D01*
X11556253Y-9912484D02*
X11546729Y-9902960D01*
X11546729Y-9902960D02*
X11556253Y-9893436D01*
X11556253Y-9893436D02*
X11556253Y-9912484D01*
X11756253Y-9912484D02*
X11641967Y-9912484D01*
X11699110Y-9912484D02*
X11699110Y-9712484D01*
X11699110Y-9712484D02*
X11680062Y-9741055D01*
X11680062Y-9741055D02*
X11661015Y-9760103D01*
X11661015Y-9760103D02*
X11641967Y-9769627D01*
X11880062Y-9712484D02*
X11899110Y-9712484D01*
X11899110Y-9712484D02*
X11918158Y-9722008D01*
X11918158Y-9722008D02*
X11927682Y-9731531D01*
X11927682Y-9731531D02*
X11937205Y-9750579D01*
X11937205Y-9750579D02*
X11946729Y-9788674D01*
X11946729Y-9788674D02*
X11946729Y-9836293D01*
X11946729Y-9836293D02*
X11937205Y-9874389D01*
X11937205Y-9874389D02*
X11927682Y-9893436D01*
X11927682Y-9893436D02*
X11918158Y-9902960D01*
X11918158Y-9902960D02*
X11899110Y-9912484D01*
X11899110Y-9912484D02*
X11880062Y-9912484D01*
X11880062Y-9912484D02*
X11861015Y-9902960D01*
X11861015Y-9902960D02*
X11851491Y-9893436D01*
X11851491Y-9893436D02*
X11841967Y-9874389D01*
X11841967Y-9874389D02*
X11832443Y-9836293D01*
X11832443Y-9836293D02*
X11832443Y-9788674D01*
X11832443Y-9788674D02*
X11841967Y-9750579D01*
X11841967Y-9750579D02*
X11851491Y-9731531D01*
X11851491Y-9731531D02*
X11861015Y-9722008D01*
X11861015Y-9722008D02*
X11880062Y-9712484D01*
X12070539Y-9712484D02*
X12089586Y-9712484D01*
X12089586Y-9712484D02*
X12108634Y-9722008D01*
X12108634Y-9722008D02*
X12118158Y-9731531D01*
X12118158Y-9731531D02*
X12127682Y-9750579D01*
X12127682Y-9750579D02*
X12137205Y-9788674D01*
X12137205Y-9788674D02*
X12137205Y-9836293D01*
X12137205Y-9836293D02*
X12127682Y-9874389D01*
X12127682Y-9874389D02*
X12118158Y-9893436D01*
X12118158Y-9893436D02*
X12108634Y-9902960D01*
X12108634Y-9902960D02*
X12089586Y-9912484D01*
X12089586Y-9912484D02*
X12070539Y-9912484D01*
X12070539Y-9912484D02*
X12051491Y-9902960D01*
X12051491Y-9902960D02*
X12041967Y-9893436D01*
X12041967Y-9893436D02*
X12032443Y-9874389D01*
X12032443Y-9874389D02*
X12022920Y-9836293D01*
X12022920Y-9836293D02*
X12022920Y-9788674D01*
X12022920Y-9788674D02*
X12032443Y-9750579D01*
X12032443Y-9750579D02*
X12041967Y-9731531D01*
X12041967Y-9731531D02*
X12051491Y-9722008D01*
X12051491Y-9722008D02*
X12070539Y-9712484D01*
X12222920Y-9912484D02*
X12222920Y-9779150D01*
X12222920Y-9798198D02*
X12232443Y-9788674D01*
X12232443Y-9788674D02*
X12251491Y-9779150D01*
X12251491Y-9779150D02*
X12280063Y-9779150D01*
X12280063Y-9779150D02*
X12299110Y-9788674D01*
X12299110Y-9788674D02*
X12308634Y-9807722D01*
X12308634Y-9807722D02*
X12308634Y-9912484D01*
X12308634Y-9807722D02*
X12318158Y-9788674D01*
X12318158Y-9788674D02*
X12337205Y-9779150D01*
X12337205Y-9779150D02*
X12365777Y-9779150D01*
X12365777Y-9779150D02*
X12384824Y-9788674D01*
X12384824Y-9788674D02*
X12394348Y-9807722D01*
X12394348Y-9807722D02*
X12394348Y-9912484D01*
X12489586Y-9912484D02*
X12489586Y-9779150D01*
X12489586Y-9798198D02*
X12499110Y-9788674D01*
X12499110Y-9788674D02*
X12518158Y-9779150D01*
X12518158Y-9779150D02*
X12546729Y-9779150D01*
X12546729Y-9779150D02*
X12565777Y-9788674D01*
X12565777Y-9788674D02*
X12575301Y-9807722D01*
X12575301Y-9807722D02*
X12575301Y-9912484D01*
X12575301Y-9807722D02*
X12584824Y-9788674D01*
X12584824Y-9788674D02*
X12603872Y-9779150D01*
X12603872Y-9779150D02*
X12632443Y-9779150D01*
X12632443Y-9779150D02*
X12651491Y-9788674D01*
X12651491Y-9788674D02*
X12661015Y-9807722D01*
X12661015Y-9807722D02*
X12661015Y-9912484D01*
X13051491Y-9702960D02*
X12880063Y-9960103D01*
X13308634Y-9712484D02*
X13327682Y-9712484D01*
X13327682Y-9712484D02*
X13346729Y-9722008D01*
X13346729Y-9722008D02*
X13356253Y-9731531D01*
X13356253Y-9731531D02*
X13365777Y-9750579D01*
X13365777Y-9750579D02*
X13375301Y-9788674D01*
X13375301Y-9788674D02*
X13375301Y-9836293D01*
X13375301Y-9836293D02*
X13365777Y-9874389D01*
X13365777Y-9874389D02*
X13356253Y-9893436D01*
X13356253Y-9893436D02*
X13346729Y-9902960D01*
X13346729Y-9902960D02*
X13327682Y-9912484D01*
X13327682Y-9912484D02*
X13308634Y-9912484D01*
X13308634Y-9912484D02*
X13289586Y-9902960D01*
X13289586Y-9902960D02*
X13280063Y-9893436D01*
X13280063Y-9893436D02*
X13270539Y-9874389D01*
X13270539Y-9874389D02*
X13261015Y-9836293D01*
X13261015Y-9836293D02*
X13261015Y-9788674D01*
X13261015Y-9788674D02*
X13270539Y-9750579D01*
X13270539Y-9750579D02*
X13280063Y-9731531D01*
X13280063Y-9731531D02*
X13289586Y-9722008D01*
X13289586Y-9722008D02*
X13308634Y-9712484D01*
X13461015Y-9893436D02*
X13470539Y-9902960D01*
X13470539Y-9902960D02*
X13461015Y-9912484D01*
X13461015Y-9912484D02*
X13451491Y-9902960D01*
X13451491Y-9902960D02*
X13461015Y-9893436D01*
X13461015Y-9893436D02*
X13461015Y-9912484D01*
X13594348Y-9712484D02*
X13613396Y-9712484D01*
X13613396Y-9712484D02*
X13632444Y-9722008D01*
X13632444Y-9722008D02*
X13641967Y-9731531D01*
X13641967Y-9731531D02*
X13651491Y-9750579D01*
X13651491Y-9750579D02*
X13661015Y-9788674D01*
X13661015Y-9788674D02*
X13661015Y-9836293D01*
X13661015Y-9836293D02*
X13651491Y-9874389D01*
X13651491Y-9874389D02*
X13641967Y-9893436D01*
X13641967Y-9893436D02*
X13632444Y-9902960D01*
X13632444Y-9902960D02*
X13613396Y-9912484D01*
X13613396Y-9912484D02*
X13594348Y-9912484D01*
X13594348Y-9912484D02*
X13575301Y-9902960D01*
X13575301Y-9902960D02*
X13565777Y-9893436D01*
X13565777Y-9893436D02*
X13556253Y-9874389D01*
X13556253Y-9874389D02*
X13546729Y-9836293D01*
X13546729Y-9836293D02*
X13546729Y-9788674D01*
X13546729Y-9788674D02*
X13556253Y-9750579D01*
X13556253Y-9750579D02*
X13565777Y-9731531D01*
X13565777Y-9731531D02*
X13575301Y-9722008D01*
X13575301Y-9722008D02*
X13594348Y-9712484D01*
X13832444Y-9779150D02*
X13832444Y-9912484D01*
X13784825Y-9702960D02*
X13737206Y-9845817D01*
X13737206Y-9845817D02*
X13861015Y-9845817D01*
X13918158Y-9712484D02*
X14041967Y-9712484D01*
X14041967Y-9712484D02*
X13975301Y-9788674D01*
X13975301Y-9788674D02*
X14003872Y-9788674D01*
X14003872Y-9788674D02*
X14022920Y-9798198D01*
X14022920Y-9798198D02*
X14032444Y-9807722D01*
X14032444Y-9807722D02*
X14041967Y-9826770D01*
X14041967Y-9826770D02*
X14041967Y-9874389D01*
X14041967Y-9874389D02*
X14032444Y-9893436D01*
X14032444Y-9893436D02*
X14022920Y-9902960D01*
X14022920Y-9902960D02*
X14003872Y-9912484D01*
X14003872Y-9912484D02*
X13946729Y-9912484D01*
X13946729Y-9912484D02*
X13927682Y-9902960D01*
X13927682Y-9902960D02*
X13918158Y-9893436D01*
X14108634Y-9712484D02*
X14232444Y-9712484D01*
X14232444Y-9712484D02*
X14165777Y-9788674D01*
X14165777Y-9788674D02*
X14194348Y-9788674D01*
X14194348Y-9788674D02*
X14213396Y-9798198D01*
X14213396Y-9798198D02*
X14222920Y-9807722D01*
X14222920Y-9807722D02*
X14232444Y-9826770D01*
X14232444Y-9826770D02*
X14232444Y-9874389D01*
X14232444Y-9874389D02*
X14222920Y-9893436D01*
X14222920Y-9893436D02*
X14213396Y-9902960D01*
X14213396Y-9902960D02*
X14194348Y-9912484D01*
X14194348Y-9912484D02*
X14137206Y-9912484D01*
X14137206Y-9912484D02*
X14118158Y-9902960D01*
X14118158Y-9902960D02*
X14108634Y-9893436D01*
X14308634Y-9712484D02*
X14308634Y-9750579D01*
X14384825Y-9712484D02*
X14384825Y-9750579D01*
X14680063Y-9988674D02*
X14670539Y-9979150D01*
X14670539Y-9979150D02*
X14651491Y-9950579D01*
X14651491Y-9950579D02*
X14641968Y-9931531D01*
X14641968Y-9931531D02*
X14632444Y-9902960D01*
X14632444Y-9902960D02*
X14622920Y-9855341D01*
X14622920Y-9855341D02*
X14622920Y-9817246D01*
X14622920Y-9817246D02*
X14632444Y-9769627D01*
X14632444Y-9769627D02*
X14641968Y-9741055D01*
X14641968Y-9741055D02*
X14651491Y-9722008D01*
X14651491Y-9722008D02*
X14670539Y-9693436D01*
X14670539Y-9693436D02*
X14680063Y-9683912D01*
X14746729Y-9731531D02*
X14756253Y-9722008D01*
X14756253Y-9722008D02*
X14775301Y-9712484D01*
X14775301Y-9712484D02*
X14822920Y-9712484D01*
X14822920Y-9712484D02*
X14841968Y-9722008D01*
X14841968Y-9722008D02*
X14851491Y-9731531D01*
X14851491Y-9731531D02*
X14861015Y-9750579D01*
X14861015Y-9750579D02*
X14861015Y-9769627D01*
X14861015Y-9769627D02*
X14851491Y-9798198D01*
X14851491Y-9798198D02*
X14737206Y-9912484D01*
X14737206Y-9912484D02*
X14861015Y-9912484D01*
X15099110Y-9912484D02*
X15099110Y-9712484D01*
X15184825Y-9912484D02*
X15184825Y-9807722D01*
X15184825Y-9807722D02*
X15175301Y-9788674D01*
X15175301Y-9788674D02*
X15156253Y-9779150D01*
X15156253Y-9779150D02*
X15127682Y-9779150D01*
X15127682Y-9779150D02*
X15108634Y-9788674D01*
X15108634Y-9788674D02*
X15099110Y-9798198D01*
X15308634Y-9912484D02*
X15289587Y-9902960D01*
X15289587Y-9902960D02*
X15280063Y-9893436D01*
X15280063Y-9893436D02*
X15270539Y-9874389D01*
X15270539Y-9874389D02*
X15270539Y-9817246D01*
X15270539Y-9817246D02*
X15280063Y-9798198D01*
X15280063Y-9798198D02*
X15289587Y-9788674D01*
X15289587Y-9788674D02*
X15308634Y-9779150D01*
X15308634Y-9779150D02*
X15337206Y-9779150D01*
X15337206Y-9779150D02*
X15356253Y-9788674D01*
X15356253Y-9788674D02*
X15365777Y-9798198D01*
X15365777Y-9798198D02*
X15375301Y-9817246D01*
X15375301Y-9817246D02*
X15375301Y-9874389D01*
X15375301Y-9874389D02*
X15365777Y-9893436D01*
X15365777Y-9893436D02*
X15356253Y-9902960D01*
X15356253Y-9902960D02*
X15337206Y-9912484D01*
X15337206Y-9912484D02*
X15308634Y-9912484D01*
X15489587Y-9912484D02*
X15470539Y-9902960D01*
X15470539Y-9902960D02*
X15461015Y-9883912D01*
X15461015Y-9883912D02*
X15461015Y-9712484D01*
X15641968Y-9902960D02*
X15622920Y-9912484D01*
X15622920Y-9912484D02*
X15584825Y-9912484D01*
X15584825Y-9912484D02*
X15565777Y-9902960D01*
X15565777Y-9902960D02*
X15556253Y-9883912D01*
X15556253Y-9883912D02*
X15556253Y-9807722D01*
X15556253Y-9807722D02*
X15565777Y-9788674D01*
X15565777Y-9788674D02*
X15584825Y-9779150D01*
X15584825Y-9779150D02*
X15622920Y-9779150D01*
X15622920Y-9779150D02*
X15641968Y-9788674D01*
X15641968Y-9788674D02*
X15651491Y-9807722D01*
X15651491Y-9807722D02*
X15651491Y-9826770D01*
X15651491Y-9826770D02*
X15556253Y-9845817D01*
X15727682Y-9902960D02*
X15746730Y-9912484D01*
X15746730Y-9912484D02*
X15784825Y-9912484D01*
X15784825Y-9912484D02*
X15803872Y-9902960D01*
X15803872Y-9902960D02*
X15813396Y-9883912D01*
X15813396Y-9883912D02*
X15813396Y-9874389D01*
X15813396Y-9874389D02*
X15803872Y-9855341D01*
X15803872Y-9855341D02*
X15784825Y-9845817D01*
X15784825Y-9845817D02*
X15756253Y-9845817D01*
X15756253Y-9845817D02*
X15737206Y-9836293D01*
X15737206Y-9836293D02*
X15727682Y-9817246D01*
X15727682Y-9817246D02*
X15727682Y-9807722D01*
X15727682Y-9807722D02*
X15737206Y-9788674D01*
X15737206Y-9788674D02*
X15756253Y-9779150D01*
X15756253Y-9779150D02*
X15784825Y-9779150D01*
X15784825Y-9779150D02*
X15803872Y-9788674D01*
X15880063Y-9988674D02*
X15889587Y-9979150D01*
X15889587Y-9979150D02*
X15908634Y-9950579D01*
X15908634Y-9950579D02*
X15918158Y-9931531D01*
X15918158Y-9931531D02*
X15927682Y-9902960D01*
X15927682Y-9902960D02*
X15937206Y-9855341D01*
X15937206Y-9855341D02*
X15937206Y-9817246D01*
X15937206Y-9817246D02*
X15927682Y-9769627D01*
X15927682Y-9769627D02*
X15918158Y-9741055D01*
X15918158Y-9741055D02*
X15908634Y-9722008D01*
X15908634Y-9722008D02*
X15889587Y-9693436D01*
X15889587Y-9693436D02*
X15880063Y-9683912D01*
D13*
X10945000Y-10005000D02*
X11105000Y-10165000D01*
X11105000Y-10005000D02*
X10945000Y-10165000D01*
X11105000Y-10085000D02*
G75*
G02*
X10945000Y-10085000I-80000J0D01*
G01*
X10945000Y-10085000D02*
G75*
G02*
X11105000Y-10085000I80000J0D01*
G01*
D11*
X11470539Y-10176484D02*
X11356253Y-10176484D01*
X11413396Y-10176484D02*
X11413396Y-9976484D01*
X11413396Y-9976484D02*
X11394348Y-10005055D01*
X11394348Y-10005055D02*
X11375301Y-10024103D01*
X11375301Y-10024103D02*
X11356253Y-10033627D01*
X11556253Y-10157436D02*
X11565777Y-10166960D01*
X11565777Y-10166960D02*
X11556253Y-10176484D01*
X11556253Y-10176484D02*
X11546729Y-10166960D01*
X11546729Y-10166960D02*
X11556253Y-10157436D01*
X11556253Y-10157436D02*
X11556253Y-10176484D01*
X11737205Y-9976484D02*
X11699110Y-9976484D01*
X11699110Y-9976484D02*
X11680062Y-9986008D01*
X11680062Y-9986008D02*
X11670539Y-9995531D01*
X11670539Y-9995531D02*
X11651491Y-10024103D01*
X11651491Y-10024103D02*
X11641967Y-10062198D01*
X11641967Y-10062198D02*
X11641967Y-10138389D01*
X11641967Y-10138389D02*
X11651491Y-10157436D01*
X11651491Y-10157436D02*
X11661015Y-10166960D01*
X11661015Y-10166960D02*
X11680062Y-10176484D01*
X11680062Y-10176484D02*
X11718158Y-10176484D01*
X11718158Y-10176484D02*
X11737205Y-10166960D01*
X11737205Y-10166960D02*
X11746729Y-10157436D01*
X11746729Y-10157436D02*
X11756253Y-10138389D01*
X11756253Y-10138389D02*
X11756253Y-10090770D01*
X11756253Y-10090770D02*
X11746729Y-10071722D01*
X11746729Y-10071722D02*
X11737205Y-10062198D01*
X11737205Y-10062198D02*
X11718158Y-10052674D01*
X11718158Y-10052674D02*
X11680062Y-10052674D01*
X11680062Y-10052674D02*
X11661015Y-10062198D01*
X11661015Y-10062198D02*
X11651491Y-10071722D01*
X11651491Y-10071722D02*
X11641967Y-10090770D01*
X11880062Y-9976484D02*
X11899110Y-9976484D01*
X11899110Y-9976484D02*
X11918158Y-9986008D01*
X11918158Y-9986008D02*
X11927682Y-9995531D01*
X11927682Y-9995531D02*
X11937205Y-10014579D01*
X11937205Y-10014579D02*
X11946729Y-10052674D01*
X11946729Y-10052674D02*
X11946729Y-10100293D01*
X11946729Y-10100293D02*
X11937205Y-10138389D01*
X11937205Y-10138389D02*
X11927682Y-10157436D01*
X11927682Y-10157436D02*
X11918158Y-10166960D01*
X11918158Y-10166960D02*
X11899110Y-10176484D01*
X11899110Y-10176484D02*
X11880062Y-10176484D01*
X11880062Y-10176484D02*
X11861015Y-10166960D01*
X11861015Y-10166960D02*
X11851491Y-10157436D01*
X11851491Y-10157436D02*
X11841967Y-10138389D01*
X11841967Y-10138389D02*
X11832443Y-10100293D01*
X11832443Y-10100293D02*
X11832443Y-10052674D01*
X11832443Y-10052674D02*
X11841967Y-10014579D01*
X11841967Y-10014579D02*
X11851491Y-9995531D01*
X11851491Y-9995531D02*
X11861015Y-9986008D01*
X11861015Y-9986008D02*
X11880062Y-9976484D01*
X12070539Y-9976484D02*
X12089586Y-9976484D01*
X12089586Y-9976484D02*
X12108634Y-9986008D01*
X12108634Y-9986008D02*
X12118158Y-9995531D01*
X12118158Y-9995531D02*
X12127682Y-10014579D01*
X12127682Y-10014579D02*
X12137205Y-10052674D01*
X12137205Y-10052674D02*
X12137205Y-10100293D01*
X12137205Y-10100293D02*
X12127682Y-10138389D01*
X12127682Y-10138389D02*
X12118158Y-10157436D01*
X12118158Y-10157436D02*
X12108634Y-10166960D01*
X12108634Y-10166960D02*
X12089586Y-10176484D01*
X12089586Y-10176484D02*
X12070539Y-10176484D01*
X12070539Y-10176484D02*
X12051491Y-10166960D01*
X12051491Y-10166960D02*
X12041967Y-10157436D01*
X12041967Y-10157436D02*
X12032443Y-10138389D01*
X12032443Y-10138389D02*
X12022920Y-10100293D01*
X12022920Y-10100293D02*
X12022920Y-10052674D01*
X12022920Y-10052674D02*
X12032443Y-10014579D01*
X12032443Y-10014579D02*
X12041967Y-9995531D01*
X12041967Y-9995531D02*
X12051491Y-9986008D01*
X12051491Y-9986008D02*
X12070539Y-9976484D01*
X12222920Y-10176484D02*
X12222920Y-10043150D01*
X12222920Y-10062198D02*
X12232443Y-10052674D01*
X12232443Y-10052674D02*
X12251491Y-10043150D01*
X12251491Y-10043150D02*
X12280063Y-10043150D01*
X12280063Y-10043150D02*
X12299110Y-10052674D01*
X12299110Y-10052674D02*
X12308634Y-10071722D01*
X12308634Y-10071722D02*
X12308634Y-10176484D01*
X12308634Y-10071722D02*
X12318158Y-10052674D01*
X12318158Y-10052674D02*
X12337205Y-10043150D01*
X12337205Y-10043150D02*
X12365777Y-10043150D01*
X12365777Y-10043150D02*
X12384824Y-10052674D01*
X12384824Y-10052674D02*
X12394348Y-10071722D01*
X12394348Y-10071722D02*
X12394348Y-10176484D01*
X12489586Y-10176484D02*
X12489586Y-10043150D01*
X12489586Y-10062198D02*
X12499110Y-10052674D01*
X12499110Y-10052674D02*
X12518158Y-10043150D01*
X12518158Y-10043150D02*
X12546729Y-10043150D01*
X12546729Y-10043150D02*
X12565777Y-10052674D01*
X12565777Y-10052674D02*
X12575301Y-10071722D01*
X12575301Y-10071722D02*
X12575301Y-10176484D01*
X12575301Y-10071722D02*
X12584824Y-10052674D01*
X12584824Y-10052674D02*
X12603872Y-10043150D01*
X12603872Y-10043150D02*
X12632443Y-10043150D01*
X12632443Y-10043150D02*
X12651491Y-10052674D01*
X12651491Y-10052674D02*
X12661015Y-10071722D01*
X12661015Y-10071722D02*
X12661015Y-10176484D01*
X13051491Y-9966960D02*
X12880063Y-10224103D01*
X13308634Y-9976484D02*
X13327682Y-9976484D01*
X13327682Y-9976484D02*
X13346729Y-9986008D01*
X13346729Y-9986008D02*
X13356253Y-9995531D01*
X13356253Y-9995531D02*
X13365777Y-10014579D01*
X13365777Y-10014579D02*
X13375301Y-10052674D01*
X13375301Y-10052674D02*
X13375301Y-10100293D01*
X13375301Y-10100293D02*
X13365777Y-10138389D01*
X13365777Y-10138389D02*
X13356253Y-10157436D01*
X13356253Y-10157436D02*
X13346729Y-10166960D01*
X13346729Y-10166960D02*
X13327682Y-10176484D01*
X13327682Y-10176484D02*
X13308634Y-10176484D01*
X13308634Y-10176484D02*
X13289586Y-10166960D01*
X13289586Y-10166960D02*
X13280063Y-10157436D01*
X13280063Y-10157436D02*
X13270539Y-10138389D01*
X13270539Y-10138389D02*
X13261015Y-10100293D01*
X13261015Y-10100293D02*
X13261015Y-10052674D01*
X13261015Y-10052674D02*
X13270539Y-10014579D01*
X13270539Y-10014579D02*
X13280063Y-9995531D01*
X13280063Y-9995531D02*
X13289586Y-9986008D01*
X13289586Y-9986008D02*
X13308634Y-9976484D01*
X13461015Y-10157436D02*
X13470539Y-10166960D01*
X13470539Y-10166960D02*
X13461015Y-10176484D01*
X13461015Y-10176484D02*
X13451491Y-10166960D01*
X13451491Y-10166960D02*
X13461015Y-10157436D01*
X13461015Y-10157436D02*
X13461015Y-10176484D01*
X13594348Y-9976484D02*
X13613396Y-9976484D01*
X13613396Y-9976484D02*
X13632444Y-9986008D01*
X13632444Y-9986008D02*
X13641967Y-9995531D01*
X13641967Y-9995531D02*
X13651491Y-10014579D01*
X13651491Y-10014579D02*
X13661015Y-10052674D01*
X13661015Y-10052674D02*
X13661015Y-10100293D01*
X13661015Y-10100293D02*
X13651491Y-10138389D01*
X13651491Y-10138389D02*
X13641967Y-10157436D01*
X13641967Y-10157436D02*
X13632444Y-10166960D01*
X13632444Y-10166960D02*
X13613396Y-10176484D01*
X13613396Y-10176484D02*
X13594348Y-10176484D01*
X13594348Y-10176484D02*
X13575301Y-10166960D01*
X13575301Y-10166960D02*
X13565777Y-10157436D01*
X13565777Y-10157436D02*
X13556253Y-10138389D01*
X13556253Y-10138389D02*
X13546729Y-10100293D01*
X13546729Y-10100293D02*
X13546729Y-10052674D01*
X13546729Y-10052674D02*
X13556253Y-10014579D01*
X13556253Y-10014579D02*
X13565777Y-9995531D01*
X13565777Y-9995531D02*
X13575301Y-9986008D01*
X13575301Y-9986008D02*
X13594348Y-9976484D01*
X13832444Y-9976484D02*
X13794348Y-9976484D01*
X13794348Y-9976484D02*
X13775301Y-9986008D01*
X13775301Y-9986008D02*
X13765777Y-9995531D01*
X13765777Y-9995531D02*
X13746729Y-10024103D01*
X13746729Y-10024103D02*
X13737206Y-10062198D01*
X13737206Y-10062198D02*
X13737206Y-10138389D01*
X13737206Y-10138389D02*
X13746729Y-10157436D01*
X13746729Y-10157436D02*
X13756253Y-10166960D01*
X13756253Y-10166960D02*
X13775301Y-10176484D01*
X13775301Y-10176484D02*
X13813396Y-10176484D01*
X13813396Y-10176484D02*
X13832444Y-10166960D01*
X13832444Y-10166960D02*
X13841967Y-10157436D01*
X13841967Y-10157436D02*
X13851491Y-10138389D01*
X13851491Y-10138389D02*
X13851491Y-10090770D01*
X13851491Y-10090770D02*
X13841967Y-10071722D01*
X13841967Y-10071722D02*
X13832444Y-10062198D01*
X13832444Y-10062198D02*
X13813396Y-10052674D01*
X13813396Y-10052674D02*
X13775301Y-10052674D01*
X13775301Y-10052674D02*
X13756253Y-10062198D01*
X13756253Y-10062198D02*
X13746729Y-10071722D01*
X13746729Y-10071722D02*
X13737206Y-10090770D01*
X13918158Y-9976484D02*
X14041967Y-9976484D01*
X14041967Y-9976484D02*
X13975301Y-10052674D01*
X13975301Y-10052674D02*
X14003872Y-10052674D01*
X14003872Y-10052674D02*
X14022920Y-10062198D01*
X14022920Y-10062198D02*
X14032444Y-10071722D01*
X14032444Y-10071722D02*
X14041967Y-10090770D01*
X14041967Y-10090770D02*
X14041967Y-10138389D01*
X14041967Y-10138389D02*
X14032444Y-10157436D01*
X14032444Y-10157436D02*
X14022920Y-10166960D01*
X14022920Y-10166960D02*
X14003872Y-10176484D01*
X14003872Y-10176484D02*
X13946729Y-10176484D01*
X13946729Y-10176484D02*
X13927682Y-10166960D01*
X13927682Y-10166960D02*
X13918158Y-10157436D01*
X14165777Y-9976484D02*
X14184825Y-9976484D01*
X14184825Y-9976484D02*
X14203872Y-9986008D01*
X14203872Y-9986008D02*
X14213396Y-9995531D01*
X14213396Y-9995531D02*
X14222920Y-10014579D01*
X14222920Y-10014579D02*
X14232444Y-10052674D01*
X14232444Y-10052674D02*
X14232444Y-10100293D01*
X14232444Y-10100293D02*
X14222920Y-10138389D01*
X14222920Y-10138389D02*
X14213396Y-10157436D01*
X14213396Y-10157436D02*
X14203872Y-10166960D01*
X14203872Y-10166960D02*
X14184825Y-10176484D01*
X14184825Y-10176484D02*
X14165777Y-10176484D01*
X14165777Y-10176484D02*
X14146729Y-10166960D01*
X14146729Y-10166960D02*
X14137206Y-10157436D01*
X14137206Y-10157436D02*
X14127682Y-10138389D01*
X14127682Y-10138389D02*
X14118158Y-10100293D01*
X14118158Y-10100293D02*
X14118158Y-10052674D01*
X14118158Y-10052674D02*
X14127682Y-10014579D01*
X14127682Y-10014579D02*
X14137206Y-9995531D01*
X14137206Y-9995531D02*
X14146729Y-9986008D01*
X14146729Y-9986008D02*
X14165777Y-9976484D01*
X14308634Y-9976484D02*
X14308634Y-10014579D01*
X14384825Y-9976484D02*
X14384825Y-10014579D01*
X14680063Y-10252674D02*
X14670539Y-10243150D01*
X14670539Y-10243150D02*
X14651491Y-10214579D01*
X14651491Y-10214579D02*
X14641968Y-10195531D01*
X14641968Y-10195531D02*
X14632444Y-10166960D01*
X14632444Y-10166960D02*
X14622920Y-10119341D01*
X14622920Y-10119341D02*
X14622920Y-10081246D01*
X14622920Y-10081246D02*
X14632444Y-10033627D01*
X14632444Y-10033627D02*
X14641968Y-10005055D01*
X14641968Y-10005055D02*
X14651491Y-9986008D01*
X14651491Y-9986008D02*
X14670539Y-9957436D01*
X14670539Y-9957436D02*
X14680063Y-9947912D01*
X14841968Y-9976484D02*
X14803872Y-9976484D01*
X14803872Y-9976484D02*
X14784825Y-9986008D01*
X14784825Y-9986008D02*
X14775301Y-9995531D01*
X14775301Y-9995531D02*
X14756253Y-10024103D01*
X14756253Y-10024103D02*
X14746729Y-10062198D01*
X14746729Y-10062198D02*
X14746729Y-10138389D01*
X14746729Y-10138389D02*
X14756253Y-10157436D01*
X14756253Y-10157436D02*
X14765777Y-10166960D01*
X14765777Y-10166960D02*
X14784825Y-10176484D01*
X14784825Y-10176484D02*
X14822920Y-10176484D01*
X14822920Y-10176484D02*
X14841968Y-10166960D01*
X14841968Y-10166960D02*
X14851491Y-10157436D01*
X14851491Y-10157436D02*
X14861015Y-10138389D01*
X14861015Y-10138389D02*
X14861015Y-10090770D01*
X14861015Y-10090770D02*
X14851491Y-10071722D01*
X14851491Y-10071722D02*
X14841968Y-10062198D01*
X14841968Y-10062198D02*
X14822920Y-10052674D01*
X14822920Y-10052674D02*
X14784825Y-10052674D01*
X14784825Y-10052674D02*
X14765777Y-10062198D01*
X14765777Y-10062198D02*
X14756253Y-10071722D01*
X14756253Y-10071722D02*
X14746729Y-10090770D01*
X15099110Y-10176484D02*
X15099110Y-9976484D01*
X15184825Y-10176484D02*
X15184825Y-10071722D01*
X15184825Y-10071722D02*
X15175301Y-10052674D01*
X15175301Y-10052674D02*
X15156253Y-10043150D01*
X15156253Y-10043150D02*
X15127682Y-10043150D01*
X15127682Y-10043150D02*
X15108634Y-10052674D01*
X15108634Y-10052674D02*
X15099110Y-10062198D01*
X15308634Y-10176484D02*
X15289587Y-10166960D01*
X15289587Y-10166960D02*
X15280063Y-10157436D01*
X15280063Y-10157436D02*
X15270539Y-10138389D01*
X15270539Y-10138389D02*
X15270539Y-10081246D01*
X15270539Y-10081246D02*
X15280063Y-10062198D01*
X15280063Y-10062198D02*
X15289587Y-10052674D01*
X15289587Y-10052674D02*
X15308634Y-10043150D01*
X15308634Y-10043150D02*
X15337206Y-10043150D01*
X15337206Y-10043150D02*
X15356253Y-10052674D01*
X15356253Y-10052674D02*
X15365777Y-10062198D01*
X15365777Y-10062198D02*
X15375301Y-10081246D01*
X15375301Y-10081246D02*
X15375301Y-10138389D01*
X15375301Y-10138389D02*
X15365777Y-10157436D01*
X15365777Y-10157436D02*
X15356253Y-10166960D01*
X15356253Y-10166960D02*
X15337206Y-10176484D01*
X15337206Y-10176484D02*
X15308634Y-10176484D01*
X15489587Y-10176484D02*
X15470539Y-10166960D01*
X15470539Y-10166960D02*
X15461015Y-10147912D01*
X15461015Y-10147912D02*
X15461015Y-9976484D01*
X15641968Y-10166960D02*
X15622920Y-10176484D01*
X15622920Y-10176484D02*
X15584825Y-10176484D01*
X15584825Y-10176484D02*
X15565777Y-10166960D01*
X15565777Y-10166960D02*
X15556253Y-10147912D01*
X15556253Y-10147912D02*
X15556253Y-10071722D01*
X15556253Y-10071722D02*
X15565777Y-10052674D01*
X15565777Y-10052674D02*
X15584825Y-10043150D01*
X15584825Y-10043150D02*
X15622920Y-10043150D01*
X15622920Y-10043150D02*
X15641968Y-10052674D01*
X15641968Y-10052674D02*
X15651491Y-10071722D01*
X15651491Y-10071722D02*
X15651491Y-10090770D01*
X15651491Y-10090770D02*
X15556253Y-10109817D01*
X15727682Y-10166960D02*
X15746730Y-10176484D01*
X15746730Y-10176484D02*
X15784825Y-10176484D01*
X15784825Y-10176484D02*
X15803872Y-10166960D01*
X15803872Y-10166960D02*
X15813396Y-10147912D01*
X15813396Y-10147912D02*
X15813396Y-10138389D01*
X15813396Y-10138389D02*
X15803872Y-10119341D01*
X15803872Y-10119341D02*
X15784825Y-10109817D01*
X15784825Y-10109817D02*
X15756253Y-10109817D01*
X15756253Y-10109817D02*
X15737206Y-10100293D01*
X15737206Y-10100293D02*
X15727682Y-10081246D01*
X15727682Y-10081246D02*
X15727682Y-10071722D01*
X15727682Y-10071722D02*
X15737206Y-10052674D01*
X15737206Y-10052674D02*
X15756253Y-10043150D01*
X15756253Y-10043150D02*
X15784825Y-10043150D01*
X15784825Y-10043150D02*
X15803872Y-10052674D01*
X15880063Y-10252674D02*
X15889587Y-10243150D01*
X15889587Y-10243150D02*
X15908634Y-10214579D01*
X15908634Y-10214579D02*
X15918158Y-10195531D01*
X15918158Y-10195531D02*
X15927682Y-10166960D01*
X15927682Y-10166960D02*
X15937206Y-10119341D01*
X15937206Y-10119341D02*
X15937206Y-10081246D01*
X15937206Y-10081246D02*
X15927682Y-10033627D01*
X15927682Y-10033627D02*
X15918158Y-10005055D01*
X15918158Y-10005055D02*
X15908634Y-9986008D01*
X15908634Y-9986008D02*
X15889587Y-9957436D01*
X15889587Y-9957436D02*
X15880063Y-9947912D01*
M02*
