%TF.GenerationSoftware,KiCad,Pcbnew,7.99.0-1092-g932f171e96*%
%TF.CreationDate,2023-06-27T00:36:35+02:00*%
%TF.ProjectId,irrigation,69727269-6761-4746-996f-6e2e6b696361,0.2*%
%TF.SameCoordinates,Original*%
%TF.FileFunction,Copper,L2,Bot*%
%TF.FilePolarity,Positive*%
%FSLAX46Y46*%
G04 Gerber Fmt 4.6, Leading zero omitted, Abs format (unit mm)*
G04 Created by KiCad (PCBNEW 7.99.0-1092-g932f171e96) date 2023-06-27 00:36:35*
%MOMM*%
%LPD*%
G01*
G04 APERTURE LIST*
%TA.AperFunction,ComponentPad*%
%ADD10C,2.400000*%
%TD*%
%TA.AperFunction,ComponentPad*%
%ADD11R,1.800000X1.800000*%
%TD*%
%TA.AperFunction,ComponentPad*%
%ADD12C,1.800000*%
%TD*%
%TA.AperFunction,ComponentPad*%
%ADD13O,1.200000X2.000000*%
%TD*%
%TA.AperFunction,ComponentPad*%
%ADD14O,1.200000X1.800000*%
%TD*%
%TA.AperFunction,ComponentPad*%
%ADD15C,0.600000*%
%TD*%
%TA.AperFunction,SMDPad,CuDef*%
%ADD16R,2.950000X4.500000*%
%TD*%
%TA.AperFunction,ViaPad*%
%ADD17C,0.800000*%
%TD*%
%TA.AperFunction,ViaPad*%
%ADD18C,0.700000*%
%TD*%
%TA.AperFunction,Conductor*%
%ADD19C,0.500000*%
%TD*%
%TA.AperFunction,Conductor*%
%ADD20C,1.000000*%
%TD*%
%TA.AperFunction,Conductor*%
%ADD21C,0.250000*%
%TD*%
G04 APERTURE END LIST*
D10*
%TO.P,J3,1,Pin_1*%
%TO.N,+12V*%
X129700000Y-76200000D03*
%TO.P,J3,2,Pin_2*%
%TO.N,Net-(D7-A)*%
X124620000Y-76200000D03*
%TD*%
%TO.P,J2,1,Pin_1*%
%TO.N,+12V*%
X118740000Y-76200000D03*
%TO.P,J2,2,Pin_2*%
%TO.N,Net-(D6-A)*%
X113660000Y-76200000D03*
%TD*%
%TO.P,J1,2,Pin_2*%
%TO.N,GND*%
X119539000Y-39900000D03*
%TO.P,J1,1,Pin_1*%
%TO.N,Net-(J1-Pin_1)*%
X114459000Y-39900000D03*
%TD*%
D11*
%TO.P,J5,1,Pin_1*%
%TO.N,/GPIO4*%
X138270000Y-78000000D03*
D12*
%TO.P,J5,2,Pin_2*%
%TO.N,GND*%
X135730000Y-78000000D03*
%TD*%
D13*
%TO.P,J4,0*%
%TO.N,GND*%
X142875000Y-75645500D03*
%TO.P,J4,1*%
X151525000Y-75645500D03*
D14*
%TO.P,J4,2*%
X151525000Y-79825500D03*
%TO.P,J4,3*%
X142875000Y-79825500D03*
%TD*%
D15*
%TO.P,U1,9,GNDPAD*%
%TO.N,GND*%
X145800000Y-39150000D03*
X145800000Y-40350000D03*
X145800000Y-41650000D03*
X145800000Y-42750000D03*
D16*
X146400000Y-40950000D03*
D15*
X147000000Y-39150000D03*
X147000000Y-40350000D03*
X147000000Y-41650000D03*
X147000000Y-42750000D03*
%TD*%
D17*
%TO.N,GND*%
X116150000Y-50000000D03*
X116150000Y-48700000D03*
X117400000Y-48700000D03*
X135200000Y-57900000D03*
X124700000Y-50200000D03*
X124700000Y-49200000D03*
X124700000Y-48300000D03*
X118600000Y-48700000D03*
X117400000Y-50000000D03*
X118600000Y-50000000D03*
X137700000Y-64800000D03*
X142400000Y-68900000D03*
%TO.N,/USB_VBUS*%
X132150000Y-47550000D03*
X133800000Y-52400000D03*
X136700000Y-60200000D03*
D18*
%TO.N,/GPIO5*%
X127000000Y-62500000D03*
X124800000Y-62500000D03*
X118400000Y-62500000D03*
%TO.N,+3V3*%
X149400000Y-62500000D03*
X148000000Y-64050000D03*
X142250000Y-64050000D03*
%TO.N,GND*%
X142600000Y-55900000D03*
X142600000Y-54900000D03*
X142600000Y-53900000D03*
X152900000Y-72400000D03*
X141400000Y-72400000D03*
X124000000Y-55200000D03*
X115400000Y-52600000D03*
X115400000Y-55100000D03*
X139800000Y-67400000D03*
X141100000Y-58300000D03*
X122200000Y-50000000D03*
X121500000Y-50000000D03*
X123200000Y-65550000D03*
X131700000Y-56800000D03*
X164400000Y-73300000D03*
X164400000Y-72200000D03*
X164400000Y-71100000D03*
X164400000Y-70100000D03*
X164400000Y-69100000D03*
X163300000Y-69100000D03*
X162200000Y-69100000D03*
X161100000Y-69100000D03*
X159900000Y-69100000D03*
X163300000Y-73300000D03*
X163300000Y-72200000D03*
X163300000Y-71100000D03*
X163300000Y-70100000D03*
X162200000Y-70100000D03*
X161100000Y-70100000D03*
X159900000Y-70100000D03*
X117400000Y-57900000D03*
X117400000Y-58800000D03*
X121100000Y-58800000D03*
X119900000Y-58800000D03*
X118600000Y-58800000D03*
X118600000Y-57900000D03*
X119900000Y-57900000D03*
X121100000Y-57900000D03*
X118600000Y-57000000D03*
X119900000Y-57000000D03*
X121100000Y-57000000D03*
X137700000Y-55300000D03*
X137700000Y-54300000D03*
X137700000Y-53400000D03*
X125900000Y-58900000D03*
X125900000Y-58000000D03*
X127200000Y-58900000D03*
X127200000Y-58000000D03*
X127200000Y-57100000D03*
X128500000Y-58900000D03*
X128500000Y-58000000D03*
X128500000Y-57100000D03*
X129700000Y-58900000D03*
X129700000Y-58000000D03*
X129700000Y-57100000D03*
X159800000Y-57500000D03*
X163400000Y-57500000D03*
X155200000Y-62800000D03*
X155200000Y-62100000D03*
X148600000Y-55700000D03*
X148600000Y-54800000D03*
X148600000Y-53900000D03*
%TO.N,/GPIO6*%
X124000000Y-61200000D03*
X131200000Y-61200000D03*
%TO.N,GND*%
X129700000Y-56200000D03*
X129700000Y-55300000D03*
X128500000Y-56200000D03*
X128500000Y-55300000D03*
X127200000Y-56200000D03*
X127200000Y-55300000D03*
%TO.N,/GPIO5*%
X115395000Y-61100000D03*
%TO.N,GND*%
X121095000Y-56100000D03*
X121095000Y-55200000D03*
X119895000Y-56100000D03*
X119895000Y-55200000D03*
X118595000Y-56000000D03*
X118595000Y-55200000D03*
D17*
%TO.N,/USB_VBUS*%
X140100689Y-71100689D03*
X136184668Y-67515332D03*
X136184668Y-63900000D03*
%TO.N,GND*%
X140200000Y-38300000D03*
D18*
X159900000Y-71100000D03*
X159900000Y-72200000D03*
X161100000Y-71100000D03*
D17*
X145900000Y-67700000D03*
D18*
X155800000Y-59600000D03*
X167500000Y-57500000D03*
X159900000Y-73300000D03*
D17*
X130500000Y-41500000D03*
X158950000Y-60500000D03*
D18*
X165700000Y-57500000D03*
X155800000Y-55100000D03*
X162200000Y-73300000D03*
X162200000Y-72200000D03*
D17*
X148700000Y-36800000D03*
X129350000Y-46500000D03*
X129350000Y-45600000D03*
D18*
X161100000Y-73300000D03*
X161100000Y-72200000D03*
X162200000Y-71100000D03*
D17*
X130500000Y-42300000D03*
X130500000Y-40700000D03*
%TO.N,+12V*%
X135250000Y-40750000D03*
X136250000Y-40750000D03*
X135250000Y-41500000D03*
X136250000Y-41500000D03*
X136250000Y-42250000D03*
X135250000Y-42250000D03*
D18*
%TO.N,+3V3*%
X139650000Y-65750000D03*
D17*
%TO.N,/USB_D+*%
X148200000Y-72200000D03*
X146900000Y-67700000D03*
%TO.N,Net-(J4-CC1)*%
X143100000Y-72400000D03*
X147000000Y-76600000D03*
D18*
%TO.N,Net-(U1-VSENSE)*%
X142600000Y-46175000D03*
X143700000Y-42800000D03*
%TD*%
D19*
%TO.N,+3V3*%
X148000000Y-64050000D02*
X148000000Y-63900000D01*
X148000000Y-63900000D02*
X149400000Y-62500000D01*
X141350000Y-64050000D02*
X142250000Y-64050000D01*
X139650000Y-65750000D02*
X141350000Y-64050000D01*
%TO.N,/USB_VBUS*%
X140100689Y-71100689D02*
X139770025Y-71100689D01*
X139770025Y-71100689D02*
X136184668Y-67515332D01*
X136700000Y-63384668D02*
X136184668Y-63900000D01*
X136700000Y-60200000D02*
X136700000Y-63384668D01*
%TO.N,/GPIO6*%
X131200000Y-61200000D02*
X124000000Y-61200000D01*
D20*
%TO.N,+12V*%
X135250000Y-42250000D02*
X133400000Y-44100000D01*
X133400000Y-44100000D02*
X116350000Y-44100000D01*
X113042109Y-47407891D02*
X113042109Y-70502109D01*
X116350000Y-44100000D02*
X113042109Y-47407891D01*
X113042109Y-70502109D02*
X118740000Y-76200000D01*
D19*
%TO.N,/USB_VBUS*%
X133800000Y-52400000D02*
X133800000Y-49200000D01*
X133800000Y-49200000D02*
X132150000Y-47550000D01*
%TO.N,/GPIO5*%
X127000000Y-62500000D02*
X124800000Y-62500000D01*
X118400000Y-62500000D02*
X116795000Y-62500000D01*
X116795000Y-62500000D02*
X115395000Y-61100000D01*
%TO.N,/USB_D+*%
X146900000Y-67700000D02*
X146900000Y-70900000D01*
X146900000Y-70900000D02*
X148200000Y-72200000D01*
D21*
%TO.N,Net-(J4-CC1)*%
X147000000Y-76300000D02*
X143100000Y-72400000D01*
X147000000Y-76600000D02*
X147000000Y-76300000D01*
D19*
%TO.N,Net-(U1-VSENSE)*%
X142600000Y-43900000D02*
X143700000Y-42800000D01*
X142600000Y-46175000D02*
X142600000Y-43900000D01*
%TD*%
%TA.AperFunction,Conductor*%
%TO.N,GND*%
G36*
X168342539Y-34920185D02*
G01*
X168388294Y-34972989D01*
X168399500Y-35024500D01*
X168399500Y-81075500D01*
X168379815Y-81142539D01*
X168327011Y-81188294D01*
X168275500Y-81199500D01*
X111224500Y-81199500D01*
X111157461Y-81179815D01*
X111111706Y-81127011D01*
X111100500Y-81075500D01*
X111100500Y-78000005D01*
X134325202Y-78000005D01*
X134344361Y-78231218D01*
X134401317Y-78456135D01*
X134494516Y-78668609D01*
X134578811Y-78797633D01*
X135204070Y-78172374D01*
X135206884Y-78185915D01*
X135276442Y-78320156D01*
X135379638Y-78430652D01*
X135508819Y-78509209D01*
X135560002Y-78523549D01*
X134931199Y-79152351D01*
X134961650Y-79176050D01*
X135165697Y-79286476D01*
X135165706Y-79286479D01*
X135385139Y-79361811D01*
X135613993Y-79400000D01*
X135846007Y-79400000D01*
X136074860Y-79361811D01*
X136294293Y-79286479D01*
X136294302Y-79286476D01*
X136498350Y-79176050D01*
X136528798Y-79152351D01*
X135901568Y-78525121D01*
X136018458Y-78474349D01*
X136135739Y-78378934D01*
X136222928Y-78255415D01*
X136253354Y-78169801D01*
X136833181Y-78749628D01*
X136866666Y-78810951D01*
X136869500Y-78837308D01*
X136869500Y-78947869D01*
X136869501Y-78947876D01*
X136875908Y-79007483D01*
X136926202Y-79142328D01*
X136926206Y-79142335D01*
X137012452Y-79257544D01*
X137012455Y-79257547D01*
X137127664Y-79343793D01*
X137127671Y-79343797D01*
X137262517Y-79394091D01*
X137262516Y-79394091D01*
X137269444Y-79394835D01*
X137322127Y-79400500D01*
X139217872Y-79400499D01*
X139277483Y-79394091D01*
X139412331Y-79343796D01*
X139527546Y-79257546D01*
X139613796Y-79142331D01*
X139664091Y-79007483D01*
X139670500Y-78947873D01*
X139670499Y-77052128D01*
X139664091Y-76992517D01*
X139644462Y-76939890D01*
X139613797Y-76857671D01*
X139613793Y-76857664D01*
X139527547Y-76742455D01*
X139527544Y-76742452D01*
X139412335Y-76656206D01*
X139412328Y-76656202D01*
X139277482Y-76605908D01*
X139277483Y-76605908D01*
X139217883Y-76599501D01*
X139217881Y-76599500D01*
X139217873Y-76599500D01*
X139217864Y-76599500D01*
X137322129Y-76599500D01*
X137322123Y-76599501D01*
X137262516Y-76605908D01*
X137127671Y-76656202D01*
X137127664Y-76656206D01*
X137012455Y-76742452D01*
X137012452Y-76742455D01*
X136926206Y-76857664D01*
X136926202Y-76857671D01*
X136875908Y-76992517D01*
X136869501Y-77052116D01*
X136869501Y-77052123D01*
X136869500Y-77052135D01*
X136869500Y-77162690D01*
X136849815Y-77229729D01*
X136833181Y-77250371D01*
X136255929Y-77827622D01*
X136253116Y-77814085D01*
X136183558Y-77679844D01*
X136080362Y-77569348D01*
X135951181Y-77490791D01*
X135899997Y-77476450D01*
X136528799Y-76847648D01*
X136528799Y-76847647D01*
X136498349Y-76823949D01*
X136294302Y-76713523D01*
X136294293Y-76713520D01*
X136074860Y-76638188D01*
X135846007Y-76600000D01*
X135613993Y-76600000D01*
X135385139Y-76638188D01*
X135165706Y-76713520D01*
X135165698Y-76713523D01*
X134961644Y-76823952D01*
X134931200Y-76847646D01*
X134931200Y-76847647D01*
X135558431Y-77474878D01*
X135441542Y-77525651D01*
X135324261Y-77621066D01*
X135237072Y-77744585D01*
X135206645Y-77830198D01*
X134578812Y-77202365D01*
X134494516Y-77331391D01*
X134494514Y-77331395D01*
X134401317Y-77543864D01*
X134344361Y-77768781D01*
X134325202Y-77999994D01*
X134325202Y-78000005D01*
X111100500Y-78000005D01*
X111100500Y-76200004D01*
X111954732Y-76200004D01*
X111973777Y-76454154D01*
X112024683Y-76677190D01*
X112030492Y-76702637D01*
X112123607Y-76939888D01*
X112251041Y-77160612D01*
X112409950Y-77359877D01*
X112596783Y-77533232D01*
X112807366Y-77676805D01*
X112807371Y-77676807D01*
X112807372Y-77676808D01*
X112807373Y-77676809D01*
X112929328Y-77735538D01*
X113036992Y-77787387D01*
X113036993Y-77787387D01*
X113036996Y-77787389D01*
X113280542Y-77862513D01*
X113532565Y-77900500D01*
X113787435Y-77900500D01*
X114039458Y-77862513D01*
X114283004Y-77787389D01*
X114464458Y-77700005D01*
X114512626Y-77676809D01*
X114512626Y-77676808D01*
X114512634Y-77676805D01*
X114723217Y-77533232D01*
X114910050Y-77359877D01*
X115068959Y-77160612D01*
X115196393Y-76939888D01*
X115289508Y-76702637D01*
X115346222Y-76454157D01*
X115362891Y-76231722D01*
X115365268Y-76200004D01*
X115365268Y-76199995D01*
X115346222Y-75945845D01*
X115341946Y-75927112D01*
X115289508Y-75697363D01*
X115196393Y-75460112D01*
X115068959Y-75239388D01*
X114910050Y-75040123D01*
X114723217Y-74866768D01*
X114512634Y-74723195D01*
X114512630Y-74723193D01*
X114512627Y-74723191D01*
X114512626Y-74723190D01*
X114283006Y-74612612D01*
X114283008Y-74612612D01*
X114039466Y-74537489D01*
X114039462Y-74537488D01*
X114039458Y-74537487D01*
X113918231Y-74519214D01*
X113787440Y-74499500D01*
X113787435Y-74499500D01*
X113532565Y-74499500D01*
X113532559Y-74499500D01*
X113375609Y-74523157D01*
X113280542Y-74537487D01*
X113280538Y-74537488D01*
X113280539Y-74537488D01*
X113280533Y-74537489D01*
X113036992Y-74612612D01*
X112807373Y-74723190D01*
X112807372Y-74723191D01*
X112596782Y-74866768D01*
X112409952Y-75040121D01*
X112409950Y-75040123D01*
X112251041Y-75239388D01*
X112123608Y-75460109D01*
X112030492Y-75697362D01*
X112030490Y-75697369D01*
X111973777Y-75945845D01*
X111954732Y-76199995D01*
X111954732Y-76200004D01*
X111100500Y-76200004D01*
X111100500Y-47433363D01*
X112036771Y-47433363D01*
X112041111Y-47467440D01*
X112041608Y-47475280D01*
X112041609Y-70488615D01*
X112041589Y-70490185D01*
X112039352Y-70578471D01*
X112039352Y-70578479D01*
X112050173Y-70638848D01*
X112050827Y-70643513D01*
X112057034Y-70704539D01*
X112057036Y-70704553D01*
X112067317Y-70737322D01*
X112069188Y-70744946D01*
X112075251Y-70778761D01*
X112075251Y-70778764D01*
X112098003Y-70835721D01*
X112099583Y-70840160D01*
X112117950Y-70898697D01*
X112117953Y-70898704D01*
X112134618Y-70928728D01*
X112137988Y-70935823D01*
X112150731Y-70967723D01*
X112150736Y-70967733D01*
X112184486Y-71018942D01*
X112186927Y-71022972D01*
X112216697Y-71076607D01*
X112216698Y-71076608D01*
X112216700Y-71076611D01*
X112239077Y-71102676D01*
X112243802Y-71108944D01*
X112256372Y-71128015D01*
X112262707Y-71137628D01*
X112306087Y-71181008D01*
X112309278Y-71184452D01*
X112347294Y-71228734D01*
X112349243Y-71231004D01*
X112376403Y-71252027D01*
X112382299Y-71257220D01*
X116405769Y-75280690D01*
X116428410Y-75311758D01*
X117078017Y-76577644D01*
X117088585Y-76606662D01*
X117110490Y-76702630D01*
X117110493Y-76702640D01*
X117131500Y-76756163D01*
X117203607Y-76939888D01*
X117331041Y-77160612D01*
X117489950Y-77359877D01*
X117676783Y-77533232D01*
X117887366Y-77676805D01*
X117887371Y-77676807D01*
X117887372Y-77676808D01*
X117887373Y-77676809D01*
X118009328Y-77735538D01*
X118116992Y-77787387D01*
X118116993Y-77787387D01*
X118116996Y-77787389D01*
X118360542Y-77862513D01*
X118612565Y-77900500D01*
X118867435Y-77900500D01*
X119119458Y-77862513D01*
X119363004Y-77787389D01*
X119544458Y-77700005D01*
X119592626Y-77676809D01*
X119592626Y-77676808D01*
X119592634Y-77676805D01*
X119803217Y-77533232D01*
X119990050Y-77359877D01*
X120148959Y-77160612D01*
X120276393Y-76939888D01*
X120369508Y-76702637D01*
X120426222Y-76454157D01*
X120442891Y-76231722D01*
X120445268Y-76200004D01*
X122914732Y-76200004D01*
X122933777Y-76454154D01*
X122984683Y-76677190D01*
X122990492Y-76702637D01*
X123083607Y-76939888D01*
X123211041Y-77160612D01*
X123369950Y-77359877D01*
X123556783Y-77533232D01*
X123767366Y-77676805D01*
X123767371Y-77676807D01*
X123767372Y-77676808D01*
X123767373Y-77676809D01*
X123889328Y-77735538D01*
X123996992Y-77787387D01*
X123996993Y-77787387D01*
X123996996Y-77787389D01*
X124240542Y-77862513D01*
X124492565Y-77900500D01*
X124747435Y-77900500D01*
X124999458Y-77862513D01*
X125243004Y-77787389D01*
X125424458Y-77700005D01*
X125472626Y-77676809D01*
X125472626Y-77676808D01*
X125472634Y-77676805D01*
X125683217Y-77533232D01*
X125870050Y-77359877D01*
X126028959Y-77160612D01*
X126156393Y-76939888D01*
X126249508Y-76702637D01*
X126306222Y-76454157D01*
X126322891Y-76231722D01*
X126325268Y-76200004D01*
X127994732Y-76200004D01*
X128013777Y-76454154D01*
X128064683Y-76677190D01*
X128070492Y-76702637D01*
X128163607Y-76939888D01*
X128291041Y-77160612D01*
X128449950Y-77359877D01*
X128636783Y-77533232D01*
X128847366Y-77676805D01*
X128847371Y-77676807D01*
X128847372Y-77676808D01*
X128847373Y-77676809D01*
X128969328Y-77735538D01*
X129076992Y-77787387D01*
X129076993Y-77787387D01*
X129076996Y-77787389D01*
X129320542Y-77862513D01*
X129572565Y-77900500D01*
X129827435Y-77900500D01*
X130079458Y-77862513D01*
X130323004Y-77787389D01*
X130504458Y-77700005D01*
X130552626Y-77676809D01*
X130552626Y-77676808D01*
X130552634Y-77676805D01*
X130763217Y-77533232D01*
X130950050Y-77359877D01*
X131108959Y-77160612D01*
X131236393Y-76939888D01*
X131329508Y-76702637D01*
X131386222Y-76454157D01*
X131402891Y-76231722D01*
X131405268Y-76200004D01*
X131405268Y-76199995D01*
X131398218Y-76105915D01*
X143670773Y-76105915D01*
X143680696Y-76263637D01*
X143680696Y-76263640D01*
X143705614Y-76340328D01*
X143729533Y-76413941D01*
X143814214Y-76547377D01*
X143929418Y-76655562D01*
X143929420Y-76655563D01*
X143929422Y-76655565D01*
X144034849Y-76713523D01*
X144067908Y-76731697D01*
X144220981Y-76771000D01*
X144220984Y-76771000D01*
X144339348Y-76771000D01*
X144339350Y-76771000D01*
X144339355Y-76770999D01*
X144339359Y-76770999D01*
X144352088Y-76769390D01*
X144456792Y-76756164D01*
X144603732Y-76697986D01*
X144646898Y-76666624D01*
X144731583Y-76605097D01*
X144731584Y-76605096D01*
X144731583Y-76605096D01*
X144731587Y-76605094D01*
X144832324Y-76483323D01*
X144899614Y-76340326D01*
X144929227Y-76185088D01*
X144919304Y-76027362D01*
X144870467Y-75877059D01*
X144785786Y-75743623D01*
X144670582Y-75635438D01*
X144670579Y-75635436D01*
X144670577Y-75635434D01*
X144532095Y-75559304D01*
X144532087Y-75559301D01*
X144379021Y-75520000D01*
X144379019Y-75520000D01*
X144260650Y-75520000D01*
X144260640Y-75520000D01*
X144143208Y-75534836D01*
X144143206Y-75534836D01*
X143996269Y-75593013D01*
X143996260Y-75593018D01*
X143868416Y-75685902D01*
X143868415Y-75685903D01*
X143767674Y-75807678D01*
X143700387Y-75950671D01*
X143700385Y-75950674D01*
X143685757Y-76027362D01*
X143670773Y-76105912D01*
X143670773Y-76105914D01*
X143670773Y-76105915D01*
X131398218Y-76105915D01*
X131386222Y-75945845D01*
X131381946Y-75927112D01*
X131329508Y-75697363D01*
X131236393Y-75460112D01*
X131108959Y-75239388D01*
X130950050Y-75040123D01*
X130763217Y-74866768D01*
X130552634Y-74723195D01*
X130552630Y-74723193D01*
X130552627Y-74723191D01*
X130552626Y-74723190D01*
X130323006Y-74612612D01*
X130323008Y-74612612D01*
X130079466Y-74537489D01*
X130079462Y-74537488D01*
X130079458Y-74537487D01*
X129958231Y-74519214D01*
X129827440Y-74499500D01*
X129827435Y-74499500D01*
X129572565Y-74499500D01*
X129572559Y-74499500D01*
X129415609Y-74523157D01*
X129320542Y-74537487D01*
X129320538Y-74537488D01*
X129320539Y-74537488D01*
X129320533Y-74537489D01*
X129076992Y-74612612D01*
X128847373Y-74723190D01*
X128847372Y-74723191D01*
X128636782Y-74866768D01*
X128449952Y-75040121D01*
X128449950Y-75040123D01*
X128291041Y-75239388D01*
X128163608Y-75460109D01*
X128070492Y-75697362D01*
X128070490Y-75697369D01*
X128013777Y-75945845D01*
X127994732Y-76199995D01*
X127994732Y-76200004D01*
X126325268Y-76200004D01*
X126325268Y-76199995D01*
X126306222Y-75945845D01*
X126301946Y-75927112D01*
X126249508Y-75697363D01*
X126156393Y-75460112D01*
X126028959Y-75239388D01*
X125870050Y-75040123D01*
X125683217Y-74866768D01*
X125472634Y-74723195D01*
X125472630Y-74723193D01*
X125472627Y-74723191D01*
X125472626Y-74723190D01*
X125243006Y-74612612D01*
X125243008Y-74612612D01*
X124999466Y-74537489D01*
X124999462Y-74537488D01*
X124999458Y-74537487D01*
X124878231Y-74519214D01*
X124747440Y-74499500D01*
X124747435Y-74499500D01*
X124492565Y-74499500D01*
X124492559Y-74499500D01*
X124335609Y-74523157D01*
X124240542Y-74537487D01*
X124240538Y-74537488D01*
X124240539Y-74537488D01*
X124240533Y-74537489D01*
X123996992Y-74612612D01*
X123767373Y-74723190D01*
X123767372Y-74723191D01*
X123556782Y-74866768D01*
X123369952Y-75040121D01*
X123369950Y-75040123D01*
X123211041Y-75239388D01*
X123083608Y-75460109D01*
X122990492Y-75697362D01*
X122990490Y-75697369D01*
X122933777Y-75945845D01*
X122914732Y-76199995D01*
X122914732Y-76200004D01*
X120445268Y-76200004D01*
X120445268Y-76199995D01*
X120426222Y-75945845D01*
X120421946Y-75927112D01*
X120369508Y-75697363D01*
X120276393Y-75460112D01*
X120148959Y-75239388D01*
X119990050Y-75040123D01*
X119803217Y-74866768D01*
X119592634Y-74723195D01*
X119592630Y-74723193D01*
X119592627Y-74723191D01*
X119592626Y-74723190D01*
X119363006Y-74612612D01*
X119363008Y-74612612D01*
X119153774Y-74548071D01*
X119134121Y-74540112D01*
X117851455Y-73887908D01*
X117819977Y-73865057D01*
X116354920Y-72400000D01*
X142194540Y-72400000D01*
X142214326Y-72588256D01*
X142214327Y-72588259D01*
X142272818Y-72768277D01*
X142272821Y-72768284D01*
X142367467Y-72932216D01*
X142414227Y-72984148D01*
X142494129Y-73072888D01*
X142647265Y-73184148D01*
X142647267Y-73184149D01*
X142647270Y-73184151D01*
X142690013Y-73203181D01*
X142712757Y-73213308D01*
X142728898Y-73221977D01*
X142749271Y-73234943D01*
X142749274Y-73234945D01*
X142749278Y-73234946D01*
X142749280Y-73234948D01*
X143277400Y-73473318D01*
X143314067Y-73498657D01*
X146026931Y-76211522D01*
X146060416Y-76272845D01*
X146062699Y-76287530D01*
X146095739Y-76636956D01*
X146095749Y-76637051D01*
X146099428Y-76666618D01*
X146100544Y-76671855D01*
X146100414Y-76671882D01*
X146103894Y-76689021D01*
X146114325Y-76788249D01*
X146114327Y-76788260D01*
X146172818Y-76968277D01*
X146172821Y-76968284D01*
X146267467Y-77132216D01*
X146373855Y-77250371D01*
X146394129Y-77272888D01*
X146547265Y-77384148D01*
X146547270Y-77384151D01*
X146720192Y-77461142D01*
X146720197Y-77461144D01*
X146905354Y-77500500D01*
X146905355Y-77500500D01*
X147094644Y-77500500D01*
X147094646Y-77500500D01*
X147279803Y-77461144D01*
X147452730Y-77384151D01*
X147605871Y-77272888D01*
X147732533Y-77132216D01*
X147827179Y-76968284D01*
X147885674Y-76788256D01*
X147905460Y-76600000D01*
X147885674Y-76411744D01*
X147827179Y-76231716D01*
X147754548Y-76105915D01*
X149470773Y-76105915D01*
X149480696Y-76263637D01*
X149480696Y-76263640D01*
X149505614Y-76340328D01*
X149529533Y-76413941D01*
X149614214Y-76547377D01*
X149729418Y-76655562D01*
X149729420Y-76655563D01*
X149729422Y-76655565D01*
X149834849Y-76713523D01*
X149867908Y-76731697D01*
X150020981Y-76771000D01*
X150020984Y-76771000D01*
X150139348Y-76771000D01*
X150139350Y-76771000D01*
X150139355Y-76770999D01*
X150139359Y-76770999D01*
X150152088Y-76769390D01*
X150256792Y-76756164D01*
X150403732Y-76697986D01*
X150446898Y-76666624D01*
X150531583Y-76605097D01*
X150531584Y-76605096D01*
X150531583Y-76605096D01*
X150531587Y-76605094D01*
X150632324Y-76483323D01*
X150699614Y-76340326D01*
X150729227Y-76185088D01*
X150719304Y-76027362D01*
X150670467Y-75877059D01*
X150585786Y-75743623D01*
X150470582Y-75635438D01*
X150470579Y-75635436D01*
X150470577Y-75635434D01*
X150332095Y-75559304D01*
X150332087Y-75559301D01*
X150179021Y-75520000D01*
X150179019Y-75520000D01*
X150060650Y-75520000D01*
X150060640Y-75520000D01*
X149943208Y-75534836D01*
X149943206Y-75534836D01*
X149796269Y-75593013D01*
X149796260Y-75593018D01*
X149668416Y-75685902D01*
X149668415Y-75685903D01*
X149567674Y-75807678D01*
X149500387Y-75950671D01*
X149500385Y-75950674D01*
X149485757Y-76027362D01*
X149470773Y-76105912D01*
X149470773Y-76105914D01*
X149470773Y-76105915D01*
X147754548Y-76105915D01*
X147732533Y-76067784D01*
X147605871Y-75927112D01*
X147597111Y-75920747D01*
X147593682Y-75918065D01*
X147055809Y-75465481D01*
X147048996Y-75460112D01*
X147031602Y-75446403D01*
X147026135Y-75441545D01*
X144198657Y-72614066D01*
X144173317Y-72577398D01*
X144169203Y-72568284D01*
X144008275Y-72211740D01*
X143934951Y-72049286D01*
X143934936Y-72049255D01*
X143933555Y-72046531D01*
X143929877Y-72037626D01*
X143929821Y-72037652D01*
X143927180Y-72031721D01*
X143927179Y-72031716D01*
X143918729Y-72017080D01*
X143917133Y-72014133D01*
X143914316Y-72008576D01*
X143913126Y-72006690D01*
X143910256Y-72002403D01*
X143842380Y-71884840D01*
X143832533Y-71867784D01*
X143807919Y-71840448D01*
X143720896Y-71743799D01*
X143705871Y-71727112D01*
X143644622Y-71682612D01*
X143552734Y-71615851D01*
X143552729Y-71615848D01*
X143379807Y-71538857D01*
X143379802Y-71538855D01*
X143234001Y-71507865D01*
X143194646Y-71499500D01*
X143005354Y-71499500D01*
X142972897Y-71506398D01*
X142820197Y-71538855D01*
X142820192Y-71538857D01*
X142647270Y-71615848D01*
X142647265Y-71615851D01*
X142494129Y-71727111D01*
X142367466Y-71867785D01*
X142272821Y-72031715D01*
X142272818Y-72031722D01*
X142218142Y-72200000D01*
X142214326Y-72211744D01*
X142194540Y-72400000D01*
X116354920Y-72400000D01*
X114078928Y-70124008D01*
X114045443Y-70062685D01*
X114042609Y-70036327D01*
X114042609Y-67515332D01*
X135279208Y-67515332D01*
X135298994Y-67703588D01*
X135298995Y-67703591D01*
X135357486Y-67883609D01*
X135357489Y-67883616D01*
X135452135Y-68047548D01*
X135516633Y-68119180D01*
X135520594Y-68124055D01*
X135522005Y-68125985D01*
X135522008Y-68125988D01*
X135522009Y-68125989D01*
X135524199Y-68128000D01*
X135528329Y-68132170D01*
X135578797Y-68188219D01*
X135578797Y-68188220D01*
X135578803Y-68188225D01*
X135731938Y-68299483D01*
X135742773Y-68304308D01*
X135762356Y-68315248D01*
X136262230Y-68657265D01*
X136279890Y-68671922D01*
X138947852Y-71339883D01*
X138948960Y-71341019D01*
X138949455Y-71341541D01*
X138949635Y-71341731D01*
X138951088Y-71343119D01*
X139194292Y-71586323D01*
X139206073Y-71599955D01*
X139220415Y-71619219D01*
X139260445Y-71652808D01*
X139264417Y-71656448D01*
X139267338Y-71659369D01*
X139270248Y-71662280D01*
X139295271Y-71682064D01*
X139296653Y-71683190D01*
X139354811Y-71731990D01*
X139354811Y-71731991D01*
X139360848Y-71735961D01*
X139360814Y-71736011D01*
X139367169Y-71740059D01*
X139367202Y-71740007D01*
X139373343Y-71743795D01*
X139373348Y-71743799D01*
X139442169Y-71775890D01*
X139443685Y-71776624D01*
X139511592Y-71810729D01*
X139511597Y-71810730D01*
X139518380Y-71813199D01*
X139518359Y-71813256D01*
X139525473Y-71815728D01*
X139525492Y-71815672D01*
X139532346Y-71817943D01*
X139532349Y-71817943D01*
X139532352Y-71817945D01*
X139539045Y-71819326D01*
X139586859Y-71840448D01*
X139647953Y-71884836D01*
X139647959Y-71884840D01*
X139820881Y-71961831D01*
X139820886Y-71961833D01*
X140006043Y-72001189D01*
X140006044Y-72001189D01*
X140195333Y-72001189D01*
X140195335Y-72001189D01*
X140380492Y-71961833D01*
X140553419Y-71884840D01*
X140706560Y-71773577D01*
X140833222Y-71632905D01*
X140927868Y-71468973D01*
X140986363Y-71288945D01*
X141006149Y-71100689D01*
X140986363Y-70912433D01*
X140927868Y-70732405D01*
X140833222Y-70568473D01*
X140706560Y-70427801D01*
X140706559Y-70427800D01*
X140553423Y-70316540D01*
X140553421Y-70316539D01*
X140490179Y-70288381D01*
X140487549Y-70287135D01*
X140487124Y-70286921D01*
X140486962Y-70286859D01*
X140484030Y-70285642D01*
X140380492Y-70239545D01*
X140252841Y-70212411D01*
X139886268Y-70128698D01*
X139826194Y-70095491D01*
X137430704Y-67700000D01*
X145994540Y-67700000D01*
X146014325Y-67888255D01*
X146028841Y-67932931D01*
X146030815Y-67940671D01*
X146147376Y-68562323D01*
X146149500Y-68585175D01*
X146149500Y-70836294D01*
X146148191Y-70854263D01*
X146144710Y-70878025D01*
X146149264Y-70930064D01*
X146149500Y-70935470D01*
X146149500Y-70943712D01*
X146153202Y-70975391D01*
X146153386Y-70977185D01*
X146160000Y-71052792D01*
X146161461Y-71059867D01*
X146161403Y-71059878D01*
X146163034Y-71067237D01*
X146163092Y-71067224D01*
X146164757Y-71074249D01*
X146164758Y-71074254D01*
X146164759Y-71074255D01*
X146187824Y-71137629D01*
X146190708Y-71145551D01*
X146191299Y-71147253D01*
X146215182Y-71219326D01*
X146218236Y-71225874D01*
X146218182Y-71225898D01*
X146221470Y-71232688D01*
X146221521Y-71232663D01*
X146224761Y-71239113D01*
X146224762Y-71239114D01*
X146224763Y-71239117D01*
X146266494Y-71302567D01*
X146267443Y-71304058D01*
X146291536Y-71343119D01*
X146307289Y-71368657D01*
X146311766Y-71374319D01*
X146311719Y-71374356D01*
X146316482Y-71380202D01*
X146316528Y-71380164D01*
X146321173Y-71385699D01*
X146376364Y-71437769D01*
X146377658Y-71439026D01*
X147043406Y-72104774D01*
X147058063Y-72122434D01*
X147423903Y-72657126D01*
X147426429Y-72661137D01*
X147467464Y-72732212D01*
X147467465Y-72732214D01*
X147499104Y-72767353D01*
X147502543Y-72771524D01*
X147506804Y-72777178D01*
X147512477Y-72784705D01*
X147521216Y-72795260D01*
X147547573Y-72821336D01*
X147550034Y-72823916D01*
X147594129Y-72872888D01*
X147747265Y-72984148D01*
X147747270Y-72984151D01*
X147920192Y-73061142D01*
X147920197Y-73061144D01*
X148105354Y-73100500D01*
X148105355Y-73100500D01*
X148294644Y-73100500D01*
X148294646Y-73100500D01*
X148479803Y-73061144D01*
X148652730Y-72984151D01*
X148805871Y-72872888D01*
X148932533Y-72732216D01*
X149027179Y-72568284D01*
X149085674Y-72388256D01*
X149105460Y-72200000D01*
X149085674Y-72011744D01*
X149027179Y-71831716D01*
X148932533Y-71667784D01*
X148868029Y-71596145D01*
X148864066Y-71591267D01*
X148862661Y-71589346D01*
X148862660Y-71589345D01*
X148862658Y-71589342D01*
X148860464Y-71587327D01*
X148856325Y-71583147D01*
X148805870Y-71527111D01*
X148652730Y-71415848D01*
X148641891Y-71411022D01*
X148622311Y-71400083D01*
X148122434Y-71058063D01*
X148104774Y-71043406D01*
X147686819Y-70625451D01*
X147653334Y-70564128D01*
X147650500Y-70537770D01*
X147650500Y-68585173D01*
X147652624Y-68562322D01*
X147701906Y-68299483D01*
X147769183Y-67940667D01*
X147771152Y-67932946D01*
X147785674Y-67888256D01*
X147793913Y-67809855D01*
X147794630Y-67804947D01*
X147796384Y-67795598D01*
X147799604Y-67772669D01*
X147800888Y-67759016D01*
X147800825Y-67747673D01*
X147801162Y-67740877D01*
X147805460Y-67700000D01*
X147785674Y-67511744D01*
X147727179Y-67331716D01*
X147632533Y-67167784D01*
X147505871Y-67027112D01*
X147505870Y-67027111D01*
X147352734Y-66915851D01*
X147352729Y-66915848D01*
X147179807Y-66838857D01*
X147179802Y-66838855D01*
X147034000Y-66807865D01*
X146994646Y-66799500D01*
X146805354Y-66799500D01*
X146772897Y-66806398D01*
X146620197Y-66838855D01*
X146620192Y-66838857D01*
X146447270Y-66915848D01*
X146447265Y-66915851D01*
X146294129Y-67027111D01*
X146167466Y-67167785D01*
X146072821Y-67331715D01*
X146072818Y-67331722D01*
X146014327Y-67511740D01*
X146014326Y-67511744D01*
X146003941Y-67610554D01*
X145994540Y-67700000D01*
X137430704Y-67700000D01*
X137341258Y-67610554D01*
X137326601Y-67592894D01*
X136960752Y-67058189D01*
X136958235Y-67054189D01*
X136917201Y-66983116D01*
X136917199Y-66983114D01*
X136885556Y-66947970D01*
X136882117Y-66943798D01*
X136872190Y-66930626D01*
X136863451Y-66920071D01*
X136837093Y-66893994D01*
X136834632Y-66891414D01*
X136790543Y-66842448D01*
X136790537Y-66842442D01*
X136637402Y-66731183D01*
X136637397Y-66731180D01*
X136464475Y-66654189D01*
X136464470Y-66654187D01*
X136318668Y-66623197D01*
X136279314Y-66614832D01*
X136090022Y-66614832D01*
X136057565Y-66621730D01*
X135904865Y-66654187D01*
X135904860Y-66654189D01*
X135731938Y-66731180D01*
X135731933Y-66731183D01*
X135578797Y-66842443D01*
X135452134Y-66983117D01*
X135357489Y-67147047D01*
X135357486Y-67147054D01*
X135298995Y-67327072D01*
X135298994Y-67327076D01*
X135279208Y-67515332D01*
X114042609Y-67515332D01*
X114042609Y-65750000D01*
X138794815Y-65750000D01*
X138813503Y-65927805D01*
X138813504Y-65927807D01*
X138868747Y-66097829D01*
X138868750Y-66097835D01*
X138958141Y-66252665D01*
X138991778Y-66290022D01*
X139077764Y-66385521D01*
X139077767Y-66385523D01*
X139077770Y-66385526D01*
X139222407Y-66490612D01*
X139385733Y-66563329D01*
X139560609Y-66600500D01*
X139560610Y-66600500D01*
X139739389Y-66600500D01*
X139739391Y-66600500D01*
X139914267Y-66563329D01*
X140077593Y-66490612D01*
X140222230Y-66385526D01*
X140291700Y-66308370D01*
X140293937Y-66306015D01*
X140309957Y-66290026D01*
X140316963Y-66280683D01*
X140320477Y-66276410D01*
X140341859Y-66252665D01*
X140352979Y-66233401D01*
X140357066Y-66227211D01*
X140720062Y-65743220D01*
X140720081Y-65743193D01*
X140720521Y-65742607D01*
X140732033Y-65729333D01*
X141594304Y-64867062D01*
X141655625Y-64833579D01*
X141699513Y-64831991D01*
X142120695Y-64892159D01*
X142124793Y-64892886D01*
X142160609Y-64900500D01*
X142177456Y-64900500D01*
X142184089Y-64900855D01*
X142191273Y-64901629D01*
X142201627Y-64902383D01*
X142201634Y-64902382D01*
X142201636Y-64902383D01*
X142291569Y-64900960D01*
X142298555Y-64900500D01*
X142339389Y-64900500D01*
X142339391Y-64900500D01*
X142514267Y-64863329D01*
X142677593Y-64790612D01*
X142822230Y-64685526D01*
X142823469Y-64684151D01*
X142848148Y-64656741D01*
X142941859Y-64552665D01*
X143031250Y-64397835D01*
X143086497Y-64227803D01*
X143105185Y-64050000D01*
X143105185Y-64049999D01*
X147144815Y-64049999D01*
X147163503Y-64227805D01*
X147163504Y-64227807D01*
X147218747Y-64397829D01*
X147218750Y-64397835D01*
X147308141Y-64552665D01*
X147326350Y-64572888D01*
X147427764Y-64685521D01*
X147427767Y-64685523D01*
X147427770Y-64685526D01*
X147572407Y-64790612D01*
X147735733Y-64863329D01*
X147910609Y-64900500D01*
X147910610Y-64900500D01*
X148089389Y-64900500D01*
X148089391Y-64900500D01*
X148264267Y-64863329D01*
X148427593Y-64790612D01*
X148572230Y-64685526D01*
X148573469Y-64684151D01*
X148612000Y-64641356D01*
X148691859Y-64552665D01*
X148774240Y-64409974D01*
X148777114Y-64405461D01*
X148779532Y-64402004D01*
X148994848Y-63975311D01*
X149017867Y-63943499D01*
X149379336Y-63582030D01*
X149392610Y-63570518D01*
X149393212Y-63570066D01*
X149393220Y-63570062D01*
X149947063Y-63154679D01*
X149956813Y-63146820D01*
X149959249Y-63144957D01*
X149967006Y-63139321D01*
X149972230Y-63135526D01*
X150002295Y-63102133D01*
X150003763Y-63100562D01*
X150030642Y-63072813D01*
X150030644Y-63072808D01*
X150035003Y-63067123D01*
X150035257Y-63067318D01*
X150042569Y-63057405D01*
X150091859Y-63002665D01*
X150181250Y-62847835D01*
X150236497Y-62677803D01*
X150255185Y-62500000D01*
X150236497Y-62322197D01*
X150199893Y-62209543D01*
X150181252Y-62152170D01*
X150181249Y-62152164D01*
X150176703Y-62144290D01*
X150091859Y-61997335D01*
X150040783Y-61940610D01*
X149972235Y-61864478D01*
X149972232Y-61864476D01*
X149972231Y-61864475D01*
X149972230Y-61864474D01*
X149827593Y-61759388D01*
X149664267Y-61686671D01*
X149664265Y-61686670D01*
X149527240Y-61657545D01*
X149489391Y-61649500D01*
X149310609Y-61649500D01*
X149279954Y-61656015D01*
X149135733Y-61686670D01*
X149135728Y-61686672D01*
X148972408Y-61759387D01*
X148827770Y-61864474D01*
X148758353Y-61941568D01*
X148756082Y-61943959D01*
X148740046Y-61959966D01*
X148740039Y-61959975D01*
X148733024Y-61969328D01*
X148729502Y-61973610D01*
X148708143Y-61997332D01*
X148708139Y-61997337D01*
X148697030Y-62016578D01*
X148692934Y-62022781D01*
X148329478Y-62507390D01*
X148317959Y-62520671D01*
X147891367Y-62947263D01*
X147885119Y-62952727D01*
X147859385Y-62972353D01*
X147512659Y-63325331D01*
X147498249Y-63337898D01*
X147481468Y-63350391D01*
X147447898Y-63390397D01*
X147444253Y-63394376D01*
X147438410Y-63400221D01*
X147438385Y-63400249D01*
X147437612Y-63401226D01*
X147433235Y-63406185D01*
X147399991Y-63440031D01*
X147366016Y-63478316D01*
X147366011Y-63478323D01*
X147364269Y-63481281D01*
X147349588Y-63501301D01*
X147308142Y-63547333D01*
X147308138Y-63547338D01*
X147218750Y-63702164D01*
X147218747Y-63702170D01*
X147163504Y-63872192D01*
X147163503Y-63872194D01*
X147144815Y-64049999D01*
X143105185Y-64049999D01*
X143086497Y-63872197D01*
X143034619Y-63712534D01*
X143031252Y-63702170D01*
X143031249Y-63702164D01*
X142941859Y-63547335D01*
X142879720Y-63478323D01*
X142822235Y-63414478D01*
X142822232Y-63414476D01*
X142822231Y-63414475D01*
X142822230Y-63414474D01*
X142677593Y-63309388D01*
X142514267Y-63236671D01*
X142514265Y-63236670D01*
X142378618Y-63207838D01*
X142339391Y-63199500D01*
X142160609Y-63199500D01*
X142160607Y-63199500D01*
X142124818Y-63207106D01*
X142120696Y-63207838D01*
X141741208Y-63262050D01*
X141488556Y-63298144D01*
X141488540Y-63298146D01*
X141487788Y-63298254D01*
X141470252Y-63299500D01*
X141413705Y-63299500D01*
X141395735Y-63298191D01*
X141371972Y-63294710D01*
X141326533Y-63298686D01*
X141319931Y-63299264D01*
X141314530Y-63299500D01*
X141306283Y-63299500D01*
X141274606Y-63303202D01*
X141272832Y-63303384D01*
X141242390Y-63306047D01*
X141197198Y-63310001D01*
X141190132Y-63311460D01*
X141190120Y-63311404D01*
X141182763Y-63313035D01*
X141182777Y-63313092D01*
X141175740Y-63314760D01*
X141104385Y-63340729D01*
X141102685Y-63341320D01*
X141030668Y-63365184D01*
X141024126Y-63368235D01*
X141024101Y-63368183D01*
X141017308Y-63371471D01*
X141017334Y-63371522D01*
X141010886Y-63374760D01*
X140947476Y-63416465D01*
X140945957Y-63417432D01*
X140881344Y-63457288D01*
X140875677Y-63461769D01*
X140875641Y-63461723D01*
X140869798Y-63466484D01*
X140869835Y-63466528D01*
X140864309Y-63471164D01*
X140812229Y-63526364D01*
X140810974Y-63527657D01*
X139670672Y-64667958D01*
X139657391Y-64679477D01*
X139102890Y-65095354D01*
X139093182Y-65103178D01*
X139090727Y-65105057D01*
X139077771Y-65114473D01*
X139077770Y-65114474D01*
X139047897Y-65147649D01*
X139046367Y-65149288D01*
X139019357Y-65177184D01*
X139014998Y-65182874D01*
X139014745Y-65182680D01*
X139007420Y-65192604D01*
X138958140Y-65247336D01*
X138868750Y-65402164D01*
X138868747Y-65402170D01*
X138813504Y-65572192D01*
X138813503Y-65572194D01*
X138794815Y-65750000D01*
X114042609Y-65750000D01*
X114042609Y-63900000D01*
X135279208Y-63900000D01*
X135298994Y-64088256D01*
X135298995Y-64088259D01*
X135357486Y-64268277D01*
X135357489Y-64268284D01*
X135452135Y-64432216D01*
X135560586Y-64552663D01*
X135578797Y-64572888D01*
X135731933Y-64684148D01*
X135731938Y-64684151D01*
X135904860Y-64761142D01*
X135904865Y-64761144D01*
X136090022Y-64800500D01*
X136090023Y-64800500D01*
X136279312Y-64800500D01*
X136279314Y-64800500D01*
X136464471Y-64761144D01*
X136637398Y-64684151D01*
X136790539Y-64572888D01*
X136917201Y-64432216D01*
X136997965Y-64292324D01*
X137001709Y-64286597D01*
X137004908Y-64282250D01*
X137158688Y-63994870D01*
X137180332Y-63965701D01*
X137185641Y-63960392D01*
X137199260Y-63948622D01*
X137218530Y-63934278D01*
X137252123Y-63894242D01*
X137255757Y-63890276D01*
X137261591Y-63884444D01*
X137281400Y-63859389D01*
X137282476Y-63858069D01*
X137331302Y-63799882D01*
X137331304Y-63799877D01*
X137335274Y-63793843D01*
X137335325Y-63793876D01*
X137339369Y-63787528D01*
X137339317Y-63787496D01*
X137343106Y-63781350D01*
X137343111Y-63781345D01*
X137375212Y-63712502D01*
X137375961Y-63710955D01*
X137410040Y-63643101D01*
X137410041Y-63643096D01*
X137412508Y-63636318D01*
X137412566Y-63636339D01*
X137415043Y-63629212D01*
X137414986Y-63629194D01*
X137417256Y-63622344D01*
X137427573Y-63572375D01*
X137432618Y-63547940D01*
X137432984Y-63546287D01*
X137450500Y-63472389D01*
X137450500Y-63472385D01*
X137450501Y-63472381D01*
X137451339Y-63465216D01*
X137451398Y-63465222D01*
X137452164Y-63457722D01*
X137452105Y-63457717D01*
X137452734Y-63450527D01*
X137450526Y-63374635D01*
X137450500Y-63372832D01*
X137450500Y-61085173D01*
X137452624Y-61062322D01*
X137521058Y-60697335D01*
X137569183Y-60440667D01*
X137571152Y-60432946D01*
X137585674Y-60388256D01*
X137593913Y-60309855D01*
X137594630Y-60304947D01*
X137596384Y-60295598D01*
X137599604Y-60272669D01*
X137600888Y-60259016D01*
X137600825Y-60247673D01*
X137601162Y-60240877D01*
X137605460Y-60200000D01*
X137585674Y-60011744D01*
X137527179Y-59831716D01*
X137432533Y-59667784D01*
X137305871Y-59527112D01*
X137305870Y-59527111D01*
X137152734Y-59415851D01*
X137152729Y-59415848D01*
X136979807Y-59338857D01*
X136979802Y-59338855D01*
X136834001Y-59307865D01*
X136794646Y-59299500D01*
X136605354Y-59299500D01*
X136572897Y-59306398D01*
X136420197Y-59338855D01*
X136420192Y-59338857D01*
X136247270Y-59415848D01*
X136247265Y-59415851D01*
X136094129Y-59527111D01*
X135967466Y-59667785D01*
X135872821Y-59831715D01*
X135872818Y-59831722D01*
X135814327Y-60011740D01*
X135814326Y-60011744D01*
X135794539Y-60199999D01*
X135794540Y-60200000D01*
X135805526Y-60304537D01*
X135805629Y-60305932D01*
X135806170Y-60310671D01*
X135814325Y-60388249D01*
X135814327Y-60388260D01*
X135828842Y-60432933D01*
X135830816Y-60440673D01*
X135939852Y-61022197D01*
X135947376Y-61062322D01*
X135949500Y-61085174D01*
X135949500Y-62928211D01*
X135929815Y-62995250D01*
X135882588Y-63038288D01*
X135808421Y-63076752D01*
X135808418Y-63076754D01*
X135808404Y-63076761D01*
X135808394Y-63076767D01*
X135784161Y-63090329D01*
X135775587Y-63095129D01*
X135775506Y-63094986D01*
X135762406Y-63102283D01*
X135731934Y-63115850D01*
X135578797Y-63227111D01*
X135452134Y-63367785D01*
X135357489Y-63531715D01*
X135357486Y-63531722D01*
X135299265Y-63710909D01*
X135298994Y-63711744D01*
X135279208Y-63900000D01*
X114042609Y-63900000D01*
X114042609Y-61099999D01*
X114539815Y-61099999D01*
X114558503Y-61277805D01*
X114558504Y-61277807D01*
X114613747Y-61447829D01*
X114613750Y-61447835D01*
X114703141Y-61602665D01*
X114822770Y-61735526D01*
X114845516Y-61752052D01*
X114849704Y-61755382D01*
X114854964Y-61759948D01*
X114854973Y-61759957D01*
X114994334Y-61864478D01*
X115402388Y-62170519D01*
X115415669Y-62182038D01*
X116219270Y-62985638D01*
X116231051Y-62999270D01*
X116245388Y-63018528D01*
X116285409Y-63052111D01*
X116289397Y-63055766D01*
X116295217Y-63061586D01*
X116295222Y-63061590D01*
X116295223Y-63061591D01*
X116320263Y-63081390D01*
X116321644Y-63082515D01*
X116336677Y-63095129D01*
X116379786Y-63131302D01*
X116379787Y-63131302D01*
X116379789Y-63131304D01*
X116385818Y-63135270D01*
X116385785Y-63135319D01*
X116392147Y-63139372D01*
X116392179Y-63139321D01*
X116398319Y-63143108D01*
X116398323Y-63143111D01*
X116436278Y-63160809D01*
X116467137Y-63175200D01*
X116468760Y-63175986D01*
X116536562Y-63210038D01*
X116543357Y-63212511D01*
X116543336Y-63212567D01*
X116550457Y-63215043D01*
X116550476Y-63214986D01*
X116557319Y-63217253D01*
X116557327Y-63217257D01*
X116631748Y-63232623D01*
X116633371Y-63232983D01*
X116707279Y-63250500D01*
X116707280Y-63250500D01*
X116707284Y-63250501D01*
X116714453Y-63251339D01*
X116714446Y-63251398D01*
X116721944Y-63252164D01*
X116721950Y-63252105D01*
X116729139Y-63252734D01*
X116729143Y-63252733D01*
X116729144Y-63252734D01*
X116757229Y-63251916D01*
X116805032Y-63250526D01*
X116806835Y-63250500D01*
X117620262Y-63250500D01*
X117637798Y-63251746D01*
X117638553Y-63251853D01*
X117638557Y-63251855D01*
X118270695Y-63342159D01*
X118274793Y-63342886D01*
X118310609Y-63350500D01*
X118327456Y-63350500D01*
X118334089Y-63350855D01*
X118341273Y-63351629D01*
X118351627Y-63352383D01*
X118351634Y-63352382D01*
X118351636Y-63352383D01*
X118441569Y-63350960D01*
X118448555Y-63350500D01*
X118489389Y-63350500D01*
X118489391Y-63350500D01*
X118664267Y-63313329D01*
X118827593Y-63240612D01*
X118972230Y-63135526D01*
X118972417Y-63135319D01*
X119008604Y-63095129D01*
X119091859Y-63002665D01*
X119181250Y-62847835D01*
X119236497Y-62677803D01*
X119255185Y-62500000D01*
X119236497Y-62322197D01*
X119199893Y-62209543D01*
X119181252Y-62152170D01*
X119181249Y-62152164D01*
X119176703Y-62144290D01*
X119091859Y-61997335D01*
X119040783Y-61940610D01*
X118972235Y-61864478D01*
X118972232Y-61864476D01*
X118972231Y-61864475D01*
X118972230Y-61864474D01*
X118827593Y-61759388D01*
X118664267Y-61686671D01*
X118664265Y-61686670D01*
X118527240Y-61657545D01*
X118489391Y-61649500D01*
X118310609Y-61649500D01*
X118310605Y-61649500D01*
X118274800Y-61657109D01*
X118270679Y-61657841D01*
X117637800Y-61748254D01*
X117620263Y-61749500D01*
X117157230Y-61749500D01*
X117090191Y-61729815D01*
X117069549Y-61713181D01*
X116556367Y-61199999D01*
X123144815Y-61199999D01*
X123163503Y-61377805D01*
X123163504Y-61377807D01*
X123218747Y-61547829D01*
X123218750Y-61547835D01*
X123308141Y-61702665D01*
X123349092Y-61748146D01*
X123427764Y-61835521D01*
X123427767Y-61835523D01*
X123427770Y-61835526D01*
X123572407Y-61940612D01*
X123735733Y-62013329D01*
X123735735Y-62013329D01*
X123735736Y-62013330D01*
X123780201Y-62022781D01*
X123907957Y-62049936D01*
X123969437Y-62083127D01*
X124003214Y-62144290D01*
X124000106Y-62209543D01*
X123963504Y-62322192D01*
X123963503Y-62322194D01*
X123944815Y-62499999D01*
X123963503Y-62677805D01*
X123963504Y-62677807D01*
X124018747Y-62847829D01*
X124018750Y-62847835D01*
X124108141Y-63002665D01*
X124122426Y-63018530D01*
X124227764Y-63135521D01*
X124227767Y-63135523D01*
X124227770Y-63135526D01*
X124372407Y-63240612D01*
X124535733Y-63313329D01*
X124710609Y-63350500D01*
X124710610Y-63350500D01*
X124889389Y-63350500D01*
X124889391Y-63350500D01*
X124925200Y-63342887D01*
X124929285Y-63342162D01*
X125561442Y-63251855D01*
X125561472Y-63251849D01*
X125562201Y-63251746D01*
X125579737Y-63250500D01*
X126220262Y-63250500D01*
X126237798Y-63251746D01*
X126238553Y-63251853D01*
X126238557Y-63251855D01*
X126870695Y-63342159D01*
X126874793Y-63342886D01*
X126910609Y-63350500D01*
X126927456Y-63350500D01*
X126934089Y-63350855D01*
X126941273Y-63351629D01*
X126951627Y-63352383D01*
X126951634Y-63352382D01*
X126951636Y-63352383D01*
X127041569Y-63350960D01*
X127048555Y-63350500D01*
X127089389Y-63350500D01*
X127089391Y-63350500D01*
X127264267Y-63313329D01*
X127427593Y-63240612D01*
X127572230Y-63135526D01*
X127572417Y-63135319D01*
X127608604Y-63095129D01*
X127691859Y-63002665D01*
X127781250Y-62847835D01*
X127836497Y-62677803D01*
X127855185Y-62500000D01*
X127836497Y-62322197D01*
X127799893Y-62209543D01*
X127781252Y-62152170D01*
X127781248Y-62152162D01*
X127772205Y-62136498D01*
X127755734Y-62068598D01*
X127778587Y-62002571D01*
X127833509Y-61959382D01*
X127879593Y-61950500D01*
X130420262Y-61950500D01*
X130437798Y-61951746D01*
X130438553Y-61951853D01*
X130438557Y-61951855D01*
X131070695Y-62042159D01*
X131074793Y-62042886D01*
X131110609Y-62050500D01*
X131127456Y-62050500D01*
X131134089Y-62050855D01*
X131141273Y-62051629D01*
X131151627Y-62052383D01*
X131151634Y-62052382D01*
X131151636Y-62052383D01*
X131241569Y-62050960D01*
X131248555Y-62050500D01*
X131289389Y-62050500D01*
X131289391Y-62050500D01*
X131464267Y-62013329D01*
X131627593Y-61940612D01*
X131772230Y-61835526D01*
X131891859Y-61702665D01*
X131981250Y-61547835D01*
X132036497Y-61377803D01*
X132055185Y-61200000D01*
X132036497Y-61022197D01*
X131981250Y-60852165D01*
X131891859Y-60697335D01*
X131845003Y-60645296D01*
X131772235Y-60564478D01*
X131772232Y-60564476D01*
X131772231Y-60564475D01*
X131772230Y-60564474D01*
X131627593Y-60459388D01*
X131464267Y-60386671D01*
X131464265Y-60386670D01*
X131328618Y-60357838D01*
X131289391Y-60349500D01*
X131110609Y-60349500D01*
X131110607Y-60349500D01*
X131074818Y-60357106D01*
X131070696Y-60357838D01*
X130691208Y-60412050D01*
X130438556Y-60448144D01*
X130438540Y-60448146D01*
X130437788Y-60448254D01*
X130420252Y-60449500D01*
X124779730Y-60449500D01*
X124762193Y-60448254D01*
X124761448Y-60448147D01*
X124761443Y-60448146D01*
X124331120Y-60386670D01*
X124129303Y-60357838D01*
X124125181Y-60357106D01*
X124089393Y-60349500D01*
X124089391Y-60349500D01*
X124072560Y-60349500D01*
X124065932Y-60349145D01*
X124058590Y-60348356D01*
X124048171Y-60347601D01*
X123958419Y-60349039D01*
X123951441Y-60349500D01*
X123910609Y-60349500D01*
X123879954Y-60356015D01*
X123735733Y-60386670D01*
X123735728Y-60386672D01*
X123572408Y-60459387D01*
X123427768Y-60564475D01*
X123308140Y-60697336D01*
X123218750Y-60852164D01*
X123218747Y-60852170D01*
X123163504Y-61022192D01*
X123163503Y-61022194D01*
X123144815Y-61199999D01*
X116556367Y-61199999D01*
X116477039Y-61120671D01*
X116465520Y-61107390D01*
X116102069Y-60622788D01*
X116097972Y-60616583D01*
X116086859Y-60597335D01*
X116086856Y-60597331D01*
X116065486Y-60573599D01*
X116061966Y-60569319D01*
X116049710Y-60552977D01*
X116038738Y-60539355D01*
X116031956Y-60531509D01*
X115999264Y-60499834D01*
X115996331Y-60496792D01*
X115967232Y-60464476D01*
X115967231Y-60464475D01*
X115967230Y-60464474D01*
X115822593Y-60359388D01*
X115659267Y-60286671D01*
X115659265Y-60286670D01*
X115529132Y-60259010D01*
X115484391Y-60249500D01*
X115305609Y-60249500D01*
X115274954Y-60256015D01*
X115130733Y-60286670D01*
X115130728Y-60286672D01*
X114967408Y-60359387D01*
X114822768Y-60464475D01*
X114703140Y-60597336D01*
X114613750Y-60752164D01*
X114613747Y-60752170D01*
X114558504Y-60922192D01*
X114558503Y-60922194D01*
X114539815Y-61099999D01*
X114042609Y-61099999D01*
X114042609Y-47873673D01*
X114062294Y-47806634D01*
X114078923Y-47785997D01*
X114314920Y-47550000D01*
X131244540Y-47550000D01*
X131264326Y-47738256D01*
X131264327Y-47738259D01*
X131322818Y-47918277D01*
X131322821Y-47918284D01*
X131417467Y-48082216D01*
X131481965Y-48153848D01*
X131485926Y-48158723D01*
X131487337Y-48160653D01*
X131487340Y-48160656D01*
X131487341Y-48160657D01*
X131489531Y-48162668D01*
X131493661Y-48166838D01*
X131544128Y-48222888D01*
X131544129Y-48222888D01*
X131544135Y-48222893D01*
X131697270Y-48334151D01*
X131708105Y-48338976D01*
X131727688Y-48349916D01*
X132183225Y-48661598D01*
X132227563Y-48691934D01*
X132245223Y-48706591D01*
X133013181Y-49474548D01*
X133046666Y-49535871D01*
X133049500Y-49562229D01*
X133049500Y-51514823D01*
X133047376Y-51537675D01*
X132930817Y-52159322D01*
X132928843Y-52167061D01*
X132914326Y-52211743D01*
X132914325Y-52211746D01*
X132906088Y-52290114D01*
X132905367Y-52295049D01*
X132903619Y-52304376D01*
X132903613Y-52304413D01*
X132900397Y-52327312D01*
X132900395Y-52327328D01*
X132899111Y-52340977D01*
X132899110Y-52340997D01*
X132899172Y-52352327D01*
X132898833Y-52359144D01*
X132894540Y-52399997D01*
X132894540Y-52400000D01*
X132914326Y-52588256D01*
X132914327Y-52588259D01*
X132972818Y-52768277D01*
X132972821Y-52768284D01*
X133067467Y-52932216D01*
X133194129Y-53072888D01*
X133347265Y-53184148D01*
X133347270Y-53184151D01*
X133520192Y-53261142D01*
X133520197Y-53261144D01*
X133705354Y-53300500D01*
X133705355Y-53300500D01*
X133894644Y-53300500D01*
X133894646Y-53300500D01*
X134079803Y-53261144D01*
X134252730Y-53184151D01*
X134405871Y-53072888D01*
X134532533Y-52932216D01*
X134627179Y-52768284D01*
X134685674Y-52588256D01*
X134705460Y-52400000D01*
X134695412Y-52304400D01*
X134694479Y-52295522D01*
X134694378Y-52294141D01*
X134693825Y-52289307D01*
X134685674Y-52211744D01*
X134671153Y-52167055D01*
X134669182Y-52159328D01*
X134552624Y-51537675D01*
X134550500Y-51514826D01*
X134550500Y-49263705D01*
X134551809Y-49245735D01*
X134555289Y-49221974D01*
X134550736Y-49169939D01*
X134550500Y-49164532D01*
X134550500Y-49156296D01*
X134550500Y-49156291D01*
X134546791Y-49124564D01*
X134546618Y-49122872D01*
X134539998Y-49047202D01*
X134539996Y-49047197D01*
X134538538Y-49040133D01*
X134538597Y-49040120D01*
X134536967Y-49032764D01*
X134536908Y-49032779D01*
X134535241Y-49025747D01*
X134535241Y-49025745D01*
X134509247Y-48954327D01*
X134508708Y-48952775D01*
X134484814Y-48880665D01*
X134484813Y-48880663D01*
X134481763Y-48874121D01*
X134481817Y-48874095D01*
X134478533Y-48867312D01*
X134478480Y-48867340D01*
X134475238Y-48860885D01*
X134475237Y-48860883D01*
X134433496Y-48797419D01*
X134432555Y-48795941D01*
X134392709Y-48731341D01*
X134388233Y-48725681D01*
X134388280Y-48725643D01*
X134383519Y-48719799D01*
X134383474Y-48719838D01*
X134378831Y-48714305D01*
X134323617Y-48662213D01*
X134322357Y-48660990D01*
X133306591Y-47645223D01*
X133291934Y-47627563D01*
X133159061Y-47433363D01*
X132926084Y-47092857D01*
X132923567Y-47088857D01*
X132892381Y-47034842D01*
X132882533Y-47017784D01*
X132850888Y-46982638D01*
X132847449Y-46978466D01*
X132837520Y-46965292D01*
X132837501Y-46965269D01*
X132828787Y-46954744D01*
X132828783Y-46954739D01*
X132802425Y-46928662D01*
X132799964Y-46926082D01*
X132755875Y-46877116D01*
X132755869Y-46877110D01*
X132602734Y-46765851D01*
X132602729Y-46765848D01*
X132429807Y-46688857D01*
X132429802Y-46688855D01*
X132284001Y-46657865D01*
X132244646Y-46649500D01*
X132055354Y-46649500D01*
X132022897Y-46656398D01*
X131870197Y-46688855D01*
X131870192Y-46688857D01*
X131697270Y-46765848D01*
X131697265Y-46765851D01*
X131544129Y-46877111D01*
X131417466Y-47017785D01*
X131322821Y-47181715D01*
X131322818Y-47181722D01*
X131264327Y-47361740D01*
X131264326Y-47361744D01*
X131244540Y-47550000D01*
X114314920Y-47550000D01*
X115689920Y-46175001D01*
X141744815Y-46175001D01*
X141748726Y-46212222D01*
X141748884Y-46214819D01*
X141749337Y-46218252D01*
X141749531Y-46219888D01*
X141763503Y-46352804D01*
X141763504Y-46352807D01*
X141818747Y-46522829D01*
X141818750Y-46522835D01*
X141908141Y-46677665D01*
X141921025Y-46691974D01*
X142027764Y-46810521D01*
X142027767Y-46810523D01*
X142027770Y-46810526D01*
X142172407Y-46915612D01*
X142335733Y-46988329D01*
X142510609Y-47025500D01*
X142510610Y-47025500D01*
X142689389Y-47025500D01*
X142689391Y-47025500D01*
X142864267Y-46988329D01*
X143027593Y-46915612D01*
X143172230Y-46810526D01*
X143177101Y-46805117D01*
X143198148Y-46781741D01*
X143291859Y-46677665D01*
X143381250Y-46522835D01*
X143436497Y-46352803D01*
X143455185Y-46175000D01*
X143449012Y-46116272D01*
X143448840Y-46114635D01*
X143448500Y-46108090D01*
X143448517Y-46090195D01*
X143440170Y-46031776D01*
X143439905Y-46029639D01*
X143436497Y-45997197D01*
X143436496Y-45997195D01*
X143436496Y-45997191D01*
X143435146Y-45990842D01*
X143435313Y-45990806D01*
X143432723Y-45979642D01*
X143351855Y-45413557D01*
X143351850Y-45413526D01*
X143351746Y-45412798D01*
X143350500Y-45395262D01*
X143350500Y-44262229D01*
X143370185Y-44195190D01*
X143386819Y-44174548D01*
X143386818Y-44174548D01*
X143679336Y-43882030D01*
X143692610Y-43870518D01*
X143693212Y-43870066D01*
X143693220Y-43870062D01*
X144247063Y-43454679D01*
X144256813Y-43446820D01*
X144259249Y-43444957D01*
X144265807Y-43440192D01*
X144272230Y-43435526D01*
X144302295Y-43402133D01*
X144303763Y-43400562D01*
X144330642Y-43372813D01*
X144330644Y-43372808D01*
X144335003Y-43367123D01*
X144335257Y-43367318D01*
X144342569Y-43357405D01*
X144391859Y-43302665D01*
X144481250Y-43147835D01*
X144536497Y-42977803D01*
X144555185Y-42800000D01*
X144536497Y-42622197D01*
X144481250Y-42452165D01*
X144391859Y-42297335D01*
X144309852Y-42206257D01*
X144272235Y-42164478D01*
X144272232Y-42164476D01*
X144272231Y-42164475D01*
X144272230Y-42164474D01*
X144127593Y-42059388D01*
X143964267Y-41986671D01*
X143964265Y-41986670D01*
X143836594Y-41959533D01*
X143789391Y-41949500D01*
X143610609Y-41949500D01*
X143579954Y-41956015D01*
X143435733Y-41986670D01*
X143435728Y-41986672D01*
X143272408Y-42059387D01*
X143127770Y-42164474D01*
X143058353Y-42241568D01*
X143056082Y-42243959D01*
X143040046Y-42259966D01*
X143040039Y-42259975D01*
X143033024Y-42269328D01*
X143029502Y-42273610D01*
X143008143Y-42297332D01*
X143008139Y-42297337D01*
X142997030Y-42316578D01*
X142992934Y-42322781D01*
X142629474Y-42807395D01*
X142617955Y-42820676D01*
X142114358Y-43324272D01*
X142100729Y-43336051D01*
X142081468Y-43350390D01*
X142047898Y-43390397D01*
X142044253Y-43394376D01*
X142038407Y-43400223D01*
X142018618Y-43425251D01*
X142017481Y-43426647D01*
X141968694Y-43484790D01*
X141964729Y-43490819D01*
X141964682Y-43490788D01*
X141960630Y-43497147D01*
X141960679Y-43497177D01*
X141956889Y-43503321D01*
X141924812Y-43572110D01*
X141924027Y-43573731D01*
X141889957Y-43641572D01*
X141887488Y-43648357D01*
X141887432Y-43648336D01*
X141884960Y-43655450D01*
X141885015Y-43655469D01*
X141882743Y-43662325D01*
X141867391Y-43736670D01*
X141867001Y-43738428D01*
X141849499Y-43812279D01*
X141848661Y-43819454D01*
X141848601Y-43819447D01*
X141847835Y-43826945D01*
X141847895Y-43826951D01*
X141847265Y-43834140D01*
X141849474Y-43910030D01*
X141849500Y-43911833D01*
X141849500Y-45395268D01*
X141848254Y-45412805D01*
X141848147Y-45413551D01*
X141848146Y-45413556D01*
X141811971Y-45666772D01*
X141767273Y-45979653D01*
X141764687Y-45990800D01*
X141764855Y-45990836D01*
X141763502Y-45997199D01*
X141760101Y-46029555D01*
X141759818Y-46031839D01*
X141750245Y-46098849D01*
X141750241Y-46098885D01*
X141748370Y-46116270D01*
X141747616Y-46126628D01*
X141747854Y-46141769D01*
X141747522Y-46149232D01*
X141744815Y-46174998D01*
X141744815Y-46175001D01*
X115689920Y-46175001D01*
X116728102Y-45136819D01*
X116789425Y-45103334D01*
X116815783Y-45100500D01*
X133386507Y-45100500D01*
X133388069Y-45100519D01*
X133425283Y-45101462D01*
X133476358Y-45102757D01*
X133476358Y-45102756D01*
X133476363Y-45102757D01*
X133536753Y-45091932D01*
X133541412Y-45091280D01*
X133583607Y-45086988D01*
X133602438Y-45085074D01*
X133635227Y-45074786D01*
X133642840Y-45072918D01*
X133676653Y-45066858D01*
X133733621Y-45044101D01*
X133738053Y-45042524D01*
X133796588Y-45024159D01*
X133826627Y-45007484D01*
X133833708Y-45004122D01*
X133865617Y-44991377D01*
X133916854Y-44957608D01*
X133920851Y-44955187D01*
X133974502Y-44925409D01*
X134000568Y-44903030D01*
X134006843Y-44898300D01*
X134035519Y-44879402D01*
X134078892Y-44836027D01*
X134082350Y-44832823D01*
X134085613Y-44830020D01*
X134128895Y-44792866D01*
X134149928Y-44765691D01*
X134155098Y-44759821D01*
X135373100Y-43541819D01*
X135434424Y-43508334D01*
X135460782Y-43505500D01*
X136925990Y-43505500D01*
X136926000Y-43505500D01*
X137033456Y-43493947D01*
X137084967Y-43482741D01*
X137119197Y-43471347D01*
X137187497Y-43448616D01*
X137187501Y-43448613D01*
X137187504Y-43448613D01*
X137308543Y-43370825D01*
X137361347Y-43325070D01*
X137455567Y-43216336D01*
X137515338Y-43085459D01*
X137535023Y-43018420D01*
X137535024Y-43018416D01*
X137555500Y-42876000D01*
X137555500Y-40074000D01*
X137543947Y-39966544D01*
X137532741Y-39915033D01*
X137527739Y-39900004D01*
X137498616Y-39812502D01*
X137498613Y-39812496D01*
X137420828Y-39691462D01*
X137420825Y-39691457D01*
X137420820Y-39691451D01*
X137375076Y-39638659D01*
X137375072Y-39638656D01*
X137375070Y-39638653D01*
X137266336Y-39544433D01*
X137266333Y-39544431D01*
X137266331Y-39544430D01*
X137135463Y-39484663D01*
X137076195Y-39467260D01*
X137068420Y-39464977D01*
X137068416Y-39464976D01*
X136926000Y-39444500D01*
X134524000Y-39444500D01*
X134523991Y-39444500D01*
X134523990Y-39444501D01*
X134416549Y-39456052D01*
X134416537Y-39456054D01*
X134365027Y-39467260D01*
X134262502Y-39501383D01*
X134262496Y-39501386D01*
X134141462Y-39579171D01*
X134141451Y-39579179D01*
X134088659Y-39624923D01*
X133994433Y-39733664D01*
X133994430Y-39733668D01*
X133934663Y-39864536D01*
X133919836Y-39915033D01*
X133914977Y-39931580D01*
X133914976Y-39931584D01*
X133894502Y-40073990D01*
X133894500Y-40074001D01*
X133894499Y-40074003D01*
X133894499Y-42139217D01*
X133874814Y-42206257D01*
X133858180Y-42226898D01*
X133021899Y-43063181D01*
X132960576Y-43096666D01*
X132934218Y-43099500D01*
X116363452Y-43099500D01*
X116361889Y-43099480D01*
X116273636Y-43097244D01*
X116273635Y-43097244D01*
X116273626Y-43097244D01*
X116213263Y-43108064D01*
X116208597Y-43108718D01*
X116147564Y-43114925D01*
X116114780Y-43125210D01*
X116107153Y-43127082D01*
X116073349Y-43133141D01*
X116016381Y-43155895D01*
X116011945Y-43157474D01*
X115953414Y-43175840D01*
X115953410Y-43175842D01*
X115923378Y-43192510D01*
X115916284Y-43195879D01*
X115884382Y-43208623D01*
X115884377Y-43208625D01*
X115833156Y-43242381D01*
X115829128Y-43244822D01*
X115775501Y-43274588D01*
X115749434Y-43296965D01*
X115743165Y-43301692D01*
X115714484Y-43320595D01*
X115714478Y-43320600D01*
X115671109Y-43363968D01*
X115667655Y-43367169D01*
X115621102Y-43407136D01*
X115600076Y-43434298D01*
X115594885Y-43440192D01*
X112344200Y-46690878D01*
X112343076Y-46691974D01*
X112279055Y-46752833D01*
X112244008Y-46803185D01*
X112241171Y-46806947D01*
X112202411Y-46854483D01*
X112202408Y-46854488D01*
X112186501Y-46884938D01*
X112182433Y-46891652D01*
X112162811Y-46919845D01*
X112138618Y-46976221D01*
X112136597Y-46980475D01*
X112108200Y-47034842D01*
X112108199Y-47034843D01*
X112098749Y-47067866D01*
X112096116Y-47075262D01*
X112082568Y-47106834D01*
X112070222Y-47166910D01*
X112069099Y-47171486D01*
X112052222Y-47230468D01*
X112052222Y-47230470D01*
X112049612Y-47264732D01*
X112048523Y-47272501D01*
X112046360Y-47283027D01*
X112041608Y-47306149D01*
X112041608Y-47367490D01*
X112041429Y-47372198D01*
X112036771Y-47433363D01*
X111100500Y-47433363D01*
X111100500Y-39900004D01*
X112753732Y-39900004D01*
X112772777Y-40154154D01*
X112772778Y-40154157D01*
X112829492Y-40402637D01*
X112922607Y-40639888D01*
X113050041Y-40860612D01*
X113208950Y-41059877D01*
X113395783Y-41233232D01*
X113606366Y-41376805D01*
X113606371Y-41376807D01*
X113606372Y-41376808D01*
X113606373Y-41376809D01*
X113728328Y-41435538D01*
X113835992Y-41487387D01*
X113835993Y-41487387D01*
X113835996Y-41487389D01*
X114079542Y-41562513D01*
X114331565Y-41600500D01*
X114586435Y-41600500D01*
X114838458Y-41562513D01*
X115082004Y-41487389D01*
X115311634Y-41376805D01*
X115522217Y-41233232D01*
X115709050Y-41059877D01*
X115867959Y-40860612D01*
X115995393Y-40639888D01*
X116088508Y-40402637D01*
X116145222Y-40154157D01*
X116161901Y-39931584D01*
X116164268Y-39900004D01*
X116164268Y-39899995D01*
X116145222Y-39645845D01*
X116143580Y-39638653D01*
X116088508Y-39397363D01*
X115995393Y-39160112D01*
X115867959Y-38939388D01*
X115709050Y-38740123D01*
X115522217Y-38566768D01*
X115311634Y-38423195D01*
X115311630Y-38423193D01*
X115311627Y-38423191D01*
X115311626Y-38423190D01*
X115082006Y-38312612D01*
X115082008Y-38312612D01*
X114838466Y-38237489D01*
X114838462Y-38237488D01*
X114838458Y-38237487D01*
X114717231Y-38219214D01*
X114586440Y-38199500D01*
X114586435Y-38199500D01*
X114331565Y-38199500D01*
X114331559Y-38199500D01*
X114174609Y-38223157D01*
X114079542Y-38237487D01*
X114079538Y-38237488D01*
X114079539Y-38237488D01*
X114079533Y-38237489D01*
X113835992Y-38312612D01*
X113606373Y-38423190D01*
X113606372Y-38423191D01*
X113395782Y-38566768D01*
X113208952Y-38740121D01*
X113208950Y-38740123D01*
X113050041Y-38939388D01*
X112922608Y-39160109D01*
X112829492Y-39397362D01*
X112829490Y-39397369D01*
X112772777Y-39645845D01*
X112753732Y-39899995D01*
X112753732Y-39900004D01*
X111100500Y-39900004D01*
X111100500Y-35024500D01*
X111120185Y-34957461D01*
X111172989Y-34911706D01*
X111224500Y-34900500D01*
X168275500Y-34900500D01*
X168342539Y-34920185D01*
G37*
%TD.AperFunction*%
%TD*%
%TA.AperFunction,Conductor*%
%TO.N,+12V*%
G36*
X136993039Y-39969685D02*
G01*
X137038794Y-40022489D01*
X137050000Y-40074000D01*
X137050000Y-42876000D01*
X137030315Y-42943039D01*
X136977511Y-42988794D01*
X136926000Y-43000000D01*
X134524000Y-43000000D01*
X134456961Y-42980315D01*
X134411206Y-42927511D01*
X134400000Y-42876000D01*
X134400000Y-40074000D01*
X134419685Y-40006961D01*
X134472489Y-39961206D01*
X134524000Y-39950000D01*
X136926000Y-39950000D01*
X136993039Y-39969685D01*
G37*
%TD.AperFunction*%
%TD*%
%TA.AperFunction,Conductor*%
%TO.N,+3V3*%
G36*
X149160822Y-62260933D02*
G01*
X149162045Y-62261991D01*
X149400707Y-62499293D01*
X149638003Y-62737949D01*
X149641406Y-62746230D01*
X149637955Y-62754494D01*
X149636726Y-62755557D01*
X149089920Y-63165662D01*
X149081245Y-63167884D01*
X149074627Y-63164575D01*
X148735424Y-62825372D01*
X148731997Y-62817099D01*
X148734336Y-62810080D01*
X149144443Y-62263271D01*
X149152147Y-62258711D01*
X149160822Y-62260933D01*
G37*
%TD.AperFunction*%
%TD*%
%TA.AperFunction,Conductor*%
%TO.N,+3V3*%
G36*
X148236552Y-63326440D02*
G01*
X148575847Y-63665735D01*
X148579274Y-63674008D01*
X148578019Y-63679279D01*
X148328236Y-64174271D01*
X148321450Y-64180113D01*
X148313342Y-64179821D01*
X148001476Y-64051604D01*
X147997628Y-64049032D01*
X147760665Y-63810712D01*
X147757262Y-63802430D01*
X147760614Y-63794265D01*
X148220008Y-63326587D01*
X148228248Y-63323087D01*
X148236552Y-63326440D01*
G37*
%TD.AperFunction*%
%TD*%
%TA.AperFunction,Conductor*%
%TO.N,+3V3*%
G36*
X142245358Y-63704124D02*
G01*
X142249920Y-63711829D01*
X142250038Y-63713451D01*
X142251000Y-64050033D01*
X142250038Y-64386548D01*
X142246587Y-64394812D01*
X142238305Y-64398215D01*
X142236683Y-64398097D01*
X141560045Y-64301435D01*
X141552340Y-64296873D01*
X141550000Y-64289853D01*
X141550000Y-63810147D01*
X141553427Y-63801874D01*
X141560045Y-63798565D01*
X141560044Y-63798564D01*
X142236684Y-63701902D01*
X142245358Y-63704124D01*
G37*
%TD.AperFunction*%
%TD*%
%TA.AperFunction,Conductor*%
%TO.N,+3V3*%
G36*
X139975372Y-65085424D02*
G01*
X140314575Y-65424627D01*
X140318002Y-65432900D01*
X140315662Y-65439920D01*
X139905557Y-65986726D01*
X139897852Y-65991288D01*
X139889177Y-65989066D01*
X139887953Y-65988007D01*
X139649293Y-65750707D01*
X139411995Y-65512049D01*
X139408593Y-65503769D01*
X139412044Y-65495505D01*
X139413264Y-65494449D01*
X139960080Y-65084336D01*
X139968754Y-65082115D01*
X139975372Y-65085424D01*
G37*
%TD.AperFunction*%
%TD*%
%TA.AperFunction,Conductor*%
%TO.N,/USB_VBUS*%
G36*
X139612424Y-70584676D02*
G01*
X140240288Y-70728060D01*
X140247589Y-70733241D01*
X140249088Y-70742070D01*
X140248502Y-70743917D01*
X140102292Y-71099216D01*
X140099724Y-71103058D01*
X139825206Y-71376208D01*
X139816925Y-71379614D01*
X139809699Y-71377093D01*
X139262890Y-70944944D01*
X139258524Y-70937126D01*
X139260966Y-70928510D01*
X139261863Y-70927501D01*
X139601555Y-70587809D01*
X139609827Y-70584383D01*
X139612424Y-70584676D01*
G37*
%TD.AperFunction*%
%TD*%
%TA.AperFunction,Conductor*%
%TO.N,/USB_VBUS*%
G36*
X136474089Y-67242449D02*
G01*
X136475451Y-67244094D01*
X136921646Y-67896227D01*
X136923490Y-67904990D01*
X136920263Y-67911107D01*
X136580443Y-68250927D01*
X136572170Y-68254354D01*
X136565563Y-68252310D01*
X135913430Y-67806115D01*
X135908537Y-67798615D01*
X135910381Y-67789852D01*
X135911743Y-67788207D01*
X136183940Y-67514646D01*
X136457543Y-67242407D01*
X136465824Y-67239001D01*
X136474089Y-67242449D01*
G37*
%TD.AperFunction*%
%TD*%
%TA.AperFunction,Conductor*%
%TO.N,/USB_VBUS*%
G36*
X136938742Y-63316884D02*
G01*
X136942169Y-63325157D01*
X136940785Y-63330677D01*
X136559209Y-64043749D01*
X136552284Y-64049427D01*
X136544441Y-64049049D01*
X136189171Y-63902853D01*
X136182824Y-63896535D01*
X136182809Y-63896500D01*
X136035690Y-63540362D01*
X136035699Y-63531407D01*
X136041118Y-63525509D01*
X136447466Y-63314771D01*
X136452852Y-63313457D01*
X136930469Y-63313457D01*
X136938742Y-63316884D01*
G37*
%TD.AperFunction*%
%TD*%
%TA.AperFunction,Conductor*%
%TO.N,/USB_VBUS*%
G36*
X137085939Y-60199964D02*
G01*
X137094202Y-60203412D01*
X137097608Y-60211693D01*
X137097408Y-60213820D01*
X136951790Y-60990456D01*
X136946897Y-60997956D01*
X136940290Y-61000000D01*
X136459710Y-61000000D01*
X136451437Y-60996573D01*
X136448210Y-60990456D01*
X136302591Y-60213820D01*
X136304435Y-60205057D01*
X136311935Y-60200164D01*
X136314052Y-60199964D01*
X136700000Y-60199000D01*
X137085939Y-60199964D01*
G37*
%TD.AperFunction*%
%TD*%
%TA.AperFunction,Conductor*%
%TO.N,/GPIO6*%
G36*
X124013311Y-60851901D02*
G01*
X124464408Y-60916344D01*
X124689954Y-60948565D01*
X124697659Y-60953127D01*
X124699999Y-60960147D01*
X124699999Y-61439853D01*
X124696572Y-61448126D01*
X124689954Y-61451435D01*
X124013316Y-61548097D01*
X124004641Y-61545875D01*
X124000079Y-61538170D01*
X123999961Y-61536556D01*
X123999000Y-61200000D01*
X123999961Y-60863449D01*
X124003412Y-60855187D01*
X124011694Y-60851784D01*
X124013311Y-60851901D01*
G37*
%TD.AperFunction*%
%TD*%
%TA.AperFunction,Conductor*%
%TO.N,/GPIO6*%
G36*
X131195358Y-60854124D02*
G01*
X131199920Y-60861829D01*
X131200038Y-60863451D01*
X131201000Y-61200033D01*
X131200038Y-61536548D01*
X131196587Y-61544812D01*
X131188305Y-61548215D01*
X131186683Y-61548097D01*
X130510045Y-61451435D01*
X130502340Y-61446873D01*
X130500000Y-61439853D01*
X130500000Y-60960147D01*
X130503427Y-60951874D01*
X130510045Y-60948565D01*
X130510044Y-60948564D01*
X131186684Y-60851902D01*
X131195358Y-60854124D01*
G37*
%TD.AperFunction*%
%TD*%
%TA.AperFunction,Conductor*%
%TO.N,+12V*%
G36*
X117555187Y-74304359D02*
G01*
X118978227Y-75027940D01*
X118984048Y-75034744D01*
X118984374Y-75040774D01*
X118742253Y-76193344D01*
X118737199Y-76200736D01*
X118733367Y-76202355D01*
X117594694Y-76458086D01*
X117585871Y-76456555D01*
X117581721Y-76452012D01*
X116844402Y-75015202D01*
X116843674Y-75006279D01*
X116846537Y-75001591D01*
X117541613Y-74306515D01*
X117549885Y-74303089D01*
X117555187Y-74304359D01*
G37*
%TD.AperFunction*%
%TD*%
%TA.AperFunction,Conductor*%
%TO.N,/USB_VBUS*%
G36*
X134048563Y-51603427D02*
G01*
X134051790Y-51609544D01*
X134197408Y-52386179D01*
X134195564Y-52394942D01*
X134188064Y-52399835D01*
X134185937Y-52400035D01*
X133800000Y-52400999D01*
X133414062Y-52400035D01*
X133405797Y-52396587D01*
X133402391Y-52388306D01*
X133402591Y-52386179D01*
X133548210Y-51609544D01*
X133553103Y-51602044D01*
X133559710Y-51600000D01*
X134040290Y-51600000D01*
X134048563Y-51603427D01*
G37*
%TD.AperFunction*%
%TD*%
%TA.AperFunction,Conductor*%
%TO.N,/USB_VBUS*%
G36*
X132439421Y-47277117D02*
G01*
X132440783Y-47278762D01*
X132886978Y-47930895D01*
X132888822Y-47939658D01*
X132885595Y-47945775D01*
X132545775Y-48285595D01*
X132537502Y-48289022D01*
X132530895Y-48286978D01*
X131878762Y-47840783D01*
X131873869Y-47833283D01*
X131875713Y-47824520D01*
X131877075Y-47822875D01*
X132149272Y-47549314D01*
X132422875Y-47277075D01*
X132431156Y-47273669D01*
X132439421Y-47277117D01*
G37*
%TD.AperFunction*%
%TD*%
%TA.AperFunction,Conductor*%
%TO.N,/GPIO5*%
G36*
X126995358Y-62154124D02*
G01*
X126999920Y-62161829D01*
X127000038Y-62163451D01*
X127001000Y-62500033D01*
X127000038Y-62836548D01*
X126996587Y-62844812D01*
X126988305Y-62848215D01*
X126986683Y-62848097D01*
X126310045Y-62751435D01*
X126302340Y-62746873D01*
X126300000Y-62739853D01*
X126300000Y-62260147D01*
X126303427Y-62251874D01*
X126310045Y-62248565D01*
X126310044Y-62248565D01*
X126986684Y-62151902D01*
X126995358Y-62154124D01*
G37*
%TD.AperFunction*%
%TD*%
%TA.AperFunction,Conductor*%
%TO.N,/GPIO5*%
G36*
X124813311Y-62151901D02*
G01*
X125264408Y-62216344D01*
X125489954Y-62248565D01*
X125497659Y-62253127D01*
X125499999Y-62260147D01*
X125499999Y-62739853D01*
X125496572Y-62748126D01*
X125489954Y-62751435D01*
X124813316Y-62848097D01*
X124804641Y-62845875D01*
X124800079Y-62838170D01*
X124799961Y-62836556D01*
X124799000Y-62500000D01*
X124799961Y-62163449D01*
X124803412Y-62155187D01*
X124811694Y-62151784D01*
X124813311Y-62151901D01*
G37*
%TD.AperFunction*%
%TD*%
%TA.AperFunction,Conductor*%
%TO.N,/GPIO5*%
G36*
X118395358Y-62154124D02*
G01*
X118399920Y-62161829D01*
X118400038Y-62163451D01*
X118401000Y-62500033D01*
X118400038Y-62836548D01*
X118396587Y-62844812D01*
X118388305Y-62848215D01*
X118386683Y-62848097D01*
X117710045Y-62751435D01*
X117702340Y-62746873D01*
X117700000Y-62739853D01*
X117700000Y-62260147D01*
X117703427Y-62251874D01*
X117710045Y-62248565D01*
X118386684Y-62151902D01*
X118395358Y-62154124D01*
G37*
%TD.AperFunction*%
%TD*%
%TA.AperFunction,Conductor*%
%TO.N,/GPIO5*%
G36*
X115649494Y-60862043D02*
G01*
X115650557Y-60863273D01*
X116060662Y-61410079D01*
X116062884Y-61418754D01*
X116059575Y-61425372D01*
X115720372Y-61764575D01*
X115712099Y-61768002D01*
X115705079Y-61765662D01*
X115158273Y-61355557D01*
X115153711Y-61347852D01*
X115155933Y-61339177D01*
X115156978Y-61337967D01*
X115394293Y-61099293D01*
X115632951Y-60861994D01*
X115641230Y-60858593D01*
X115649494Y-60862043D01*
G37*
%TD.AperFunction*%
%TD*%
%TA.AperFunction,Conductor*%
%TO.N,/USB_D+*%
G36*
X146901140Y-67699002D02*
G01*
X147285939Y-67699964D01*
X147294202Y-67703412D01*
X147297608Y-67711693D01*
X147297408Y-67713820D01*
X147151790Y-68490456D01*
X147146897Y-68497956D01*
X147140290Y-68500000D01*
X146659710Y-68500000D01*
X146651437Y-68496573D01*
X146648210Y-68490456D01*
X146503680Y-67719631D01*
X146503581Y-67715957D01*
X146504348Y-67710129D01*
X146508827Y-67702376D01*
X146515915Y-67699960D01*
X146899999Y-67699000D01*
X146901140Y-67699002D01*
G37*
%TD.AperFunction*%
%TD*%
%TA.AperFunction,Conductor*%
%TO.N,/USB_D+*%
G36*
X147819104Y-71463021D02*
G01*
X148471237Y-71909216D01*
X148476130Y-71916716D01*
X148474286Y-71925479D01*
X148472924Y-71927124D01*
X148200728Y-72200686D01*
X147927124Y-72472924D01*
X147918843Y-72476330D01*
X147910578Y-72472882D01*
X147909216Y-72471237D01*
X147463021Y-71819104D01*
X147461177Y-71810341D01*
X147464402Y-71804226D01*
X147804225Y-71464403D01*
X147812497Y-71460977D01*
X147819104Y-71463021D01*
G37*
%TD.AperFunction*%
%TD*%
%TA.AperFunction,Conductor*%
%TO.N,Net-(J4-CC1)*%
G36*
X143468044Y-72251253D02*
G01*
X143474206Y-72257239D01*
X143750747Y-72869928D01*
X143751027Y-72878878D01*
X143748356Y-72883014D01*
X143583014Y-73048356D01*
X143574741Y-73051783D01*
X143569928Y-73050747D01*
X142957239Y-72774206D01*
X142951108Y-72767679D01*
X142951232Y-72759090D01*
X143097437Y-72403802D01*
X143103753Y-72397457D01*
X143459090Y-72251232D01*
X143468044Y-72251253D01*
G37*
%TD.AperFunction*%
%TD*%
%TA.AperFunction,Conductor*%
%TO.N,Net-(J4-CC1)*%
G36*
X146730351Y-75852272D02*
G01*
X147273111Y-76308968D01*
X147277235Y-76316916D01*
X147274530Y-76325453D01*
X147273872Y-76326172D01*
X147004146Y-76597250D01*
X146995881Y-76600698D01*
X146995831Y-76600698D01*
X146610626Y-76600018D01*
X146602359Y-76596577D01*
X146598999Y-76589420D01*
X146545878Y-76027616D01*
X146548511Y-76019058D01*
X146549242Y-76018254D01*
X146714546Y-75852950D01*
X146722818Y-75849524D01*
X146730351Y-75852272D01*
G37*
%TD.AperFunction*%
%TD*%
%TA.AperFunction,Conductor*%
%TO.N,Net-(U1-VSENSE)*%
G36*
X143460822Y-42560933D02*
G01*
X143462045Y-42561991D01*
X143700707Y-42799293D01*
X143938003Y-43037949D01*
X143941406Y-43046230D01*
X143937955Y-43054494D01*
X143936726Y-43055557D01*
X143389920Y-43465662D01*
X143381245Y-43467884D01*
X143374627Y-43464575D01*
X143035424Y-43125372D01*
X143031997Y-43117099D01*
X143034336Y-43110080D01*
X143444443Y-42563271D01*
X143452147Y-42558711D01*
X143460822Y-42560933D01*
G37*
%TD.AperFunction*%
%TD*%
%TA.AperFunction,Conductor*%
%TO.N,Net-(U1-VSENSE)*%
G36*
X142848126Y-45478427D02*
G01*
X142851435Y-45485045D01*
X142948097Y-46161683D01*
X142945875Y-46170358D01*
X142938170Y-46174920D01*
X142936548Y-46175038D01*
X142600000Y-46175999D01*
X142263451Y-46175038D01*
X142255187Y-46171587D01*
X142251784Y-46163305D01*
X142251902Y-46161683D01*
X142348565Y-45485045D01*
X142353127Y-45477340D01*
X142360147Y-45475000D01*
X142839853Y-45475000D01*
X142848126Y-45478427D01*
G37*
%TD.AperFunction*%
%TD*%
M02*
