%TF.GenerationSoftware,KiCad,Pcbnew,8.0.2*%
%TF.CreationDate,2024-05-12T21:13:41+02:00*%
%TF.ProjectId,irrigation,69727269-6761-4746-996f-6e2e6b696361,0.3*%
%TF.SameCoordinates,Original*%
%TF.FileFunction,Paste,Top*%
%TF.FilePolarity,Positive*%
%FSLAX46Y46*%
G04 Gerber Fmt 4.6, Leading zero omitted, Abs format (unit mm)*
G04 Created by KiCad (PCBNEW 8.0.2) date 2024-05-12 21:13:41*
%MOMM*%
%LPD*%
G01*
G04 APERTURE LIST*
G04 Aperture macros list*
%AMRoundRect*
0 Rectangle with rounded corners*
0 $1 Rounding radius*
0 $2 $3 $4 $5 $6 $7 $8 $9 X,Y pos of 4 corners*
0 Add a 4 corners polygon primitive as box body*
4,1,4,$2,$3,$4,$5,$6,$7,$8,$9,$2,$3,0*
0 Add four circle primitives for the rounded corners*
1,1,$1+$1,$2,$3*
1,1,$1+$1,$4,$5*
1,1,$1+$1,$6,$7*
1,1,$1+$1,$8,$9*
0 Add four rect primitives between the rounded corners*
20,1,$1+$1,$2,$3,$4,$5,0*
20,1,$1+$1,$4,$5,$6,$7,0*
20,1,$1+$1,$6,$7,$8,$9,0*
20,1,$1+$1,$8,$9,$2,$3,0*%
G04 Aperture macros list end*
%ADD10C,0.000000*%
%ADD11RoundRect,0.250000X0.650000X-1.000000X0.650000X1.000000X-0.650000X1.000000X-0.650000X-1.000000X0*%
%ADD12RoundRect,0.200000X0.200000X0.275000X-0.200000X0.275000X-0.200000X-0.275000X0.200000X-0.275000X0*%
%ADD13RoundRect,0.200000X0.275000X-0.200000X0.275000X0.200000X-0.275000X0.200000X-0.275000X-0.200000X0*%
%ADD14R,7.000000X5.000000*%
%ADD15RoundRect,0.225000X-0.250000X0.225000X-0.250000X-0.225000X0.250000X-0.225000X0.250000X0.225000X0*%
%ADD16C,2.400000*%
%ADD17R,1.800000X1.800000*%
%ADD18C,1.800000*%
%ADD19RoundRect,0.250000X-0.550000X1.250000X-0.550000X-1.250000X0.550000X-1.250000X0.550000X1.250000X0*%
%ADD20RoundRect,0.218750X0.256250X-0.218750X0.256250X0.218750X-0.256250X0.218750X-0.256250X-0.218750X0*%
%ADD21RoundRect,0.225000X0.250000X-0.225000X0.250000X0.225000X-0.250000X0.225000X-0.250000X-0.225000X0*%
%ADD22R,1.300000X0.700000*%
%ADD23RoundRect,0.250000X0.300000X0.300000X-0.300000X0.300000X-0.300000X-0.300000X0.300000X-0.300000X0*%
%ADD24RoundRect,0.150000X-0.150000X0.512500X-0.150000X-0.512500X0.150000X-0.512500X0.150000X0.512500X0*%
%ADD25R,1.550000X0.600000*%
%ADD26R,2.600000X3.100000*%
%ADD27RoundRect,0.218750X-0.218750X-0.256250X0.218750X-0.256250X0.218750X0.256250X-0.218750X0.256250X0*%
%ADD28RoundRect,0.250000X-0.650000X0.325000X-0.650000X-0.325000X0.650000X-0.325000X0.650000X0.325000X0*%
%ADD29RoundRect,0.150000X-0.150000X0.825000X-0.150000X-0.825000X0.150000X-0.825000X0.150000X0.825000X0*%
%ADD30RoundRect,0.112500X0.187500X0.112500X-0.187500X0.112500X-0.187500X-0.112500X0.187500X-0.112500X0*%
%ADD31RoundRect,0.200000X-0.275000X0.200000X-0.275000X-0.200000X0.275000X-0.200000X0.275000X0.200000X0*%
%ADD32RoundRect,0.112500X-0.112500X0.187500X-0.112500X-0.187500X0.112500X-0.187500X0.112500X0.187500X0*%
%ADD33RoundRect,0.225000X-0.375000X0.225000X-0.375000X-0.225000X0.375000X-0.225000X0.375000X0.225000X0*%
%ADD34R,0.700000X1.300000*%
%ADD35RoundRect,0.250000X0.650000X-0.325000X0.650000X0.325000X-0.650000X0.325000X-0.650000X-0.325000X0*%
%ADD36RoundRect,0.200000X-0.200000X-0.275000X0.200000X-0.275000X0.200000X0.275000X-0.200000X0.275000X0*%
%ADD37RoundRect,0.250000X1.450000X-0.312500X1.450000X0.312500X-1.450000X0.312500X-1.450000X-0.312500X0*%
%ADD38RoundRect,0.250000X1.000000X0.650000X-1.000000X0.650000X-1.000000X-0.650000X1.000000X-0.650000X0*%
%ADD39O,1.200000X2.000000*%
%ADD40O,1.200000X1.800000*%
%ADD41R,0.300000X1.300000*%
%ADD42R,1.500000X2.000000*%
%ADD43R,3.800000X2.000000*%
%ADD44R,0.900000X1.500000*%
%ADD45R,0.700000X0.700000*%
%ADD46RoundRect,0.250000X-0.550000X1.500000X-0.550000X-1.500000X0.550000X-1.500000X0.550000X1.500000X0*%
G04 APERTURE END LIST*
D10*
%TO.C,J4*%
G36*
X145600000Y-75527500D02*
G01*
X145300000Y-75527500D01*
X145300000Y-74227500D01*
X145600000Y-74227500D01*
X145600000Y-75527500D01*
G37*
G36*
X146100000Y-75527500D02*
G01*
X145800000Y-75527500D01*
X145800000Y-74227500D01*
X146100000Y-74227500D01*
X146100000Y-75527500D01*
G37*
G36*
X146600000Y-75527500D02*
G01*
X146300000Y-75527500D01*
X146300000Y-74227500D01*
X146600000Y-74227500D01*
X146600000Y-75527500D01*
G37*
G36*
X147100000Y-75527500D02*
G01*
X146800000Y-75527500D01*
X146800000Y-74227500D01*
X147100000Y-74227500D01*
X147100000Y-75527500D01*
G37*
G36*
X147600000Y-75527500D02*
G01*
X147300000Y-75527500D01*
X147300000Y-74227500D01*
X147600000Y-74227500D01*
X147600000Y-75527500D01*
G37*
G36*
X148100000Y-75527500D02*
G01*
X147800000Y-75527500D01*
X147800000Y-74227500D01*
X148100000Y-74227500D01*
X148100000Y-75527500D01*
G37*
G36*
X148600000Y-75527500D02*
G01*
X148300000Y-75527500D01*
X148300000Y-74227500D01*
X148600000Y-74227500D01*
X148600000Y-75527500D01*
G37*
G36*
X149100000Y-75527500D02*
G01*
X148800000Y-75527500D01*
X148800000Y-74227500D01*
X149100000Y-74227500D01*
X149100000Y-75527500D01*
G37*
G36*
X144300000Y-75527500D02*
G01*
X144000000Y-75527500D01*
X143700000Y-75527500D01*
X143700000Y-74227500D01*
X144000000Y-74227500D01*
X144300000Y-74227500D01*
X144300000Y-75527500D01*
G37*
G36*
X145100000Y-75527500D02*
G01*
X144800000Y-75527500D01*
X144500000Y-75527500D01*
X144500000Y-74227500D01*
X144800000Y-74227500D01*
X145100000Y-74227500D01*
X145100000Y-75527500D01*
G37*
G36*
X149900000Y-75527500D02*
G01*
X149600000Y-75527500D01*
X149300000Y-75527500D01*
X149300000Y-74227500D01*
X149600000Y-74227500D01*
X149900000Y-74227500D01*
X149900000Y-75527500D01*
G37*
G36*
X150700000Y-75527500D02*
G01*
X150400000Y-75527500D01*
X150100000Y-75527500D01*
X150100000Y-74227500D01*
X150400000Y-74227500D01*
X150700000Y-74227500D01*
X150700000Y-75527500D01*
G37*
G36*
X142920000Y-78927500D02*
G01*
X142949000Y-78930500D01*
X142979000Y-78934500D01*
X143008000Y-78940500D01*
X143037000Y-78948500D01*
X143066000Y-78956500D01*
X143094000Y-78967500D01*
X143122000Y-78978500D01*
X143149000Y-78991500D01*
X143175000Y-79006500D01*
X143200000Y-79021500D01*
X143225000Y-79038500D01*
X143249000Y-79056500D01*
X143272000Y-79075500D01*
X143294000Y-79096500D01*
X143315000Y-79117500D01*
X143335000Y-79139500D01*
X143353000Y-79163500D01*
X143371000Y-79187500D01*
X143387000Y-79212500D01*
X143402000Y-79238500D01*
X143415000Y-79265500D01*
X143428000Y-79292500D01*
X143439000Y-79320500D01*
X143448000Y-79348500D01*
X143456000Y-79377500D01*
X143463000Y-79406500D01*
X143468000Y-79436500D01*
X143472000Y-79465500D01*
X143474000Y-79495500D01*
X143475000Y-79525500D01*
X143475000Y-80125500D01*
X143474000Y-80155500D01*
X143472000Y-80185500D01*
X143468000Y-80215500D01*
X143463000Y-80244500D01*
X143456000Y-80273500D01*
X143448000Y-80302500D01*
X143439000Y-80330500D01*
X143428000Y-80358500D01*
X143415000Y-80385500D01*
X143402000Y-80412500D01*
X143387000Y-80438500D01*
X143371000Y-80463500D01*
X143353000Y-80487500D01*
X143335000Y-80511500D01*
X143315000Y-80533500D01*
X143294000Y-80555500D01*
X143272000Y-80575500D01*
X143249000Y-80594500D01*
X143225000Y-80612500D01*
X143200000Y-80629500D01*
X143175000Y-80645500D01*
X143149000Y-80659500D01*
X143122000Y-80672500D01*
X143094000Y-80684500D01*
X143066000Y-80694500D01*
X143037000Y-80703500D01*
X143008000Y-80710500D01*
X142979000Y-80716500D01*
X142949000Y-80720500D01*
X142920000Y-80723500D01*
X142890000Y-80725500D01*
X142860000Y-80725500D01*
X142830000Y-80723500D01*
X142800000Y-80720500D01*
X142771000Y-80716500D01*
X142741000Y-80710500D01*
X142712000Y-80703500D01*
X142684000Y-80694500D01*
X142656000Y-80684500D01*
X142628000Y-80672500D01*
X142601000Y-80659500D01*
X142575000Y-80645500D01*
X142549000Y-80629500D01*
X142525000Y-80612500D01*
X142501000Y-80594500D01*
X142478000Y-80575500D01*
X142456000Y-80555500D01*
X142435000Y-80533500D01*
X142415000Y-80511500D01*
X142397000Y-80487500D01*
X142379000Y-80463500D01*
X142363000Y-80438500D01*
X142348000Y-80412500D01*
X142334000Y-80385500D01*
X142322000Y-80358500D01*
X142311000Y-80330500D01*
X142302000Y-80302500D01*
X142293000Y-80273500D01*
X142287000Y-80244500D01*
X142282000Y-80215500D01*
X142278000Y-80185500D01*
X142276000Y-80155500D01*
X142275000Y-80125500D01*
X142275000Y-79525500D01*
X142276000Y-79495500D01*
X142278000Y-79465500D01*
X142282000Y-79436500D01*
X142287000Y-79406500D01*
X142293000Y-79377500D01*
X142302000Y-79348500D01*
X142311000Y-79320500D01*
X142322000Y-79292500D01*
X142334000Y-79265500D01*
X142348000Y-79238500D01*
X142363000Y-79212500D01*
X142379000Y-79187500D01*
X142397000Y-79163500D01*
X142415000Y-79139500D01*
X142435000Y-79117500D01*
X142456000Y-79096500D01*
X142478000Y-79075500D01*
X142501000Y-79056500D01*
X142525000Y-79038500D01*
X142549000Y-79021500D01*
X142575000Y-79006500D01*
X142601000Y-78991500D01*
X142628000Y-78978500D01*
X142656000Y-78967500D01*
X142684000Y-78956500D01*
X142712000Y-78948500D01*
X142741000Y-78940500D01*
X142771000Y-78934500D01*
X142800000Y-78930500D01*
X142830000Y-78927500D01*
X142860000Y-78925500D01*
X142890000Y-78925500D01*
X142920000Y-78927500D01*
G37*
G36*
X142920000Y-74647500D02*
G01*
X142949000Y-74650500D01*
X142979000Y-74654500D01*
X143008000Y-74660500D01*
X143037000Y-74668500D01*
X143066000Y-74676500D01*
X143094000Y-74687500D01*
X143122000Y-74698500D01*
X143149000Y-74711500D01*
X143175000Y-74726500D01*
X143200000Y-74741500D01*
X143225000Y-74758500D01*
X143249000Y-74776500D01*
X143272000Y-74795500D01*
X143294000Y-74816500D01*
X143315000Y-74837500D01*
X143335000Y-74860500D01*
X143353000Y-74883500D01*
X143371000Y-74907500D01*
X143387000Y-74932500D01*
X143402000Y-74958500D01*
X143415000Y-74985500D01*
X143428000Y-75012500D01*
X143439000Y-75040500D01*
X143448000Y-75068500D01*
X143456000Y-75097500D01*
X143463000Y-75126500D01*
X143468000Y-75156500D01*
X143472000Y-75185500D01*
X143474000Y-75215500D01*
X143475000Y-75245500D01*
X143475000Y-76045500D01*
X143474000Y-76075500D01*
X143472000Y-76105500D01*
X143468000Y-76135500D01*
X143463000Y-76164500D01*
X143456000Y-76193500D01*
X143448000Y-76222500D01*
X143439000Y-76250500D01*
X143428000Y-76278500D01*
X143415000Y-76306500D01*
X143402000Y-76332500D01*
X143387000Y-76358500D01*
X143371000Y-76383500D01*
X143353000Y-76407500D01*
X143335000Y-76431500D01*
X143315000Y-76453500D01*
X143294000Y-76475500D01*
X143272000Y-76495500D01*
X143249000Y-76514500D01*
X143225000Y-76532500D01*
X143200000Y-76549500D01*
X143175000Y-76565500D01*
X143149000Y-76579500D01*
X143122000Y-76592500D01*
X143094000Y-76604500D01*
X143066000Y-76614500D01*
X143037000Y-76623500D01*
X143008000Y-76630500D01*
X142979000Y-76636500D01*
X142949000Y-76641500D01*
X142920000Y-76644500D01*
X142890000Y-76645500D01*
X142860000Y-76645500D01*
X142830000Y-76644500D01*
X142800000Y-76641500D01*
X142771000Y-76636500D01*
X142741000Y-76630500D01*
X142712000Y-76623500D01*
X142684000Y-76614500D01*
X142656000Y-76604500D01*
X142628000Y-76592500D01*
X142601000Y-76579500D01*
X142575000Y-76565500D01*
X142549000Y-76549500D01*
X142525000Y-76532500D01*
X142501000Y-76514500D01*
X142478000Y-76495500D01*
X142456000Y-76475500D01*
X142435000Y-76453500D01*
X142415000Y-76431500D01*
X142397000Y-76407500D01*
X142379000Y-76383500D01*
X142363000Y-76358500D01*
X142348000Y-76332500D01*
X142334000Y-76306500D01*
X142322000Y-76278500D01*
X142311000Y-76250500D01*
X142302000Y-76222500D01*
X142293000Y-76193500D01*
X142287000Y-76164500D01*
X142282000Y-76135500D01*
X142278000Y-76105500D01*
X142276000Y-76075500D01*
X142275000Y-76045500D01*
X142275000Y-75245500D01*
X142276000Y-75215500D01*
X142278000Y-75185500D01*
X142282000Y-75156500D01*
X142287000Y-75126500D01*
X142293000Y-75097500D01*
X142302000Y-75068500D01*
X142311000Y-75040500D01*
X142322000Y-75012500D01*
X142334000Y-74985500D01*
X142348000Y-74958500D01*
X142363000Y-74932500D01*
X142379000Y-74907500D01*
X142397000Y-74883500D01*
X142415000Y-74860500D01*
X142435000Y-74837500D01*
X142456000Y-74816500D01*
X142478000Y-74795500D01*
X142501000Y-74776500D01*
X142525000Y-74758500D01*
X142549000Y-74741500D01*
X142575000Y-74726500D01*
X142601000Y-74711500D01*
X142628000Y-74698500D01*
X142656000Y-74687500D01*
X142684000Y-74676500D01*
X142712000Y-74668500D01*
X142741000Y-74660500D01*
X142771000Y-74654500D01*
X142800000Y-74650500D01*
X142830000Y-74647500D01*
X142860000Y-74645500D01*
X142890000Y-74645500D01*
X142920000Y-74647500D01*
G37*
G36*
X151570000Y-74647500D02*
G01*
X151600000Y-74650500D01*
X151629000Y-74654500D01*
X151659000Y-74660500D01*
X151688000Y-74668500D01*
X151716000Y-74676500D01*
X151744000Y-74687500D01*
X151772000Y-74698500D01*
X151799000Y-74711500D01*
X151825000Y-74726500D01*
X151851000Y-74741500D01*
X151875000Y-74758500D01*
X151899000Y-74776500D01*
X151922000Y-74795500D01*
X151944000Y-74816500D01*
X151965000Y-74837500D01*
X151985000Y-74860500D01*
X152003000Y-74883500D01*
X152021000Y-74907500D01*
X152037000Y-74932500D01*
X152052000Y-74958500D01*
X152066000Y-74985500D01*
X152078000Y-75012500D01*
X152089000Y-75040500D01*
X152098000Y-75068500D01*
X152107000Y-75097500D01*
X152113000Y-75126500D01*
X152118000Y-75156500D01*
X152122000Y-75185500D01*
X152124000Y-75215500D01*
X152125000Y-75245500D01*
X152125000Y-76045500D01*
X152124000Y-76075500D01*
X152122000Y-76105500D01*
X152118000Y-76135500D01*
X152113000Y-76164500D01*
X152107000Y-76193500D01*
X152098000Y-76222500D01*
X152089000Y-76250500D01*
X152078000Y-76278500D01*
X152066000Y-76306500D01*
X152052000Y-76332500D01*
X152037000Y-76358500D01*
X152021000Y-76383500D01*
X152003000Y-76407500D01*
X151985000Y-76431500D01*
X151965000Y-76453500D01*
X151944000Y-76475500D01*
X151922000Y-76495500D01*
X151899000Y-76514500D01*
X151875000Y-76532500D01*
X151851000Y-76549500D01*
X151825000Y-76565500D01*
X151799000Y-76579500D01*
X151772000Y-76592500D01*
X151744000Y-76604500D01*
X151716000Y-76614500D01*
X151688000Y-76623500D01*
X151659000Y-76630500D01*
X151629000Y-76636500D01*
X151600000Y-76641500D01*
X151570000Y-76644500D01*
X151540000Y-76645500D01*
X151510000Y-76645500D01*
X151480000Y-76644500D01*
X151451000Y-76641500D01*
X151421000Y-76636500D01*
X151392000Y-76630500D01*
X151363000Y-76623500D01*
X151334000Y-76614500D01*
X151306000Y-76604500D01*
X151278000Y-76592500D01*
X151251000Y-76579500D01*
X151225000Y-76565500D01*
X151200000Y-76549500D01*
X151175000Y-76532500D01*
X151151000Y-76514500D01*
X151128000Y-76495500D01*
X151106000Y-76475500D01*
X151085000Y-76453500D01*
X151065000Y-76431500D01*
X151047000Y-76407500D01*
X151029000Y-76383500D01*
X151013000Y-76358500D01*
X150998000Y-76332500D01*
X150985000Y-76306500D01*
X150972000Y-76278500D01*
X150961000Y-76250500D01*
X150952000Y-76222500D01*
X150944000Y-76193500D01*
X150937000Y-76164500D01*
X150932000Y-76135500D01*
X150928000Y-76105500D01*
X150926000Y-76075500D01*
X150925000Y-76045500D01*
X150925000Y-75245500D01*
X150926000Y-75215500D01*
X150928000Y-75185500D01*
X150932000Y-75156500D01*
X150937000Y-75126500D01*
X150944000Y-75097500D01*
X150952000Y-75068500D01*
X150961000Y-75040500D01*
X150972000Y-75012500D01*
X150985000Y-74985500D01*
X150998000Y-74958500D01*
X151013000Y-74932500D01*
X151029000Y-74907500D01*
X151047000Y-74883500D01*
X151065000Y-74860500D01*
X151085000Y-74837500D01*
X151106000Y-74816500D01*
X151128000Y-74795500D01*
X151151000Y-74776500D01*
X151175000Y-74758500D01*
X151200000Y-74741500D01*
X151225000Y-74726500D01*
X151251000Y-74711500D01*
X151278000Y-74698500D01*
X151306000Y-74687500D01*
X151334000Y-74676500D01*
X151363000Y-74668500D01*
X151392000Y-74660500D01*
X151421000Y-74654500D01*
X151451000Y-74650500D01*
X151480000Y-74647500D01*
X151510000Y-74645500D01*
X151540000Y-74645500D01*
X151570000Y-74647500D01*
G37*
G36*
X151570000Y-78927500D02*
G01*
X151600000Y-78930500D01*
X151629000Y-78934500D01*
X151659000Y-78940500D01*
X151688000Y-78948500D01*
X151716000Y-78956500D01*
X151744000Y-78967500D01*
X151772000Y-78978500D01*
X151799000Y-78991500D01*
X151825000Y-79006500D01*
X151851000Y-79021500D01*
X151875000Y-79038500D01*
X151899000Y-79056500D01*
X151922000Y-79075500D01*
X151944000Y-79096500D01*
X151965000Y-79117500D01*
X151985000Y-79139500D01*
X152003000Y-79163500D01*
X152021000Y-79187500D01*
X152037000Y-79212500D01*
X152052000Y-79238500D01*
X152066000Y-79265500D01*
X152078000Y-79292500D01*
X152089000Y-79320500D01*
X152098000Y-79348500D01*
X152107000Y-79377500D01*
X152113000Y-79406500D01*
X152118000Y-79436500D01*
X152122000Y-79465500D01*
X152124000Y-79495500D01*
X152125000Y-79525500D01*
X152125000Y-80125500D01*
X152124000Y-80155500D01*
X152122000Y-80185500D01*
X152118000Y-80215500D01*
X152113000Y-80244500D01*
X152107000Y-80273500D01*
X152098000Y-80302500D01*
X152089000Y-80330500D01*
X152078000Y-80358500D01*
X152066000Y-80385500D01*
X152052000Y-80412500D01*
X152037000Y-80438500D01*
X152021000Y-80463500D01*
X152003000Y-80487500D01*
X151985000Y-80511500D01*
X151965000Y-80533500D01*
X151944000Y-80555500D01*
X151922000Y-80575500D01*
X151899000Y-80594500D01*
X151875000Y-80612500D01*
X151851000Y-80629500D01*
X151825000Y-80645500D01*
X151799000Y-80659500D01*
X151772000Y-80672500D01*
X151744000Y-80684500D01*
X151716000Y-80694500D01*
X151688000Y-80703500D01*
X151659000Y-80710500D01*
X151629000Y-80716500D01*
X151600000Y-80720500D01*
X151570000Y-80723500D01*
X151540000Y-80725500D01*
X151510000Y-80725500D01*
X151480000Y-80723500D01*
X151451000Y-80720500D01*
X151421000Y-80716500D01*
X151392000Y-80710500D01*
X151363000Y-80703500D01*
X151334000Y-80694500D01*
X151306000Y-80684500D01*
X151278000Y-80672500D01*
X151251000Y-80659500D01*
X151225000Y-80645500D01*
X151200000Y-80629500D01*
X151175000Y-80612500D01*
X151151000Y-80594500D01*
X151128000Y-80575500D01*
X151106000Y-80555500D01*
X151085000Y-80533500D01*
X151065000Y-80511500D01*
X151047000Y-80487500D01*
X151029000Y-80463500D01*
X151013000Y-80438500D01*
X150998000Y-80412500D01*
X150985000Y-80385500D01*
X150972000Y-80358500D01*
X150961000Y-80330500D01*
X150952000Y-80302500D01*
X150944000Y-80273500D01*
X150937000Y-80244500D01*
X150932000Y-80215500D01*
X150928000Y-80185500D01*
X150926000Y-80155500D01*
X150925000Y-80125500D01*
X150925000Y-79525500D01*
X150926000Y-79495500D01*
X150928000Y-79465500D01*
X150932000Y-79436500D01*
X150937000Y-79406500D01*
X150944000Y-79377500D01*
X150952000Y-79348500D01*
X150961000Y-79320500D01*
X150972000Y-79292500D01*
X150985000Y-79265500D01*
X150998000Y-79238500D01*
X151013000Y-79212500D01*
X151029000Y-79187500D01*
X151047000Y-79163500D01*
X151065000Y-79139500D01*
X151085000Y-79117500D01*
X151106000Y-79096500D01*
X151128000Y-79075500D01*
X151151000Y-79056500D01*
X151175000Y-79038500D01*
X151200000Y-79021500D01*
X151225000Y-79006500D01*
X151251000Y-78991500D01*
X151278000Y-78978500D01*
X151306000Y-78967500D01*
X151334000Y-78956500D01*
X151363000Y-78948500D01*
X151392000Y-78940500D01*
X151421000Y-78934500D01*
X151451000Y-78930500D01*
X151480000Y-78927500D01*
X151510000Y-78925500D01*
X151540000Y-78925500D01*
X151570000Y-78927500D01*
G37*
%TD*%
D11*
%TO.C,D3*%
X135750000Y-41500000D03*
X135750000Y-37500000D03*
%TD*%
D12*
%TO.C,R15*%
X143100000Y-72400000D03*
X141450000Y-72400000D03*
%TD*%
D13*
%TO.C,R4*%
X115395000Y-56700000D03*
X115395000Y-55050000D03*
%TD*%
D14*
%TO.C,L1*%
X160500000Y-37900000D03*
X160500000Y-49500000D03*
%TD*%
D15*
%TO.C,C6*%
X159850000Y-57475000D03*
X159850000Y-59025000D03*
%TD*%
D13*
%TO.C,R1*%
X142600000Y-47800000D03*
X142600000Y-46150000D03*
%TD*%
%TO.C,R9*%
X141100000Y-59950000D03*
X141100000Y-58300000D03*
%TD*%
D16*
%TO.C,J1*%
X114459000Y-39900000D03*
X119539000Y-39900000D03*
%TD*%
D13*
%TO.C,R10*%
X115395000Y-61100000D03*
X115395000Y-59450000D03*
%TD*%
D17*
%TO.C,J5*%
X138270000Y-78000000D03*
D18*
X135730000Y-78000000D03*
%TD*%
D13*
%TO.C,R6*%
X133700000Y-56825000D03*
X133700000Y-55175000D03*
%TD*%
D19*
%TO.C,C4*%
X137700000Y-49900000D03*
X137700000Y-54300000D03*
%TD*%
D20*
%TO.C,D7*%
X131700000Y-56800000D03*
X131700000Y-55225000D03*
%TD*%
D21*
%TO.C,C7*%
X163400000Y-59000000D03*
X163400000Y-57450000D03*
%TD*%
D22*
%TO.C,SW2*%
X143400000Y-59950000D03*
X147900000Y-59950000D03*
X143400000Y-62100000D03*
X147900000Y-62100000D03*
%TD*%
D23*
%TO.C,D1*%
X151500000Y-36800000D03*
X148700000Y-36800000D03*
%TD*%
D21*
%TO.C,C9*%
X167500000Y-59000000D03*
X167500000Y-57450000D03*
%TD*%
D24*
%TO.C,U3*%
X146900000Y-67725000D03*
X145950000Y-67725000D03*
X145000000Y-67725000D03*
X145000000Y-70000000D03*
X145950000Y-70000000D03*
X146900000Y-70000000D03*
%TD*%
D13*
%TO.C,R11*%
X124000000Y-61200000D03*
X124000000Y-59550000D03*
%TD*%
D25*
%TO.C,U1*%
X143700000Y-39045000D03*
X143700000Y-40315000D03*
X143700000Y-41585000D03*
X143700000Y-42855000D03*
X149100000Y-42855000D03*
X149100000Y-41585000D03*
X149100000Y-40315000D03*
X149100000Y-39045000D03*
D26*
X146400000Y-40950000D03*
%TD*%
D27*
%TO.C,D6*%
X115425000Y-52600000D03*
X117000000Y-52600000D03*
%TD*%
D16*
%TO.C,J3*%
X129700000Y-76200000D03*
X124620000Y-76200000D03*
%TD*%
%TO.C,J2*%
X118740000Y-76200000D03*
X113660000Y-76200000D03*
%TD*%
D28*
%TO.C,C3*%
X121850000Y-47050000D03*
X121850000Y-50000000D03*
%TD*%
D21*
%TO.C,C8*%
X165730000Y-59000000D03*
X165730000Y-57450000D03*
%TD*%
D29*
%TO.C,Q1*%
X121105000Y-55625000D03*
X119835000Y-55625000D03*
X118565000Y-55625000D03*
X117295000Y-55625000D03*
X117295000Y-60575000D03*
X118565000Y-60575000D03*
X119835000Y-60575000D03*
X121105000Y-60575000D03*
%TD*%
%TO.C,Q2*%
X129725000Y-55725000D03*
X128455000Y-55725000D03*
X127185000Y-55725000D03*
X125915000Y-55725000D03*
X125915000Y-60675000D03*
X127185000Y-60675000D03*
X128455000Y-60675000D03*
X129725000Y-60675000D03*
%TD*%
D30*
%TO.C,D5*%
X143650000Y-50500000D03*
X141550000Y-50500000D03*
%TD*%
D31*
%TO.C,R8*%
X161650000Y-57425000D03*
X161650000Y-59075000D03*
%TD*%
D12*
%TO.C,R14*%
X152925000Y-69800000D03*
X151275000Y-69800000D03*
%TD*%
D32*
%TO.C,D10*%
X139850000Y-67450000D03*
X139850000Y-69550000D03*
%TD*%
D12*
%TO.C,R12*%
X152925000Y-68050000D03*
X151275000Y-68050000D03*
%TD*%
D33*
%TO.C,D4*%
X132150000Y-47550000D03*
X132150000Y-50850000D03*
%TD*%
D34*
%TO.C,SW1*%
X155750000Y-59600000D03*
X155750000Y-55100000D03*
X157900000Y-59600000D03*
X157900000Y-55100000D03*
%TD*%
D35*
%TO.C,C2*%
X140250000Y-41225000D03*
X140250000Y-38275000D03*
%TD*%
D36*
%TO.C,R16*%
X151250000Y-72400000D03*
X152900000Y-72400000D03*
%TD*%
D13*
%TO.C,R2*%
X144600000Y-47800000D03*
X144600000Y-46150000D03*
%TD*%
D37*
%TO.C,F1*%
X125750000Y-41637500D03*
X125750000Y-37362500D03*
%TD*%
D12*
%TO.C,R3*%
X121150000Y-52600000D03*
X119500000Y-52600000D03*
%TD*%
D11*
%TO.C,D2*%
X130500000Y-41500000D03*
X130500000Y-37500000D03*
%TD*%
D13*
%TO.C,R5*%
X124000000Y-56800000D03*
X124000000Y-55150000D03*
%TD*%
D31*
%TO.C,R7*%
X153150000Y-57425000D03*
X153150000Y-59075000D03*
%TD*%
D21*
%TO.C,C1*%
X143700000Y-37150000D03*
X143700000Y-35600000D03*
%TD*%
D38*
%TO.C,D8*%
X120400000Y-65500000D03*
X116400000Y-65500000D03*
%TD*%
D39*
%TO.C,J4*%
X142875000Y-75645500D03*
X151525000Y-75645500D03*
D40*
X151525000Y-79825500D03*
X142875000Y-79825500D03*
D41*
X143850000Y-74877500D03*
X144650000Y-74877500D03*
X145950000Y-74877500D03*
X146950000Y-74877500D03*
X147450000Y-74877500D03*
X148450000Y-74877500D03*
X149750000Y-74877500D03*
X150550000Y-74877500D03*
X150250000Y-74877500D03*
X149450000Y-74877500D03*
X148950000Y-74877500D03*
X147950000Y-74877500D03*
X146450000Y-74877500D03*
X145450000Y-74877500D03*
X144950000Y-74877500D03*
X144150000Y-74877500D03*
%TD*%
D42*
%TO.C,U2*%
X129300000Y-46050000D03*
X127000000Y-46050000D03*
D43*
X127000000Y-52350000D03*
D42*
X124700000Y-46050000D03*
%TD*%
D13*
%TO.C,R13*%
X137600000Y-69450000D03*
X137600000Y-67800000D03*
%TD*%
D38*
%TO.C,D9*%
X130000000Y-65500000D03*
X126000000Y-65500000D03*
%TD*%
D44*
%TO.C,U4*%
X167250000Y-62500000D03*
X165750000Y-62500000D03*
X164250000Y-62500000D03*
X162750000Y-62500000D03*
X161250000Y-62500000D03*
X159750000Y-62500000D03*
X158250000Y-62500000D03*
X156750000Y-62500000D03*
X155250000Y-62500000D03*
X155250000Y-80000000D03*
X156750000Y-80000000D03*
X158250000Y-80000000D03*
X159750000Y-80000000D03*
X161250000Y-80000000D03*
X162750000Y-80000000D03*
X164250000Y-80000000D03*
X165750000Y-80000000D03*
X167250000Y-80000000D03*
D45*
X162150000Y-71110000D03*
X161050000Y-71110000D03*
X159950000Y-71110000D03*
X162150000Y-72160000D03*
X161050000Y-72160000D03*
X159950000Y-72160000D03*
X162150000Y-73310000D03*
X161050000Y-73310000D03*
X159950000Y-73310000D03*
%TD*%
D46*
%TO.C,C5*%
X148600000Y-49400000D03*
X148600000Y-54800000D03*
%TD*%
M02*
