%TF.GenerationSoftware,KiCad,Pcbnew,7.99.0-1092-g932f171e96*%
%TF.CreationDate,2023-06-27T00:36:35+02:00*%
%TF.ProjectId,irrigation,69727269-6761-4746-996f-6e2e6b696361,0.2*%
%TF.SameCoordinates,Original*%
%TF.FileFunction,Soldermask,Top*%
%TF.FilePolarity,Negative*%
%FSLAX46Y46*%
G04 Gerber Fmt 4.6, Leading zero omitted, Abs format (unit mm)*
G04 Created by KiCad (PCBNEW 7.99.0-1092-g932f171e96) date 2023-06-27 00:36:35*
%MOMM*%
%LPD*%
G01*
G04 APERTURE LIST*
G04 Aperture macros list*
%AMRoundRect*
0 Rectangle with rounded corners*
0 $1 Rounding radius*
0 $2 $3 $4 $5 $6 $7 $8 $9 X,Y pos of 4 corners*
0 Add a 4 corners polygon primitive as box body*
4,1,4,$2,$3,$4,$5,$6,$7,$8,$9,$2,$3,0*
0 Add four circle primitives for the rounded corners*
1,1,$1+$1,$2,$3*
1,1,$1+$1,$4,$5*
1,1,$1+$1,$6,$7*
1,1,$1+$1,$8,$9*
0 Add four rect primitives between the rounded corners*
20,1,$1+$1,$2,$3,$4,$5,0*
20,1,$1+$1,$4,$5,$6,$7,0*
20,1,$1+$1,$6,$7,$8,$9,0*
20,1,$1+$1,$8,$9,$2,$3,0*%
G04 Aperture macros list end*
%ADD10RoundRect,0.200000X0.200000X0.275000X-0.200000X0.275000X-0.200000X-0.275000X0.200000X-0.275000X0*%
%ADD11RoundRect,0.200000X0.275000X-0.200000X0.275000X0.200000X-0.275000X0.200000X-0.275000X-0.200000X0*%
%ADD12RoundRect,0.218750X0.256250X-0.218750X0.256250X0.218750X-0.256250X0.218750X-0.256250X-0.218750X0*%
%ADD13RoundRect,0.218750X-0.218750X-0.256250X0.218750X-0.256250X0.218750X0.256250X-0.218750X0.256250X0*%
%ADD14C,2.400000*%
%ADD15R,1.300000X0.700000*%
%ADD16R,0.700000X1.300000*%
%ADD17R,1.800000X1.800000*%
%ADD18C,1.800000*%
%ADD19C,0.750000*%
%ADD20O,1.200000X2.000000*%
%ADD21O,1.200000X1.800000*%
%ADD22R,0.300000X1.300000*%
%ADD23R,7.000000X5.000000*%
%ADD24R,0.900000X1.500000*%
%ADD25R,0.700000X0.700000*%
%ADD26RoundRect,0.250000X-0.550000X1.500000X-0.550000X-1.500000X0.550000X-1.500000X0.550000X1.500000X0*%
%ADD27RoundRect,0.250000X0.650000X-1.000000X0.650000X1.000000X-0.650000X1.000000X-0.650000X-1.000000X0*%
%ADD28RoundRect,0.225000X-0.250000X0.225000X-0.250000X-0.225000X0.250000X-0.225000X0.250000X0.225000X0*%
%ADD29RoundRect,0.250000X-0.550000X1.250000X-0.550000X-1.250000X0.550000X-1.250000X0.550000X1.250000X0*%
%ADD30RoundRect,0.225000X0.250000X-0.225000X0.250000X0.225000X-0.250000X0.225000X-0.250000X-0.225000X0*%
%ADD31RoundRect,0.250000X0.300000X0.300000X-0.300000X0.300000X-0.300000X-0.300000X0.300000X-0.300000X0*%
%ADD32RoundRect,0.150000X-0.150000X0.512500X-0.150000X-0.512500X0.150000X-0.512500X0.150000X0.512500X0*%
%ADD33R,1.550000X0.600000*%
%ADD34R,2.600000X3.100000*%
%ADD35RoundRect,0.250000X-0.650000X0.325000X-0.650000X-0.325000X0.650000X-0.325000X0.650000X0.325000X0*%
%ADD36RoundRect,0.150000X-0.150000X0.825000X-0.150000X-0.825000X0.150000X-0.825000X0.150000X0.825000X0*%
%ADD37RoundRect,0.112500X0.187500X0.112500X-0.187500X0.112500X-0.187500X-0.112500X0.187500X-0.112500X0*%
%ADD38RoundRect,0.200000X-0.275000X0.200000X-0.275000X-0.200000X0.275000X-0.200000X0.275000X0.200000X0*%
%ADD39RoundRect,0.112500X-0.112500X0.187500X-0.112500X-0.187500X0.112500X-0.187500X0.112500X0.187500X0*%
%ADD40RoundRect,0.225000X-0.375000X0.225000X-0.375000X-0.225000X0.375000X-0.225000X0.375000X0.225000X0*%
%ADD41RoundRect,0.250000X0.650000X-0.325000X0.650000X0.325000X-0.650000X0.325000X-0.650000X-0.325000X0*%
%ADD42RoundRect,0.200000X-0.200000X-0.275000X0.200000X-0.275000X0.200000X0.275000X-0.200000X0.275000X0*%
%ADD43RoundRect,0.250000X1.450000X-0.312500X1.450000X0.312500X-1.450000X0.312500X-1.450000X-0.312500X0*%
%ADD44RoundRect,0.250000X1.000000X0.650000X-1.000000X0.650000X-1.000000X-0.650000X1.000000X-0.650000X0*%
%ADD45R,1.500000X2.000000*%
%ADD46R,3.800000X2.000000*%
G04 APERTURE END LIST*
D10*
%TO.C,R3*%
X121150000Y-52600000D03*
X119500000Y-52600000D03*
%TD*%
D11*
%TO.C,R6*%
X133700000Y-56825000D03*
X133700000Y-55175000D03*
%TD*%
D12*
%TO.C,D7*%
X131700000Y-56800000D03*
X131700000Y-55225000D03*
%TD*%
D13*
%TO.C,D6*%
X117000000Y-52600000D03*
X115425000Y-52600000D03*
%TD*%
D11*
%TO.C,R9*%
X141100000Y-59950000D03*
X141100000Y-58300000D03*
%TD*%
D14*
%TO.C,J3*%
X129700000Y-76200000D03*
X124620000Y-76200000D03*
%TD*%
%TO.C,J2*%
X118740000Y-76200000D03*
X113660000Y-76200000D03*
%TD*%
%TO.C,J1*%
X119539000Y-39900000D03*
X114459000Y-39900000D03*
%TD*%
D15*
%TO.C,SW2*%
X143400000Y-59950000D03*
X147900000Y-59950000D03*
X143400000Y-62100000D03*
X147900000Y-62100000D03*
%TD*%
D16*
%TO.C,SW1*%
X155750000Y-59600000D03*
X155750000Y-55100000D03*
X157900000Y-59600000D03*
X157900000Y-55100000D03*
%TD*%
D17*
%TO.C,J5*%
X138270000Y-78000000D03*
D18*
X135730000Y-78000000D03*
%TD*%
D19*
%TO.C,J4*%
X144300000Y-76145500D03*
X150100000Y-76145500D03*
D20*
X142875000Y-75645500D03*
X151525000Y-75645500D03*
D21*
X151525000Y-79825500D03*
X142875000Y-79825500D03*
D22*
X143850000Y-74877500D03*
X144650000Y-74877500D03*
X145950000Y-74877500D03*
X146950000Y-74877500D03*
X147450000Y-74877500D03*
X148450000Y-74877500D03*
X149750000Y-74877500D03*
X150550000Y-74877500D03*
X150250000Y-74877500D03*
X149450000Y-74877500D03*
X148950000Y-74877500D03*
X147950000Y-74877500D03*
X146450000Y-74877500D03*
X145450000Y-74877500D03*
X144950000Y-74877500D03*
X144150000Y-74877500D03*
%TD*%
D23*
%TO.C,L1*%
X160500000Y-37900000D03*
X160500000Y-49500000D03*
%TD*%
D24*
%TO.C,U4*%
X167250000Y-62500000D03*
X165750000Y-62500000D03*
X164250000Y-62500000D03*
X162750000Y-62500000D03*
X161250000Y-62500000D03*
X159750000Y-62500000D03*
X158250000Y-62500000D03*
X156750000Y-62500000D03*
X155250000Y-62500000D03*
X155250000Y-80000000D03*
X156750000Y-80000000D03*
X158250000Y-80000000D03*
X159750000Y-80000000D03*
X161250000Y-80000000D03*
X162750000Y-80000000D03*
X164250000Y-80000000D03*
X165750000Y-80000000D03*
X167250000Y-80000000D03*
D25*
X162150000Y-71110000D03*
X161050000Y-71110000D03*
X159950000Y-71110000D03*
X162150000Y-72160000D03*
X161050000Y-72160000D03*
X159950000Y-72160000D03*
X162150000Y-73310000D03*
X161050000Y-73310000D03*
X159950000Y-73310000D03*
%TD*%
D26*
%TO.C,C5*%
X148600000Y-49400000D03*
X148600000Y-54800000D03*
%TD*%
D11*
%TO.C,R5*%
X124000000Y-56800000D03*
X124000000Y-55150000D03*
%TD*%
%TO.C,R4*%
X115395000Y-56700000D03*
X115395000Y-55050000D03*
%TD*%
D27*
%TO.C,D3*%
X135750000Y-41500000D03*
X135750000Y-37500000D03*
%TD*%
D10*
%TO.C,R15*%
X143100000Y-72400000D03*
X141450000Y-72400000D03*
%TD*%
D28*
%TO.C,C6*%
X159850000Y-57475000D03*
X159850000Y-59025000D03*
%TD*%
D11*
%TO.C,R1*%
X142600000Y-47800000D03*
X142600000Y-46150000D03*
%TD*%
%TO.C,R10*%
X115395000Y-61100000D03*
X115395000Y-59450000D03*
%TD*%
D29*
%TO.C,C4*%
X137700000Y-49900000D03*
X137700000Y-54300000D03*
%TD*%
D30*
%TO.C,C7*%
X163400000Y-59000000D03*
X163400000Y-57450000D03*
%TD*%
D31*
%TO.C,D1*%
X151500000Y-36800000D03*
X148700000Y-36800000D03*
%TD*%
D30*
%TO.C,C9*%
X167500000Y-59000000D03*
X167500000Y-57450000D03*
%TD*%
D32*
%TO.C,U3*%
X146900000Y-67725000D03*
X145950000Y-67725000D03*
X145000000Y-67725000D03*
X145000000Y-70000000D03*
X145950000Y-70000000D03*
X146900000Y-70000000D03*
%TD*%
D11*
%TO.C,R11*%
X124000000Y-61200000D03*
X124000000Y-59550000D03*
%TD*%
D33*
%TO.C,U1*%
X143700000Y-39045000D03*
X143700000Y-40315000D03*
X143700000Y-41585000D03*
X143700000Y-42855000D03*
X149100000Y-42855000D03*
X149100000Y-41585000D03*
X149100000Y-40315000D03*
X149100000Y-39045000D03*
D34*
X146400000Y-40950000D03*
%TD*%
D35*
%TO.C,C3*%
X121850000Y-47050000D03*
X121850000Y-50000000D03*
%TD*%
D30*
%TO.C,C8*%
X165730000Y-59000000D03*
X165730000Y-57450000D03*
%TD*%
D36*
%TO.C,Q1*%
X121105000Y-60575000D03*
X119835000Y-60575000D03*
X118565000Y-60575000D03*
X117295000Y-60575000D03*
X117295000Y-55625000D03*
X118565000Y-55625000D03*
X119835000Y-55625000D03*
X121105000Y-55625000D03*
%TD*%
%TO.C,Q2*%
X129725000Y-55725000D03*
X128455000Y-55725000D03*
X127185000Y-55725000D03*
X125915000Y-55725000D03*
X125915000Y-60675000D03*
X127185000Y-60675000D03*
X128455000Y-60675000D03*
X129725000Y-60675000D03*
%TD*%
D37*
%TO.C,D5*%
X143650000Y-50500000D03*
X141550000Y-50500000D03*
%TD*%
D38*
%TO.C,R8*%
X161650000Y-57425000D03*
X161650000Y-59075000D03*
%TD*%
D10*
%TO.C,R14*%
X152925000Y-69800000D03*
X151275000Y-69800000D03*
%TD*%
D39*
%TO.C,D10*%
X139850000Y-67450000D03*
X139850000Y-69550000D03*
%TD*%
D10*
%TO.C,R12*%
X152925000Y-68050000D03*
X151275000Y-68050000D03*
%TD*%
D40*
%TO.C,D4*%
X132150000Y-47550000D03*
X132150000Y-50850000D03*
%TD*%
D41*
%TO.C,C2*%
X140250000Y-41225000D03*
X140250000Y-38275000D03*
%TD*%
D42*
%TO.C,R16*%
X151250000Y-72400000D03*
X152900000Y-72400000D03*
%TD*%
D11*
%TO.C,R2*%
X144600000Y-47800000D03*
X144600000Y-46150000D03*
%TD*%
D43*
%TO.C,F1*%
X125750000Y-41637500D03*
X125750000Y-37362500D03*
%TD*%
D27*
%TO.C,D2*%
X130500000Y-41500000D03*
X130500000Y-37500000D03*
%TD*%
D38*
%TO.C,R7*%
X153150000Y-57425000D03*
X153150000Y-59075000D03*
%TD*%
D30*
%TO.C,C1*%
X143700000Y-37150000D03*
X143700000Y-35600000D03*
%TD*%
D44*
%TO.C,D8*%
X120400000Y-65500000D03*
X116400000Y-65500000D03*
%TD*%
D45*
%TO.C,U2*%
X129300000Y-46050000D03*
X127000000Y-46050000D03*
D46*
X127000000Y-52350000D03*
D45*
X124700000Y-46050000D03*
%TD*%
D11*
%TO.C,R13*%
X137600000Y-69450000D03*
X137600000Y-67800000D03*
%TD*%
D44*
%TO.C,D9*%
X130000000Y-65500000D03*
X126000000Y-65500000D03*
%TD*%
M02*
